0
SECTION
2
HEADER
0
ENDSEC
0
SECTION
2
TABLES
0
ENDSEC
0
SECTION
2
BLOCKS
0
ENDSEC
0
SECTION
2
ENTITIES
0
CIRCLE
8
0
62
1
370
-1
10
11.857207
20
8.400000
30
0.0
40
0.100000
0
CIRCLE
8
0
62
1
370
-1
10
11.857207
20
11.900000
30
0.0
40
0.100000
0
CIRCLE
8
0
62
1
370
-1
10
11.857207
20
15.400000
30
0.0
40
0.100000
0
CIRCLE
8
0
62
1
370
-1
10
11.857207
20
18.900000
30
0.0
40
0.100000
0
CIRCLE
8
0
62
1
370
-1
10
11.857207
20
22.400000
30
0.0
40
0.100000
0
CIRCLE
8
0
62
1
370
-1
10
11.857207
20
25.900000
30
0.0
40
0.100000
0
CIRCLE
8
0
62
1
370
-1
10
11.857207
20
29.400000
30
0.0
40
0.100000
0
CIRCLE
8
0
62
1
370
-1
10
14.204805
20
8.400000
30
0.0
40
0.100000
0
CIRCLE
8
0
62
1
370
-1
10
14.204805
20
11.900000
30
0.0
40
0.100000
0
CIRCLE
8
0
62
1
370
-1
10
14.204805
20
15.400000
30
0.0
40
0.100000
0
CIRCLE
8
0
62
1
370
-1
10
14.204805
20
18.900000
30
0.0
40
0.100000
0
CIRCLE
8
0
62
1
370
-1
10
14.204805
20
22.400000
30
0.0
40
0.100000
0
CIRCLE
8
0
62
1
370
-1
10
14.204805
20
25.900000
30
0.0
40
0.100000
0
CIRCLE
8
0
62
1
370
-1
10
14.204805
20
29.400000
30
0.0
40
0.100000
0
CIRCLE
8
0
62
1
370
-1
10
16.552402
20
8.400000
30
0.0
40
0.100000
0
CIRCLE
8
0
62
1
370
-1
10
16.552402
20
11.900000
30
0.0
40
0.100000
0
CIRCLE
8
0
62
1
370
-1
10
16.552402
20
15.400000
30
0.0
40
0.100000
0
CIRCLE
8
0
62
1
370
-1
10
16.552402
20
18.900000
30
0.0
40
0.100000
0
CIRCLE
8
0
62
1
370
-1
10
16.552402
20
22.400000
30
0.0
40
0.100000
0
CIRCLE
8
0
62
1
370
-1
10
16.552402
20
25.900000
30
0.0
40
0.100000
0
CIRCLE
8
0
62
1
370
-1
10
16.552402
20
29.400000
30
0.0
40
0.100000
0
CIRCLE
8
0
62
1
370
-1
10
18.900000
20
8.400000
30
0.0
40
0.100000
0
CIRCLE
8
0
62
1
370
-1
10
18.900000
20
11.900000
30
0.0
40
0.100000
0
CIRCLE
8
0
62
1
370
-1
10
18.900000
20
15.400000
30
0.0
40
0.100000
0
CIRCLE
8
0
62
1
370
-1
10
18.900000
20
18.900000
30
0.0
40
0.100000
0
CIRCLE
8
0
62
1
370
-1
10
18.900000
20
22.400000
30
0.0
40
0.100000
0
CIRCLE
8
0
62
1
370
-1
10
18.900000
20
25.900000
30
0.0
40
0.100000
0
CIRCLE
8
0
62
1
370
-1
10
18.900000
20
29.400000
30
0.0
40
0.100000
0
CIRCLE
8
0
62
1
370
-1
10
21.247598
20
8.400000
30
0.0
40
0.100000
0
CIRCLE
8
0
62
1
370
-1
10
21.247598
20
11.900000
30
0.0
40
0.100000
0
CIRCLE
8
0
62
1
370
-1
10
21.247598
20
15.400000
30
0.0
40
0.100000
0
CIRCLE
8
0
62
1
370
-1
10
21.247598
20
18.900000
30
0.0
40
0.100000
0
CIRCLE
8
0
62
1
370
-1
10
21.247598
20
22.400000
30
0.0
40
0.100000
0
CIRCLE
8
0
62
1
370
-1
10
21.247598
20
25.900000
30
0.0
40
0.100000
0
CIRCLE
8
0
62
1
370
-1
10
21.247598
20
29.400000
30
0.0
40
0.100000
0
CIRCLE
8
0
62
1
370
-1
10
23.595195
20
8.400000
30
0.0
40
0.100000
0
CIRCLE
8
0
62
1
370
-1
10
23.595195
20
11.900000
30
0.0
40
0.100000
0
CIRCLE
8
0
62
1
370
-1
10
23.595195
20
15.400000
30
0.0
40
0.100000
0
CIRCLE
8
0
62
1
370
-1
10
23.595195
20
18.900000
30
0.0
40
0.100000
0
CIRCLE
8
0
62
1
370
-1
10
23.595195
20
22.400000
30
0.0
40
0.100000
0
CIRCLE
8
0
62
1
370
-1
10
23.595195
20
25.900000
30
0.0
40
0.100000
0
CIRCLE
8
0
62
1
370
-1
10
23.595195
20
29.400000
30
0.0
40
0.100000
0
CIRCLE
8
0
62
1
370
-1
10
25.942793
20
8.400000
30
0.0
40
0.100000
0
CIRCLE
8
0
62
1
370
-1
10
25.942793
20
11.900000
30
0.0
40
0.100000
0
CIRCLE
8
0
62
1
370
-1
10
25.942793
20
15.400000
30
0.0
40
0.100000
0
CIRCLE
8
0
62
1
370
-1
10
25.942793
20
18.900000
30
0.0
40
0.100000
0
CIRCLE
8
0
62
1
370
-1
10
25.942793
20
22.400000
30
0.0
40
0.100000
0
CIRCLE
8
0
62
1
370
-1
10
25.942793
20
25.900000
30
0.0
40
0.100000
0
CIRCLE
8
0
62
1
370
-1
10
25.942793
20
29.400000
30
0.0
40
0.100000
0
LINE
8
0
62
7
370
-1
10
0.000000
20
0.000000
30
0.0
11
37.800000
21
0.000000
31
0.0
0
LINE
8
0
62
7
370
-1
10
37.800000
20
0.000000
30
0.0
11
37.800000
21
37.800000
31
0.0
0
LINE
8
0
62
7
370
-1
10
37.800000
20
37.800000
30
0.0
11
0.000000
21
37.800000
31
0.0
0
LINE
8
0
62
7
370
-1
10
0.000000
20
37.800000
30
0.0
11
0.000000
21
0.000000
31
0.0
0
ENDSEC
0
SECTION
2
OBJECTS
0
ENDSEC
0
ENDSEC
0
EOF
