ISO-10303-21;
HEADER;
FILE_DESCRIPTION (( 'STEP AP214' ),
    '1' );
FILE_NAME ('Base_fond_02 - LARGE.STEP',
    '2025-08-13T18:29:53',
    ( '' ),
    ( '' ),
    'SwSTEP 2.0',
    'SolidWorks 2024',
    '' );
FILE_SCHEMA (( 'AUTOMOTIVE_DESIGN' ));
ENDSEC;

DATA;
#1 = CARTESIAN_POINT ( 'NONE',  ( 0.000000000000000000, 0.000000000000000000, 0.000000000000000000 ) ) ;
#2 = DIRECTION ( 'NONE',  ( -1.000000000000000000, -2.787948443534153414E-16, 0.000000000000000000 ) ) ;
#3 = EDGE_LOOP ( 'NONE', ( #28, #963, #1175, #283 ) ) ;
#4 = CARTESIAN_POINT ( 'NONE',  ( 89.00000000000000000, -0.9999999999999861222, 17.16666667000000146 ) ) ;
#5 = ORIENTED_EDGE ( 'NONE', *, *, #600, .T. ) ;
#6 = EDGE_CURVE ( 'NONE', #1236, #399, #1246, .T. ) ;
#7 = LINE ( 'NONE', #420, #255 ) ;
#8 = CARTESIAN_POINT ( 'NONE',  ( 0.000000000000000000, 0.000000000000000000, 17.16666667000000146 ) ) ;
#9 = EDGE_LOOP ( 'NONE', ( #11, #340, #1099, #291 ) ) ;
#10 = PLANE ( 'NONE',  #584 ) ;
#11 = ORIENTED_EDGE ( 'NONE', *, *, #544, .T. ) ;
#12 = VECTOR ( 'NONE', #813, 1000.000000000000000 ) ;
#13 = LINE ( 'NONE', #233, #581 ) ;
#14 = CARTESIAN_POINT ( 'NONE',  ( 2.449293598294706907E-16, -1.000000000000000000, 17.16666667000000146 ) ) ;
#15 = DIRECTION ( 'NONE',  ( 1.000000000000000000, 2.449293598294706907E-16, 0.000000000000000000 ) ) ;
#16 = ADVANCED_FACE ( 'NONE', ( #458 ), #138, .F. ) ;
#17 = ADVANCED_FACE ( 'NONE', ( #448 ), #860, .F. ) ;
#18 = VERTEX_POINT ( 'NONE', #468 ) ;
#19 = FACE_OUTER_BOUND ( 'NONE', #470, .T. ) ;
#20 = ORIENTED_EDGE ( 'NONE', *, *, #1103, .F. ) ;
#21 = ORIENTED_EDGE ( 'NONE', *, *, #1163, .T. ) ;
#22 = CARTESIAN_POINT ( 'NONE',  ( 29.00000000000000000, -0.9999999999999928946, 17.16666667000000146 ) ) ;
#23 = DIRECTION ( 'NONE',  ( -0.000000000000000000, -0.000000000000000000, -1.000000000000000000 ) ) ;
#24 = CARTESIAN_POINT ( 'NONE',  ( 31.00000000000000355, 3.841173411091502100E-15, 17.16666667000000146 ) ) ;
#25 = VERTEX_POINT ( 'NONE', #758 ) ;
#26 = EDGE_CURVE ( 'NONE', #1054, #653, #1161, .T. ) ;
#27 = ORIENTED_EDGE ( 'NONE', *, *, #1252, .T. ) ;
#28 = ORIENTED_EDGE ( 'NONE', *, *, #218, .F. ) ;
#29 = DIRECTION ( 'NONE',  ( -0.000000000000000000, -0.000000000000000000, -1.000000000000000000 ) ) ;
#30 = ADVANCED_FACE ( 'NONE', ( #633 ), #868, .F. ) ;
#31 = DIRECTION ( 'NONE',  ( -0.000000000000000000, -0.000000000000000000, -1.000000000000000000 ) ) ;
#32 = PLANE ( 'NONE',  #1035 ) ;
#33 = ORIENTED_EDGE ( 'NONE', *, *, #688, .T. ) ;
#34 = LINE ( 'NONE', #543, #798 ) ;
#35 = ORIENTED_EDGE ( 'NONE', *, *, #785, .F. ) ;
#36 = VECTOR ( 'NONE', #1168, 1000.000000000000000 ) ;
#37 = CARTESIAN_POINT ( 'NONE',  ( 91.00000000000000000, 0.000000000000000000, 0.000000000000000000 ) ) ;
#38 = AXIS2_PLACEMENT_3D ( 'NONE', #921, #818, #1228 ) ;
#39 = ADVANCED_FACE ( 'NONE', ( #694 ), #991, .T. ) ;
#40 = VECTOR ( 'NONE', #315, 1000.000000000000000 ) ;
#41 = VECTOR ( 'NONE', #900, 1000.000000000000000 ) ;
#42 = AXIS2_PLACEMENT_3D ( 'NONE', #425, #523, #837 ) ;
#43 = CARTESIAN_POINT ( 'NONE',  ( 120.0000000000000142, 5.551115123125783964E-14, 17.16666667000000146 ) ) ;
#44 = LINE ( 'NONE', #873, #829 ) ;
#45 = ORIENTED_EDGE ( 'NONE', *, *, #1153, .F. ) ;
#46 = ORIENTED_EDGE ( 'NONE', *, *, #100, .T. ) ;
#47 = EDGE_LOOP ( 'NONE', ( #244, #5, #1286, #671 ) ) ;
#48 = LINE ( 'NONE', #755, #278 ) ;
#49 = DIRECTION ( 'NONE',  ( 1.000000000000000000, -3.386548452394465063E-17, 0.000000000000000000 ) ) ;
#50 = DIRECTION ( 'NONE',  ( -1.000000000000000000, -2.759065647576279673E-16, 0.000000000000000000 ) ) ;
#51 = ORIENTED_EDGE ( 'NONE', *, *, #1103, .T. ) ;
#52 = VERTEX_POINT ( 'NONE', #1086 ) ;
#53 = ORIENTED_EDGE ( 'NONE', *, *, #498, .F. ) ;
#54 = LINE ( 'NONE', #576, #986 ) ;
#55 = DIRECTION ( 'NONE',  ( -1.210205401168415844E-16, 1.000000000000000000, 0.000000000000000000 ) ) ;
#56 = DIRECTION ( 'NONE',  ( 2.449293598294706907E-16, -1.000000000000000000, 0.000000000000000000 ) ) ;
#57 = ADVANCED_FACE ( 'NONE', ( #793 ), #1192, .F. ) ;
#58 = FACE_OUTER_BOUND ( 'NONE', #488, .T. ) ;
#59 = ORIENTED_EDGE ( 'NONE', *, *, #908, .T. ) ;
#60 = DIRECTION ( 'NONE',  ( -0.000000000000000000, -0.000000000000000000, -1.000000000000000000 ) ) ;
#61 = LINE ( 'NONE', #362, #984 ) ;
#62 = VECTOR ( 'NONE', #784, 1000.000000000000000 ) ;
#63 = LINE ( 'NONE', #175, #1144 ) ;
#64 = CARTESIAN_POINT ( 'NONE',  ( 59.00000000000000000, 1.445083222993876957E-14, 0.000000000000000000 ) ) ;
#65 = EDGE_CURVE ( 'NONE', #1101, #1149, #592, .T. ) ;
#66 = EDGE_CURVE ( 'NONE', #341, #838, #493, .T. ) ;
#67 = VERTEX_POINT ( 'NONE', #487 ) ;
#68 = ORIENTED_EDGE ( 'NONE', *, *, #65, .T. ) ;
#69 = DIRECTION ( 'NONE',  ( 0.000000000000000000, 1.000000000000000000, -0.000000000000000000 ) ) ;
#70 = PLANE ( 'NONE',  #1082 ) ;
#71 = CARTESIAN_POINT ( 'NONE',  ( -2.787948443534108547E-16, 0.9999999999999833467, 17.16666667000000146 ) ) ;
#72 = EDGE_LOOP ( 'NONE', ( #964, #754, #629, #744 ) ) ;
#73 = EDGE_CURVE ( 'NONE', #1300, #360, #1298, .T. ) ;
#74 = DIRECTION ( 'NONE',  ( -0.000000000000000000, -0.000000000000000000, -1.000000000000000000 ) ) ;
#75 = FACE_OUTER_BOUND ( 'NONE', #1113, .T. ) ;
#76 = DIRECTION ( 'NONE',  ( -1.000000000000000000, 0.000000000000000000, 0.000000000000000000 ) ) ;
#77 = ORIENTED_EDGE ( 'NONE', *, *, #898, .F. ) ;
#78 = CARTESIAN_POINT ( 'NONE',  ( 61.00000000000000000, 29.00000000000000355, 17.16666667000000146 ) ) ;
#79 = EDGE_CURVE ( 'NONE', #178, #1281, #273, .T. ) ;
#80 = PRODUCT_DEFINITION_SHAPE ( 'NONE', 'NONE',  #993 ) ;
#81 = ADVANCED_FACE ( 'NONE', ( #788 ), #385, .F. ) ;
#82 = VECTOR ( 'NONE', #554, 1000.000000000000000 ) ;
#83 = PLANE ( 'NONE',  #903 ) ;
#84 = VECTOR ( 'NONE', #888, 1000.000000000000000 ) ;
#85 = VECTOR ( 'NONE', #364, 1000.000000000000000 ) ;
#86 = DIRECTION ( 'NONE',  ( 1.000000000000000000, 1.210205401168415597E-16, 0.000000000000000000 ) ) ;
#87 = VERTEX_POINT ( 'NONE', #800 ) ;
#88 = DIRECTION ( 'NONE',  ( 1.210205401168415844E-16, -1.000000000000000000, 0.000000000000000000 ) ) ;
#89 = ORIENTED_EDGE ( 'NONE', *, *, #274, .T. ) ;
#90 = ORIENTED_EDGE ( 'NONE', *, *, #467, .F. ) ;
#91 = DIRECTION ( 'NONE',  ( -0.000000000000000000, 0.000000000000000000, -1.000000000000000000 ) ) ;
#92 = APPLICATION_CONTEXT ( 'automotive_design' ) ;
#93 = ORIENTED_EDGE ( 'NONE', *, *, #977, .T. ) ;
#94 = ORIENTED_EDGE ( 'NONE', *, *, #540, .T. ) ;
#95 = PLANE ( 'NONE',  #477 ) ;
#96 = FACE_OUTER_BOUND ( 'NONE', #300, .T. ) ;
#97 = VECTOR ( 'NONE', #348, 1000.000000000000000 ) ;
#98 = ORIENTED_EDGE ( 'NONE', *, *, #365, .T. ) ;
#99 = DIRECTION ( 'NONE',  ( -0.000000000000000000, -0.000000000000000000, -1.000000000000000000 ) ) ;
#100 = EDGE_CURVE ( 'NONE', #734, #1165, #1197, .T. ) ;
#101 = AXIS2_PLACEMENT_3D ( 'NONE', #285, #384, #1080 ) ;
#102 = AXIS2_PLACEMENT_3D ( 'NONE', #250, #668, #1000 ) ;
#103 = ADVANCED_FACE ( 'NONE', ( #286 ), #579, .F. ) ;
#104 = VECTOR ( 'NONE', #1111, 1000.000000000000000 ) ;
#105 = VERTEX_POINT ( 'NONE', #1077 ) ;
#106 = DIRECTION ( 'NONE',  ( 1.000000000000000000, -3.386548452394465063E-17, 0.000000000000000000 ) ) ;
#107 = DIRECTION ( 'NONE',  ( -1.000000000000000000, -1.239088197126290817E-16, 0.000000000000000000 ) ) ;
#108 = FACE_BOUND ( 'NONE', #1056, .T. ) ;
#109 = ORIENTED_EDGE ( 'NONE', *, *, #263, .T. ) ;
#110 = DIRECTION ( 'NONE',  ( -1.000000000000000000, -1.239088197126291063E-16, 0.000000000000000000 ) ) ;
#111 = VERTEX_POINT ( 'NONE', #978 ) ;
#112 = EDGE_CURVE ( 'NONE', #357, #775, #1271, .T. ) ;
#113 = FACE_OUTER_BOUND ( 'NONE', #616, .T. ) ;
#114 = LINE ( 'NONE', #525, #1253 ) ;
#115 = EDGE_LOOP ( 'NONE', ( #553, #862, #313, #59 ) ) ;
#116 = CARTESIAN_POINT ( 'NONE',  ( 89.00000000000000000, 1.000000000000007994, 17.16666667000000146 ) ) ;
#117 = EDGE_LOOP ( 'NONE', ( #1007, #131, #1181, #1012 ) ) ;
#118 = EDGE_CURVE ( 'NONE', #52, #911, #890, .T. ) ;
#119 = EDGE_CURVE ( 'NONE', #386, #246, #771, .T. ) ;
#120 = CARTESIAN_POINT ( 'NONE',  ( 91.00000000000000000, 29.00000000000000355, 17.16666667000000146 ) ) ;
#121 = DIRECTION ( 'NONE',  ( -2.449293598294706907E-16, 1.000000000000000000, 0.000000000000000000 ) ) ;
#122 = EDGE_LOOP ( 'NONE', ( #642, #352, #1241, #906 ) ) ;
#123 = CARTESIAN_POINT ( 'NONE',  ( 0.000000000000000000, 1.000000000000000000, 17.16666667000000146 ) ) ;
#124 = ORIENTED_EDGE ( 'NONE', *, *, #865, .F. ) ;
#125 = VERTEX_POINT ( 'NONE', #1071 ) ;
#126 = AXIS2_PLACEMENT_3D ( 'NONE', #521, #213, #824 ) ;
#127 = VECTOR ( 'NONE', #1179, 1000.000000000000000 ) ;
#128 = DIRECTION ( 'NONE',  ( 2.449293598294706907E-16, -1.000000000000000000, 0.000000000000000000 ) ) ;
#129 = CARTESIAN_POINT ( 'NONE',  ( 120.0000000000000000, 30.00000000000001421, 17.16666667000000146 ) ) ;
#130 = FACE_BOUND ( 'NONE', #821, .T. ) ;
#131 = ORIENTED_EDGE ( 'NONE', *, *, #455, .F. ) ;
#132 = LINE ( 'NONE', #1072, #1120 ) ;
#133 = ORIENTED_EDGE ( 'NONE', *, *, #898, .T. ) ;
#134 = EDGE_LOOP ( 'NONE', ( #337, #1105, #89, #568 ) ) ;
#135 = DIRECTION ( 'NONE',  ( 1.000000000000000000, 1.239088197126291063E-16, 0.000000000000000000 ) ) ;
#136 = LINE ( 'NONE', #1134, #97 ) ;
#137 = LINE ( 'NONE', #363, #960 ) ;
#138 = PLANE ( 'NONE',  #1170 ) ;
#139 = DIRECTION ( 'NONE',  ( -1.000000000000000000, 2.507059190210456853E-16, 0.000000000000000000 ) ) ;
#140 = VERTEX_POINT ( 'NONE', #162 ) ;
#141 = EDGE_LOOP ( 'NONE', ( #767, #299, #393, #645 ) ) ;
#142 = SURFACE_STYLE_USAGE ( .BOTH. , #1150 ) ;
#143 = CARTESIAN_POINT ( 'NONE',  ( 2.759065647576284111E-16, -1.000000000000001776, 0.000000000000000000 ) ) ;
#144 = CARTESIAN_POINT ( 'NONE',  ( 1.000000000000003775, 1.210205401168420035E-16, 0.000000000000000000 ) ) ;
#145 = ORIENTED_EDGE ( 'NONE', *, *, #588, .F. ) ;
#146 = CARTESIAN_POINT ( 'NONE',  ( 59.00000000000000000, 1.000000000000000000, 17.16666667000000146 ) ) ;
#147 = VERTEX_POINT ( 'NONE', #573 ) ;
#148 = ORIENTED_EDGE ( 'NONE', *, *, #243, .T. ) ;
#149 = CARTESIAN_POINT ( 'NONE',  ( -3.593355771666242704E-15, 28.99999999999999289, 17.16666667000000146 ) ) ;
#150 = VECTOR ( 'NONE', #56, 1000.000000000000000 ) ;
#151 = AXIS2_PLACEMENT_3D ( 'NONE', #979, #139, #358 ) ;
#152 = LINE ( 'NONE', #464, #1098 ) ;
#153 = LINE ( 'NONE', #144, #422 ) ;
#154 = ORIENTED_EDGE ( 'NONE', *, *, #308, .F. ) ;
#155 = VERTEX_POINT ( 'NONE', #985 ) ;
#156 = ORIENTED_EDGE ( 'NONE', *, *, #168, .F. ) ;
#157 = UNCERTAINTY_MEASURE_WITH_UNIT (LENGTH_MEASURE( 1.000000000000000082E-05 ), #664, 'distance_accuracy_value', 'NONE');
#158 = CARTESIAN_POINT ( 'NONE',  ( 7.102951435054651215E-15, -29.00000000000000355, 17.16666667000000146 ) ) ;
#159 = ADVANCED_FACE ( 'NONE', ( #58 ), #474, .F. ) ;
#160 = LINE ( 'NONE', #374, #723 ) ;
#161 = PLANE ( 'NONE',  #295 ) ;
#162 = CARTESIAN_POINT ( 'NONE',  ( 1.000000000000003775, -0.9999999999999997780, 17.16666667000000146 ) ) ;
#163 = EDGE_LOOP ( 'NONE', ( #608, #869, #677, #1239 ) ) ;
#164 = CARTESIAN_POINT ( 'NONE',  ( 29.00000000000000000, 7.102951435054649637E-15, 0.000000000000000000 ) ) ;
#165 = EDGE_CURVE ( 'NONE', #1138, #1101, #780, .T. ) ;
#166 = DIRECTION ( 'NONE',  ( -0.000000000000000000, -0.000000000000000000, -1.000000000000000000 ) ) ;
#167 = FACE_OUTER_BOUND ( 'NONE', #163, .T. ) ;
#168 = EDGE_CURVE ( 'NONE', #661, #704, #1285, .T. ) ;
#169 = ADVANCED_FACE ( 'NONE', ( #1009 ), #398, .F. ) ;
#170 = DIRECTION ( 'NONE',  ( 1.239088197126291063E-16, -1.000000000000000000, 0.000000000000000000 ) ) ;
#171 = ORIENTED_EDGE ( 'NONE', *, *, #292, .T. ) ;
#172 = CARTESIAN_POINT ( 'NONE',  ( 3.509595663388404567E-15, -28.99999999999999289, 17.16666667000000146 ) ) ;
#173 = VECTOR ( 'NONE', #266, 1000.000000000000000 ) ;
#174 = VECTOR ( 'NONE', #867, 1000.000000000000000 ) ;
#175 = CARTESIAN_POINT ( 'NONE',  ( 0.000000000000000000, 30.00000000000000000, 17.16666667000000146 ) ) ;
#176 = DIRECTION ( 'NONE',  ( 1.000000000000000000, 0.000000000000000000, 0.000000000000000000 ) ) ;
#177 = ADVANCED_FACE ( 'NONE', ( #625 ), #1019, .F. ) ;
#178 = VERTEX_POINT ( 'NONE', #920 ) ;
#179 = DIRECTION ( 'NONE',  ( -1.000000000000000000, -1.239088197126291063E-16, 0.000000000000000000 ) ) ;
#180 = FACE_OUTER_BOUND ( 'NONE', #326, .T. ) ;
#181 = DIRECTION ( 'NONE',  ( 4.956352788505164254E-16, -1.000000000000000000, 0.000000000000000000 ) ) ;
#182 = ORIENTED_EDGE ( 'NONE', *, *, #401, .F. ) ;
#183 = LINE ( 'NONE', #172, #84 ) ;
#184 = CARTESIAN_POINT ( 'NONE',  ( 91.00000000000000000, 2.228857174448183167E-14, 17.16666667000000146 ) ) ;
#185 = CARTESIAN_POINT ( 'NONE',  ( 119.0000000000000142, 5.898059818321145383E-14, 17.16666667000000146 ) ) ;
#186 = ORIENTED_EDGE ( 'NONE', *, *, #1242, .T. ) ;
#187 = DIRECTION ( 'NONE',  ( -1.000000000000000000, 0.000000000000000000, 0.000000000000000000 ) ) ;
#188 = VECTOR ( 'NONE', #166, 1000.000000000000000 ) ;
#189 = AXIS2_PLACEMENT_3D ( 'NONE', #394, #1182, #1084 ) ;
#190 = CARTESIAN_POINT ( 'NONE',  ( -3.386548452394428701E-17, -0.9999999999999833467, 17.16666667000000146 ) ) ;
#191 = ORIENTED_EDGE ( 'NONE', *, *, #603, .T. ) ;
#192 = EDGE_CURVE ( 'NONE', #111, #1023, #612, .T. ) ;
#193 = LINE ( 'NONE', #926, #1059 ) ;
#194 = VERTEX_POINT ( 'NONE', #1013 ) ;
#195 = ORIENTED_EDGE ( 'NONE', *, *, #1014, .T. ) ;
#196 = DIRECTION ( 'NONE',  ( -0.000000000000000000, -0.000000000000000000, -1.000000000000000000 ) ) ;
#197 = FACE_OUTER_BOUND ( 'NONE', #231, .T. ) ;
#198 = EDGE_CURVE ( 'NONE', #734, #1249, #910, .T. ) ;
#199 = LINE ( 'NONE', #1115, #705 ) ;
#200 = ORIENTED_EDGE ( 'NONE', *, *, #588, .T. ) ;
#201 = FACE_OUTER_BOUND ( 'NONE', #696, .T. ) ;
#202 = ORIENTED_EDGE ( 'NONE', *, *, #1229, .T. ) ;
#203 = CARTESIAN_POINT ( 'NONE',  ( -3.593355771666242704E-15, 28.99999999999999289, 0.000000000000000000 ) ) ;
#204 = VECTOR ( 'NONE', #354, 1000.000000000000000 ) ;
#205 = CARTESIAN_POINT ( 'NONE',  ( 2.449293598294706907E-16, -1.000000000000000000, 0.000000000000000000 ) ) ;
#206 = VECTOR ( 'NONE', #74, 1000.000000000000000 ) ;
#207 = ADVANCED_FACE ( 'NONE', ( #113 ), #712, .F. ) ;
#208 = ORIENTED_EDGE ( 'NONE', *, *, #552, .F. ) ;
#209 = CARTESIAN_POINT ( 'NONE',  ( 61.00000000000000711, 1.000000000000000222, 0.000000000000000000 ) ) ;
#210 = VECTOR ( 'NONE', #170, 1000.000000000000000 ) ;
#211 = LINE ( 'NONE', #1238, #532 ) ;
#212 = CARTESIAN_POINT ( 'NONE',  ( 1.000000000000000000, 28.99999999999999289, 17.16666667000000146 ) ) ;
#213 = DIRECTION ( 'NONE',  ( -0.000000000000000000, 0.000000000000000000, 1.000000000000000000 ) ) ;
#214 = VERTEX_POINT ( 'NONE', #405 ) ;
#215 = LINE ( 'NONE', #223, #406 ) ;
#216 = VERTEX_POINT ( 'NONE', #1108 ) ;
#217 = ADVANCED_FACE ( 'NONE', ( #619 ), #1097, .T. ) ;
#218 = EDGE_CURVE ( 'NONE', #360, #526, #193, .T. ) ;
#219 = ADVANCED_FACE ( 'NONE', ( #1104 ), #1210, .F. ) ;
#220 = DIRECTION ( 'NONE',  ( 1.000000000000000000, -3.386548452394484168E-17, 0.000000000000000000 ) ) ;
#221 = CARTESIAN_POINT ( 'NONE',  ( 89.00000000000000000, 2.179871302482289108E-14, 0.000000000000000000 ) ) ;
#222 = DIRECTION ( 'NONE',  ( -1.000000000000000000, -1.239088197126291063E-16, 0.000000000000000000 ) ) ;
#223 = CARTESIAN_POINT ( 'NONE',  ( 3.097720492815732589E-17, 1.000000000000001776, 17.16666667000000146 ) ) ;
#224 = ORIENTED_EDGE ( 'NONE', *, *, #443, .F. ) ;
#225 = LINE ( 'NONE', #538, #512 ) ;
#226 = CARTESIAN_POINT ( 'NONE',  ( 120.0000000000000142, -29.99999999999998579, 17.16666667000000146 ) ) ;
#227 = ORIENTED_EDGE ( 'NONE', *, *, #637, .T. ) ;
#228 = PLANE ( 'NONE',  #1063 ) ;
#229 = VECTOR ( 'NONE', #848, 1000.000000000000000 ) ;
#230 = ORIENTED_EDGE ( 'NONE', *, *, #679, .T. ) ;
#231 = EDGE_LOOP ( 'NONE', ( #593, #710, #412, #843 ) ) ;
#232 = VECTOR ( 'NONE', #196, 1000.000000000000000 ) ;
#233 = CARTESIAN_POINT ( 'NONE',  ( 61.00000000000000711, 1.000000000000000222, 17.16666667000000146 ) ) ;
#234 = LINE ( 'NONE', #143, #1189 ) ;
#235 = LINE ( 'NONE', #349, #150 ) ;
#236 = CARTESIAN_POINT ( 'NONE',  ( 119.0000000000000142, -2.983400436350443808E-14, 0.000000000000000000 ) ) ;
#237 = ORIENTED_EDGE ( 'NONE', *, *, #1118, .T. ) ;
#238 = VERTEX_POINT ( 'NONE', #810 ) ;
#239 = CARTESIAN_POINT ( 'NONE',  ( 59.00000000000000000, 1.000000000000000000, 0.000000000000000000 ) ) ;
#240 = PLANE ( 'NONE',  #1001 ) ;
#241 = PLANE ( 'NONE',  #1297 ) ;
#242 = ADVANCED_FACE ( 'NONE', ( #823 ), #395, .F. ) ;
#243 = EDGE_CURVE ( 'NONE', #1249, #1259, #726, .T. ) ;
#244 = ORIENTED_EDGE ( 'NONE', *, *, #409, .T. ) ;
#245 = DIRECTION ( 'NONE',  ( -0.000000000000000000, -0.000000000000000000, -1.000000000000000000 ) ) ;
#246 = VERTEX_POINT ( 'NONE', #415 ) ;
#247 = ORIENTED_EDGE ( 'NONE', *, *, #301, .T. ) ;
#248 = LINE ( 'NONE', #328, #599 ) ;
#249 = CARTESIAN_POINT ( 'NONE',  ( 91.00000000000000000, 1.000000000000007550, 0.000000000000000000 ) ) ;
#250 = CARTESIAN_POINT ( 'NONE',  ( 0.000000000000000000, 0.000000000000000000, 0.000000000000000000 ) ) ;
#251 = CARTESIAN_POINT ( 'NONE',  ( 119.0000000000000142, 1.000000000000015321, 17.16666667000000146 ) ) ;
#252 = EDGE_CURVE ( 'NONE', #1281, #1236, #304, .T. ) ;
#253 = ORIENTED_EDGE ( 'NONE', *, *, #1287, .T. ) ;
#254 = ORIENTED_EDGE ( 'NONE', *, *, #636, .T. ) ;
#255 = VECTOR ( 'NONE', #220, 1000.000000000000000 ) ;
#256 = DIRECTION ( 'NONE',  ( 0.000000000000000000, 1.000000000000000000, -0.000000000000000000 ) ) ;
#257 = AXIS2_PLACEMENT_3D ( 'NONE', #939, #329, #2 ) ;
#258 = AXIS2_PLACEMENT_3D ( 'NONE', #882, #1279, #376 ) ;
#259 = CARTESIAN_POINT ( 'NONE',  ( 119.0000000000000142, -2.983400436350443808E-14, 17.16666667000000146 ) ) ;
#260 = DIRECTION ( 'NONE',  ( -1.000000000000000000, 0.000000000000000000, 0.000000000000000000 ) ) ;
#261 = DIRECTION ( 'NONE',  ( 4.956352788505164254E-16, -1.000000000000000000, 0.000000000000000000 ) ) ;
#262 = APPLICATION_PROTOCOL_DEFINITION ( 'draft international standard', 'automotive_design', 1998, #92 ) ;
#263 = EDGE_CURVE ( 'NONE', #111, #52, #1147, .T. ) ;
#264 = LINE ( 'NONE', #1074, #206 ) ;
#265 = ADVANCED_FACE ( 'NONE', ( #197 ), #95, .T. ) ;
#266 = DIRECTION ( 'NONE',  ( -2.478176394252581141E-16, 1.000000000000000000, 0.000000000000000000 ) ) ;
#267 = DIRECTION ( 'NONE',  ( -1.000000000000000000, 0.000000000000000000, 0.000000000000000000 ) ) ;
#268 = DIRECTION ( 'NONE',  ( 1.000000000000000000, 1.239088197126291063E-16, 0.000000000000000000 ) ) ;
#269 = FACE_OUTER_BOUND ( 'NONE', #407, .T. ) ;
#270 = VERTEX_POINT ( 'NONE', #1216 ) ;
#271 = CARTESIAN_POINT ( 'NONE',  ( 119.0000000000000142, -28.99999999999998224, 17.16666667000000146 ) ) ;
#272 = PLANE ( 'NONE',  #101 ) ;
#273 = LINE ( 'NONE', #392, #725 ) ;
#274 = EDGE_CURVE ( 'NONE', #997, #1023, #1114, .T. ) ;
#275 = ORIENTED_EDGE ( 'NONE', *, *, #466, .F. ) ;
#276 = UNCERTAINTY_MEASURE_WITH_UNIT (LENGTH_MEASURE( 1.000000000000000082E-05 ), #683, 'distance_accuracy_value', 'NONE');
#277 = DIRECTION ( 'NONE',  ( -0.000000000000000000, -0.000000000000000000, -1.000000000000000000 ) ) ;
#278 = VECTOR ( 'NONE', #128, 1000.000000000000000 ) ;
#279 = VECTOR ( 'NONE', #181, 1000.000000000000000 ) ;
#280 = DIRECTION ( 'NONE',  ( 1.000000000000000000, 0.000000000000000000, 0.000000000000000000 ) ) ;
#281 = CARTESIAN_POINT ( 'NONE',  ( 0.000000000000000000, 0.000000000000000000, 0.000000000000000000 ) ) ;
#282 = EDGE_CURVE ( 'NONE', #67, #1136, #520, .T. ) ;
#283 = ORIENTED_EDGE ( 'NONE', *, *, #1304, .T. ) ;
#284 = DIRECTION ( 'NONE',  ( 0.000000000000000000, -1.000000000000000000, 0.000000000000000000 ) ) ;
#285 = CARTESIAN_POINT ( 'NONE',  ( 2.449293598294706907E-16, -1.000000000000000000, 17.16666667000000146 ) ) ;
#286 = FACE_OUTER_BOUND ( 'NONE', #440, .T. ) ;
#287 = PRODUCT ( 'Base_fond_02 - LARGE', 'Base_fond_02 - LARGE', '', ( #883 ) ) ;
#288 = ORIENTED_EDGE ( 'NONE', *, *, #528, .T. ) ;
#289 = DIRECTION ( 'NONE',  ( -1.000000000000000000, -1.210205401168416090E-16, 0.000000000000000000 ) ) ;
#290 = DIRECTION ( 'NONE',  ( -0.000000000000000000, 0.000000000000000000, -1.000000000000000000 ) ) ;
#291 = ORIENTED_EDGE ( 'NONE', *, *, #308, .T. ) ;
#292 = EDGE_CURVE ( 'NONE', #845, #306, #1127, .T. ) ;
#293 = ORIENTED_EDGE ( 'NONE', *, *, #1014, .F. ) ;
#294 = VECTOR ( 'NONE', #1037, 1000.000000000000000 ) ;
#295 = AXIS2_PLACEMENT_3D ( 'NONE', #549, #1256, #336 ) ;
#296 = AXIS2_PLACEMENT_3D ( 'NONE', #1, #290, #1024 ) ;
#297 = CARTESIAN_POINT ( 'NONE',  ( 3.509595663388404567E-15, -28.99999999999999289, 0.000000000000000000 ) ) ;
#298 = LINE ( 'NONE', #1092, #404 ) ;
#299 = ORIENTED_EDGE ( 'NONE', *, *, #504, .F. ) ;
#300 = EDGE_LOOP ( 'NONE', ( #156, #589, #171, #545 ) ) ;
#301 = EDGE_CURVE ( 'NONE', #911, #378, #225, .T. ) ;
#302 = EDGE_CURVE ( 'NONE', #475, #804, #841, .T. ) ;
#303 = DIRECTION ( 'NONE',  ( -1.000000000000000000, 0.000000000000000000, 0.000000000000000000 ) ) ;
#304 = LINE ( 'NONE', #297, #856 ) ;
#305 = CARTESIAN_POINT ( 'NONE',  ( 29.00000000000000000, 0.000000000000000000, 17.16666667000000146 ) ) ;
#306 = VERTEX_POINT ( 'NONE', #129 ) ;
#307 = PLANE ( 'NONE',  #1172 ) ;
#308 = EDGE_CURVE ( 'NONE', #1138, #25, #732, .T. ) ;
#309 = DIRECTION ( 'NONE',  ( 1.000000000000000000, 1.210205401168415844E-16, 0.000000000000000000 ) ) ;
#310 = DIRECTION ( 'NONE',  ( -1.000000000000000000, 0.000000000000000000, 0.000000000000000000 ) ) ;
#311 = EDGE_LOOP ( 'NONE', ( #971, #1185, #850, #1116 ) ) ;
#312 = CARTESIAN_POINT ( 'NONE',  ( 91.00000000000001421, -28.99999999999998579, 0.000000000000000000 ) ) ;
#313 = ORIENTED_EDGE ( 'NONE', *, *, #886, .T. ) ;
#314 = CARTESIAN_POINT ( 'NONE',  ( 120.0000000000000142, 5.551115123125783964E-14, 17.16666667000000146 ) ) ;
#315 = DIRECTION ( 'NONE',  ( -2.449293598294706907E-16, 1.000000000000000000, 0.000000000000000000 ) ) ;
#316 = VECTOR ( 'NONE', #69, 1000.000000000000000 ) ;
#317 = EDGE_LOOP ( 'NONE', ( #987, #980, #109, #33 ) ) ;
#318 = CARTESIAN_POINT ( 'NONE',  ( 31.00000000000000355, 3.841173411091502100E-15, 17.16666667000000146 ) ) ;
#319 = CARTESIAN_POINT ( 'NONE',  ( 89.00000000000000000, -0.9999999999999861222, 0.000000000000000000 ) ) ;
#320 = VECTOR ( 'NONE', #99, 1000.000000000000000 ) ;
#321 = AXIS2_PLACEMENT_3D ( 'NONE', #597, #500, #86 ) ;
#322 = PLANE ( 'NONE',  #667 ) ;
#323 = DIRECTION ( 'NONE',  ( 0.000000000000000000, 1.000000000000000000, -0.000000000000000000 ) ) ;
#324 = CARTESIAN_POINT ( 'NONE',  ( 119.0000000000000142, 5.898059818321145383E-14, 17.16666667000000146 ) ) ;
#325 = LINE ( 'NONE', #730, #320 ) ;
#326 = EDGE_LOOP ( 'NONE', ( #1065, #836, #330, #288 ) ) ;
#327 = DIRECTION ( 'NONE',  ( 1.000000000000000000, 2.449293598294706907E-16, 0.000000000000000000 ) ) ;
#328 = CARTESIAN_POINT ( 'NONE',  ( 31.00000000000000000, 28.99999999999999645, 17.16666667000000146 ) ) ;
#329 = DIRECTION ( 'NONE',  ( -2.787948443534153414E-16, 1.000000000000000000, 0.000000000000000000 ) ) ;
#330 = ORIENTED_EDGE ( 'NONE', *, *, #489, .F. ) ;
#331 = DIRECTION ( 'NONE',  ( -0.000000000000000000, -0.000000000000000000, -1.000000000000000000 ) ) ;
#332 = VERTEX_POINT ( 'NONE', #945 ) ;
#333 = ORIENTED_EDGE ( 'NONE', *, *, #346, .F. ) ;
#334 =( NAMED_UNIT ( * ) PLANE_ANGLE_UNIT ( ) SI_UNIT ( $, .RADIAN. ) );
#335 = CARTESIAN_POINT ( 'NONE',  ( 59.00000000000000000, -0.9999999999999854561, 0.000000000000000000 ) ) ;
#336 = DIRECTION ( 'NONE',  ( -2.449293598294706907E-16, 1.000000000000000000, 0.000000000000000000 ) ) ;
#337 = ORIENTED_EDGE ( 'NONE', *, *, #443, .T. ) ;
#338 = SHAPE_DEFINITION_REPRESENTATION ( #80, #655 ) ;
#339 = VECTOR ( 'NONE', #965, 1000.000000000000000 ) ;
#340 = ORIENTED_EDGE ( 'NONE', *, *, #737, .F. ) ;
#341 = VERTEX_POINT ( 'NONE', #335 ) ;
#342 = VECTOR ( 'NONE', #799, 1000.000000000000000 ) ;
#343 = AXIS2_PLACEMENT_3D ( 'NONE', #324, #1257, #350 ) ;
#344 = AXIS2_PLACEMENT_3D ( 'NONE', #899, #698, #687 ) ;
#345 = DIRECTION ( 'NONE',  ( 1.239088197126290817E-16, -1.000000000000000000, 0.000000000000000000 ) ) ;
#346 = EDGE_CURVE ( 'NONE', #332, #341, #234, .T. ) ;
#347 = EDGE_CURVE ( 'NONE', #1041, #357, #866, .T. ) ;
#348 = DIRECTION ( 'NONE',  ( 0.000000000000000000, 1.000000000000000000, -0.000000000000000000 ) ) ;
#349 = CARTESIAN_POINT ( 'NONE',  ( 91.00000000000000000, 2.228857174448183167E-14, 0.000000000000000000 ) ) ;
#350 = DIRECTION ( 'NONE',  ( -4.956352788505164254E-16, 1.000000000000000000, 0.000000000000000000 ) ) ;
#351 = ORIENTED_EDGE ( 'NONE', *, *, #282, .T. ) ;
#352 = ORIENTED_EDGE ( 'NONE', *, *, #1229, .F. ) ;
#353 = LINE ( 'NONE', #847, #389 ) ;
#354 = DIRECTION ( 'NONE',  ( -0.000000000000000000, 1.000000000000000000, -0.000000000000000000 ) ) ;
#355 = LINE ( 'NONE', #1146, #174 ) ;
#356 = EDGE_CURVE ( 'NONE', #140, #105, #648, .T. ) ;
#357 = VERTEX_POINT ( 'NONE', #1234 ) ;
#358 = DIRECTION ( 'NONE',  ( -2.507059190210456853E-16, -1.000000000000000000, 0.000000000000000000 ) ) ;
#359 = ORIENTED_EDGE ( 'NONE', *, *, #886, .F. ) ;
#360 = VERTEX_POINT ( 'NONE', #1060 ) ;
#361 = DIRECTION ( 'NONE',  ( -0.000000000000000000, -0.000000000000000000, -1.000000000000000000 ) ) ;
#362 = CARTESIAN_POINT ( 'NONE',  ( 3.509595663388405356E-15, -28.99999999999999289, 0.000000000000000000 ) ) ;
#363 = CARTESIAN_POINT ( 'NONE',  ( 91.00000000000000000, 2.228857174448183167E-14, 17.16666667000000146 ) ) ;
#364 = DIRECTION ( 'NONE',  ( -1.210205401168415844E-16, 1.000000000000000000, 0.000000000000000000 ) ) ;
#365 = EDGE_CURVE ( 'NONE', #875, #360, #951, .T. ) ;
#366 = EDGE_CURVE ( 'NONE', #653, #1300, #248, .T. ) ;
#367 = EDGE_CURVE ( 'NONE', #1164, #1054, #136, .T. ) ;
#368 = EDGE_LOOP ( 'NONE', ( #351, #670, #1131, #186 ) ) ;
#369 = VECTOR ( 'NONE', #1151, 1000.000000000000000 ) ;
#370 = LINE ( 'NONE', #989, #316 ) ;
#371 = VECTOR ( 'NONE', #179, 1000.000000000000000 ) ;
#372 = VECTOR ( 'NONE', #1307, 1000.000000000000000 ) ;
#373 = AXIS2_PLACEMENT_3D ( 'NONE', #851, #1266, #1247 ) ;
#374 = CARTESIAN_POINT ( 'NONE',  ( -0.000000000000000000, 1.000000000000000000, 0.000000000000000000 ) ) ;
#375 = FACE_OUTER_BOUND ( 'NONE', #825, .T. ) ;
#376 = DIRECTION ( 'NONE',  ( -1.000000000000000000, 0.000000000000000000, 0.000000000000000000 ) ) ;
#377 = CARTESIAN_POINT ( 'NONE',  ( 91.00000000000000000, 1.000000000000007550, 17.16666667000000146 ) ) ;
#378 = VERTEX_POINT ( 'NONE', #665 ) ;
#379 = LINE ( 'NONE', #697, #559 ) ;
#380 = LINE ( 'NONE', #792, #858 ) ;
#381 = DIRECTION ( 'NONE',  ( -1.000000000000000000, -2.787948443534155386E-16, 0.000000000000000000 ) ) ;
#382 = ORIENTED_EDGE ( 'NONE', *, *, #544, .F. ) ;
#383 = CARTESIAN_POINT ( 'NONE',  ( 31.00000000000000355, -0.9999999999999933387, 17.16666667000000146 ) ) ;
#384 = DIRECTION ( 'NONE',  ( -2.449293598294706907E-16, 1.000000000000000000, 0.000000000000000000 ) ) ;
#385 = PLANE ( 'NONE',  #321 ) ;
#386 = VERTEX_POINT ( 'NONE', #740 ) ;
#387 = CARTESIAN_POINT ( 'NONE',  ( 1.000000000000007105, -28.99999999999999289, 17.16666667000000146 ) ) ;
#388 = PRESENTATION_LAYER_ASSIGNMENT (  '', '', ( #1191 ) ) ;
#389 = VECTOR ( 'NONE', #746, 1000.000000000000000 ) ;
#390 = EDGE_CURVE ( 'NONE', #306, #402, #548, .T. ) ;
#391 = DIRECTION ( 'NONE',  ( 2.478176394252580648E-16, -1.000000000000000000, 0.000000000000000000 ) ) ;
#392 = CARTESIAN_POINT ( 'NONE',  ( 91.00000000000001421, -28.99999999999998579, 17.16666667000000146 ) ) ;
#393 = ORIENTED_EDGE ( 'NONE', *, *, #26, .T. ) ;
#394 = CARTESIAN_POINT ( 'NONE',  ( 1.000000000000003775, 1.239088197126295747E-16, 17.16666667000000146 ) ) ;
#395 = PLANE ( 'NONE',  #639 ) ;
#396 = ADVANCED_FACE ( 'NONE', ( #437 ), #322, .F. ) ;
#397 = ORIENTED_EDGE ( 'NONE', *, *, #79, .T. ) ;
#398 = PLANE ( 'NONE',  #423 ) ;
#399 = VERTEX_POINT ( 'NONE', #832 ) ;
#400 = EDGE_CURVE ( 'NONE', #838, #546, #524, .T. ) ;
#401 = EDGE_CURVE ( 'NONE', #896, #807, #7, .T. ) ;
#402 = VERTEX_POINT ( 'NONE', #1244 ) ;
#403 = VECTOR ( 'NONE', #361, 1000.000000000000000 ) ;
#404 = VECTOR ( 'NONE', #708, 1000.000000000000000 ) ;
#405 = CARTESIAN_POINT ( 'NONE',  ( 119.0000000000000142, -0.9999999999999863443, 17.16666667000000146 ) ) ;
#406 = VECTOR ( 'NONE', #623, 1000.000000000000000 ) ;
#407 = EDGE_LOOP ( 'NONE', ( #460, #1033, #915, #716 ) ) ;
#408 = LINE ( 'NONE', #929, #12 ) ;
#409 = EDGE_CURVE ( 'NONE', #775, #1292, #756, .T. ) ;
#410 = DIRECTION ( 'NONE',  ( -1.210205401168415597E-16, 1.000000000000000000, 0.000000000000000000 ) ) ;
#411 = PLANE ( 'NONE',  #257 ) ;
#412 = ORIENTED_EDGE ( 'NONE', *, *, #604, .T. ) ;
#413 = CARTESIAN_POINT ( 'NONE',  ( 89.00000000000000000, 1.000000000000007994, 17.16666667000000146 ) ) ;
#414 = ORIENTED_EDGE ( 'NONE', *, *, #652, .F. ) ;
#415 = CARTESIAN_POINT ( 'NONE',  ( 119.0000000000000142, 1.000000000000015321, 0.000000000000000000 ) ) ;
#416 = PLANE ( 'NONE',  #38 ) ;
#417 = VERTEX_POINT ( 'NONE', #1227 ) ;
#418 = LINE ( 'NONE', #4, #919 ) ;
#419 = AXIS2_PLACEMENT_3D ( 'NONE', #609, #88, #1303 ) ;
#420 = CARTESIAN_POINT ( 'NONE',  ( -3.386548452394428701E-17, -0.9999999999999833467, 0.000000000000000000 ) ) ;
#421 = LINE ( 'NONE', #221, #40 ) ;
#422 = VECTOR ( 'NONE', #1070, 1000.000000000000000 ) ;
#423 = AXIS2_PLACEMENT_3D ( 'NONE', #1122, #91, #1201 ) ;
#424 = ORIENTED_EDGE ( 'NONE', *, *, #401, .T. ) ;
#425 = CARTESIAN_POINT ( 'NONE',  ( 61.00000000000000711, -1.761850553430331939E-16, 17.16666667000000146 ) ) ;
#426 = VECTOR ( 'NONE', #1188, 1000.000000000000000 ) ;
#427 = ORIENTED_EDGE ( 'NONE', *, *, #1055, .F. ) ;
#428 = LINE ( 'NONE', #864, #916 ) ;
#429 = DIRECTION ( 'NONE',  ( -4.625929269271485914E-16, 1.000000000000000000, 0.000000000000000000 ) ) ;
#430 = DIRECTION ( 'NONE',  ( 1.000000000000000000, 1.156482317317871478E-16, 0.000000000000000000 ) ) ;
#431 = ADVANCED_FACE ( 'NONE', ( #631 ), #240, .F. ) ;
#432 = EDGE_LOOP ( 'NONE', ( #760, #154, #414, #253 ) ) ;
#433 = CARTESIAN_POINT ( 'NONE',  ( -3.469446951953614189E-15, 30.00000000000000000, 17.16666667000000146 ) ) ;
#434 = EDGE_LOOP ( 'NONE', ( #1148, #77, #1212, #53 ) ) ;
#435 = EDGE_LOOP ( 'NONE', ( #812, #690, #565, #1049 ) ) ;
#436 = DIRECTION ( 'NONE',  ( 1.000000000000000000, 1.239088197126290817E-16, 0.000000000000000000 ) ) ;
#437 = FACE_OUTER_BOUND ( 'NONE', #368, .T. ) ;
#438 = DIRECTION ( 'NONE',  ( 1.000000000000000000, 1.239088197126291063E-16, -0.000000000000000000 ) ) ;
#439 = VERTEX_POINT ( 'NONE', #577 ) ;
#440 = EDGE_LOOP ( 'NONE', ( #51, #827, #1110, #46 ) ) ;
#441 = EDGE_CURVE ( 'NONE', #1017, #896, #769, .T. ) ;
#442 = ORIENTED_EDGE ( 'NONE', *, *, #274, .F. ) ;
#443 = EDGE_CURVE ( 'NONE', #125, #378, #160, .T. ) ;
#444 = DIRECTION ( 'NONE',  ( 1.000000000000000000, 1.292811280976835429E-16, 0.000000000000000000 ) ) ;
#445 = CARTESIAN_POINT ( 'NONE',  ( 89.00000000000000000, 0.000000000000000000, 17.16666667000000146 ) ) ;
#446 = DIRECTION ( 'NONE',  ( -1.210205401168415844E-16, 1.000000000000000000, 0.000000000000000000 ) ) ;
#447 = VECTOR ( 'NONE', #762, 1000.000000000000000 ) ;
#448 = FACE_OUTER_BOUND ( 'NONE', #451, .T. ) ;
#449 = VECTOR ( 'NONE', #29, 1000.000000000000000 ) ;
#450 = ORIENTED_EDGE ( 'NONE', *, *, #218, .T. ) ;
#451 = EDGE_LOOP ( 'NONE', ( #962, #752, #484, #1093 ) ) ;
#452 = VECTOR ( 'NONE', #277, 1000.000000000000000 ) ;
#453 = AXIS2_PLACEMENT_3D ( 'NONE', #995, #1295, #391 ) ;
#454 = LINE ( 'NONE', #1034, #1207 ) ;
#455 = EDGE_CURVE ( 'NONE', #775, #332, #563, .T. ) ;
#456 = DIRECTION ( 'NONE',  ( -1.292811280976835429E-16, 1.000000000000000000, 0.000000000000000000 ) ) ;
#457 = DIRECTION ( 'NONE',  ( -0.000000000000000000, -0.000000000000000000, -1.000000000000000000 ) ) ;
#458 = FACE_OUTER_BOUND ( 'NONE', #887, .T. ) ;
#459 = APPLICATION_PROTOCOL_DEFINITION ( 'draft international standard', 'automotive_design', 1998, #1283 ) ;
#460 = ORIENTED_EDGE ( 'NONE', *, *, #957, .F. ) ;
#461 = ORIENTED_EDGE ( 'NONE', *, *, #346, .T. ) ;
#462 = LINE ( 'NONE', #158, #1119 ) ;
#463 = EDGE_CURVE ( 'NONE', #417, #214, #480, .T. ) ;
#464 = CARTESIAN_POINT ( 'NONE',  ( -3.386548452394404666E-17, -0.9999999999999822364, 17.16666667000000146 ) ) ;
#465 = FACE_OUTER_BOUND ( 'NONE', #561, .T. ) ;
#466 = EDGE_CURVE ( 'NONE', #546, #332, #975, .T. ) ;
#467 = EDGE_CURVE ( 'NONE', #155, #214, #152, .T. ) ;
#468 = CARTESIAN_POINT ( 'NONE',  ( 89.00000000000000000, -0.9999999999999861222, 17.16666667000000146 ) ) ;
#469 = DIRECTION ( 'NONE',  ( -0.000000000000000000, -0.000000000000000000, -1.000000000000000000 ) ) ;
#470 = EDGE_LOOP ( 'NONE', ( #863, #814, #928, #1273 ) ) ;
#471 = DIRECTION ( 'NONE',  ( -0.000000000000000000, -0.000000000000000000, -1.000000000000000000 ) ) ;
#472 = DIRECTION ( 'NONE',  ( 2.507059190210457346E-16, 1.000000000000000000, 0.000000000000000000 ) ) ;
#473 = CARTESIAN_POINT ( 'NONE',  ( 59.00000000000000000, 29.00000000000000000, 17.16666667000000146 ) ) ;
#474 = PLANE ( 'NONE',  #258 ) ;
#475 = VERTEX_POINT ( 'NONE', #879 ) ;
#476 = ORIENTED_EDGE ( 'NONE', *, *, #1302, .T. ) ;
#477 = AXIS2_PLACEMENT_3D ( 'NONE', #516, #410, #817 ) ;
#478 = DIRECTION ( 'NONE',  ( -0.000000000000000000, -0.000000000000000000, -1.000000000000000000 ) ) ;
#479 = VECTOR ( 'NONE', #733, 1000.000000000000000 ) ;
#480 = LINE ( 'NONE', #259, #794 ) ;
#481 = CARTESIAN_POINT ( 'NONE',  ( 59.00000000000000000, 29.00000000000000000, 0.000000000000000000 ) ) ;
#482 = CARTESIAN_POINT ( 'NONE',  ( 61.00000000000000000, 29.00000000000000355, 17.16666667000000146 ) ) ;
#483 = ORIENTED_EDGE ( 'NONE', *, *, #815, .F. ) ;
#484 = ORIENTED_EDGE ( 'NONE', *, *, #65, .F. ) ;
#485 = CARTESIAN_POINT ( 'NONE',  ( 1.000000000000007105, -28.99999999999999289, 0.000000000000000000 ) ) ;
#486 = CARTESIAN_POINT ( 'NONE',  ( 91.00000000000000000, 0.000000000000000000, 17.16666667000000146 ) ) ;
#487 = CARTESIAN_POINT ( 'NONE',  ( 89.00000000000000000, 29.00000000000000355, 0.000000000000000000 ) ) ;
#488 = EDGE_LOOP ( 'NONE', ( #1064, #877, #382, #1031 ) ) ;
#489 = EDGE_CURVE ( 'NONE', #87, #734, #778, .T. ) ;
#490 = LINE ( 'NONE', #271, #1018 ) ;
#491 = ADVANCED_FACE ( 'NONE', ( #1269 ), #872, .T. ) ;
#492 = PLANE ( 'NONE',  #344 ) ;
#493 = LINE ( 'NONE', #64, #41 ) ;
#494 = ORIENTED_EDGE ( 'NONE', *, *, #73, .F. ) ;
#495 = LINE ( 'NONE', #1186, #1100 ) ;
#496 = VECTOR ( 'NONE', #429, 1000.000000000000000 ) ;
#497 = VECTOR ( 'NONE', #60, 1000.000000000000000 ) ;
#498 = EDGE_CURVE ( 'NONE', #194, #766, #61, .T. ) ;
#499 = VECTOR ( 'NONE', #1048, 1000.000000000000000 ) ;
#500 = DIRECTION ( 'NONE',  ( 1.210205401168415597E-16, -1.000000000000000000, 0.000000000000000000 ) ) ;
#501 = VERTEX_POINT ( 'NONE', #1243 ) ;
#502 = EDGE_CURVE ( 'NONE', #238, #147, #761, .T. ) ;
#503 = DIRECTION ( 'NONE',  ( -1.000000000000000000, -4.625929269271485914E-16, 0.000000000000000000 ) ) ;
#504 = EDGE_CURVE ( 'NONE', #1054, #1078, #1158, .T. ) ;
#505 = EDGE_CURVE ( 'NONE', #782, #238, #462, .T. ) ;
#506 = ORIENTED_EDGE ( 'NONE', *, *, #750, .F. ) ;
#507 = EDGE_LOOP ( 'NONE', ( #230, #1267, #1268, #191 ) ) ;
#508 = DIRECTION ( 'NONE',  ( 1.239088197126291063E-16, -1.000000000000000000, 0.000000000000000000 ) ) ;
#509 = ORIENTED_EDGE ( 'NONE', *, *, #263, .F. ) ;
#510 = PLANE ( 'NONE',  #988 ) ;
#511 = ORIENTED_EDGE ( 'NONE', *, *, #540, .F. ) ;
#512 = VECTOR ( 'NONE', #1159, 1000.000000000000000 ) ;
#513 = LINE ( 'NONE', #1121, #232 ) ;
#514 = VECTOR ( 'NONE', #1288, 1000.000000000000000 ) ;
#515 = VECTOR ( 'NONE', #222, 1000.000000000000000 ) ;
#516 = CARTESIAN_POINT ( 'NONE',  ( 3.509595663388404567E-15, -28.99999999999999289, 17.16666667000000146 ) ) ;
#517 = DIRECTION ( 'NONE',  ( -2.478176394252581141E-16, 1.000000000000000000, 0.000000000000000000 ) ) ;
#518 = EDGE_LOOP ( 'NONE', ( #607, #1083, #1250, #933 ) ) ;
#519 = CARTESIAN_POINT ( 'NONE',  ( 0.000000000000000000, 0.000000000000000000, 0.000000000000000000 ) ) ;
#520 = LINE ( 'NONE', #747, #1296 ) ;
#521 = CARTESIAN_POINT ( 'NONE',  ( 0.000000000000000000, 0.000000000000000000, 17.16666667000000146 ) ) ;
#522 = ORIENTED_EDGE ( 'NONE', *, *, #441, .F. ) ;
#523 = DIRECTION ( 'NONE',  ( 1.000000000000000000, -2.888279595787423346E-18, 0.000000000000000000 ) ) ;
#524 = LINE ( 'NONE', #855, #229 ) ;
#525 = CARTESIAN_POINT ( 'NONE',  ( 89.00000000000000000, 2.179871302482289108E-14, 17.16666667000000146 ) ) ;
#526 = VERTEX_POINT ( 'NONE', #239 ) ;
#527 = CARTESIAN_POINT ( 'NONE',  ( -3.593355771666243492E-15, 28.99999999999999289, 17.16666667000000146 ) ) ;
#528 = EDGE_CURVE ( 'NONE', #87, #1226, #13, .T. ) ;
#529 = DIRECTION ( 'NONE',  ( -0.000000000000000000, -0.000000000000000000, -1.000000000000000000 ) ) ;
#530 = AXIS2_PLACEMENT_3D ( 'NONE', #680, #982, #1075 ) ;
#531 = LINE ( 'NONE', #932, #479 ) ;
#532 = VECTOR ( 'NONE', #1248, 1000.000000000000000 ) ;
#533 = ORIENTED_EDGE ( 'NONE', *, *, #73, .T. ) ;
#534 = CARTESIAN_POINT ( 'NONE',  ( 119.0000000000000142, -28.99999999999998224, 0.000000000000000000 ) ) ;
#535 = ORIENTED_EDGE ( 'NONE', *, *, #786, .T. ) ;
#536 = ORIENTED_EDGE ( 'NONE', *, *, #1163, .F. ) ;
#537 =( NAMED_UNIT ( * ) SI_UNIT ( $, .STERADIAN. ) SOLID_ANGLE_UNIT ( ) );
#538 = CARTESIAN_POINT ( 'NONE',  ( 29.00000000000000000, 1.000000000000000000, 17.16666667000000146 ) ) ;
#539 = FACE_BOUND ( 'NONE', #1015, .T. ) ;
#540 = EDGE_CURVE ( 'NONE', #1292, #341, #1133, .T. ) ;
#541 = EDGE_CURVE ( 'NONE', #1011, #25, #1058, .T. ) ;
#542 = EDGE_LOOP ( 'NONE', ( #942, #182, #200, #949 ) ) ;
#543 = CARTESIAN_POINT ( 'NONE',  ( -3.386548452394428701E-17, -0.9999999999999833467, 17.16666667000000146 ) ) ;
#544 = EDGE_CURVE ( 'NONE', #25, #386, #428, .T. ) ;
#545 = ORIENTED_EDGE ( 'NONE', *, *, #834, .F. ) ;
#546 = VERTEX_POINT ( 'NONE', #1043 ) ;
#547 = DIRECTION ( 'NONE',  ( -0.000000000000000000, -0.000000000000000000, -1.000000000000000000 ) ) ;
#548 = LINE ( 'NONE', #1262, #1225 ) ;
#549 = CARTESIAN_POINT ( 'NONE',  ( 29.00000000000000000, 7.102951435054649637E-15, 17.16666667000000146 ) ) ;
#550 = CARTESIAN_POINT ( 'NONE',  ( 59.00000000000000000, 1.445083222993876957E-14, 17.16666667000000146 ) ) ;
#551 = DIRECTION ( 'NONE',  ( -1.000000000000000000, 0.000000000000000000, 0.000000000000000000 ) ) ;
#552 = EDGE_CURVE ( 'NONE', #270, #111, #839, .T. ) ;
#553 = ORIENTED_EDGE ( 'NONE', *, *, #914, .F. ) ;
#554 = DIRECTION ( 'NONE',  ( -1.000000000000000000, -1.210205401168415844E-16, 0.000000000000000000 ) ) ;
#555 = CARTESIAN_POINT ( 'NONE',  ( -2.787948443534104110E-16, 0.9999999999999822364, 0.000000000000000000 ) ) ;
#556 = MECHANICAL_DESIGN_GEOMETRIC_PRESENTATION_REPRESENTATION (  '', ( #1191 ), #885 ) ;
#557 = ORIENTED_EDGE ( 'NONE', *, *, #1323, .T. ) ;
#558 =( NAMED_UNIT ( * ) PLANE_ANGLE_UNIT ( ) SI_UNIT ( $, .RADIAN. ) );
#559 = VECTOR ( 'NONE', #289, 1000.000000000000000 ) ;
#560 = EDGE_LOOP ( 'NONE', ( #1066, #1050, #992, #909 ) ) ;
#561 = EDGE_LOOP ( 'NONE', ( #293, #902, #1206, #397 ) ) ;
#562 = EDGE_CURVE ( 'NONE', #357, #546, #768, .T. ) ;
#563 = LINE ( 'NONE', #674, #36 ) ;
#564 = DIRECTION ( 'NONE',  ( -1.239088197126291063E-16, 1.000000000000000000, 0.000000000000000000 ) ) ;
#565 = ORIENTED_EDGE ( 'NONE', *, *, #786, .F. ) ;
#566 = LINE ( 'NONE', #251, #644 ) ;
#567 = ORIENTED_EDGE ( 'NONE', *, *, #822, .F. ) ;
#568 = ORIENTED_EDGE ( 'NONE', *, *, #1010, .T. ) ;
#569 = CARTESIAN_POINT ( 'NONE',  ( 59.00000000000000000, 29.00000000000000000, 17.16666667000000146 ) ) ;
#570 = MANIFOLD_SOLID_BREP ( 'Boss.-Extru.2', #918 ) ;
#571 = DIRECTION ( 'NONE',  ( 1.000000000000000000, 0.000000000000000000, 0.000000000000000000 ) ) ;
#572 = CARTESIAN_POINT ( 'NONE',  ( 31.00000000000000355, 3.751636743622088919E-15, 17.16666667000000146 ) ) ;
#573 = CARTESIAN_POINT ( 'NONE',  ( 89.00000000000001421, -28.99999999999998579, 0.000000000000000000 ) ) ;
#574 = DIRECTION ( 'NONE',  ( 1.000000000000000000, -3.386548452394484168E-17, 0.000000000000000000 ) ) ;
#575 = ORIENTED_EDGE ( 'NONE', *, *, #1280, .T. ) ;
#576 = CARTESIAN_POINT ( 'NONE',  ( 1.000000000000003775, -0.9999999999999997780, 17.16666667000000146 ) ) ;
#577 = CARTESIAN_POINT ( 'NONE',  ( 29.00000000000000711, -28.99999999999998934, 17.16666667000000146 ) ) ;
#578 = LINE ( 'NONE', #596, #342 ) ;
#579 = PLANE ( 'NONE',  #831 ) ;
#580 = ORIENTED_EDGE ( 'NONE', *, *, #6, .F. ) ;
#581 = VECTOR ( 'NONE', #547, 1000.000000000000000 ) ;
#582 = PLANE ( 'NONE',  #1061 ) ;
#583 = VECTOR ( 'NONE', #446, 1000.000000000000000 ) ;
#584 = AXIS2_PLACEMENT_3D ( 'NONE', #123, #826, #934 ) ;
#585 = DIRECTION ( 'NONE',  ( -2.449293598294706907E-16, 1.000000000000000000, 0.000000000000000000 ) ) ;
#586 = CARTESIAN_POINT ( 'NONE',  ( -3.593355771666243492E-15, 28.99999999999999289, 17.16666667000000146 ) ) ;
#587 = EDGE_CURVE ( 'NONE', #661, #845, #454, .T. ) ;
#588 = EDGE_CURVE ( 'NONE', #896, #819, #353, .T. ) ;
#589 = ORIENTED_EDGE ( 'NONE', *, *, #587, .T. ) ;
#590 = LINE ( 'NONE', #164, #62 ) ;
#591 = PLANE ( 'NONE',  #453 ) ;
#592 = LINE ( 'NONE', #185, #279 ) ;
#593 = ORIENTED_EDGE ( 'NONE', *, *, #252, .F. ) ;
#594 = ADVANCED_FACE ( 'NONE', ( #854 ), #1251, .T. ) ;
#595 = CARTESIAN_POINT ( 'NONE',  ( 119.0000000000000142, -0.9999999999999863443, 17.16666667000000146 ) ) ;
#596 = CARTESIAN_POINT ( 'NONE',  ( 120.0000000000000000, -30.00000000000000000, -1.000000000000000000 ) ) ;
#597 = CARTESIAN_POINT ( 'NONE',  ( 3.509595663388404567E-15, -28.99999999999999289, 17.16666667000000146 ) ) ;
#598 = ORIENTED_EDGE ( 'NONE', *, *, #489, .T. ) ;
#599 = VECTOR ( 'NONE', #31, 1000.000000000000000 ) ;
#600 = EDGE_CURVE ( 'NONE', #1292, #1041, #48, .T. ) ;
#601 = VECTOR ( 'NONE', #1278, 1000.000000000000000 ) ;
#602 = AXIS2_PLACEMENT_3D ( 'NONE', #190, #606, #805 ) ;
#603 = EDGE_CURVE ( 'NONE', #105, #216, #944, .T. ) ;
#604 = EDGE_CURVE ( 'NONE', #178, #417, #183, .T. ) ;
#605 = AXIS2_PLACEMENT_3D ( 'NONE', #527, #615, #715 ) ;
#606 = DIRECTION ( 'NONE',  ( 3.386548452394484168E-17, 1.000000000000000000, -0.000000000000000000 ) ) ;
#607 = ORIENTED_EDGE ( 'NONE', *, *, #498, .T. ) ;
#608 = ORIENTED_EDGE ( 'NONE', *, *, #701, .T. ) ;
#609 = CARTESIAN_POINT ( 'NONE',  ( 3.509595663388405356E-15, -28.99999999999999289, 17.16666667000000146 ) ) ;
#610 = ORIENTED_EDGE ( 'NONE', *, *, #908, .F. ) ;
#611 = ORIENTED_EDGE ( 'NONE', *, *, #400, .F. ) ;
#612 = LINE ( 'NONE', #212, #372 ) ;
#613 = PLANE ( 'NONE',  #126 ) ;
#614 = EDGE_LOOP ( 'NONE', ( #624, #509, #208, #359 ) ) ;
#615 = DIRECTION ( 'NONE',  ( 1.239088197126291063E-16, -1.000000000000000000, 0.000000000000000000 ) ) ;
#616 = EDGE_LOOP ( 'NONE', ( #1073, #801, #20, #567 ) ) ;
#617 = VECTOR ( 'NONE', #323, 1000.000000000000000 ) ;
#618 = VECTOR ( 'NONE', #430, 1000.000000000000000 ) ;
#619 = FACE_OUTER_BOUND ( 'NONE', #122, .T. ) ;
#620 = CARTESIAN_POINT ( 'NONE',  ( 61.00000000000000711, 1.511687600494074664E-14, 0.000000000000000000 ) ) ;
#621 = AXIS2_PLACEMENT_3D ( 'NONE', #765, #551, #1258 ) ;
#622 = VERTEX_POINT ( 'NONE', #691 ) ;
#623 = DIRECTION ( 'NONE',  ( 1.000000000000000000, -3.097720492815727659E-17, 0.000000000000000000 ) ) ;
#624 = ORIENTED_EDGE ( 'NONE', *, *, #118, .F. ) ;
#625 = FACE_OUTER_BOUND ( 'NONE', #1042, .T. ) ;
#626 = DIRECTION ( 'NONE',  ( -0.000000000000000000, -0.000000000000000000, -1.000000000000000000 ) ) ;
#627 = ORIENTED_EDGE ( 'NONE', *, *, #974, .T. ) ;
#628 = DIRECTION ( 'NONE',  ( -0.000000000000000000, -0.000000000000000000, -1.000000000000000000 ) ) ;
#629 = ORIENTED_EDGE ( 'NONE', *, *, #347, .F. ) ;
#630 = ADVANCED_FACE ( 'NONE', ( #1301 ), #1274, .T. ) ;
#631 = FACE_OUTER_BOUND ( 'NONE', #806, .T. ) ;
#632 = CARTESIAN_POINT ( 'NONE',  ( 61.00000000000000711, -28.99999999999998934, 0.000000000000000000 ) ) ;
#633 = FACE_OUTER_BOUND ( 'NONE', #134, .T. ) ;
#634 = LINE ( 'NONE', #1231, #104 ) ;
#635 = ORIENTED_EDGE ( 'NONE', *, *, #1294, .T. ) ;
#636 = EDGE_CURVE ( 'NONE', #1088, #766, #1200, .T. ) ;
#637 = EDGE_CURVE ( 'NONE', #155, #501, #1176, .T. ) ;
#638 = DIRECTION ( 'NONE',  ( 1.000000000000000000, 2.759065647576279673E-16, 0.000000000000000000 ) ) ;
#639 = AXIS2_PLACEMENT_3D ( 'NONE', #314, #503, #803 ) ;
#640 = FACE_OUTER_BOUND ( 'NONE', #1194, .T. ) ;
#641 = VECTOR ( 'NONE', #1045, 1000.000000000000000 ) ;
#642 = ORIENTED_EDGE ( 'NONE', *, *, #774, .F. ) ;
#643 = PLANE ( 'NONE',  #605 ) ;
#644 = VECTOR ( 'NONE', #245, 1000.000000000000000 ) ;
#645 = ORIENTED_EDGE ( 'NONE', *, *, #366, .T. ) ;
#646 = ORIENTED_EDGE ( 'NONE', *, *, #409, .F. ) ;
#647 = SURFACE_STYLE_FILL_AREA ( #739 ) ;
#648 = LINE ( 'NONE', #14, #447 ) ;
#649 = DIRECTION ( 'NONE',  ( 1.210205401168415597E-16, -1.000000000000000000, 0.000000000000000000 ) ) ;
#650 = EDGE_CURVE ( 'NONE', #1078, #1300, #973, .T. ) ;
#651 = ORIENTED_EDGE ( 'NONE', *, *, #1087, .F. ) ;
#652 = EDGE_CURVE ( 'NONE', #795, #1138, #370, .T. ) ;
#653 = VERTEX_POINT ( 'NONE', #998 ) ;
#654 = EDGE_LOOP ( 'NONE', ( #461, #511, #646, #759 ) ) ;
#655 = ADVANCED_BREP_SHAPE_REPRESENTATION ( 'Base_fond_02 - LARGE', ( #570, #373 ), #776 ) ;
#656 = DIRECTION ( 'NONE',  ( -0.000000000000000000, -0.000000000000000000, -1.000000000000000000 ) ) ;
#657 = CARTESIAN_POINT ( 'NONE',  ( 3.878433842930505744E-15, -30.00000000000000000, 17.16666667000000146 ) ) ;
#658 = LINE ( 'NONE', #976, #583 ) ;
#659 = ORIENTED_EDGE ( 'NONE', *, *, #252, .T. ) ;
#660 = DIRECTION ( 'NONE',  ( 1.000000000000000000, 2.787948443534153414E-16, 0.000000000000000000 ) ) ;
#661 = VERTEX_POINT ( 'NONE', #1089 ) ;
#662 = PRODUCT_RELATED_PRODUCT_CATEGORY ( 'part', '', ( #287 ) ) ;
#663 = ORIENTED_EDGE ( 'NONE', *, *, #604, .F. ) ;
#664 =( LENGTH_UNIT ( ) NAMED_UNIT ( * ) SI_UNIT ( .MILLI., .METRE. ) );
#665 = CARTESIAN_POINT ( 'NONE',  ( 29.00000000000000000, 1.000000000000000000, 0.000000000000000000 ) ) ;
#666 = CARTESIAN_POINT ( 'NONE',  ( 59.00000000000000000, 0.000000000000000000, 0.000000000000000000 ) ) ;
#667 = AXIS2_PLACEMENT_3D ( 'NONE', #445, #959, #931 ) ;
#668 = DIRECTION ( 'NONE',  ( -0.000000000000000000, 0.000000000000000000, -1.000000000000000000 ) ) ;
#669 = VECTOR ( 'NONE', #678, 1000.000000000000000 ) ;
#670 = ORIENTED_EDGE ( 'NONE', *, *, #1203, .F. ) ;
#671 = ORIENTED_EDGE ( 'NONE', *, *, #112, .T. ) ;
#672 = AXIS2_PLACEMENT_3D ( 'NONE', #281, #1081, #76 ) ;
#673 = CARTESIAN_POINT ( 'NONE',  ( -3.593355771666242704E-15, 28.99999999999999289, 17.16666667000000146 ) ) ;
#674 = CARTESIAN_POINT ( 'NONE',  ( 31.00000000000000355, -0.9999999999999933387, 17.16666667000000146 ) ) ;
#675 = FACE_OUTER_BOUND ( 'NONE', #507, .T. ) ;
#676 = CARTESIAN_POINT ( 'NONE',  ( 0.000000000000000000, 1.000000000000000000, 17.16666667000000146 ) ) ;
#677 = ORIENTED_EDGE ( 'NONE', *, *, #302, .T. ) ;
#678 = DIRECTION ( 'NONE',  ( -0.000000000000000000, -0.000000000000000000, -1.000000000000000000 ) ) ;
#679 = EDGE_CURVE ( 'NONE', #216, #194, #590, .T. ) ;
#680 = CARTESIAN_POINT ( 'NONE',  ( 3.097720492815732589E-17, 1.000000000000001776, 17.16666667000000146 ) ) ;
#681 = LINE ( 'NONE', #666, #601 ) ;
#682 = CARTESIAN_POINT ( 'NONE',  ( 0.000000000000000000, 0.000000000000000000, 17.16666667000000146 ) ) ;
#683 =( LENGTH_UNIT ( ) NAMED_UNIT ( * ) SI_UNIT ( .MILLI., .METRE. ) );
#684 = ORIENTED_EDGE ( 'NONE', *, *, #1118, .F. ) ;
#685 = FACE_OUTER_BOUND ( 'NONE', #969, .T. ) ;
#686 = EDGE_CURVE ( 'NONE', #1226, #1136, #1079, .T. ) ;
#687 = DIRECTION ( 'NONE',  ( -1.000000000000000000, 3.386548452394465063E-17, 0.000000000000000000 ) ) ;
#688 = EDGE_CURVE ( 'NONE', #52, #125, #264, .T. ) ;
#689 = CARTESIAN_POINT ( 'NONE',  ( 31.00000000000000355, 3.751636743622088919E-15, 17.16666667000000146 ) ) ;
#690 = ORIENTED_EDGE ( 'NONE', *, *, #302, .F. ) ;
#691 = CARTESIAN_POINT ( 'NONE',  ( 1.000000000000003775, -0.9999999999999997780, 0.000000000000000000 ) ) ;
#692 = AXIS2_PLACEMENT_3D ( 'NONE', #184, #894, #585 ) ;
#693 = DIRECTION ( 'NONE',  ( -0.000000000000000000, -0.000000000000000000, -1.000000000000000000 ) ) ;
#694 = FACE_OUTER_BOUND ( 'NONE', #311, .T. ) ;
#695 = EDGE_CURVE ( 'NONE', #417, #1236, #490, .T. ) ;
#696 = EDGE_LOOP ( 'NONE', ( #1139, #333, #275, #611 ) ) ;
#697 = CARTESIAN_POINT ( 'NONE',  ( 3.509595663388405356E-15, -28.99999999999999289, 17.16666667000000146 ) ) ;
#698 = DIRECTION ( 'NONE',  ( 3.386548452394465063E-17, 1.000000000000000000, -0.000000000000000000 ) ) ;
#699 = CARTESIAN_POINT ( 'NONE',  ( 0.000000000000000000, 29.00000000000000355, 17.16666667000000146 ) ) ;
#700 = ORIENTED_EDGE ( 'NONE', *, *, #463, .T. ) ;
#701 = EDGE_CURVE ( 'NONE', #402, #1209, #897, .T. ) ;
#702 = LINE ( 'NONE', #595, #497 ) ;
#703 = CARTESIAN_POINT ( 'NONE',  ( 0.000000000000000000, 29.00000000000000355, 17.16666667000000146 ) ) ;
#704 = VERTEX_POINT ( 'NONE', #878 ) ;
#705 = VECTOR ( 'NONE', #1109, 1000.000000000000000 ) ;
#706 = VECTOR ( 'NONE', #707, 1000.000000000000000 ) ;
#707 = DIRECTION ( 'NONE',  ( 1.000000000000000000, 0.000000000000000000, 0.000000000000000000 ) ) ;
#708 = DIRECTION ( 'NONE',  ( 1.000000000000000000, 2.787948443534155386E-16, 0.000000000000000000 ) ) ;
#709 = ORIENTED_EDGE ( 'NONE', *, *, #688, .F. ) ;
#710 = ORIENTED_EDGE ( 'NONE', *, *, #79, .F. ) ;
#711 = CARTESIAN_POINT ( 'NONE',  ( -3.386548452394404666E-17, -0.9999999999999822364, 0.000000000000000000 ) ) ;
#712 = PLANE ( 'NONE',  #296 ) ;
#713 = LINE ( 'NONE', #205, #1142 ) ;
#714 = ORIENTED_EDGE ( 'NONE', *, *, #463, .F. ) ;
#715 = DIRECTION ( 'NONE',  ( 1.000000000000000000, 1.239088197126291063E-16, 0.000000000000000000 ) ) ;
#716 = ORIENTED_EDGE ( 'NONE', *, *, #504, .T. ) ;
#717 = CARTESIAN_POINT ( 'NONE',  ( 89.00000000000000000, 0.000000000000000000, 17.16666667000000146 ) ) ;
#718 = EDGE_CURVE ( 'NONE', #439, #1088, #379, .T. ) ;
#719 = DIRECTION ( 'NONE',  ( 0.000000000000000000, 0.000000000000000000, 1.000000000000000000 ) ) ;
#720 = ORIENTED_EDGE ( 'NONE', *, *, #835, .F. ) ;
#721 = FACE_OUTER_BOUND ( 'NONE', #141, .T. ) ;
#722 = ORIENTED_EDGE ( 'NONE', *, *, #118, .T. ) ;
#723 = VECTOR ( 'NONE', #571, 1000.000000000000000 ) ;
#724 = AXIS2_PLACEMENT_3D ( 'NONE', #24, #438, #564 ) ;
#725 = VECTOR ( 'NONE', #1291, 1000.000000000000000 ) ;
#726 = LINE ( 'NONE', #717, #901 ) ;
#727 = LINE ( 'NONE', #1123, #796 ) ;
#728 = EDGE_CURVE ( 'NONE', #214, #399, #702, .T. ) ;
#729 = ORIENTED_EDGE ( 'NONE', *, *, #750, .T. ) ;
#730 = CARTESIAN_POINT ( 'NONE',  ( 89.00000000000000000, 29.00000000000000355, 17.16666667000000146 ) ) ;
#731 = ORIENTED_EDGE ( 'NONE', *, *, #930, .F. ) ;
#732 = LINE ( 'NONE', #120, #828 ) ;
#733 = DIRECTION ( 'NONE',  ( 0.000000000000000000, 1.000000000000000000, -0.000000000000000000 ) ) ;
#734 = VERTEX_POINT ( 'NONE', #78 ) ;
#735 = CARTESIAN_POINT ( 'NONE',  ( 89.00000000000000000, 29.00000000000000355, 17.16666667000000146 ) ) ;
#736 = ORIENTED_EDGE ( 'NONE', *, *, #66, .T. ) ;
#737 = EDGE_CURVE ( 'NONE', #1101, #386, #495, .T. ) ;
#738 = ADVANCED_FACE ( 'NONE', ( #685 ), #582, .F. ) ;
#739 = FILL_AREA_STYLE ('',( #1166 ) ) ;
#740 = CARTESIAN_POINT ( 'NONE',  ( 119.0000000000000000, 29.00000000000000711, 0.000000000000000000 ) ) ;
#741 = FACE_BOUND ( 'NONE', #614, .T. ) ;
#742 = ORIENTED_EDGE ( 'NONE', *, *, #957, .T. ) ;
#743 = CARTESIAN_POINT ( 'NONE',  ( 119.0000000000000142, 1.000000000000015321, 17.16666667000000146 ) ) ;
#744 = ORIENTED_EDGE ( 'NONE', *, *, #865, .T. ) ;
#745 = ORIENTED_EDGE ( 'NONE', *, *, #600, .F. ) ;
#746 = DIRECTION ( 'NONE',  ( -2.888279595787423346E-18, -1.000000000000000000, 0.000000000000000000 ) ) ;
#747 = CARTESIAN_POINT ( 'NONE',  ( 89.00000000000000000, 0.000000000000000000, 0.000000000000000000 ) ) ;
#748 = VECTOR ( 'NONE', #256, 1000.000000000000000 ) ;
#749 = DIRECTION ( 'NONE',  ( 1.210205401168415597E-16, -1.000000000000000000, 0.000000000000000000 ) ) ;
#750 = EDGE_CURVE ( 'NONE', #140, #622, #54, .T. ) ;
#751 = VECTOR ( 'NONE', #284, 1000.000000000000000 ) ;
#752 = ORIENTED_EDGE ( 'NONE', *, *, #1323, .F. ) ;
#753 = ORIENTED_EDGE ( 'NONE', *, *, #26, .F. ) ;
#754 = ORIENTED_EDGE ( 'NONE', *, *, #562, .F. ) ;
#755 = CARTESIAN_POINT ( 'NONE',  ( 59.00000000000000000, 1.445083222993876957E-14, 17.16666667000000146 ) ) ;
#756 = LINE ( 'NONE', #1255, #369 ) ;
#757 = PLANE ( 'NONE',  #724 ) ;
#758 = CARTESIAN_POINT ( 'NONE',  ( 91.00000000000000000, 29.00000000000000355, 0.000000000000000000 ) ) ;
#759 = ORIENTED_EDGE ( 'NONE', *, *, #455, .T. ) ;
#760 = ORIENTED_EDGE ( 'NONE', *, *, #541, .T. ) ;
#761 = LINE ( 'NONE', #1051, #403 ) ;
#762 = DIRECTION ( 'NONE',  ( 1.000000000000000000, 2.449293598294706907E-16, 0.000000000000000000 ) ) ;
#763 = CARTESIAN_POINT ( 'NONE',  ( 2.759065647576284111E-16, -1.000000000000001776, 17.16666667000000146 ) ) ;
#764 = DIRECTION ( 'NONE',  ( -2.449293598294706907E-16, 1.000000000000000000, 0.000000000000000000 ) ) ;
#765 = CARTESIAN_POINT ( 'NONE',  ( 59.00000000000000000, 0.000000000000000000, 17.16666667000000146 ) ) ;
#766 = VERTEX_POINT ( 'NONE', #485 ) ;
#767 = ORIENTED_EDGE ( 'NONE', *, *, #650, .F. ) ;
#768 = LINE ( 'NONE', #1233, #449 ) ;
#769 = LINE ( 'NONE', #1069, #188 ) ;
#770 = CARTESIAN_POINT ( 'NONE',  ( 1.000000000000000000, 28.99999999999999289, 0.000000000000000000 ) ) ;
#771 = LINE ( 'NONE', #1173, #937 ) ;
#772 = AXIS2_PLACEMENT_3D ( 'NONE', #149, #345, #436 ) ;
#773 = VECTOR ( 'NONE', #176, 1000.000000000000000 ) ;
#774 = EDGE_CURVE ( 'NONE', #819, #147, #893, .T. ) ;
#775 = VERTEX_POINT ( 'NONE', #383 ) ;
#776 =( GEOMETRIC_REPRESENTATION_CONTEXT ( 3 ) GLOBAL_UNCERTAINTY_ASSIGNED_CONTEXT ( ( #276 ) ) GLOBAL_UNIT_ASSIGNED_CONTEXT ( ( #683, #558, #1174 ) ) REPRESENTATION_CONTEXT ( 'NONE', 'WORKASPACE' ) );
#777 = CARTESIAN_POINT ( 'NONE',  ( -2.787948443534108547E-16, 0.9999999999999833467, 0.000000000000000000 ) ) ;
#778 = LINE ( 'NONE', #1177, #173 ) ;
#779 = DIRECTION ( 'NONE',  ( 2.449293598294706907E-16, -1.000000000000000000, 0.000000000000000000 ) ) ;
#780 = LINE ( 'NONE', #586, #1277 ) ;
#781 = CARTESIAN_POINT ( 'NONE',  ( 59.00000000000000000, -0.9999999999999854561, 17.16666667000000146 ) ) ;
#782 = VERTEX_POINT ( 'NONE', #790 ) ;
#783 = ADVANCED_FACE ( 'NONE', ( #1096 ), #83, .F. ) ;
#784 = DIRECTION ( 'NONE',  ( 2.449293598294706907E-16, -1.000000000000000000, 0.000000000000000000 ) ) ;
#785 = EDGE_CURVE ( 'NONE', #501, #399, #840, .T. ) ;
#786 = EDGE_CURVE ( 'NONE', #661, #475, #513, .T. ) ;
#787 = CARTESIAN_POINT ( 'NONE',  ( 119.0000000000000000, 29.00000000000000711, 17.16666667000000146 ) ) ;
#788 = FACE_OUTER_BOUND ( 'NONE', #72, .T. ) ;
#789 = ORIENTED_EDGE ( 'NONE', *, *, #1302, .F. ) ;
#790 = CARTESIAN_POINT ( 'NONE',  ( 61.00000000000000711, -28.99999999999998934, 17.16666667000000146 ) ) ;
#791 = EDGE_CURVE ( 'NONE', #804, #402, #211, .T. ) ;
#792 = CARTESIAN_POINT ( 'NONE',  ( -0.000000000000000000, 29.00000000000000355, 0.000000000000000000 ) ) ;
#793 = FACE_OUTER_BOUND ( 'NONE', #542, .T. ) ;
#794 = VECTOR ( 'NONE', #472, 1000.000000000000000 ) ;
#795 = VERTEX_POINT ( 'NONE', #1112 ) ;
#796 = VECTOR ( 'NONE', #626, 1000.000000000000000 ) ;
#797 = CARTESIAN_POINT ( 'NONE',  ( 91.00000000000000000, -0.9999999999999852340, 17.16666667000000146 ) ) ;
#798 = VECTOR ( 'NONE', #574, 1000.000000000000000 ) ;
#799 = DIRECTION ( 'NONE',  ( -1.000000000000000000, 0.000000000000000000, 0.000000000000000000 ) ) ;
#800 = CARTESIAN_POINT ( 'NONE',  ( 61.00000000000000711, 1.000000000000000222, 17.16666667000000146 ) ) ;
#801 = ORIENTED_EDGE ( 'NONE', *, *, #282, .F. ) ;
#802 = CARTESIAN_POINT ( 'NONE',  ( -3.593355771666243492E-15, 28.99999999999999289, 0.000000000000000000 ) ) ;
#803 = DIRECTION ( 'NONE',  ( 4.625929269271485914E-16, -1.000000000000000000, 0.000000000000000000 ) ) ;
#804 = VERTEX_POINT ( 'NONE', #1321 ) ;
#805 = DIRECTION ( 'NONE',  ( -1.000000000000000000, 3.386548452394484168E-17, 0.000000000000000000 ) ) ;
#806 = EDGE_LOOP ( 'NONE', ( #535, #651, #1106, #1002 ) ) ;
#807 = VERTEX_POINT ( 'NONE', #319 ) ;
#808 = VECTOR ( 'NONE', #994, 1000.000000000000000 ) ;
#809 = PRODUCT_DEFINITION_FORMATION_WITH_SPECIFIED_SOURCE ( 'ANY', '', #287, .NOT_KNOWN. ) ;
#810 = CARTESIAN_POINT ( 'NONE',  ( 89.00000000000001421, -28.99999999999998579, 17.16666667000000146 ) ) ;
#811 = LINE ( 'NONE', #620, #1276 ) ;
#812 = ORIENTED_EDGE ( 'NONE', *, *, #1132, .T. ) ;
#813 = DIRECTION ( 'NONE',  ( -0.000000000000000000, -0.000000000000000000, -1.000000000000000000 ) ) ;
#814 = ORIENTED_EDGE ( 'NONE', *, *, #791, .F. ) ;
#815 = EDGE_CURVE ( 'NONE', #87, #1259, #298, .T. ) ;
#816 = ADVANCED_FACE ( 'NONE', ( #1305 ), #411, .T. ) ;
#817 = DIRECTION ( 'NONE',  ( -1.000000000000000000, -1.210205401168415597E-16, 0.000000000000000000 ) ) ;
#818 = DIRECTION ( 'NONE',  ( -1.000000000000000000, -2.449293598294706907E-16, 0.000000000000000000 ) ) ;
#819 = VERTEX_POINT ( 'NONE', #632 ) ;
#820 = LINE ( 'NONE', #318, #830 ) ;
#821 = EDGE_LOOP ( 'NONE', ( #45, #1299, #753, #1126 ) ) ;
#822 = EDGE_CURVE ( 'NONE', #1226, #1165, #811, .T. ) ;
#823 = FACE_OUTER_BOUND ( 'NONE', #560, .T. ) ;
#824 = DIRECTION ( 'NONE',  ( 1.000000000000000000, 0.000000000000000000, 0.000000000000000000 ) ) ;
#825 = EDGE_LOOP ( 'NONE', ( #494, #1026, #575, #98 ) ) ;
#826 = DIRECTION ( 'NONE',  ( 0.000000000000000000, 1.000000000000000000, 0.000000000000000000 ) ) ;
#827 = ORIENTED_EDGE ( 'NONE', *, *, #1242, .F. ) ;
#828 = VECTOR ( 'NONE', #529, 1000.000000000000000 ) ;
#829 = VECTOR ( 'NONE', #457, 1000.000000000000000 ) ;
#830 = VECTOR ( 'NONE', #1219, 1000.000000000000000 ) ;
#831 = AXIS2_PLACEMENT_3D ( 'NONE', #699, #1184, #1091 ) ;
#832 = CARTESIAN_POINT ( 'NONE',  ( 119.0000000000000142, -0.9999999999999863443, 0.000000000000000000 ) ) ;
#833 = FACE_BOUND ( 'NONE', #1265, .T. ) ;
#834 = EDGE_CURVE ( 'NONE', #704, #306, #1217, .T. ) ;
#835 = EDGE_CURVE ( 'NONE', #147, #807, #421, .T. ) ;
#836 = ORIENTED_EDGE ( 'NONE', *, *, #100, .F. ) ;
#837 = DIRECTION ( 'NONE',  ( 2.888279595787423346E-18, 1.000000000000000000, 0.000000000000000000 ) ) ;
#838 = VERTEX_POINT ( 'NONE', #1020 ) ;
#839 = LINE ( 'NONE', #673, #339 ) ;
#840 = LINE ( 'NONE', #711, #1193 ) ;
#841 = LINE ( 'NONE', #1145, #204 ) ;
#842 = FACE_OUTER_BOUND ( 'NONE', #1156, .T. ) ;
#843 = ORIENTED_EDGE ( 'NONE', *, *, #695, .T. ) ;
#844 = CARTESIAN_POINT ( 'NONE',  ( -3.593355771666243492E-15, 28.99999999999999289, 17.16666667000000146 ) ) ;
#845 = VERTEX_POINT ( 'NONE', #226 ) ;
#846 = ORIENTED_EDGE ( 'NONE', *, *, #165, .T. ) ;
#847 = CARTESIAN_POINT ( 'NONE',  ( 61.00000000000000711, -1.761850553430331939E-16, 0.000000000000000000 ) ) ;
#848 = DIRECTION ( 'NONE',  ( -1.000000000000000000, -1.210205401168415844E-16, 0.000000000000000000 ) ) ;
#849 = PLANE ( 'NONE',  #1169 ) ;
#850 = ORIENTED_EDGE ( 'NONE', *, *, #815, .T. ) ;
#851 = CARTESIAN_POINT ( 'NONE',  ( 0.000000000000000000, 0.000000000000000000, 0.000000000000000000 ) ) ;
#852 = ORIENTED_EDGE ( 'NONE', *, *, #356, .T. ) ;
#853 = ORIENTED_EDGE ( 'NONE', *, *, #913, .F. ) ;
#854 = FACE_OUTER_BOUND ( 'NONE', #1057, .T. ) ;
#855 = CARTESIAN_POINT ( 'NONE',  ( 3.509595663388404567E-15, -28.99999999999999289, 0.000000000000000000 ) ) ;
#856 = VECTOR ( 'NONE', #309, 1000.000000000000000 ) ;
#857 = CARTESIAN_POINT ( 'NONE',  ( 29.00000000000000000, 28.99999999999999645, 0.000000000000000000 ) ) ;
#858 = VECTOR ( 'NONE', #280, 1000.000000000000000 ) ;
#859 = AXIS2_PLACEMENT_3D ( 'NONE', #71, #996, #381 ) ;
#860 = PLANE ( 'NONE',  #343 ) ;
#861 = VECTOR ( 'NONE', #1180, 1000.000000000000000 ) ;
#862 = ORIENTED_EDGE ( 'NONE', *, *, #301, .F. ) ;
#863 = ORIENTED_EDGE ( 'NONE', *, *, #390, .T. ) ;
#864 = CARTESIAN_POINT ( 'NONE',  ( -3.593355771666243492E-15, 28.99999999999999289, 0.000000000000000000 ) ) ;
#865 = EDGE_CURVE ( 'NONE', #1041, #838, #199, .T. ) ;
#866 = LINE ( 'NONE', #938, #82 ) ;
#867 = DIRECTION ( 'NONE',  ( 1.239088197126291063E-16, -1.000000000000000000, 0.000000000000000000 ) ) ;
#868 = PLANE ( 'NONE',  #102 ) ;
#869 = ORIENTED_EDGE ( 'NONE', *, *, #1087, .T. ) ;
#870 = ORIENTED_EDGE ( 'NONE', *, *, #785, .T. ) ;
#871 = DIRECTION ( 'NONE',  ( -0.000000000000000000, -0.000000000000000000, -1.000000000000000000 ) ) ;
#872 = PLANE ( 'NONE',  #530 ) ;
#873 = CARTESIAN_POINT ( 'NONE',  ( 29.00000000000000711, -28.99999999999998934, 17.16666667000000146 ) ) ;
#874 = ADVANCED_FACE ( 'NONE', ( #640 ), #416, .T. ) ;
#875 = VERTEX_POINT ( 'NONE', #1222 ) ;
#876 = PLANE ( 'NONE',  #151 ) ;
#877 = ORIENTED_EDGE ( 'NONE', *, *, #119, .F. ) ;
#878 = CARTESIAN_POINT ( 'NONE',  ( 0.000000000000000000, 30.00000000000000000, 17.16666667000000146 ) ) ;
#879 = CARTESIAN_POINT ( 'NONE',  ( 7.347880794884119933E-15, -30.00000000000000000, -1.000000000000000000 ) ) ;
#880 = LINE ( 'NONE', #555, #641 ) ;
#881 = VECTOR ( 'NONE', #107, 1000.000000000000000 ) ;
#882 = CARTESIAN_POINT ( 'NONE',  ( 0.000000000000000000, 0.000000000000000000, 0.000000000000000000 ) ) ;
#883 = PRODUCT_CONTEXT ( 'NONE', #1283, 'mechanical' ) ;
#884 = ADVANCED_FACE ( 'NONE', ( #130, #833, #1030, #741, #96, #1135, #108, #539, #1038 ), #613, .T. ) ;
#885 =( GEOMETRIC_REPRESENTATION_CONTEXT ( 3 ) GLOBAL_UNCERTAINTY_ASSIGNED_CONTEXT ( ( #157 ) ) GLOBAL_UNIT_ASSIGNED_CONTEXT ( ( #664, #334, #537 ) ) REPRESENTATION_CONTEXT ( 'NONE', 'WORKASPACE' ) );
#886 = EDGE_CURVE ( 'NONE', #911, #270, #1318, .T. ) ;
#887 = EDGE_LOOP ( 'NONE', ( #736, #124, #745, #94 ) ) ;
#888 = DIRECTION ( 'NONE',  ( 1.000000000000000000, 1.210205401168415844E-16, 0.000000000000000000 ) ) ;
#889 = PLANE ( 'NONE',  #692 ) ;
#890 = LINE ( 'NONE', #676, #773 ) ;
#891 = ORIENTED_EDGE ( 'NONE', *, *, #356, .F. ) ;
#892 = ADVANCED_FACE ( 'NONE', ( #1128 ), #1310, .T. ) ;
#893 = LINE ( 'NONE', #981, #514 ) ;
#894 = DIRECTION ( 'NONE',  ( 1.000000000000000000, 2.449293598294706907E-16, -0.000000000000000000 ) ) ;
#895 = CARTESIAN_POINT ( 'NONE',  ( 31.00000000000000355, 3.841173411091502100E-15, 0.000000000000000000 ) ) ;
#896 = VERTEX_POINT ( 'NONE', #927 ) ;
#897 = LINE ( 'NONE', #1293, #751 ) ;
#898 = EDGE_CURVE ( 'NONE', #622, #216, #713, .T. ) ;
#899 = CARTESIAN_POINT ( 'NONE',  ( -3.386548452394404666E-17, -0.9999999999999822364, 17.16666667000000146 ) ) ;
#900 = DIRECTION ( 'NONE',  ( 2.449293598294706907E-16, -1.000000000000000000, 0.000000000000000000 ) ) ;
#901 = VECTOR ( 'NONE', #907, 1000.000000000000000 ) ;
#902 = ORIENTED_EDGE ( 'NONE', *, *, #637, .F. ) ;
#903 = AXIS2_PLACEMENT_3D ( 'NONE', #1220, #1316, #303 ) ;
#904 = DIRECTION ( 'NONE',  ( -0.000000000000000000, 0.000000000000000000, -1.000000000000000000 ) ) ;
#905 = CARTESIAN_POINT ( 'NONE',  ( 7.102951435054651215E-15, -29.00000000000000355, 17.16666667000000146 ) ) ;
#906 = ORIENTED_EDGE ( 'NONE', *, *, #502, .T. ) ;
#907 = DIRECTION ( 'NONE',  ( 0.000000000000000000, -1.000000000000000000, 0.000000000000000000 ) ) ;
#908 = EDGE_CURVE ( 'NONE', #270, #997, #727, .T. ) ;
#909 = ORIENTED_EDGE ( 'NONE', *, *, #292, .F. ) ;
#910 = LINE ( 'NONE', #703, #706 ) ;
#911 = VERTEX_POINT ( 'NONE', #1025 ) ;
#912 = CARTESIAN_POINT ( 'NONE',  ( 29.00000000000000000, 7.102951435054649637E-15, 17.16666667000000146 ) ) ;
#913 = EDGE_CURVE ( 'NONE', #238, #18, #114, .T. ) ;
#914 = EDGE_CURVE ( 'NONE', #378, #997, #531, .T. ) ;
#915 = ORIENTED_EDGE ( 'NONE', *, *, #367, .T. ) ;
#916 = VECTOR ( 'NONE', #135, 1000.000000000000000 ) ;
#917 = AXIS2_PLACEMENT_3D ( 'NONE', #763, #1160, #50 ) ;
#918 = CLOSED_SHELL ( 'NONE', ( #892, #242, #1187, #630, #594, #816, #1094, #1240, #39, #1143, #103, #491, #1008, #1204, #1047, #17, #396, #1322, #1198, #884, #431, #1102, #1005, #219, #1107, #1289, #265, #177, #874, #217, #1067, #16, #81, #925, #1068, #1215, #1046, #1190, #57, #738, #169, #955, #783, #207, #159, #30 ) ) ;
#919 = VECTOR ( 'NONE', #628, 1000.000000000000000 ) ;
#920 = CARTESIAN_POINT ( 'NONE',  ( 91.00000000000001421, -28.99999999999998579, 17.16666667000000146 ) ) ;
#921 = CARTESIAN_POINT ( 'NONE',  ( 89.00000000000000000, 2.179871302482289108E-14, 17.16666667000000146 ) ) ;
#922 = EDGE_LOOP ( 'NONE', ( #852, #27, #1124, #93 ) ) ;
#923 = DIRECTION ( 'NONE',  ( -1.156482317317871478E-16, 1.000000000000000000, 0.000000000000000000 ) ) ;
#924 = ORIENTED_EDGE ( 'NONE', *, *, #650, .T. ) ;
#925 = ADVANCED_FACE ( 'NONE', ( #842 ), #1235, .F. ) ;
#926 = CARTESIAN_POINT ( 'NONE',  ( 3.097720492815732589E-17, 1.000000000000001776, 0.000000000000000000 ) ) ;
#927 = CARTESIAN_POINT ( 'NONE',  ( 61.00000000000000711, -0.9999999999999852340, 0.000000000000000000 ) ) ;
#928 = ORIENTED_EDGE ( 'NONE', *, *, #1132, .F. ) ;
#929 = CARTESIAN_POINT ( 'NONE',  ( 120.0000000000000142, -29.99999999999998579, 17.16666667000000146 ) ) ;
#930 = EDGE_CURVE ( 'NONE', #155, #178, #137, .T. ) ;
#931 = DIRECTION ( 'NONE',  ( -0.000000000000000000, 0.000000000000000000, -1.000000000000000000 ) ) ;
#932 = CARTESIAN_POINT ( 'NONE',  ( 29.00000000000000000, 0.000000000000000000, 0.000000000000000000 ) ) ;
#933 = ORIENTED_EDGE ( 'NONE', *, *, #966, .T. ) ;
#934 = DIRECTION ( 'NONE',  ( 0.000000000000000000, -0.000000000000000000, 1.000000000000000000 ) ) ;
#935 = VECTOR ( 'NONE', #55, 1000.000000000000000 ) ;
#936 = VECTOR ( 'NONE', #1282, 1000.000000000000000 ) ;
#937 = VECTOR ( 'NONE', #261, 1000.000000000000000 ) ;
#938 = CARTESIAN_POINT ( 'NONE',  ( 3.509595663388404567E-15, -28.99999999999999289, 17.16666667000000146 ) ) ;
#939 = CARTESIAN_POINT ( 'NONE',  ( -2.787948443534104110E-16, 0.9999999999999822364, 17.16666667000000146 ) ) ;
#940 = ORIENTED_EDGE ( 'NONE', *, *, #603, .F. ) ;
#941 = DIRECTION ( 'NONE',  ( -0.000000000000000000, 0.000000000000000000, -1.000000000000000000 ) ) ;
#942 = ORIENTED_EDGE ( 'NONE', *, *, #835, .T. ) ;
#943 = ORIENTED_EDGE ( 'NONE', *, *, #1287, .F. ) ;
#944 = LINE ( 'NONE', #22, #669 ) ;
#945 = CARTESIAN_POINT ( 'NONE',  ( 31.00000000000000355, -0.9999999999999933387, 0.000000000000000000 ) ) ;
#946 = DIRECTION ( 'NONE',  ( -0.000000000000000000, 0.000000000000000000, -1.000000000000000000 ) ) ;
#947 = EDGE_LOOP ( 'NONE', ( #145, #522, #237, #202 ) ) ;
#948 = EDGE_LOOP ( 'NONE', ( #224, #709, #722, #247 ) ) ;
#949 = ORIENTED_EDGE ( 'NONE', *, *, #774, .T. ) ;
#950 = PRESENTATION_STYLE_ASSIGNMENT (( #142 ) ) ;
#951 = LINE ( 'NONE', #1044, #294 ) ;
#952 = DIRECTION ( 'NONE',  ( -1.000000000000000000, -1.210205401168415597E-16, 0.000000000000000000 ) ) ;
#953 = DIRECTION ( 'NONE',  ( 1.000000000000000000, 2.449293598294706907E-16, -0.000000000000000000 ) ) ;
#954 = ORIENTED_EDGE ( 'NONE', *, *, #1294, .F. ) ;
#955 = ADVANCED_FACE ( 'NONE', ( #167 ), #241, .T. ) ;
#956 = EDGE_LOOP ( 'NONE', ( #870, #1202, #90, #227 ) ) ;
#957 = EDGE_CURVE ( 'NONE', #526, #1078, #681, .T. ) ;
#958 = COLOUR_RGB ( '',0.7921568627450980005, 0.8196078431372548767, 0.9333333333333333481 ) ;
#959 = DIRECTION ( 'NONE',  ( 1.000000000000000000, 0.000000000000000000, -0.000000000000000000 ) ) ;
#960 = VECTOR ( 'NONE', #779, 1000.000000000000000 ) ;
#961 = FACE_OUTER_BOUND ( 'NONE', #654, .T. ) ;
#962 = ORIENTED_EDGE ( 'NONE', *, *, #119, .T. ) ;
#963 = ORIENTED_EDGE ( 'NONE', *, *, #365, .F. ) ;
#964 = ORIENTED_EDGE ( 'NONE', *, *, #400, .T. ) ;
#965 = DIRECTION ( 'NONE',  ( -1.000000000000000000, -1.239088197126290817E-16, 0.000000000000000000 ) ) ;
#966 = EDGE_CURVE ( 'NONE', #439, #194, #44, .T. ) ;
#967 = DIRECTION ( 'NONE',  ( -1.000000000000000000, -1.210205401168416090E-16, 0.000000000000000000 ) ) ;
#968 = FACE_OUTER_BOUND ( 'NONE', #117, .T. ) ;
#969 = EDGE_LOOP ( 'NONE', ( #1021, #35, #195, #659 ) ) ;
#970 = FACE_OUTER_BOUND ( 'NONE', #1039, .T. ) ;
#971 = ORIENTED_EDGE ( 'NONE', *, *, #686, .F. ) ;
#972 = ORIENTED_EDGE ( 'NONE', *, *, #192, .T. ) ;
#973 = LINE ( 'NONE', #802, #371 ) ;
#974 = EDGE_CURVE ( 'NONE', #766, #622, #153, .T. ) ;
#975 = LINE ( 'NONE', #1275, #935 ) ;
#976 = CARTESIAN_POINT ( 'NONE',  ( 1.000000000000003775, 1.210205401168420035E-16, 17.16666667000000146 ) ) ;
#977 = EDGE_CURVE ( 'NONE', #1088, #140, #658, .T. ) ;
#978 = CARTESIAN_POINT ( 'NONE',  ( 1.000000000000000000, 28.99999999999999289, 17.16666667000000146 ) ) ;
#979 = CARTESIAN_POINT ( 'NONE',  ( 119.0000000000000142, -2.983400436350443808E-14, 17.16666667000000146 ) ) ;
#980 = ORIENTED_EDGE ( 'NONE', *, *, #192, .F. ) ;
#981 = CARTESIAN_POINT ( 'NONE',  ( 7.102951435054651215E-15, -29.00000000000000355, 0.000000000000000000 ) ) ;
#982 = DIRECTION ( 'NONE',  ( 3.097720492815727659E-17, 1.000000000000000000, -0.000000000000000000 ) ) ;
#983 = CARTESIAN_POINT ( 'NONE',  ( 61.00000000000000711, -1.761850553430331939E-16, 17.16666667000000146 ) ) ;
#984 = VECTOR ( 'NONE', #967, 1000.000000000000000 ) ;
#985 = CARTESIAN_POINT ( 'NONE',  ( 91.00000000000000000, -0.9999999999999852340, 17.16666667000000146 ) ) ;
#986 = VECTOR ( 'NONE', #471, 1000.000000000000000 ) ;
#987 = ORIENTED_EDGE ( 'NONE', *, *, #1010, .F. ) ;
#988 = AXIS2_PLACEMENT_3D ( 'NONE', #844, #1016, #110 ) ;
#989 = CARTESIAN_POINT ( 'NONE',  ( 91.00000000000000000, 0.000000000000000000, 17.16666667000000146 ) ) ;
#990 = CARTESIAN_POINT ( 'NONE',  ( 91.00000000000000000, 29.00000000000000355, 17.16666667000000146 ) ) ;
#991 = PLANE ( 'NONE',  #859 ) ;
#992 = ORIENTED_EDGE ( 'NONE', *, *, #390, .F. ) ;
#993 = PRODUCT_DEFINITION ( 'UNKNOWN', '', #809, #1261 ) ;
#994 = DIRECTION ( 'NONE',  ( 1.000000000000000000, 2.787948443534155386E-16, 0.000000000000000000 ) ) ;
#995 = CARTESIAN_POINT ( 'NONE',  ( 61.00000000000000711, 1.511687600494074664E-14, 17.16666667000000146 ) ) ;
#996 = DIRECTION ( 'NONE',  ( -2.787948443534155386E-16, 1.000000000000000000, 0.000000000000000000 ) ) ;
#997 = VERTEX_POINT ( 'NONE', #857 ) ;
#998 = CARTESIAN_POINT ( 'NONE',  ( 31.00000000000000000, 28.99999999999999645, 17.16666667000000146 ) ) ;
#999 = FACE_OUTER_BOUND ( 'NONE', #432, .T. ) ;
#1000 = DIRECTION ( 'NONE',  ( -1.000000000000000000, 0.000000000000000000, 0.000000000000000000 ) ) ;
#1001 = AXIS2_PLACEMENT_3D ( 'NONE', #657, #456, #1052 ) ;
#1002 = ORIENTED_EDGE ( 'NONE', *, *, #587, .F. ) ;
#1003 = AXIS2_PLACEMENT_3D ( 'NONE', #8, #310, #719 ) ;
#1004 = VECTOR ( 'NONE', #1309, 1000.000000000000000 ) ;
#1005 = ADVANCED_FACE ( 'NONE', ( #675 ), #161, .F. ) ;
#1006 = DIRECTION ( 'NONE',  ( -1.000000000000000000, -2.449293598294706907E-16, 0.000000000000000000 ) ) ;
#1007 = ORIENTED_EDGE ( 'NONE', *, *, #466, .T. ) ;
#1008 = ADVANCED_FACE ( 'NONE', ( #375 ), #757, .T. ) ;
#1009 = FACE_OUTER_BOUND ( 'NONE', #434, .T. ) ;
#1010 = EDGE_CURVE ( 'NONE', #1023, #125, #355, .T. ) ;
#1011 = VERTEX_POINT ( 'NONE', #249 ) ;
#1012 = ORIENTED_EDGE ( 'NONE', *, *, #562, .T. ) ;
#1013 = CARTESIAN_POINT ( 'NONE',  ( 29.00000000000000711, -28.99999999999998934, 0.000000000000000000 ) ) ;
#1014 = EDGE_CURVE ( 'NONE', #501, #1281, #235, .T. ) ;
#1015 = EDGE_LOOP ( 'NONE', ( #1214, #714, #663, #731 ) ) ;
#1016 = DIRECTION ( 'NONE',  ( -1.239088197126291063E-16, 1.000000000000000000, 0.000000000000000000 ) ) ;
#1017 = VERTEX_POINT ( 'NONE', #1270 ) ;
#1018 = VECTOR ( 'NONE', #1195, 1000.000000000000000 ) ;
#1019 = PLANE ( 'NONE',  #602 ) ;
#1020 = CARTESIAN_POINT ( 'NONE',  ( 59.00000000000000711, -28.99999999999998934, 0.000000000000000000 ) ) ;
#1021 = ORIENTED_EDGE ( 'NONE', *, *, #6, .T. ) ;
#1022 = DIRECTION ( 'NONE',  ( -1.000000000000000000, 0.000000000000000000, 0.000000000000000000 ) ) ;
#1023 = VERTEX_POINT ( 'NONE', #770 ) ;
#1024 = DIRECTION ( 'NONE',  ( -1.000000000000000000, 0.000000000000000000, 0.000000000000000000 ) ) ;
#1025 = CARTESIAN_POINT ( 'NONE',  ( 29.00000000000000000, 1.000000000000000000, 17.16666667000000146 ) ) ;
#1026 = ORIENTED_EDGE ( 'NONE', *, *, #366, .F. ) ;
#1027 = FACE_OUTER_BOUND ( 'NONE', #948, .T. ) ;
#1028 = EDGE_LOOP ( 'NONE', ( #789, #1306, #846, #68 ) ) ;
#1029 = DIRECTION ( 'NONE',  ( 0.000000000000000000, -1.000000000000000000, 0.000000000000000000 ) ) ;
#1030 = FACE_BOUND ( 'NONE', #1028, .T. ) ;
#1031 = ORIENTED_EDGE ( 'NONE', *, *, #541, .F. ) ;
#1032 = CARTESIAN_POINT ( 'NONE',  ( 59.00000000000000000, 1.000000000000000000, 17.16666667000000146 ) ) ;
#1033 = ORIENTED_EDGE ( 'NONE', *, *, #1304, .F. ) ;
#1034 = CARTESIAN_POINT ( 'NONE',  ( 3.878433842930505744E-15, -30.00000000000000000, 17.16666667000000146 ) ) ;
#1035 = AXIS2_PLACEMENT_3D ( 'NONE', #1152, #260, #1053 ) ;
#1036 = AXIS2_PLACEMENT_3D ( 'NONE', #905, #1221, #1006 ) ;
#1037 = DIRECTION ( 'NONE',  ( -0.000000000000000000, -0.000000000000000000, -1.000000000000000000 ) ) ;
#1038 = FACE_BOUND ( 'NONE', #922, .T. ) ;
#1039 = EDGE_LOOP ( 'NONE', ( #580, #1319, #700, #1199 ) ) ;
#1040 = FACE_OUTER_BOUND ( 'NONE', #9, .T. ) ;
#1041 = VERTEX_POINT ( 'NONE', #1076 ) ;
#1042 = EDGE_LOOP ( 'NONE', ( #424, #536, #954, #1312 ) ) ;
#1043 = CARTESIAN_POINT ( 'NONE',  ( 31.00000000000000711, -28.99999999999998934, 0.000000000000000000 ) ) ;
#1044 = CARTESIAN_POINT ( 'NONE',  ( 31.00000000000000355, 1.000000000000000888, 17.16666667000000146 ) ) ;
#1045 = DIRECTION ( 'NONE',  ( 1.000000000000000000, 2.787948443534153414E-16, 0.000000000000000000 ) ) ;
#1046 = ADVANCED_FACE ( 'NONE', ( #968 ), #849, .F. ) ;
#1047 = ADVANCED_FACE ( 'NONE', ( #1171 ), #32, .T. ) ;
#1048 = DIRECTION ( 'NONE',  ( 2.507059190210457346E-16, 1.000000000000000000, 0.000000000000000000 ) ) ;
#1049 = ORIENTED_EDGE ( 'NONE', *, *, #168, .T. ) ;
#1050 = ORIENTED_EDGE ( 'NONE', *, *, #701, .F. ) ;
#1051 = CARTESIAN_POINT ( 'NONE',  ( 89.00000000000001421, -28.99999999999998579, 17.16666667000000146 ) ) ;
#1052 = DIRECTION ( 'NONE',  ( -1.000000000000000000, -1.292811280976835429E-16, 0.000000000000000000 ) ) ;
#1053 = DIRECTION ( 'NONE',  ( 0.000000000000000000, 0.000000000000000000, 1.000000000000000000 ) ) ;
#1054 = VERTEX_POINT ( 'NONE', #473 ) ;
#1055 = EDGE_CURVE ( 'NONE', #1011, #246, #880, .T. ) ;
#1056 = EDGE_LOOP ( 'NONE', ( #635, #853, #1308, #684 ) ) ;
#1057 = EDGE_LOOP ( 'NONE', ( #442, #610, #1260, #972 ) ) ;
#1058 = LINE ( 'NONE', #37, #748 ) ;
#1059 = VECTOR ( 'NONE', #1205, 1000.000000000000000 ) ;
#1060 = CARTESIAN_POINT ( 'NONE',  ( 31.00000000000000355, 1.000000000000000888, 0.000000000000000000 ) ) ;
#1061 = AXIS2_PLACEMENT_3D ( 'NONE', #1095, #904, #187 ) ;
#1062 = DIRECTION ( 'NONE',  ( -1.000000000000000000, -1.210205401168415597E-16, 0.000000000000000000 ) ) ;
#1063 = AXIS2_PLACEMENT_3D ( 'NONE', #433, #923, #1117 ) ;
#1064 = ORIENTED_EDGE ( 'NONE', *, *, #1055, .T. ) ;
#1065 = ORIENTED_EDGE ( 'NONE', *, *, #822, .T. ) ;
#1066 = ORIENTED_EDGE ( 'NONE', *, *, #1264, .T. ) ;
#1067 = ADVANCED_FACE ( 'NONE', ( #961 ), #1263, .F. ) ;
#1068 = ADVANCED_FACE ( 'NONE', ( #465 ), #889, .T. ) ;
#1069 = CARTESIAN_POINT ( 'NONE',  ( 61.00000000000000711, -0.9999999999999852340, 17.16666667000000146 ) ) ;
#1070 = DIRECTION ( 'NONE',  ( -1.210205401168415844E-16, 1.000000000000000000, 0.000000000000000000 ) ) ;
#1071 = CARTESIAN_POINT ( 'NONE',  ( 1.000000000000003553, 1.000000000000000000, 0.000000000000000000 ) ) ;
#1072 = CARTESIAN_POINT ( 'NONE',  ( -2.787948443534104110E-16, 0.9999999999999822364, 17.16666667000000146 ) ) ;
#1073 = ORIENTED_EDGE ( 'NONE', *, *, #686, .T. ) ;
#1074 = CARTESIAN_POINT ( 'NONE',  ( 1.000000000000003553, 1.000000000000000000, 17.16666667000000146 ) ) ;
#1075 = DIRECTION ( 'NONE',  ( -1.000000000000000000, 3.097720492815727659E-17, 0.000000000000000000 ) ) ;
#1076 = CARTESIAN_POINT ( 'NONE',  ( 59.00000000000000711, -28.99999999999998934, 17.16666667000000146 ) ) ;
#1077 = CARTESIAN_POINT ( 'NONE',  ( 29.00000000000000000, -0.9999999999999928946, 17.16666667000000146 ) ) ;
#1078 = VERTEX_POINT ( 'NONE', #481 ) ;
#1079 = LINE ( 'NONE', #777, #808 ) ;
#1080 = DIRECTION ( 'NONE',  ( -1.000000000000000000, -2.449293598294706907E-16, 0.000000000000000000 ) ) ;
#1081 = DIRECTION ( 'NONE',  ( -0.000000000000000000, 0.000000000000000000, -1.000000000000000000 ) ) ;
#1082 = AXIS2_PLACEMENT_3D ( 'NONE', #486, #1196, #1284 ) ;
#1083 = ORIENTED_EDGE ( 'NONE', *, *, #636, .F. ) ;
#1084 = DIRECTION ( 'NONE',  ( -1.239088197126291063E-16, 1.000000000000000000, 0.000000000000000000 ) ) ;
#1085 = CARTESIAN_POINT ( 'NONE',  ( 89.00000000000000000, 1.000000000000007994, 0.000000000000000000 ) ) ;
#1086 = CARTESIAN_POINT ( 'NONE',  ( 1.000000000000003553, 1.000000000000000000, 17.16666667000000146 ) ) ;
#1087 = EDGE_CURVE ( 'NONE', #1209, #475, #578, .T. ) ;
#1088 = VERTEX_POINT ( 'NONE', #1290 ) ;
#1089 = CARTESIAN_POINT ( 'NONE',  ( 7.347880794884119933E-15, -30.00000000000000000, 17.16666667000000146 ) ) ;
#1090 = FACE_OUTER_BOUND ( 'NONE', #956, .T. ) ;
#1091 = DIRECTION ( 'NONE',  ( 0.000000000000000000, -0.000000000000000000, 1.000000000000000000 ) ) ;
#1092 = CARTESIAN_POINT ( 'NONE',  ( -2.787948443534108547E-16, 0.9999999999999833467, 17.16666667000000146 ) ) ;
#1093 = ORIENTED_EDGE ( 'NONE', *, *, #737, .T. ) ;
#1094 = ADVANCED_FACE ( 'NONE', ( #999 ), #70, .F. ) ;
#1095 = CARTESIAN_POINT ( 'NONE',  ( 0.000000000000000000, 0.000000000000000000, 0.000000000000000000 ) ) ;
#1096 = FACE_OUTER_BOUND ( 'NONE', #1154, .T. ) ;
#1097 = PLANE ( 'NONE',  #1036 ) ;
#1098 = VECTOR ( 'NONE', #49, 1000.000000000000000 ) ;
#1099 = ORIENTED_EDGE ( 'NONE', *, *, #165, .F. ) ;
#1100 = VECTOR ( 'NONE', #478, 1000.000000000000000 ) ;
#1101 = VERTEX_POINT ( 'NONE', #787 ) ;
#1102 = ADVANCED_FACE ( 'NONE', ( #75 ), #272, .F. ) ;
#1103 = EDGE_CURVE ( 'NONE', #1165, #67, #380, .T. ) ;
#1104 = FACE_OUTER_BOUND ( 'NONE', #518, .T. ) ;
#1105 = ORIENTED_EDGE ( 'NONE', *, *, #914, .T. ) ;
#1106 = ORIENTED_EDGE ( 'NONE', *, *, #1264, .F. ) ;
#1107 = ADVANCED_FACE ( 'NONE', ( #1090 ), #492, .F. ) ;
#1108 = CARTESIAN_POINT ( 'NONE',  ( 29.00000000000000000, -0.9999999999999928946, 0.000000000000000000 ) ) ;
#1109 = DIRECTION ( 'NONE',  ( -0.000000000000000000, -0.000000000000000000, -1.000000000000000000 ) ) ;
#1110 = ORIENTED_EDGE ( 'NONE', *, *, #198, .F. ) ;
#1111 = DIRECTION ( 'NONE',  ( -0.000000000000000000, -0.000000000000000000, -1.000000000000000000 ) ) ;
#1112 = CARTESIAN_POINT ( 'NONE',  ( 91.00000000000000000, 1.000000000000007550, 17.16666667000000146 ) ) ;
#1113 = EDGE_LOOP ( 'NONE', ( #133, #940, #891, #729 ) ) ;
#1114 = LINE ( 'NONE', #203, #881 ) ;
#1115 = CARTESIAN_POINT ( 'NONE',  ( 59.00000000000000711, -28.99999999999998934, 17.16666667000000146 ) ) ;
#1116 = ORIENTED_EDGE ( 'NONE', *, *, #1203, .T. ) ;
#1117 = DIRECTION ( 'NONE',  ( -1.000000000000000000, -1.156482317317871478E-16, 0.000000000000000000 ) ) ;
#1118 = EDGE_CURVE ( 'NONE', #1017, #782, #1183, .T. ) ;
#1119 = VECTOR ( 'NONE', #327, 1000.000000000000000 ) ;
#1120 = VECTOR ( 'NONE', #660, 1000.000000000000000 ) ;
#1121 = CARTESIAN_POINT ( 'NONE',  ( 7.347880794884119933E-15, -30.00000000000000000, 17.16666667000000146 ) ) ;
#1122 = CARTESIAN_POINT ( 'NONE',  ( 0.000000000000000000, 0.000000000000000000, 0.000000000000000000 ) ) ;
#1123 = CARTESIAN_POINT ( 'NONE',  ( 29.00000000000000000, 28.99999999999999645, 17.16666667000000146 ) ) ;
#1124 = ORIENTED_EDGE ( 'NONE', *, *, #718, .T. ) ;
#1125 = LINE ( 'NONE', #377, #1208 ) ;
#1126 = ORIENTED_EDGE ( 'NONE', *, *, #367, .F. ) ;
#1127 = LINE ( 'NONE', #43, #496 ) ;
#1128 = FACE_OUTER_BOUND ( 'NONE', #435, .T. ) ;
#1129 = CARTESIAN_POINT ( 'NONE',  ( -3.593355771666243492E-15, 28.99999999999999289, 17.16666667000000146 ) ) ;
#1130 = DIRECTION ( 'NONE',  ( 2.449293598294706907E-16, -1.000000000000000000, 0.000000000000000000 ) ) ;
#1131 = ORIENTED_EDGE ( 'NONE', *, *, #243, .F. ) ;
#1132 = EDGE_CURVE ( 'NONE', #704, #804, #63, .T. ) ;
#1133 = LINE ( 'NONE', #1140, #1311 ) ;
#1134 = CARTESIAN_POINT ( 'NONE',  ( 59.00000000000000000, 0.000000000000000000, 17.16666667000000146 ) ) ;
#1135 = FACE_BOUND ( 'NONE', #47, .T. ) ;
#1136 = VERTEX_POINT ( 'NONE', #1085 ) ;
#1137 = CARTESIAN_POINT ( 'NONE',  ( 61.00000000000000000, 29.00000000000000355, 0.000000000000000000 ) ) ;
#1138 = VERTEX_POINT ( 'NONE', #990 ) ;
#1139 = ORIENTED_EDGE ( 'NONE', *, *, #66, .F. ) ;
#1140 = CARTESIAN_POINT ( 'NONE',  ( 59.00000000000000000, -0.9999999999999854561, 17.16666667000000146 ) ) ;
#1141 = VECTOR ( 'NONE', #656, 1000.000000000000000 ) ;
#1142 = VECTOR ( 'NONE', #15, 1000.000000000000000 ) ;
#1143 = ADVANCED_FACE ( 'NONE', ( #180 ), #591, .F. ) ;
#1144 = VECTOR ( 'NONE', #693, 1000.000000000000000 ) ;
#1145 = CARTESIAN_POINT ( 'NONE',  ( 7.347880794884119933E-15, 30.00000000000001421, -1.000000000000000000 ) ) ;
#1146 = CARTESIAN_POINT ( 'NONE',  ( 1.000000000000003775, 1.239088197126295747E-16, 0.000000000000000000 ) ) ;
#1147 = LINE ( 'NONE', #1317, #1167 ) ;
#1148 = ORIENTED_EDGE ( 'NONE', *, *, #679, .F. ) ;
#1149 = VERTEX_POINT ( 'NONE', #743 ) ;
#1150 = SURFACE_SIDE_STYLE ('',( #647 ) ) ;
#1151 = DIRECTION ( 'NONE',  ( 1.000000000000000000, 2.759065647576279673E-16, 0.000000000000000000 ) ) ;
#1152 = CARTESIAN_POINT ( 'NONE',  ( 29.00000000000000000, 0.000000000000000000, 17.16666667000000146 ) ) ;
#1153 = EDGE_CURVE ( 'NONE', #875, #1164, #215, .T. ) ;
#1154 = EDGE_LOOP ( 'NONE', ( #450, #742, #924, #533 ) ) ;
#1155 = LINE ( 'NONE', #146, #861 ) ;
#1156 = EDGE_LOOP ( 'NONE', ( #627, #506, #1232, #254 ) ) ;
#1157 = ORIENTED_EDGE ( 'NONE', *, *, #502, .F. ) ;
#1158 = LINE ( 'NONE', #569, #1141 ) ;
#1159 = DIRECTION ( 'NONE',  ( -0.000000000000000000, -0.000000000000000000, -1.000000000000000000 ) ) ;
#1160 = DIRECTION ( 'NONE',  ( -2.759065647576279673E-16, 1.000000000000000000, 0.000000000000000000 ) ) ;
#1161 = LINE ( 'NONE', #1129, #515 ) ;
#1162 = PLANE ( 'NONE',  #621 ) ;
#1163 = EDGE_CURVE ( 'NONE', #18, #807, #418, .T. ) ;
#1164 = VERTEX_POINT ( 'NONE', #1032 ) ;
#1165 = VERTEX_POINT ( 'NONE', #1137 ) ;
#1166 = FILL_AREA_STYLE_COLOUR ( '', #958 ) ;
#1167 = VECTOR ( 'NONE', #508, 1000.000000000000000 ) ;
#1168 = DIRECTION ( 'NONE',  ( -0.000000000000000000, -0.000000000000000000, -1.000000000000000000 ) ) ;
#1169 = AXIS2_PLACEMENT_3D ( 'NONE', #572, #952, #649 ) ;
#1170 = AXIS2_PLACEMENT_3D ( 'NONE', #550, #953, #764 ) ;
#1171 = FACE_OUTER_BOUND ( 'NONE', #115, .T. ) ;
#1172 = AXIS2_PLACEMENT_3D ( 'NONE', #519, #941, #1022 ) ;
#1173 = CARTESIAN_POINT ( 'NONE',  ( 119.0000000000000142, 5.898059818321145383E-14, 0.000000000000000000 ) ) ;
#1174 =( NAMED_UNIT ( * ) SI_UNIT ( $, .STERADIAN. ) SOLID_ANGLE_UNIT ( ) );
#1175 = ORIENTED_EDGE ( 'NONE', *, *, #1153, .T. ) ;
#1176 = LINE ( 'NONE', #797, #936 ) ;
#1177 = CARTESIAN_POINT ( 'NONE',  ( 61.00000000000000711, 1.511687600494074664E-14, 17.16666667000000146 ) ) ;
#1178 = CARTESIAN_POINT ( 'NONE',  ( 1.000000000000003775, 1.210205401168420035E-16, 17.16666667000000146 ) ) ;
#1179 = DIRECTION ( 'NONE',  ( -0.000000000000000000, -0.000000000000000000, -1.000000000000000000 ) ) ;
#1180 = DIRECTION ( 'NONE',  ( -0.000000000000000000, -0.000000000000000000, -1.000000000000000000 ) ) ;
#1181 = ORIENTED_EDGE ( 'NONE', *, *, #112, .F. ) ;
#1182 = DIRECTION ( 'NONE',  ( 1.000000000000000000, 1.239088197126291063E-16, -0.000000000000000000 ) ) ;
#1183 = LINE ( 'NONE', #983, #426 ) ;
#1184 = DIRECTION ( 'NONE',  ( 0.000000000000000000, 1.000000000000000000, 0.000000000000000000 ) ) ;
#1185 = ORIENTED_EDGE ( 'NONE', *, *, #528, .F. ) ;
#1186 = CARTESIAN_POINT ( 'NONE',  ( 119.0000000000000000, 29.00000000000000711, 17.16666667000000146 ) ) ;
#1187 = ADVANCED_FACE ( 'NONE', ( #1027 ), #10, .T. ) ;
#1188 = DIRECTION ( 'NONE',  ( -2.888279595787423346E-18, -1.000000000000000000, 0.000000000000000000 ) ) ;
#1189 = VECTOR ( 'NONE', #638, 1000.000000000000000 ) ;
#1190 = ADVANCED_FACE ( 'NONE', ( #201 ), #307, .F. ) ;
#1191 = STYLED_ITEM ( 'NONE', ( #950 ), #570 ) ;
#1192 = PLANE ( 'NONE',  #672 ) ;
#1193 = VECTOR ( 'NONE', #106, 1000.000000000000000 ) ;
#1194 = EDGE_LOOP ( 'NONE', ( #720, #1157, #1223, #21 ) ) ;
#1195 = DIRECTION ( 'NONE',  ( -0.000000000000000000, -0.000000000000000000, -1.000000000000000000 ) ) ;
#1196 = DIRECTION ( 'NONE',  ( -1.000000000000000000, 0.000000000000000000, 0.000000000000000000 ) ) ;
#1197 = LINE ( 'NONE', #482, #127 ) ;
#1198 = ADVANCED_FACE ( 'NONE', ( #19 ), #228, .T. ) ;
#1199 = ORIENTED_EDGE ( 'NONE', *, *, #728, .T. ) ;
#1200 = LINE ( 'NONE', #387, #452 ) ;
#1201 = DIRECTION ( 'NONE',  ( -1.000000000000000000, 0.000000000000000000, 0.000000000000000000 ) ) ;
#1202 = ORIENTED_EDGE ( 'NONE', *, *, #728, .F. ) ;
#1203 = EDGE_CURVE ( 'NONE', #1259, #1136, #1224, .T. ) ;
#1204 = ADVANCED_FACE ( 'NONE', ( #721 ), #643, .T. ) ;
#1205 = DIRECTION ( 'NONE',  ( 1.000000000000000000, -3.097720492815727659E-17, 0.000000000000000000 ) ) ;
#1206 = ORIENTED_EDGE ( 'NONE', *, *, #930, .T. ) ;
#1207 = VECTOR ( 'NONE', #444, 1000.000000000000000 ) ;
#1208 = VECTOR ( 'NONE', #469, 1000.000000000000000 ) ;
#1209 = VERTEX_POINT ( 'NONE', #1313 ) ;
#1210 = PLANE ( 'NONE',  #419 ) ;
#1211 = CARTESIAN_POINT ( 'NONE',  ( -3.469446951953614189E-15, 30.00000000000000000, 17.16666667000000146 ) ) ;
#1212 = ORIENTED_EDGE ( 'NONE', *, *, #974, .F. ) ;
#1213 = FACE_OUTER_BOUND ( 'NONE', #947, .T. ) ;
#1214 = ORIENTED_EDGE ( 'NONE', *, *, #467, .T. ) ;
#1215 = ADVANCED_FACE ( 'NONE', ( #1213 ), #1237, .T. ) ;
#1216 = CARTESIAN_POINT ( 'NONE',  ( 29.00000000000000000, 28.99999999999999645, 17.16666667000000146 ) ) ;
#1217 = LINE ( 'NONE', #1211, #618 ) ;
#1218 = EDGE_LOOP ( 'NONE', ( #427, #943, #476, #557 ) ) ;
#1219 = DIRECTION ( 'NONE',  ( 1.239088197126291063E-16, -1.000000000000000000, 0.000000000000000000 ) ) ;
#1220 = CARTESIAN_POINT ( 'NONE',  ( 0.000000000000000000, 0.000000000000000000, 0.000000000000000000 ) ) ;
#1221 = DIRECTION ( 'NONE',  ( -2.449293598294706907E-16, 1.000000000000000000, 0.000000000000000000 ) ) ;
#1222 = CARTESIAN_POINT ( 'NONE',  ( 31.00000000000000355, 1.000000000000000888, 17.16666667000000146 ) ) ;
#1223 = ORIENTED_EDGE ( 'NONE', *, *, #913, .T. ) ;
#1224 = LINE ( 'NONE', #116, #1254 ) ;
#1225 = VECTOR ( 'NONE', #23, 1000.000000000000000 ) ;
#1226 = VERTEX_POINT ( 'NONE', #209 ) ;
#1227 = CARTESIAN_POINT ( 'NONE',  ( 119.0000000000000142, -28.99999999999998224, 17.16666667000000146 ) ) ;
#1228 = DIRECTION ( 'NONE',  ( 2.449293598294706907E-16, -1.000000000000000000, 0.000000000000000000 ) ) ;
#1229 = EDGE_CURVE ( 'NONE', #782, #819, #634, .T. ) ;
#1230 = ORIENTED_EDGE ( 'NONE', *, *, #198, .T. ) ;
#1231 = CARTESIAN_POINT ( 'NONE',  ( 61.00000000000000711, -28.99999999999998934, 17.16666667000000146 ) ) ;
#1232 = ORIENTED_EDGE ( 'NONE', *, *, #977, .F. ) ;
#1233 = CARTESIAN_POINT ( 'NONE',  ( 31.00000000000000711, -28.99999999999998934, 17.16666667000000146 ) ) ;
#1234 = CARTESIAN_POINT ( 'NONE',  ( 31.00000000000000711, -28.99999999999998934, 17.16666667000000146 ) ) ;
#1235 = PLANE ( 'NONE',  #1314 ) ;
#1236 = VERTEX_POINT ( 'NONE', #534 ) ;
#1237 = PLANE ( 'NONE',  #42 ) ;
#1238 = CARTESIAN_POINT ( 'NONE',  ( 120.0000000000000000, 30.00000000000001421, -1.000000000000000000 ) ) ;
#1239 = ORIENTED_EDGE ( 'NONE', *, *, #791, .T. ) ;
#1240 = ADVANCED_FACE ( 'NONE', ( #1040 ), #510, .F. ) ;
#1241 = ORIENTED_EDGE ( 'NONE', *, *, #505, .T. ) ;
#1242 = EDGE_CURVE ( 'NONE', #1249, #67, #325, .T. ) ;
#1243 = CARTESIAN_POINT ( 'NONE',  ( 91.00000000000000000, -0.9999999999999852340, 0.000000000000000000 ) ) ;
#1244 = CARTESIAN_POINT ( 'NONE',  ( 120.0000000000000000, 30.00000000000001421, -1.000000000000000000 ) ) ;
#1245 = CARTESIAN_POINT ( 'NONE',  ( 0.000000000000000000, 0.000000000000000000, -1.000000000000000000 ) ) ;
#1246 = LINE ( 'NONE', #236, #499 ) ;
#1247 = DIRECTION ( 'NONE',  ( 1.000000000000000000, 0.000000000000000000, 0.000000000000000000 ) ) ;
#1248 = DIRECTION ( 'NONE',  ( 1.000000000000000000, -0.000000000000000000, -0.000000000000000000 ) ) ;
#1249 = VERTEX_POINT ( 'NONE', #735 ) ;
#1250 = ORIENTED_EDGE ( 'NONE', *, *, #718, .F. ) ;
#1251 = PLANE ( 'NONE',  #772 ) ;
#1252 = EDGE_CURVE ( 'NONE', #105, #439, #1320, .T. ) ;
#1253 = VECTOR ( 'NONE', #121, 1000.000000000000000 ) ;
#1254 = VECTOR ( 'NONE', #331, 1000.000000000000000 ) ;
#1255 = CARTESIAN_POINT ( 'NONE',  ( 2.759065647576284111E-16, -1.000000000000001776, 17.16666667000000146 ) ) ;
#1256 = DIRECTION ( 'NONE',  ( 1.000000000000000000, 2.449293598294706907E-16, -0.000000000000000000 ) ) ;
#1257 = DIRECTION ( 'NONE',  ( 1.000000000000000000, 4.956352788505164254E-16, -0.000000000000000000 ) ) ;
#1258 = DIRECTION ( 'NONE',  ( 0.000000000000000000, 0.000000000000000000, 1.000000000000000000 ) ) ;
#1259 = VERTEX_POINT ( 'NONE', #413 ) ;
#1260 = ORIENTED_EDGE ( 'NONE', *, *, #552, .T. ) ;
#1261 = PRODUCT_DEFINITION_CONTEXT ( 'detailed design', #92, 'design' ) ;
#1262 = CARTESIAN_POINT ( 'NONE',  ( 120.0000000000000000, 30.00000000000001421, 17.16666667000000146 ) ) ;
#1263 = PLANE ( 'NONE',  #917 ) ;
#1264 = EDGE_CURVE ( 'NONE', #845, #1209, #408, .T. ) ;
#1265 = EDGE_LOOP ( 'NONE', ( #483, #598, #1230, #148 ) ) ;
#1266 = DIRECTION ( 'NONE',  ( 0.000000000000000000, 0.000000000000000000, 1.000000000000000000 ) ) ;
#1267 = ORIENTED_EDGE ( 'NONE', *, *, #966, .F. ) ;
#1268 = ORIENTED_EDGE ( 'NONE', *, *, #1252, .F. ) ;
#1269 = FACE_OUTER_BOUND ( 'NONE', #3, .T. ) ;
#1270 = CARTESIAN_POINT ( 'NONE',  ( 61.00000000000000711, -0.9999999999999852340, 17.16666667000000146 ) ) ;
#1271 = LINE ( 'NONE', #689, #85 ) ;
#1272 = CARTESIAN_POINT ( 'NONE',  ( 31.00000000000000000, 28.99999999999999645, 0.000000000000000000 ) ) ;
#1273 = ORIENTED_EDGE ( 'NONE', *, *, #834, .T. ) ;
#1274 = PLANE ( 'NONE',  #189 ) ;
#1275 = CARTESIAN_POINT ( 'NONE',  ( 31.00000000000000355, 3.751636743622088919E-15, 0.000000000000000000 ) ) ;
#1276 = VECTOR ( 'NONE', #517, 1000.000000000000000 ) ;
#1277 = VECTOR ( 'NONE', #268, 1000.000000000000000 ) ;
#1278 = DIRECTION ( 'NONE',  ( 0.000000000000000000, 1.000000000000000000, -0.000000000000000000 ) ) ;
#1279 = DIRECTION ( 'NONE',  ( -0.000000000000000000, 0.000000000000000000, -1.000000000000000000 ) ) ;
#1280 = EDGE_CURVE ( 'NONE', #653, #875, #820, .T. ) ;
#1281 = VERTEX_POINT ( 'NONE', #312 ) ;
#1282 = DIRECTION ( 'NONE',  ( -0.000000000000000000, -0.000000000000000000, -1.000000000000000000 ) ) ;
#1283 = APPLICATION_CONTEXT ( 'automotive_design' ) ;
#1284 = DIRECTION ( 'NONE',  ( 0.000000000000000000, 0.000000000000000000, 1.000000000000000000 ) ) ;
#1285 = LINE ( 'NONE', #682, #1004 ) ;
#1286 = ORIENTED_EDGE ( 'NONE', *, *, #347, .T. ) ;
#1287 = EDGE_CURVE ( 'NONE', #795, #1011, #1125, .T. ) ;
#1288 = DIRECTION ( 'NONE',  ( 1.000000000000000000, 2.449293598294706907E-16, 0.000000000000000000 ) ) ;
#1289 = ADVANCED_FACE ( 'NONE', ( #970 ), #876, .T. ) ;
#1290 = CARTESIAN_POINT ( 'NONE',  ( 1.000000000000007105, -28.99999999999999289, 17.16666667000000146 ) ) ;
#1291 = DIRECTION ( 'NONE',  ( -0.000000000000000000, -0.000000000000000000, -1.000000000000000000 ) ) ;
#1292 = VERTEX_POINT ( 'NONE', #781 ) ;
#1293 = CARTESIAN_POINT ( 'NONE',  ( 120.0000000000000000, 30.00000000000001421, -1.000000000000000000 ) ) ;
#1294 = EDGE_CURVE ( 'NONE', #1017, #18, #34, .T. ) ;
#1295 = DIRECTION ( 'NONE',  ( -1.000000000000000000, -2.478176394252580648E-16, 0.000000000000000000 ) ) ;
#1296 = VECTOR ( 'NONE', #1029, 1000.000000000000000 ) ;
#1297 = AXIS2_PLACEMENT_3D ( 'NONE', #1245, #946, #267 ) ;
#1298 = LINE ( 'NONE', #895, #210 ) ;
#1299 = ORIENTED_EDGE ( 'NONE', *, *, #1280, .F. ) ;
#1300 = VERTEX_POINT ( 'NONE', #1272 ) ;
#1301 = FACE_OUTER_BOUND ( 'NONE', #317, .T. ) ;
#1302 = EDGE_CURVE ( 'NONE', #795, #1149, #132, .T. ) ;
#1303 = DIRECTION ( 'NONE',  ( 1.000000000000000000, 1.210205401168415844E-16, 0.000000000000000000 ) ) ;
#1304 = EDGE_CURVE ( 'NONE', #1164, #526, #1155, .T. ) ;
#1305 = FACE_OUTER_BOUND ( 'NONE', #1218, .T. ) ;
#1306 = ORIENTED_EDGE ( 'NONE', *, *, #652, .T. ) ;
#1307 = DIRECTION ( 'NONE',  ( -0.000000000000000000, -0.000000000000000000, -1.000000000000000000 ) ) ;
#1308 = ORIENTED_EDGE ( 'NONE', *, *, #505, .F. ) ;
#1309 = DIRECTION ( 'NONE',  ( 0.000000000000000000, 1.000000000000000000, -0.000000000000000000 ) ) ;
#1310 = PLANE ( 'NONE',  #1003 ) ;
#1311 = VECTOR ( 'NONE', #871, 1000.000000000000000 ) ;
#1312 = ORIENTED_EDGE ( 'NONE', *, *, #441, .T. ) ;
#1313 = CARTESIAN_POINT ( 'NONE',  ( 120.0000000000000000, -30.00000000000000000, -1.000000000000000000 ) ) ;
#1314 = AXIS2_PLACEMENT_3D ( 'NONE', #1178, #1062, #749 ) ;
#1315 = VECTOR ( 'NONE', #1130, 1000.000000000000000 ) ;
#1316 = DIRECTION ( 'NONE',  ( -0.000000000000000000, 0.000000000000000000, -1.000000000000000000 ) ) ;
#1317 = CARTESIAN_POINT ( 'NONE',  ( 1.000000000000003775, 1.239088197126295747E-16, 17.16666667000000146 ) ) ;
#1318 = LINE ( 'NONE', #305, #617 ) ;
#1319 = ORIENTED_EDGE ( 'NONE', *, *, #695, .F. ) ;
#1320 = LINE ( 'NONE', #912, #1315 ) ;
#1321 = CARTESIAN_POINT ( 'NONE',  ( 7.347880794884119933E-15, 30.00000000000001421, -1.000000000000000000 ) ) ;
#1322 = ADVANCED_FACE ( 'NONE', ( #269 ), #1162, .T. ) ;
#1323 = EDGE_CURVE ( 'NONE', #1149, #246, #566, .T. ) ;
ENDSEC;
END-ISO-10303-21;
