ISO-10303-21;
HEADER;
FILE_DESCRIPTION (( 'STEP AP214' ),
    '1' );
FILE_NAME ('Base_02 - LARGE.STEP',
    '2025-08-13T18:31:05',
    ( '' ),
    ( '' ),
    'SwSTEP 2.0',
    'SolidWorks 2024',
    '' );
FILE_SCHEMA (( 'AUTOMOTIVE_DESIGN' ));
ENDSEC;

DATA;
#1 = CARTESIAN_POINT ( 'NONE',  ( 91.00000000000000000, 29.00000000000000355, 17.16666667000000146 ) ) ;
#2 = CARTESIAN_POINT ( 'NONE',  ( 91.00000000000000000, 0.000000000000000000, 17.16666667000000146 ) ) ;
#3 = DIRECTION ( 'NONE',  ( 1.000000000000000000, 2.449293598294706907E-16, -0.000000000000000000 ) ) ;
#4 = EDGE_CURVE ( 'NONE', #708, #575, #1246, .T. ) ;
#5 = EDGE_CURVE ( 'NONE', #37, #652, #41, .T. ) ;
#6 = ORIENTED_EDGE ( 'NONE', *, *, #119, .T. ) ;
#7 = ORIENTED_EDGE ( 'NONE', *, *, #1242, .T. ) ;
#8 = AXIS2_PLACEMENT_3D ( 'NONE', #1272, #390, #204 ) ;
#9 = DIRECTION ( 'NONE',  ( -0.000000000000000000, -0.000000000000000000, -1.000000000000000000 ) ) ;
#10 = EDGE_CURVE ( 'NONE', #263, #1079, #933, .T. ) ;
#11 = DIRECTION ( 'NONE',  ( 0.000000000000000000, -1.000000000000000000, 0.000000000000000000 ) ) ;
#12 = CARTESIAN_POINT ( 'NONE',  ( 59.00000000000000000, 1.445083222993876957E-14, 17.16666667000000146 ) ) ;
#13 = EDGE_LOOP ( 'NONE', ( #6, #486, #1211, #511 ) ) ;
#14 = ORIENTED_EDGE ( 'NONE', *, *, #1091, .T. ) ;
#15 = VECTOR ( 'NONE', #947, 1000.000000000000000 ) ;
#16 = VECTOR ( 'NONE', #293, 1000.000000000000000 ) ;
#17 = DIRECTION ( 'NONE',  ( 1.000000000000000000, 0.000000000000000000, 0.000000000000000000 ) ) ;
#18 = CARTESIAN_POINT ( 'NONE',  ( 61.00000000000000711, 1.000000000000000222, 0.000000000000000000 ) ) ;
#19 = EDGE_LOOP ( 'NONE', ( #978, #618, #1182, #149 ) ) ;
#20 = ORIENTED_EDGE ( 'NONE', *, *, #831, .F. ) ;
#21 = CARTESIAN_POINT ( 'NONE',  ( 29.00000000000000000, 1.000000000000000000, 0.000000000000000000 ) ) ;
#22 = LINE ( 'NONE', #911, #1082 ) ;
#23 = CARTESIAN_POINT ( 'NONE',  ( 0.000000000000000000, 29.00000000000000355, 17.16666667000000146 ) ) ;
#24 = VERTEX_POINT ( 'NONE', #1046 ) ;
#25 = VERTEX_POINT ( 'NONE', #61 ) ;
#26 = EDGE_CURVE ( 'NONE', #724, #1181, #455, .T. ) ;
#27 = FACE_OUTER_BOUND ( 'NONE', #898, .T. ) ;
#28 = DIRECTION ( 'NONE',  ( 1.000000000000000000, -3.386548452394465063E-17, 0.000000000000000000 ) ) ;
#29 = EDGE_LOOP ( 'NONE', ( #720, #307, #793, #136 ) ) ;
#30 = ORIENTED_EDGE ( 'NONE', *, *, #1037, .F. ) ;
#31 = VECTOR ( 'NONE', #234, 1000.000000000000000 ) ;
#32 = CARTESIAN_POINT ( 'NONE',  ( 61.00000000000000711, -28.99999999999998934, 0.000000000000000000 ) ) ;
#33 = AXIS2_PLACEMENT_3D ( 'NONE', #1209, #1203, #39 ) ;
#34 = CARTESIAN_POINT ( 'NONE',  ( 29.00000000000000711, -28.99999999999998934, 0.000000000000000000 ) ) ;
#35 = VERTEX_POINT ( 'NONE', #148 ) ;
#36 = EDGE_CURVE ( 'NONE', #915, #1190, #49, .T. ) ;
#37 = VERTEX_POINT ( 'NONE', #657 ) ;
#38 = CARTESIAN_POINT ( 'NONE',  ( 120.0000000000000142, -29.99999999999998579, 0.000000000000000000 ) ) ;
#39 = DIRECTION ( 'NONE',  ( -1.000000000000000000, -1.156482317317871478E-16, 0.000000000000000000 ) ) ;
#40 = FACE_OUTER_BOUND ( 'NONE', #29, .T. ) ;
#41 = LINE ( 'NONE', #929, #15 ) ;
#42 = EDGE_CURVE ( 'NONE', #37, #91, #163, .T. ) ;
#43 = ORIENTED_EDGE ( 'NONE', *, *, #974, .T. ) ;
#44 = CARTESIAN_POINT ( 'NONE',  ( 91.00000000000000000, -0.9999999999999852340, 17.16666667000000146 ) ) ;
#45 = LINE ( 'NONE', #229, #420 ) ;
#46 = EDGE_CURVE ( 'NONE', #721, #1074, #558, .T. ) ;
#47 = PLANE ( 'NONE',  #935 ) ;
#48 = VECTOR ( 'NONE', #812, 1000.000000000000000 ) ;
#49 = LINE ( 'NONE', #1141, #351 ) ;
#50 = VECTOR ( 'NONE', #1087, 1000.000000000000000 ) ;
#51 = ORIENTED_EDGE ( 'NONE', *, *, #503, .T. ) ;
#52 = LINE ( 'NONE', #443, #442 ) ;
#53 = EDGE_CURVE ( 'NONE', #25, #668, #357, .T. ) ;
#54 = AXIS2_PLACEMENT_3D ( 'NONE', #1253, #767, #472 ) ;
#55 = VECTOR ( 'NONE', #959, 1000.000000000000000 ) ;
#56 = LINE ( 'NONE', #1157, #1202 ) ;
#57 = DIRECTION ( 'NONE',  ( -0.000000000000000000, -0.000000000000000000, -1.000000000000000000 ) ) ;
#58 = EDGE_LOOP ( 'NONE', ( #206, #972, #1177, #958 ) ) ;
#59 = LINE ( 'NONE', #352, #468 ) ;
#60 = DIRECTION ( 'NONE',  ( 1.000000000000000000, 4.956352788505164254E-16, -0.000000000000000000 ) ) ;
#61 = CARTESIAN_POINT ( 'NONE',  ( 59.00000000000000711, -28.99999999999998934, 0.000000000000000000 ) ) ;
#62 = CARTESIAN_POINT ( 'NONE',  ( 61.00000000000000711, -0.9999999999999852340, 0.000000000000000000 ) ) ;
#63 = ORIENTED_EDGE ( 'NONE', *, *, #1273, .F. ) ;
#64 = DIRECTION ( 'NONE',  ( -0.000000000000000000, -0.000000000000000000, -1.000000000000000000 ) ) ;
#65 = DIRECTION ( 'NONE',  ( 1.210205401168415844E-16, -1.000000000000000000, 0.000000000000000000 ) ) ;
#66 = PLANE ( 'NONE',  #75 ) ;
#67 = DIRECTION ( 'NONE',  ( 1.000000000000000000, 2.759065647576279673E-16, 0.000000000000000000 ) ) ;
#68 = DIRECTION ( 'NONE',  ( 1.000000000000000000, -3.386548452394484168E-17, 0.000000000000000000 ) ) ;
#69 = ORIENTED_EDGE ( 'NONE', *, *, #94, .T. ) ;
#70 = DIRECTION ( 'NONE',  ( 1.210205401168415597E-16, -1.000000000000000000, 0.000000000000000000 ) ) ;
#71 = DIRECTION ( 'NONE',  ( 1.000000000000000000, 1.210205401168415844E-16, 0.000000000000000000 ) ) ;
#72 = LINE ( 'NONE', #253, #132 ) ;
#73 = VECTOR ( 'NONE', #1017, 1000.000000000000000 ) ;
#74 = DIRECTION ( 'NONE',  ( -0.000000000000000000, -0.000000000000000000, -1.000000000000000000 ) ) ;
#75 = AXIS2_PLACEMENT_3D ( 'NONE', #649, #60, #1030 ) ;
#76 = VECTOR ( 'NONE', #1058, 1000.000000000000000 ) ;
#77 = ORIENTED_EDGE ( 'NONE', *, *, #10, .T. ) ;
#78 = CARTESIAN_POINT ( 'NONE',  ( 59.00000000000000000, 0.000000000000000000, 17.16666667000000146 ) ) ;
#79 = DIRECTION ( 'NONE',  ( 1.000000000000000000, 1.156482317317871478E-16, 0.000000000000000000 ) ) ;
#80 = PLANE ( 'NONE',  #54 ) ;
#81 = CARTESIAN_POINT ( 'NONE',  ( 59.00000000000000000, 1.000000000000000000, 17.16666667000000146 ) ) ;
#82 = EDGE_LOOP ( 'NONE', ( #692, #833, #1166, #449 ) ) ;
#83 = PRODUCT_DEFINITION ( 'UNKNOWN', '', #115, #1207 ) ;
#84 = EDGE_LOOP ( 'NONE', ( #762, #650, #713, #582 ) ) ;
#85 = CARTESIAN_POINT ( 'NONE',  ( 119.0000000000000142, -2.983400436350443808E-14, 0.000000000000000000 ) ) ;
#86 = LINE ( 'NONE', #1066, #590 ) ;
#87 = ADVANCED_FACE ( 'NONE', ( #268 ), #439, .T. ) ;
#88 = DIRECTION ( 'NONE',  ( -0.000000000000000000, -0.000000000000000000, -1.000000000000000000 ) ) ;
#89 = UNCERTAINTY_MEASURE_WITH_UNIT (LENGTH_MEASURE( 1.000000000000000082E-05 ), #646, 'distance_accuracy_value', 'NONE');
#90 = ORIENTED_EDGE ( 'NONE', *, *, #913, .F. ) ;
#91 = VERTEX_POINT ( 'NONE', #533 ) ;
#92 = AXIS2_PLACEMENT_3D ( 'NONE', #1092, #208, #621 ) ;
#93 = DIRECTION ( 'NONE',  ( -0.000000000000000000, -0.000000000000000000, -1.000000000000000000 ) ) ;
#94 = EDGE_CURVE ( 'NONE', #839, #1266, #431, .T. ) ;
#95 = CARTESIAN_POINT ( 'NONE',  ( 29.00000000000000000, -0.9999999999999928946, 17.16666667000000146 ) ) ;
#96 = VECTOR ( 'NONE', #93, 1000.000000000000000 ) ;
#97 = ORIENTED_EDGE ( 'NONE', *, *, #629, .F. ) ;
#98 = ORIENTED_EDGE ( 'NONE', *, *, #405, .T. ) ;
#99 = CARTESIAN_POINT ( 'NONE',  ( 3.509595663388405356E-15, -28.99999999999999289, 17.16666667000000146 ) ) ;
#100 = CARTESIAN_POINT ( 'NONE',  ( 119.0000000000000142, 1.000000000000015321, 17.16666667000000146 ) ) ;
#101 = ORIENTED_EDGE ( 'NONE', *, *, #683, .F. ) ;
#102 = ORIENTED_EDGE ( 'NONE', *, *, #918, .T. ) ;
#103 = EDGE_CURVE ( 'NONE', #620, #218, #331, .T. ) ;
#104 = LINE ( 'NONE', #482, #1143 ) ;
#105 = PLANE ( 'NONE',  #277 ) ;
#106 = ORIENTED_EDGE ( 'NONE', *, *, #913, .T. ) ;
#107 = EDGE_LOOP ( 'NONE', ( #814, #874, #934, #336 ) ) ;
#108 = VECTOR ( 'NONE', #1220, 1000.000000000000000 ) ;
#109 = VECTOR ( 'NONE', #1077, 1000.000000000000000 ) ;
#110 = CARTESIAN_POINT ( 'NONE',  ( -2.787948443534108547E-16, 0.9999999999999833467, 17.16666667000000146 ) ) ;
#111 = LINE ( 'NONE', #910, #48 ) ;
#112 = DIRECTION ( 'NONE',  ( 1.000000000000000000, 0.000000000000000000, 0.000000000000000000 ) ) ;
#113 = ORIENTED_EDGE ( 'NONE', *, *, #497, .F. ) ;
#114 = ORIENTED_EDGE ( 'NONE', *, *, #127, .T. ) ;
#115 = PRODUCT_DEFINITION_FORMATION_WITH_SPECIFIED_SOURCE ( 'ANY', '', #142, .NOT_KNOWN. ) ;
#116 = PLANE ( 'NONE',  #154 ) ;
#117 = CARTESIAN_POINT ( 'NONE',  ( 89.00000000000000000, -0.9999999999999861222, 0.000000000000000000 ) ) ;
#118 = VERTEX_POINT ( 'NONE', #308 ) ;
#119 = EDGE_CURVE ( 'NONE', #400, #983, #1112, .T. ) ;
#120 = EDGE_CURVE ( 'NONE', #1181, #529, #517, .T. ) ;
#121 = ORIENTED_EDGE ( 'NONE', *, *, #826, .T. ) ;
#122 = DIRECTION ( 'NONE',  ( 1.239088197126290817E-16, -1.000000000000000000, 0.000000000000000000 ) ) ;
#123 = LINE ( 'NONE', #824, #612 ) ;
#124 = EDGE_LOOP ( 'NONE', ( #553, #518, #188, #1123 ) ) ;
#125 = ORIENTED_EDGE ( 'NONE', *, *, #265, .F. ) ;
#126 = CARTESIAN_POINT ( 'NONE',  ( 61.00000000000000711, -0.9999999999999852340, 17.16666667000000146 ) ) ;
#127 = EDGE_CURVE ( 'NONE', #35, #299, #129, .T. ) ;
#128 = EDGE_LOOP ( 'NONE', ( #1065, #479, #725, #102 ) ) ;
#129 = LINE ( 'NONE', #85, #570 ) ;
#130 = ORIENTED_EDGE ( 'NONE', *, *, #1184, .F. ) ;
#131 = VECTOR ( 'NONE', #1236, 1000.000000000000000 ) ;
#132 = VECTOR ( 'NONE', #266, 1000.000000000000000 ) ;
#133 = LINE ( 'NONE', #1197, #613 ) ;
#134 = CARTESIAN_POINT ( 'NONE',  ( 89.00000000000001421, -28.99999999999998579, 17.16666667000000146 ) ) ;
#135 = DIRECTION ( 'NONE',  ( -1.239088197126291063E-16, 1.000000000000000000, 0.000000000000000000 ) ) ;
#136 = ORIENTED_EDGE ( 'NONE', *, *, #1147, .T. ) ;
#137 = ADVANCED_FACE ( 'NONE', ( #671 ), #968, .T. ) ;
#138 = LINE ( 'NONE', #931, #108 ) ;
#139 = FACE_OUTER_BOUND ( 'NONE', #128, .T. ) ;
#140 =( NAMED_UNIT ( * ) SI_UNIT ( $, .STERADIAN. ) SOLID_ANGLE_UNIT ( ) );
#141 = EDGE_LOOP ( 'NONE', ( #457, #1049, #920, #660 ) ) ;
#142 = PRODUCT ( 'Base_02 - LARGE', 'Base_02 - LARGE', '', ( #475 ) ) ;
#143 = ADVANCED_FACE ( 'NONE', ( #338 ), #876, .F. ) ;
#144 = DIRECTION ( 'NONE',  ( 2.449293598294706907E-16, -1.000000000000000000, 0.000000000000000000 ) ) ;
#145 = CARTESIAN_POINT ( 'NONE',  ( 59.00000000000000000, -0.9999999999999854561, 0.000000000000000000 ) ) ;
#146 = DIRECTION ( 'NONE',  ( -0.000000000000000000, -0.000000000000000000, -1.000000000000000000 ) ) ;
#147 = VECTOR ( 'NONE', #152, 1000.000000000000000 ) ;
#148 = CARTESIAN_POINT ( 'NONE',  ( 119.0000000000000142, -28.99999999999998224, 0.000000000000000000 ) ) ;
#149 = ORIENTED_EDGE ( 'NONE', *, *, #497, .T. ) ;
#150 = LINE ( 'NONE', #539, #943 ) ;
#151 = FACE_OUTER_BOUND ( 'NONE', #107, .T. ) ;
#152 = DIRECTION ( 'NONE',  ( -2.478176394252581141E-16, 1.000000000000000000, 0.000000000000000000 ) ) ;
#153 = STYLED_ITEM ( 'NONE', ( #723 ), #737 ) ;
#154 = AXIS2_PLACEMENT_3D ( 'NONE', #909, #519, #916 ) ;
#155 = LINE ( 'NONE', #665, #787 ) ;
#156 = DIRECTION ( 'NONE',  ( 1.000000000000000000, 2.787948443534155386E-16, 0.000000000000000000 ) ) ;
#157 = ORIENTED_EDGE ( 'NONE', *, *, #1057, .F. ) ;
#158 = EDGE_CURVE ( 'NONE', #210, #575, #664, .T. ) ;
#159 = CARTESIAN_POINT ( 'NONE',  ( 1.000000000000007105, -28.99999999999999289, 17.16666667000000146 ) ) ;
#160 = DIRECTION ( 'NONE',  ( 0.000000000000000000, 0.000000000000000000, 1.000000000000000000 ) ) ;
#161 = CARTESIAN_POINT ( 'NONE',  ( 31.00000000000000355, 3.841173411091502100E-15, 17.16666667000000146 ) ) ;
#162 = DIRECTION ( 'NONE',  ( -0.000000000000000000, 0.000000000000000000, -1.000000000000000000 ) ) ;
#163 = LINE ( 'NONE', #249, #740 ) ;
#164 = FACE_BOUND ( 'NONE', #861, .T. ) ;
#165 = ORIENTED_EDGE ( 'NONE', *, *, #993, .F. ) ;
#166 = ORIENTED_EDGE ( 'NONE', *, *, #26, .F. ) ;
#167 = CARTESIAN_POINT ( 'NONE',  ( 7.347880794884119933E-15, -30.00000000000000000, 17.16666667000000146 ) ) ;
#168 = DIRECTION ( 'NONE',  ( -0.000000000000000000, -0.000000000000000000, -1.000000000000000000 ) ) ;
#169 = CARTESIAN_POINT ( 'NONE',  ( 59.00000000000000711, -28.99999999999998934, 17.16666667000000146 ) ) ;
#170 = DIRECTION ( 'NONE',  ( -1.000000000000000000, -1.239088197126290817E-16, 0.000000000000000000 ) ) ;
#171 = EDGE_CURVE ( 'NONE', #721, #839, #1138, .T. ) ;
#172 = CARTESIAN_POINT ( 'NONE',  ( 91.00000000000000000, -0.9999999999999852340, 17.16666667000000146 ) ) ;
#173 = ORIENTED_EDGE ( 'NONE', *, *, #315, .T. ) ;
#174 = VECTOR ( 'NONE', #186, 1000.000000000000000 ) ;
#175 = LINE ( 'NONE', #775, #1099 ) ;
#176 = LINE ( 'NONE', #654, #867 ) ;
#177 = CARTESIAN_POINT ( 'NONE',  ( -3.469446951953614189E-15, 30.00000000000000000, 0.000000000000000000 ) ) ;
#178 = DIRECTION ( 'NONE',  ( 1.239088197126291063E-16, -1.000000000000000000, 0.000000000000000000 ) ) ;
#179 = EDGE_CURVE ( 'NONE', #1074, #1266, #59, .T. ) ;
#180 = VECTOR ( 'NONE', #67, 1000.000000000000000 ) ;
#181 = CARTESIAN_POINT ( 'NONE',  ( 120.0000000000000142, 5.551115123125783964E-14, 17.16666667000000146 ) ) ;
#182 = ORIENTED_EDGE ( 'NONE', *, *, #1242, .F. ) ;
#183 = ORIENTED_EDGE ( 'NONE', *, *, #628, .T. ) ;
#184 = ADVANCED_FACE ( 'NONE', ( #151 ), #752, .T. ) ;
#185 = DIRECTION ( 'NONE',  ( 1.000000000000000000, 2.787948443534155386E-16, 0.000000000000000000 ) ) ;
#186 = DIRECTION ( 'NONE',  ( 0.000000000000000000, 1.000000000000000000, -0.000000000000000000 ) ) ;
#187 = VERTEX_POINT ( 'NONE', #845 ) ;
#188 = ORIENTED_EDGE ( 'NONE', *, *, #1125, .F. ) ;
#189 = EDGE_CURVE ( 'NONE', #1200, #902, #564, .T. ) ;
#190 = DIRECTION ( 'NONE',  ( -0.000000000000000000, 0.000000000000000000, 1.000000000000000000 ) ) ;
#191 = FACE_OUTER_BOUND ( 'NONE', #1129, .T. ) ;
#192 = VERTEX_POINT ( 'NONE', #452 ) ;
#193 = ORIENTED_EDGE ( 'NONE', *, *, #42, .T. ) ;
#194 = CARTESIAN_POINT ( 'NONE',  ( 61.00000000000000711, -0.9999999999999852340, 17.16666667000000146 ) ) ;
#195 = DIRECTION ( 'NONE',  ( 0.000000000000000000, 1.000000000000000000, 0.000000000000000000 ) ) ;
#196 = LINE ( 'NONE', #592, #673 ) ;
#197 = EDGE_CURVE ( 'NONE', #218, #192, #648, .T. ) ;
#198 = VECTOR ( 'NONE', #550, 1000.000000000000000 ) ;
#199 = ORIENTED_EDGE ( 'NONE', *, *, #733, .T. ) ;
#200 = AXIS2_PLACEMENT_3D ( 'NONE', #771, #271, #1235 ) ;
#201 = ORIENTED_EDGE ( 'NONE', *, *, #1125, .T. ) ;
#202 = DIRECTION ( 'NONE',  ( 4.956352788505164254E-16, -1.000000000000000000, 0.000000000000000000 ) ) ;
#203 = DIRECTION ( 'NONE',  ( 0.000000000000000000, -0.000000000000000000, 1.000000000000000000 ) ) ;
#204 = DIRECTION ( 'NONE',  ( 1.000000000000000000, 1.239088197126291063E-16, 0.000000000000000000 ) ) ;
#205 = ORIENTED_EDGE ( 'NONE', *, *, #1004, .T. ) ;
#206 = ORIENTED_EDGE ( 'NONE', *, *, #1018, .F. ) ;
#207 = DIRECTION ( 'NONE',  ( -1.000000000000000000, -2.759065647576279673E-16, 0.000000000000000000 ) ) ;
#208 = DIRECTION ( 'NONE',  ( 3.386548452394484168E-17, 1.000000000000000000, -0.000000000000000000 ) ) ;
#209 = LINE ( 'NONE', #603, #109 ) ;
#210 = VERTEX_POINT ( 'NONE', #1228 ) ;
#211 = EDGE_LOOP ( 'NONE', ( #1255, #225, #792, #880 ) ) ;
#212 = VECTOR ( 'NONE', #834, 1000.000000000000000 ) ;
#213 = VECTOR ( 'NONE', #667, 1000.000000000000000 ) ;
#214 = CARTESIAN_POINT ( 'NONE',  ( 89.00000000000000000, 2.179871302482289108E-14, 0.000000000000000000 ) ) ;
#215 = CARTESIAN_POINT ( 'NONE',  ( -3.386548452394404666E-17, -0.9999999999999822364, 17.16666667000000146 ) ) ;
#216 = EDGE_CURVE ( 'NONE', #1107, #902, #1257, .T. ) ;
#217 = PLANE ( 'NONE',  #1262 ) ;
#218 = VERTEX_POINT ( 'NONE', #960 ) ;
#219 = VECTOR ( 'NONE', #288, 1000.000000000000000 ) ;
#220 = ORIENTED_EDGE ( 'NONE', *, *, #679, .T. ) ;
#221 = AXIS2_PLACEMENT_3D ( 'NONE', #1155, #554, #350 ) ;
#222 = CARTESIAN_POINT ( 'NONE',  ( 31.00000000000000355, 1.000000000000000888, 17.16666667000000146 ) ) ;
#223 = ADVANCED_FACE ( 'NONE', ( #1252 ), #459, .T. ) ;
#224 = LINE ( 'NONE', #627, #1165 ) ;
#225 = ORIENTED_EDGE ( 'NONE', *, *, #361, .F. ) ;
#226 = VERTEX_POINT ( 'NONE', #1132 ) ;
#227 = EDGE_CURVE ( 'NONE', #522, #283, #549, .T. ) ;
#228 = FACE_OUTER_BOUND ( 'NONE', #82, .T. ) ;
#229 = CARTESIAN_POINT ( 'NONE',  ( 31.00000000000000355, 3.751636743622088919E-15, 0.000000000000000000 ) ) ;
#230 = ORIENTED_EDGE ( 'NONE', *, *, #993, .T. ) ;
#231 = EDGE_LOOP ( 'NONE', ( #797, #505, #1025, #276 ) ) ;
#232 = ADVANCED_FACE ( 'NONE', ( #344 ), #258, .T. ) ;
#233 = LINE ( 'NONE', #1010, #924 ) ;
#234 = DIRECTION ( 'NONE',  ( 1.000000000000000000, 2.449293598294706907E-16, 0.000000000000000000 ) ) ;
#235 = ORIENTED_EDGE ( 'NONE', *, *, #103, .F. ) ;
#236 = EDGE_CURVE ( 'NONE', #415, #226, #111, .T. ) ;
#237 = EDGE_LOOP ( 'NONE', ( #1094, #63, #614, #1032 ) ) ;
#238 = VECTOR ( 'NONE', #1216, 1000.000000000000000 ) ;
#239 = MECHANICAL_DESIGN_GEOMETRIC_PRESENTATION_REPRESENTATION (  '', ( #153 ), #1265 ) ;
#240 = DIRECTION ( 'NONE',  ( -0.000000000000000000, -0.000000000000000000, -1.000000000000000000 ) ) ;
#241 = PLANE ( 'NONE',  #530 ) ;
#242 = VECTOR ( 'NONE', #850, 1000.000000000000000 ) ;
#243 = CARTESIAN_POINT ( 'NONE',  ( 91.00000000000001421, -28.99999999999998579, 17.16666667000000146 ) ) ;
#244 = CARTESIAN_POINT ( 'NONE',  ( 59.00000000000000000, 29.00000000000000000, 17.16666667000000146 ) ) ;
#245 = ORIENTED_EDGE ( 'NONE', *, *, #619, .F. ) ;
#246 = ORIENTED_EDGE ( 'NONE', *, *, #278, .T. ) ;
#247 = DIRECTION ( 'NONE',  ( 1.000000000000000000, 1.210205401168415597E-16, 0.000000000000000000 ) ) ;
#248 = DIRECTION ( 'NONE',  ( -0.000000000000000000, -0.000000000000000000, -1.000000000000000000 ) ) ;
#249 = CARTESIAN_POINT ( 'NONE',  ( -3.593355771666242704E-15, 28.99999999999999289, 17.16666667000000146 ) ) ;
#250 = ORIENTED_EDGE ( 'NONE', *, *, #1009, .F. ) ;
#251 = CARTESIAN_POINT ( 'NONE',  ( 91.00000000000000000, 0.000000000000000000, 0.000000000000000000 ) ) ;
#252 = DIRECTION ( 'NONE',  ( 0.000000000000000000, 0.000000000000000000, 1.000000000000000000 ) ) ;
#253 = CARTESIAN_POINT ( 'NONE',  ( 91.00000000000001421, -28.99999999999998579, 17.16666667000000146 ) ) ;
#254 = PLANE ( 'NONE',  #1161 ) ;
#255 = EDGE_LOOP ( 'NONE', ( #235, #944, #1063, #849 ) ) ;
#256 = LINE ( 'NONE', #937, #435 ) ;
#257 = CARTESIAN_POINT ( 'NONE',  ( 3.509595663388404567E-15, -28.99999999999999289, 0.000000000000000000 ) ) ;
#258 = PLANE ( 'NONE',  #864 ) ;
#259 = VECTOR ( 'NONE', #185, 1000.000000000000000 ) ;
#260 = CARTESIAN_POINT ( 'NONE',  ( 31.00000000000000355, -0.9999999999999933387, 0.000000000000000000 ) ) ;
#261 = DIRECTION ( 'NONE',  ( -1.000000000000000000, -1.239088197126291063E-16, 0.000000000000000000 ) ) ;
#262 = CARTESIAN_POINT ( 'NONE',  ( 89.00000000000000000, 1.000000000000007994, 17.16666667000000146 ) ) ;
#263 = VERTEX_POINT ( 'NONE', #410 ) ;
#264 = CARTESIAN_POINT ( 'NONE',  ( 29.00000000000000711, -28.99999999999998934, 17.16666667000000146 ) ) ;
#265 = EDGE_CURVE ( 'NONE', #708, #682, #501, .T. ) ;
#266 = DIRECTION ( 'NONE',  ( -0.000000000000000000, -0.000000000000000000, -1.000000000000000000 ) ) ;
#267 = FACE_OUTER_BOUND ( 'NONE', #1208, .T. ) ;
#268 = FACE_OUTER_BOUND ( 'NONE', #485, .T. ) ;
#269 = LINE ( 'NONE', #956, #329 ) ;
#270 = EDGE_LOOP ( 'NONE', ( #173, #90, #125, #498 ) ) ;
#271 = DIRECTION ( 'NONE',  ( -2.449293598294706907E-16, 1.000000000000000000, 0.000000000000000000 ) ) ;
#272 = DIRECTION ( 'NONE',  ( 4.956352788505164254E-16, -1.000000000000000000, 0.000000000000000000 ) ) ;
#273 = FACE_OUTER_BOUND ( 'NONE', #1012, .T. ) ;
#274 = DIRECTION ( 'NONE',  ( 4.625929269271485914E-16, -1.000000000000000000, 0.000000000000000000 ) ) ;
#275 = VECTOR ( 'NONE', #727, 1000.000000000000000 ) ;
#276 = ORIENTED_EDGE ( 'NONE', *, *, #179, .T. ) ;
#277 = AXIS2_PLACEMENT_3D ( 'NONE', #495, #3, #685 ) ;
#278 = EDGE_CURVE ( 'NONE', #989, #415, #294, .T. ) ;
#279 = PLANE ( 'NONE',  #572 ) ;
#280 = DIRECTION ( 'NONE',  ( -1.000000000000000000, -4.625929269271485914E-16, 0.000000000000000000 ) ) ;
#281 = ADVANCED_FACE ( 'NONE', ( #384 ), #1076, .T. ) ;
#282 = ORIENTED_EDGE ( 'NONE', *, *, #865, .F. ) ;
#283 = VERTEX_POINT ( 'NONE', #1005 ) ;
#284 = FACE_BOUND ( 'NONE', #19, .T. ) ;
#285 = DIRECTION ( 'NONE',  ( -0.000000000000000000, -0.000000000000000000, -1.000000000000000000 ) ) ;
#286 = ORIENTED_EDGE ( 'NONE', *, *, #785, .T. ) ;
#287 = EDGE_LOOP ( 'NONE', ( #908, #1069, #408, #77 ) ) ;
#288 = DIRECTION ( 'NONE',  ( -0.000000000000000000, -0.000000000000000000, -1.000000000000000000 ) ) ;
#289 = CARTESIAN_POINT ( 'NONE',  ( 59.00000000000000000, 0.000000000000000000, 0.000000000000000000 ) ) ;
#290 = ADVANCED_FACE ( 'NONE', ( #806 ), #705, .F. ) ;
#291 = ORIENTED_EDGE ( 'NONE', *, *, #349, .F. ) ;
#292 = ORIENTED_EDGE ( 'NONE', *, *, #1086, .T. ) ;
#293 = DIRECTION ( 'NONE',  ( 1.239088197126291063E-16, -1.000000000000000000, 0.000000000000000000 ) ) ;
#294 = LINE ( 'NONE', #1271, #1160 ) ;
#295 = DIRECTION ( 'NONE',  ( -0.000000000000000000, -0.000000000000000000, -1.000000000000000000 ) ) ;
#296 = AXIS2_PLACEMENT_3D ( 'NONE', #666, #748, #135 ) ;
#297 = EDGE_LOOP ( 'NONE', ( #687, #317, #778, #568 ) ) ;
#298 = AXIS2_PLACEMENT_3D ( 'NONE', #328, #1114, #323 ) ;
#299 = VERTEX_POINT ( 'NONE', #842 ) ;
#300 = LINE ( 'NONE', #1084, #546 ) ;
#301 = DIRECTION ( 'NONE',  ( -1.000000000000000000, -1.210205401168415597E-16, 0.000000000000000000 ) ) ;
#302 = ORIENTED_EDGE ( 'NONE', *, *, #695, .T. ) ;
#303 = EDGE_LOOP ( 'NONE', ( #1019, #749, #230, #545 ) ) ;
#304 = DIRECTION ( 'NONE',  ( 0.000000000000000000, 0.000000000000000000, 1.000000000000000000 ) ) ;
#305 = EDGE_CURVE ( 'NONE', #210, #118, #256, .T. ) ;
#306 = CARTESIAN_POINT ( 'NONE',  ( 31.00000000000000355, 3.751636743622088919E-15, 17.16666667000000146 ) ) ;
#307 = ORIENTED_EDGE ( 'NONE', *, *, #826, .F. ) ;
#308 = CARTESIAN_POINT ( 'NONE',  ( 119.0000000000000000, 29.00000000000000711, 0.000000000000000000 ) ) ;
#309 = ORIENTED_EDGE ( 'NONE', *, *, #305, .T. ) ;
#310 = EDGE_CURVE ( 'NONE', #847, #25, #857, .T. ) ;
#311 = VECTOR ( 'NONE', #567, 1000.000000000000000 ) ;
#312 = CARTESIAN_POINT ( 'NONE',  ( 120.0000000000000142, 5.551115123125783964E-14, 0.000000000000000000 ) ) ;
#313 = DIRECTION ( 'NONE',  ( 2.478176394252580648E-16, -1.000000000000000000, 0.000000000000000000 ) ) ;
#314 = ORIENTED_EDGE ( 'NONE', *, *, #158, .F. ) ;
#315 = EDGE_CURVE ( 'NONE', #1118, #1269, #450, .T. ) ;
#316 = VECTOR ( 'NONE', #1133, 1000.000000000000000 ) ;
#317 = ORIENTED_EDGE ( 'NONE', *, *, #119, .F. ) ;
#318 = VECTOR ( 'NONE', #641, 1000.000000000000000 ) ;
#319 = CARTESIAN_POINT ( 'NONE',  ( 119.0000000000000142, 1.000000000000015321, 0.000000000000000000 ) ) ;
#320 = DIRECTION ( 'NONE',  ( 1.000000000000000000, 1.239088197126291063E-16, -0.000000000000000000 ) ) ;
#321 = EDGE_LOOP ( 'NONE', ( #418, #20, #359, #872 ) ) ;
#322 = VERTEX_POINT ( 'NONE', #38 ) ;
#323 = DIRECTION ( 'NONE',  ( -1.000000000000000000, -2.449293598294706907E-16, 0.000000000000000000 ) ) ;
#324 = FACE_OUTER_BOUND ( 'NONE', #881, .T. ) ;
#325 = EDGE_CURVE ( 'NONE', #1181, #35, #1227, .T. ) ;
#326 = VERTEX_POINT ( 'NONE', #1213 ) ;
#327 = ORIENTED_EDGE ( 'NONE', *, *, #1130, .F. ) ;
#328 = CARTESIAN_POINT ( 'NONE',  ( 2.449293598294706907E-16, -1.000000000000000000, 17.16666667000000146 ) ) ;
#329 = VECTOR ( 'NONE', #68, 1000.000000000000000 ) ;
#330 = CARTESIAN_POINT ( 'NONE',  ( 61.00000000000000711, 1.511687600494074664E-14, 0.000000000000000000 ) ) ;
#331 = LINE ( 'NONE', #739, #631 ) ;
#332 = ORIENTED_EDGE ( 'NONE', *, *, #4, .T. ) ;
#333 = AXIS2_PLACEMENT_3D ( 'NONE', #1156, #65, #71 ) ;
#334 = DIRECTION ( 'NONE',  ( -1.000000000000000000, 0.000000000000000000, 0.000000000000000000 ) ) ;
#335 = LINE ( 'NONE', #330, #698 ) ;
#336 = ORIENTED_EDGE ( 'NONE', *, *, #360, .T. ) ;
#337 = CARTESIAN_POINT ( 'NONE',  ( -3.593355771666243492E-15, 28.99999999999999289, 17.16666667000000146 ) ) ;
#338 = FACE_OUTER_BOUND ( 'NONE', #703, .T. ) ;
#339 = EDGE_CURVE ( 'NONE', #24, #492, #735, .T. ) ;
#340 = DIRECTION ( 'NONE',  ( 2.449293598294706907E-16, -1.000000000000000000, 0.000000000000000000 ) ) ;
#341 = LINE ( 'NONE', #446, #840 ) ;
#342 = EDGE_LOOP ( 'NONE', ( #421, #440, #608, #1261 ) ) ;
#343 = DIRECTION ( 'NONE',  ( 1.210205401168415597E-16, -1.000000000000000000, 0.000000000000000000 ) ) ;
#344 = FACE_OUTER_BOUND ( 'NONE', #1128, .T. ) ;
#345 = CARTESIAN_POINT ( 'NONE',  ( 59.00000000000000000, 1.445083222993876957E-14, 17.16666667000000146 ) ) ;
#346 = DIRECTION ( 'NONE',  ( 1.000000000000000000, 1.210205401168415844E-16, 0.000000000000000000 ) ) ;
#347 = PLANE ( 'NONE',  #1217 ) ;
#348 = ORIENTED_EDGE ( 'NONE', *, *, #661, .F. ) ;
#349 = EDGE_CURVE ( 'NONE', #989, #930, #138, .T. ) ;
#350 = DIRECTION ( 'NONE',  ( 0.000000000000000000, 0.000000000000000000, 1.000000000000000000 ) ) ;
#351 = VECTOR ( 'NONE', #261, 1000.000000000000000 ) ;
#352 = CARTESIAN_POINT ( 'NONE',  ( 59.00000000000000000, -0.9999999999999854561, 17.16666667000000146 ) ) ;
#353 = VECTOR ( 'NONE', #794, 1000.000000000000000 ) ;
#354 = VECTOR ( 'NONE', #467, 1000.000000000000000 ) ;
#355 = CARTESIAN_POINT ( 'NONE',  ( 1.000000000000003553, 1.000000000000000000, 0.000000000000000000 ) ) ;
#356 = LINE ( 'NONE', #1150, #372 ) ;
#357 = LINE ( 'NONE', #768, #1121 ) ;
#358 = FACE_BOUND ( 'NONE', #1233, .T. ) ;
#359 = ORIENTED_EDGE ( 'NONE', *, *, #26, .T. ) ;
#360 = EDGE_CURVE ( 'NONE', #529, #299, #175, .T. ) ;
#361 = EDGE_CURVE ( 'NONE', #915, #599, #445, .T. ) ;
#362 = DIRECTION ( 'NONE',  ( -1.000000000000000000, -1.210205401168415597E-16, 0.000000000000000000 ) ) ;
#363 = CARTESIAN_POINT ( 'NONE',  ( -2.787948443534104110E-16, 0.9999999999999822364, 17.16666667000000146 ) ) ;
#364 = PLANE ( 'NONE',  #528 ) ;
#365 = ADVANCED_FACE ( 'NONE', ( #267 ), #47, .F. ) ;
#366 = CARTESIAN_POINT ( 'NONE',  ( 119.0000000000000142, -0.9999999999999863443, 17.16666667000000146 ) ) ;
#367 = EDGE_LOOP ( 'NONE', ( #375, #580, #973, #638 ) ) ;
#368 = CARTESIAN_POINT ( 'NONE',  ( 31.00000000000000355, 3.841173411091502100E-15, 0.000000000000000000 ) ) ;
#369 = LINE ( 'NONE', #961, #653 ) ;
#370 = EDGE_CURVE ( 'NONE', #575, #1056, #438, .T. ) ;
#371 = FACE_OUTER_BOUND ( 'NONE', #1218, .T. ) ;
#372 = VECTOR ( 'NONE', #170, 1000.000000000000000 ) ;
#373 = ORIENTED_EDGE ( 'NONE', *, *, #969, .T. ) ;
#374 = AXIS2_PLACEMENT_3D ( 'NONE', #215, #611, #1264 ) ;
#375 = ORIENTED_EDGE ( 'NONE', *, *, #1268, .F. ) ;
#376 = FACE_OUTER_BOUND ( 'NONE', #730, .T. ) ;
#377 = VECTOR ( 'NONE', #798, 1000.000000000000000 ) ;
#378 =( GEOMETRIC_REPRESENTATION_CONTEXT ( 3 ) GLOBAL_UNCERTAINTY_ASSIGNED_CONTEXT ( ( #89 ) ) GLOBAL_UNIT_ASSIGNED_CONTEXT ( ( #646, #875, #587 ) ) REPRESENTATION_CONTEXT ( 'NONE', 'WORKASPACE' ) );
#379 = LINE ( 'NONE', #790, #1100 ) ;
#380 = ORIENTED_EDGE ( 'NONE', *, *, #1152, .F. ) ;
#381 = ORIENTED_EDGE ( 'NONE', *, *, #747, .F. ) ;
#382 = LINE ( 'NONE', #991, #353 ) ;
#383 = EDGE_CURVE ( 'NONE', #1118, #1056, #461, .T. ) ;
#384 = FACE_OUTER_BOUND ( 'NONE', #863, .T. ) ;
#385 = LINE ( 'NONE', #404, #1000 ) ;
#386 = ORIENTED_EDGE ( 'NONE', *, *, #984, .F. ) ;
#387 = VERTEX_POINT ( 'NONE', #1244 ) ;
#388 = CARTESIAN_POINT ( 'NONE',  ( 0.000000000000000000, 0.000000000000000000, 17.16666667000000146 ) ) ;
#389 = CARTESIAN_POINT ( 'NONE',  ( 0.000000000000000000, 1.000000000000000000, 17.16666667000000146 ) ) ;
#390 = DIRECTION ( 'NONE',  ( 1.239088197126291063E-16, -1.000000000000000000, 0.000000000000000000 ) ) ;
#391 = DIRECTION ( 'NONE',  ( 0.000000000000000000, -0.000000000000000000, 1.000000000000000000 ) ) ;
#392 = ORIENTED_EDGE ( 'NONE', *, *, #619, .T. ) ;
#393 = EDGE_LOOP ( 'NONE', ( #462, #1028, #193, #1231 ) ) ;
#394 = EDGE_CURVE ( 'NONE', #652, #1154, #356, .T. ) ;
#395 = EDGE_CURVE ( 'NONE', #702, #1040, #691, .T. ) ;
#396 = CARTESIAN_POINT ( 'NONE',  ( 31.00000000000000711, -28.99999999999998934, 17.16666667000000146 ) ) ;
#397 = DIRECTION ( 'NONE',  ( 2.449293598294706907E-16, -1.000000000000000000, 0.000000000000000000 ) ) ;
#398 = VECTOR ( 'NONE', #57, 1000.000000000000000 ) ;
#399 = VECTOR ( 'NONE', #500, 1000.000000000000000 ) ;
#400 = VERTEX_POINT ( 'NONE', #912 ) ;
#401 = ADVANCED_FACE ( 'NONE', ( #700 ), #217, .F. ) ;
#402 = ORIENTED_EDGE ( 'NONE', *, *, #918, .F. ) ;
#403 = CARTESIAN_POINT ( 'NONE',  ( 89.00000000000000000, 29.00000000000000355, 17.16666667000000146 ) ) ;
#404 = CARTESIAN_POINT ( 'NONE',  ( -0.000000000000000000, 1.000000000000000000, 0.000000000000000000 ) ) ;
#405 = EDGE_CURVE ( 'NONE', #810, #830, #504, .T. ) ;
#406 = ORIENTED_EDGE ( 'NONE', *, *, #1086, .F. ) ;
#407 = DIRECTION ( 'NONE',  ( 0.000000000000000000, 1.000000000000000000, -0.000000000000000000 ) ) ;
#408 = ORIENTED_EDGE ( 'NONE', *, *, #589, .T. ) ;
#409 = FACE_OUTER_BOUND ( 'NONE', #393, .T. ) ;
#410 = CARTESIAN_POINT ( 'NONE',  ( 61.00000000000000711, -28.99999999999998934, 17.16666667000000146 ) ) ;
#411 = DIRECTION ( 'NONE',  ( -1.000000000000000000, -2.478176394252580648E-16, 0.000000000000000000 ) ) ;
#412 = ADVANCED_FACE ( 'NONE', ( #1067 ), #463, .F. ) ;
#413 = EDGE_LOOP ( 'NONE', ( #465, #157, #512, #14 ) ) ;
#414 = APPLICATION_CONTEXT ( 'automotive_design' ) ;
#415 = VERTEX_POINT ( 'NONE', #262 ) ;
#416 = LINE ( 'NONE', #823, #242 ) ;
#417 = DIRECTION ( 'NONE',  ( 1.000000000000000000, 2.449293598294706907E-16, 0.000000000000000000 ) ) ;
#418 = ORIENTED_EDGE ( 'NONE', *, *, #1225, .F. ) ;
#419 = CARTESIAN_POINT ( 'NONE',  ( 119.0000000000000142, -2.983400436350443808E-14, 17.16666667000000146 ) ) ;
#420 = VECTOR ( 'NONE', #836, 1000.000000000000000 ) ;
#421 = ORIENTED_EDGE ( 'NONE', *, *, #4, .F. ) ;
#422 = VECTOR ( 'NONE', #710, 1000.000000000000000 ) ;
#423 = EDGE_CURVE ( 'NONE', #387, #299, #783, .T. ) ;
#424 = CARTESIAN_POINT ( 'NONE',  ( 59.00000000000000000, -0.9999999999999854561, 17.16666667000000146 ) ) ;
#425 = DIRECTION ( 'NONE',  ( 0.000000000000000000, -1.000000000000000000, 0.000000000000000000 ) ) ;
#426 = ORIENTED_EDGE ( 'NONE', *, *, #370, .T. ) ;
#427 = VERTEX_POINT ( 'NONE', #977 ) ;
#428 = CARTESIAN_POINT ( 'NONE',  ( 119.0000000000000142, -28.99999999999998224, 17.16666667000000146 ) ) ;
#429 = DIRECTION ( 'NONE',  ( -0.000000000000000000, -0.000000000000000000, -1.000000000000000000 ) ) ;
#430 = DIRECTION ( 'NONE',  ( 1.000000000000000000, 2.449293598294706907E-16, 0.000000000000000000 ) ) ;
#431 = LINE ( 'NONE', #838, #238 ) ;
#432 = VERTEX_POINT ( 'NONE', #172 ) ;
#433 = CARTESIAN_POINT ( 'NONE',  ( 29.00000000000000000, 7.102951435054649637E-15, 17.16666667000000146 ) ) ;
#434 = DIRECTION ( 'NONE',  ( -1.000000000000000000, -1.210205401168415844E-16, 0.000000000000000000 ) ) ;
#435 = VECTOR ( 'NONE', #240, 1000.000000000000000 ) ;
#436 = VECTOR ( 'NONE', #813, 1000.000000000000000 ) ;
#437 = DIRECTION ( 'NONE',  ( -2.449293598294706907E-16, 1.000000000000000000, 0.000000000000000000 ) ) ;
#438 = LINE ( 'NONE', #557, #1199 ) ;
#439 = PLANE ( 'NONE',  #296 ) ;
#440 = ORIENTED_EDGE ( 'NONE', *, *, #265, .T. ) ;
#441 = EDGE_CURVE ( 'NONE', #1172, #620, #478, .T. ) ;
#442 = VECTOR ( 'NONE', #945, 1000.000000000000000 ) ;
#443 = CARTESIAN_POINT ( 'NONE',  ( 1.000000000000003775, 1.239088197126295747E-16, 17.16666667000000146 ) ) ;
#444 = CARTESIAN_POINT ( 'NONE',  ( 29.00000000000000000, 0.000000000000000000, 17.16666667000000146 ) ) ;
#445 = LINE ( 'NONE', #244, #484 ) ;
#446 = CARTESIAN_POINT ( 'NONE',  ( -2.787948443534108547E-16, 0.9999999999999833467, 0.000000000000000000 ) ) ;
#447 = EDGE_CURVE ( 'NONE', #585, #226, #341, .T. ) ;
#448 = ORIENTED_EDGE ( 'NONE', *, *, #470, .T. ) ;
#449 = ORIENTED_EDGE ( 'NONE', *, *, #601, .T. ) ;
#450 = LINE ( 'NONE', #251, #275 ) ;
#451 = FACE_OUTER_BOUND ( 'NONE', #255, .T. ) ;
#452 = CARTESIAN_POINT ( 'NONE',  ( 120.0000000000000000, 30.00000000000001421, 0.000000000000000000 ) ) ;
#453 = CARTESIAN_POINT ( 'NONE',  ( 59.00000000000000000, 0.000000000000000000, 17.16666667000000146 ) ) ;
#454 = EDGE_CURVE ( 'NONE', #1172, #522, #948, .T. ) ;
#455 = LINE ( 'NONE', #854, #1183 ) ;
#456 = FACE_OUTER_BOUND ( 'NONE', #886, .T. ) ;
#457 = ORIENTED_EDGE ( 'NONE', *, *, #785, .F. ) ;
#458 = LINE ( 'NONE', #1124, #318 ) ;
#459 = PLANE ( 'NONE',  #697 ) ;
#460 = LINE ( 'NONE', #859, #966 ) ;
#461 = LINE ( 'NONE', #1223, #647 ) ;
#462 = ORIENTED_EDGE ( 'NONE', *, *, #394, .F. ) ;
#463 = PLANE ( 'NONE',  #884 ) ;
#464 = EDGE_CURVE ( 'NONE', #1135, #652, #848, .T. ) ;
#465 = ORIENTED_EDGE ( 'NONE', *, *, #1018, .T. ) ;
#466 = VERTEX_POINT ( 'NONE', #81 ) ;
#467 = DIRECTION ( 'NONE',  ( -0.000000000000000000, -0.000000000000000000, -1.000000000000000000 ) ) ;
#468 = VECTOR ( 'NONE', #571, 1000.000000000000000 ) ;
#469 = CARTESIAN_POINT ( 'NONE',  ( 61.00000000000000711, -1.761850553430331939E-16, 17.16666667000000146 ) ) ;
#470 = EDGE_CURVE ( 'NONE', #743, #400, #879, .T. ) ;
#471 = VECTOR ( 'NONE', #9, 1000.000000000000000 ) ;
#472 = DIRECTION ( 'NONE',  ( -1.000000000000000000, -1.210205401168415597E-16, 0.000000000000000000 ) ) ;
#473 = CARTESIAN_POINT ( 'NONE',  ( 0.000000000000000000, 0.000000000000000000, 17.16666667000000146 ) ) ;
#474 = ORIENTED_EDGE ( 'NONE', *, *, #969, .F. ) ;
#475 = PRODUCT_CONTEXT ( 'NONE', #711, 'mechanical' ) ;
#476 = CARTESIAN_POINT ( 'NONE',  ( 31.00000000000000355, -0.9999999999999933387, 17.16666667000000146 ) ) ;
#477 = CARTESIAN_POINT ( 'NONE',  ( 3.097720492815732589E-17, 1.000000000000001776, 0.000000000000000000 ) ) ;
#478 = LINE ( 'NONE', #963, #820 ) ;
#479 = ORIENTED_EDGE ( 'NONE', *, *, #658, .F. ) ;
#480 = ORIENTED_EDGE ( 'NONE', *, *, #1273, .T. ) ;
#481 = DIRECTION ( 'NONE',  ( 0.000000000000000000, 0.000000000000000000, 1.000000000000000000 ) ) ;
#482 = CARTESIAN_POINT ( 'NONE',  ( 120.0000000000000142, 5.551115123125783964E-14, 17.16666667000000146 ) ) ;
#483 = CARTESIAN_POINT ( 'NONE',  ( 7.347880794884119933E-15, -30.00000000000000000, 0.000000000000000000 ) ) ;
#484 = VECTOR ( 'NONE', #746, 1000.000000000000000 ) ;
#485 = EDGE_LOOP ( 'NONE', ( #1250, #97, #1176, #1108 ) ) ;
#486 = ORIENTED_EDGE ( 'NONE', *, *, #597, .F. ) ;
#487 = SHAPE_DEFINITION_REPRESENTATION ( #1106, #1196 ) ;
#488 = FACE_BOUND ( 'NONE', #535, .T. ) ;
#489 = AXIS2_PLACEMENT_3D ( 'NONE', #729, #320, #1229 ) ;
#490 = DIRECTION ( 'NONE',  ( 0.000000000000000000, 1.000000000000000000, -0.000000000000000000 ) ) ;
#491 = CARTESIAN_POINT ( 'NONE',  ( 29.00000000000000000, 28.99999999999999645, 0.000000000000000000 ) ) ;
#492 = VERTEX_POINT ( 'NONE', #1232 ) ;
#493 = EDGE_LOOP ( 'NONE', ( #994, #821, #314, #309 ) ) ;
#494 = DIRECTION ( 'NONE',  ( -1.000000000000000000, -1.210205401168416090E-16, 0.000000000000000000 ) ) ;
#495 = CARTESIAN_POINT ( 'NONE',  ( 91.00000000000000000, 2.228857174448183167E-14, 17.16666667000000146 ) ) ;
#496 = DIRECTION ( 'NONE',  ( 0.000000000000000000, 1.000000000000000000, 0.000000000000000000 ) ) ;
#497 = EDGE_CURVE ( 'NONE', #844, #721, #1259, .T. ) ;
#498 = ORIENTED_EDGE ( 'NONE', *, *, #1219, .T. ) ;
#499 = VERTEX_POINT ( 'NONE', #62 ) ;
#500 = DIRECTION ( 'NONE',  ( -2.888279595787423346E-18, -1.000000000000000000, 0.000000000000000000 ) ) ;
#501 = LINE ( 'NONE', #2, #606 ) ;
#502 = CARTESIAN_POINT ( 'NONE',  ( 29.00000000000000000, 1.000000000000000000, 17.16666667000000146 ) ) ;
#503 = EDGE_CURVE ( 'NONE', #599, #1200, #1062, .T. ) ;
#504 = LINE ( 'NONE', #1035, #147 ) ;
#505 = ORIENTED_EDGE ( 'NONE', *, *, #310, .F. ) ;
#506 = AXIS2_PLACEMENT_3D ( 'NONE', #1158, #1153, #559 ) ;
#507 = ORIENTED_EDGE ( 'NONE', *, *, #94, .F. ) ;
#508 = LINE ( 'NONE', #1191, #923 ) ;
#509 = ADVANCED_FACE ( 'NONE', ( #358, #769, #1254, #164, #371, #680, #761, #862, #1164 ), #254, .F. ) ;
#510 = DIRECTION ( 'NONE',  ( -0.000000000000000000, -0.000000000000000000, -1.000000000000000000 ) ) ;
#511 = ORIENTED_EDGE ( 'NONE', *, *, #1184, .T. ) ;
#512 = ORIENTED_EDGE ( 'NONE', *, *, #534, .F. ) ;
#513 = ADVANCED_FACE ( 'NONE', ( #456 ), #347, .T. ) ;
#514 = DIRECTION ( 'NONE',  ( 1.000000000000000000, 1.292811280976835429E-16, 0.000000000000000000 ) ) ;
#515 = CARTESIAN_POINT ( 'NONE',  ( 89.00000000000000000, 2.179871302482289108E-14, 17.16666667000000146 ) ) ;
#516 = ORIENTED_EDGE ( 'NONE', *, *, #349, .T. ) ;
#517 = LINE ( 'NONE', #419, #73 ) ;
#518 = ORIENTED_EDGE ( 'NONE', *, *, #726, .F. ) ;
#519 = DIRECTION ( 'NONE',  ( -1.000000000000000000, -2.449293598294706907E-16, 0.000000000000000000 ) ) ;
#520 = LINE ( 'NONE', #1126, #805 ) ;
#521 = ORIENTED_EDGE ( 'NONE', *, *, #883, .F. ) ;
#522 = VERTEX_POINT ( 'NONE', #1142 ) ;
#523 = ADVANCED_FACE ( 'NONE', ( #659 ), #1047, .F. ) ;
#524 = CARTESIAN_POINT ( 'NONE',  ( -3.593355771666242704E-15, 28.99999999999999289, 17.16666667000000146 ) ) ;
#525 = LINE ( 'NONE', #1011, #1039 ) ;
#526 = ORIENTED_EDGE ( 'NONE', *, *, #601, .F. ) ;
#527 = VECTOR ( 'NONE', #79, 1000.000000000000000 ) ;
#528 = AXIS2_PLACEMENT_3D ( 'NONE', #345, #870, #774 ) ;
#529 = VERTEX_POINT ( 'NONE', #366 ) ;
#530 = AXIS2_PLACEMENT_3D ( 'NONE', #921, #728, #722 ) ;
#531 = DIRECTION ( 'NONE',  ( 2.449293598294706907E-16, -1.000000000000000000, 0.000000000000000000 ) ) ;
#532 = CARTESIAN_POINT ( 'NONE',  ( 91.00000000000000000, 1.000000000000007550, 17.16666667000000146 ) ) ;
#533 = CARTESIAN_POINT ( 'NONE',  ( 1.000000000000000000, 28.99999999999999289, 17.16666667000000146 ) ) ;
#534 = EDGE_CURVE ( 'NONE', #990, #187, #269, .T. ) ;
#535 = EDGE_LOOP ( 'NONE', ( #1260, #98, #1008, #246 ) ) ;
#536 = PLANE ( 'NONE',  #788 ) ;
#537 = UNCERTAINTY_MEASURE_WITH_UNIT (LENGTH_MEASURE( 1.000000000000000082E-05 ), #917, 'distance_accuracy_value', 'NONE');
#538 = ORIENTED_EDGE ( 'NONE', *, *, #1136, .F. ) ;
#539 = CARTESIAN_POINT ( 'NONE',  ( 7.102951435054651215E-15, -29.00000000000000355, 0.000000000000000000 ) ) ;
#540 = VECTOR ( 'NONE', #1078, 1000.000000000000000 ) ;
#541 = VECTOR ( 'NONE', #981, 1000.000000000000000 ) ;
#542 = CARTESIAN_POINT ( 'NONE',  ( 61.00000000000000000, 29.00000000000000355, 17.16666667000000146 ) ) ;
#543 = EDGE_CURVE ( 'NONE', #1007, #743, #1055, .T. ) ;
#544 = DIRECTION ( 'NONE',  ( -1.000000000000000000, -1.239088197126290817E-16, 0.000000000000000000 ) ) ;
#545 = ORIENTED_EDGE ( 'NONE', *, *, #837, .T. ) ;
#546 = VECTOR ( 'NONE', #202, 1000.000000000000000 ) ;
#547 = CARTESIAN_POINT ( 'NONE',  ( 31.00000000000000000, 28.99999999999999645, 17.16666667000000146 ) ) ;
#548 = ADVANCED_FACE ( 'NONE', ( #1175 ), #1187, .T. ) ;
#549 = LINE ( 'NONE', #852, #131 ) ;
#550 = DIRECTION ( 'NONE',  ( 0.000000000000000000, 1.000000000000000000, -0.000000000000000000 ) ) ;
#551 = ORIENTED_EDGE ( 'NONE', *, *, #927, .F. ) ;
#552 = CARTESIAN_POINT ( 'NONE',  ( 0.000000000000000000, 0.000000000000000000, 0.000000000000000000 ) ) ;
#553 = ORIENTED_EDGE ( 'NONE', *, *, #883, .T. ) ;
#554 = DIRECTION ( 'NONE',  ( -1.000000000000000000, 0.000000000000000000, 0.000000000000000000 ) ) ;
#555 = DIRECTION ( 'NONE',  ( 2.507059190210457346E-16, 1.000000000000000000, 0.000000000000000000 ) ) ;
#556 = PLANE ( 'NONE',  #985 ) ;
#557 = CARTESIAN_POINT ( 'NONE',  ( 119.0000000000000142, 1.000000000000015321, 17.16666667000000146 ) ) ;
#558 = LINE ( 'NONE', #955, #180 ) ;
#559 = DIRECTION ( 'NONE',  ( -1.000000000000000000, -1.292811280976835429E-16, 0.000000000000000000 ) ) ;
#560 = ORIENTED_EDGE ( 'NONE', *, *, #315, .F. ) ;
#561 = EDGE_CURVE ( 'NONE', #949, #599, #1180, .T. ) ;
#562 = ORIENTED_EDGE ( 'NONE', *, *, #534, .T. ) ;
#563 = CARTESIAN_POINT ( 'NONE',  ( 3.509595663388404567E-15, -28.99999999999999289, 17.16666667000000146 ) ) ;
#564 = LINE ( 'NONE', #368, #1081 ) ;
#565 = DIRECTION ( 'NONE',  ( 3.097720492815727659E-17, 1.000000000000000000, -0.000000000000000000 ) ) ;
#566 = VECTOR ( 'NONE', #690, 1000.000000000000000 ) ;
#567 = DIRECTION ( 'NONE',  ( 1.000000000000000000, -3.386548452394465063E-17, 0.000000000000000000 ) ) ;
#568 = ORIENTED_EDGE ( 'NONE', *, *, #543, .F. ) ;
#569 = FACE_OUTER_BOUND ( 'NONE', #903, .T. ) ;
#570 = VECTOR ( 'NONE', #555, 1000.000000000000000 ) ;
#571 = DIRECTION ( 'NONE',  ( -0.000000000000000000, -0.000000000000000000, -1.000000000000000000 ) ) ;
#572 = AXIS2_PLACEMENT_3D ( 'NONE', #388, #190, #17 ) ;
#573 = DIRECTION ( 'NONE',  ( -1.210205401168415844E-16, 1.000000000000000000, 0.000000000000000000 ) ) ;
#574 = CARTESIAN_POINT ( 'NONE',  ( 3.509595663388405356E-15, -28.99999999999999289, 0.000000000000000000 ) ) ;
#575 = VERTEX_POINT ( 'NONE', #100 ) ;
#576 = ORIENTED_EDGE ( 'NONE', *, *, #589, .F. ) ;
#577 = CARTESIAN_POINT ( 'NONE',  ( 119.0000000000000142, -2.983400436350443808E-14, 17.16666667000000146 ) ) ;
#578 = CARTESIAN_POINT ( 'NONE',  ( 1.000000000000003775, 1.239088197126295747E-16, 0.000000000000000000 ) ) ;
#579 = CARTESIAN_POINT ( 'NONE',  ( -3.386548452394404666E-17, -0.9999999999999822364, 0.000000000000000000 ) ) ;
#580 = ORIENTED_EDGE ( 'NONE', *, *, #10, .F. ) ;
#581 = EDGE_CURVE ( 'NONE', #1107, #466, #706, .T. ) ;
#582 = ORIENTED_EDGE ( 'NONE', *, *, #873, .F. ) ;
#583 = LINE ( 'NONE', #976, #96 ) ;
#584 = CARTESIAN_POINT ( 'NONE',  ( 1.000000000000003775, -0.9999999999999997780, 17.16666667000000146 ) ) ;
#585 = VERTEX_POINT ( 'NONE', #18 ) ;
#586 = ORIENTED_EDGE ( 'NONE', *, *, #734, .F. ) ;
#587 =( NAMED_UNIT ( * ) SI_UNIT ( $, .STERADIAN. ) SOLID_ANGLE_UNIT ( ) );
#588 = DIRECTION ( 'NONE',  ( -4.625929269271485914E-16, 1.000000000000000000, 0.000000000000000000 ) ) ;
#589 = EDGE_CURVE ( 'NONE', #990, #263, #209, .T. ) ;
#590 = VECTOR ( 'NONE', #1186, 1000.000000000000000 ) ;
#591 = AXIS2_PLACEMENT_3D ( 'NONE', #563, #343, #247 ) ;
#592 = CARTESIAN_POINT ( 'NONE',  ( 59.00000000000000000, 1.000000000000000000, 17.16666667000000146 ) ) ;
#593 = EDGE_LOOP ( 'NONE', ( #1195, #716, #332, #426 ) ) ;
#594 = ORIENTED_EDGE ( 'NONE', *, *, #1103, .T. ) ;
#595 = CARTESIAN_POINT ( 'NONE',  ( 2.759065647576284111E-16, -1.000000000000001776, 17.16666667000000146 ) ) ;
#596 = EDGE_CURVE ( 'NONE', #466, #949, #196, .T. ) ;
#597 = EDGE_CURVE ( 'NONE', #326, #983, #988, .T. ) ;
#598 = FACE_OUTER_BOUND ( 'NONE', #897, .T. ) ;
#599 = VERTEX_POINT ( 'NONE', #1071 ) ;
#600 = ORIENTED_EDGE ( 'NONE', *, *, #733, .F. ) ;
#601 = EDGE_CURVE ( 'NONE', #24, #1007, #699, .T. ) ;
#602 = LINE ( 'NONE', #684, #399 ) ;
#603 = CARTESIAN_POINT ( 'NONE',  ( 61.00000000000000711, -1.761850553430331939E-16, 17.16666667000000146 ) ) ;
#604 = ORIENTED_EDGE ( 'NONE', *, *, #383, .T. ) ;
#605 = EDGE_CURVE ( 'NONE', #427, #930, #906, .T. ) ;
#606 = VECTOR ( 'NONE', #490, 1000.000000000000000 ) ;
#607 = VECTOR ( 'NONE', #510, 1000.000000000000000 ) ;
#608 = ORIENTED_EDGE ( 'NONE', *, *, #1212, .T. ) ;
#609 = ADVANCED_FACE ( 'NONE', ( #598 ), #105, .T. ) ;
#610 = DIRECTION ( 'NONE',  ( -2.449293598294706907E-16, 1.000000000000000000, 0.000000000000000000 ) ) ;
#611 = DIRECTION ( 'NONE',  ( 3.386548452394465063E-17, 1.000000000000000000, -0.000000000000000000 ) ) ;
#612 = VECTOR ( 'NONE', #1205, 1000.000000000000000 ) ;
#613 = VECTOR ( 'NONE', #429, 1000.000000000000000 ) ;
#614 = ORIENTED_EDGE ( 'NONE', *, *, #42, .F. ) ;
#615 = EDGE_LOOP ( 'NONE', ( #292, #402, #386, #633 ) ) ;
#616 = CARTESIAN_POINT ( 'NONE',  ( 89.00000000000001421, -28.99999999999998579, 0.000000000000000000 ) ) ;
#617 = VECTOR ( 'NONE', #1238, 1000.000000000000000 ) ;
#618 = ORIENTED_EDGE ( 'NONE', *, *, #636, .T. ) ;
#619 = EDGE_CURVE ( 'NONE', #893, #1135, #385, .T. ) ;
#620 = VERTEX_POINT ( 'NONE', #483 ) ;
#621 = DIRECTION ( 'NONE',  ( -1.000000000000000000, 3.386548452394484168E-17, 0.000000000000000000 ) ) ;
#622 = CARTESIAN_POINT ( 'NONE',  ( 91.00000000000000000, 1.000000000000007550, 0.000000000000000000 ) ) ;
#623 = FILL_AREA_STYLE_COLOUR ( '', #1022 ) ;
#624 = ORIENTED_EDGE ( 'NONE', *, *, #447, .T. ) ;
#625 = EDGE_LOOP ( 'NONE', ( #624, #892, #801, #101 ) ) ;
#626 = LINE ( 'NONE', #1014, #1249 ) ;
#627 = CARTESIAN_POINT ( 'NONE',  ( 7.102951435054651215E-15, -29.00000000000000355, 17.16666667000000146 ) ) ;
#628 = EDGE_CURVE ( 'NONE', #802, #1135, #998, .T. ) ;
#629 = EDGE_CURVE ( 'NONE', #1190, #1200, #900, .T. ) ;
#630 = ORIENTED_EDGE ( 'NONE', *, *, #360, .F. ) ;
#631 = VECTOR ( 'NONE', #407, 1000.000000000000000 ) ;
#632 = VECTOR ( 'NONE', #437, 1000.000000000000000 ) ;
#633 = ORIENTED_EDGE ( 'NONE', *, *, #726, .T. ) ;
#634 = FACE_OUTER_BOUND ( 'NONE', #675, .T. ) ;
#635 = LINE ( 'NONE', #745, #1185 ) ;
#636 = EDGE_CURVE ( 'NONE', #1074, #847, #1171, .T. ) ;
#637 = ORIENTED_EDGE ( 'NONE', *, *, #278, .F. ) ;
#638 = ORIENTED_EDGE ( 'NONE', *, *, #395, .T. ) ;
#639 = ADVANCED_FACE ( 'NONE', ( #191 ), #808, .F. ) ;
#640 = CARTESIAN_POINT ( 'NONE',  ( 59.00000000000000711, -28.99999999999998934, 17.16666667000000146 ) ) ;
#641 = DIRECTION ( 'NONE',  ( 1.000000000000000000, 1.239088197126291063E-16, 0.000000000000000000 ) ) ;
#642 = FACE_OUTER_BOUND ( 'NONE', #493, .T. ) ;
#643 = CARTESIAN_POINT ( 'NONE',  ( -2.787948443534104110E-16, 0.9999999999999822364, 17.16666667000000146 ) ) ;
#644 = EDGE_LOOP ( 'NONE', ( #1201, #1206, #786, #114 ) ) ;
#645 = ADVANCED_FACE ( 'NONE', ( #712 ), #1098, .F. ) ;
#646 =( LENGTH_UNIT ( ) NAMED_UNIT ( * ) SI_UNIT ( .MILLI., .METRE. ) );
#647 = VECTOR ( 'NONE', #860, 1000.000000000000000 ) ;
#648 = LINE ( 'NONE', #177, #527 ) ;
#649 = CARTESIAN_POINT ( 'NONE',  ( 119.0000000000000142, 5.898059818321145383E-14, 17.16666667000000146 ) ) ;
#650 = ORIENTED_EDGE ( 'NONE', *, *, #817, .F. ) ;
#651 = CARTESIAN_POINT ( 'NONE',  ( -2.787948443534108547E-16, 0.9999999999999833467, 17.16666667000000146 ) ) ;
#652 = VERTEX_POINT ( 'NONE', #491 ) ;
#653 = VECTOR ( 'NONE', #146, 1000.000000000000000 ) ;
#654 = CARTESIAN_POINT ( 'NONE',  ( 91.00000000000000000, 1.000000000000007550, 17.16666667000000146 ) ) ;
#655 = CARTESIAN_POINT ( 'NONE',  ( 29.00000000000000000, 0.000000000000000000, 17.16666667000000146 ) ) ;
#656 = FACE_OUTER_BOUND ( 'NONE', #321, .T. ) ;
#657 = CARTESIAN_POINT ( 'NONE',  ( 29.00000000000000000, 28.99999999999999645, 17.16666667000000146 ) ) ;
#658 = EDGE_CURVE ( 'NONE', #522, #218, #379, .T. ) ;
#659 = FACE_OUTER_BOUND ( 'NONE', #124, .T. ) ;
#660 = ORIENTED_EDGE ( 'NONE', *, *, #596, .T. ) ;
#661 = EDGE_CURVE ( 'NONE', #326, #24, #891, .T. ) ;
#662 = VERTEX_POINT ( 'NONE', #117 ) ;
#663 = LINE ( 'NONE', #257, #55 ) ;
#664 = LINE ( 'NONE', #1052, #1021 ) ;
#665 = CARTESIAN_POINT ( 'NONE',  ( 1.000000000000003775, 1.210205401168420035E-16, 17.16666667000000146 ) ) ;
#666 = CARTESIAN_POINT ( 'NONE',  ( 31.00000000000000355, 3.841173411091502100E-15, 17.16666667000000146 ) ) ;
#667 = DIRECTION ( 'NONE',  ( -1.210205401168415844E-16, 1.000000000000000000, 0.000000000000000000 ) ) ;
#668 = VERTEX_POINT ( 'NONE', #1115 ) ;
#669 = ORIENTED_EDGE ( 'NONE', *, *, #464, .F. ) ;
#670 = PLANE ( 'NONE',  #591 ) ;
#671 = FACE_OUTER_BOUND ( 'NONE', #593, .T. ) ;
#672 = CARTESIAN_POINT ( 'NONE',  ( 61.00000000000000711, 1.000000000000000222, 17.16666667000000146 ) ) ;
#673 = VECTOR ( 'NONE', #295, 1000.000000000000000 ) ;
#674 = DIRECTION ( 'NONE',  ( -1.000000000000000000, -1.239088197126291063E-16, 0.000000000000000000 ) ) ;
#675 = EDGE_LOOP ( 'NONE', ( #926, #526, #348, #825 ) ) ;
#676 = ORIENTED_EDGE ( 'NONE', *, *, #1037, .T. ) ;
#677 = VECTOR ( 'NONE', #1050, 1000.000000000000000 ) ;
#678 = LINE ( 'NONE', #578, #16 ) ;
#679 = EDGE_CURVE ( 'NONE', #432, #529, #22, .T. ) ;
#680 = FACE_BOUND ( 'NONE', #686, .T. ) ;
#681 = ORIENTED_EDGE ( 'NONE', *, *, #103, .T. ) ;
#682 = VERTEX_POINT ( 'NONE', #1110 ) ;
#683 = EDGE_CURVE ( 'NONE', #585, #427, #335, .T. ) ;
#684 = CARTESIAN_POINT ( 'NONE',  ( 61.00000000000000711, -1.761850553430331939E-16, 0.000000000000000000 ) ) ;
#685 = DIRECTION ( 'NONE',  ( -2.449293598294706907E-16, 1.000000000000000000, 0.000000000000000000 ) ) ;
#686 = EDGE_LOOP ( 'NONE', ( #507, #1072, #1167, #282 ) ) ;
#687 = ORIENTED_EDGE ( 'NONE', *, *, #701, .F. ) ;
#688 = ADVANCED_FACE ( 'NONE', ( #40 ), #818, .F. ) ;
#689 = LINE ( 'NONE', #110, #259 ) ;
#690 = DIRECTION ( 'NONE',  ( -0.000000000000000000, -0.000000000000000000, -1.000000000000000000 ) ) ;
#691 = LINE ( 'NONE', #707, #540 ) ;
#692 = ORIENTED_EDGE ( 'NONE', *, *, #543, .T. ) ;
#693 = ORIENTED_EDGE ( 'NONE', *, *, #305, .F. ) ;
#694 = CARTESIAN_POINT ( 'NONE',  ( 0.000000000000000000, 0.000000000000000000, 0.000000000000000000 ) ) ;
#695 = EDGE_CURVE ( 'NONE', #668, #839, #45, .T. ) ;
#696 = CARTESIAN_POINT ( 'NONE',  ( 29.00000000000000000, -0.9999999999999928946, 0.000000000000000000 ) ) ;
#697 = AXIS2_PLACEMENT_3D ( 'NONE', #469, #1162, #975 ) ;
#698 = VECTOR ( 'NONE', #922, 1000.000000000000000 ) ;
#699 = LINE ( 'NONE', #95, #1059 ) ;
#700 = FACE_OUTER_BOUND ( 'NONE', #979, .T. ) ;
#701 = EDGE_CURVE ( 'NONE', #983, #1007, #520, .T. ) ;
#702 = VERTEX_POINT ( 'NONE', #134 ) ;
#703 = EDGE_LOOP ( 'NONE', ( #448, #130, #165, #1145 ) ) ;
#704 = CARTESIAN_POINT ( 'NONE',  ( 1.000000000000007105, -28.99999999999999289, 17.16666667000000146 ) ) ;
#705 = PLANE ( 'NONE',  #92 ) ;
#706 = LINE ( 'NONE', #896, #1117 ) ;
#707 = CARTESIAN_POINT ( 'NONE',  ( 89.00000000000001421, -28.99999999999998579, 17.16666667000000146 ) ) ;
#708 = VERTEX_POINT ( 'NONE', #532 ) ;
#709 = ORIENTED_EDGE ( 'NONE', *, *, #831, .T. ) ;
#710 = DIRECTION ( 'NONE',  ( -0.000000000000000000, -0.000000000000000000, -1.000000000000000000 ) ) ;
#711 = APPLICATION_CONTEXT ( 'automotive_design' ) ;
#712 = FACE_OUTER_BOUND ( 'NONE', #914, .T. ) ;
#713 = ORIENTED_EDGE ( 'NONE', *, *, #36, .F. ) ;
#714 = CARTESIAN_POINT ( 'NONE',  ( 1.000000000000003775, 1.210205401168420035E-16, 0.000000000000000000 ) ) ;
#715 = VECTOR ( 'NONE', #144, 1000.000000000000000 ) ;
#716 = ORIENTED_EDGE ( 'NONE', *, *, #1219, .F. ) ;
#717 = DIRECTION ( 'NONE',  ( -4.625929269271485914E-16, 1.000000000000000000, 0.000000000000000000 ) ) ;
#718 = SURFACE_SIDE_STYLE ('',( #1027 ) ) ;
#719 = AXIS2_PLACEMENT_3D ( 'NONE', #1198, #411, #313 ) ;
#720 = ORIENTED_EDGE ( 'NONE', *, *, #683, .T. ) ;
#721 = VERTEX_POINT ( 'NONE', #738 ) ;
#722 = DIRECTION ( 'NONE',  ( -2.449293598294706907E-16, 1.000000000000000000, 0.000000000000000000 ) ) ;
#723 = PRESENTATION_STYLE_ASSIGNMENT (( #1015 ) ) ;
#724 = VERTEX_POINT ( 'NONE', #243 ) ;
#725 = ORIENTED_EDGE ( 'NONE', *, *, #227, .T. ) ;
#726 = EDGE_CURVE ( 'NONE', #819, #322, #635, .T. ) ;
#727 = DIRECTION ( 'NONE',  ( 0.000000000000000000, 1.000000000000000000, -0.000000000000000000 ) ) ;
#728 = DIRECTION ( 'NONE',  ( 1.000000000000000000, 2.449293598294706907E-16, -0.000000000000000000 ) ) ;
#729 = CARTESIAN_POINT ( 'NONE',  ( 1.000000000000003775, 1.239088197126295747E-16, 17.16666667000000146 ) ) ;
#730 = EDGE_LOOP ( 'NONE', ( #69, #1016, #964, #982 ) ) ;
#731 = ORIENTED_EDGE ( 'NONE', *, *, #454, .F. ) ;
#732 = VECTOR ( 'NONE', #397, 1000.000000000000000 ) ;
#733 = EDGE_CURVE ( 'NONE', #702, #187, #1006, .T. ) ;
#734 = EDGE_CURVE ( 'NONE', #263, #702, #224, .T. ) ;
#735 = LINE ( 'NONE', #433, #715 ) ;
#736 = LINE ( 'NONE', #126, #986 ) ;
#737 = MANIFOLD_SOLID_BREP ( 'Sym\X2\00e9\X0\trie1', #940 ) ;
#738 = CARTESIAN_POINT ( 'NONE',  ( 31.00000000000000355, -0.9999999999999933387, 17.16666667000000146 ) ) ;
#739 = CARTESIAN_POINT ( 'NONE',  ( 0.000000000000000000, 0.000000000000000000, 0.000000000000000000 ) ) ;
#740 = VECTOR ( 'NONE', #544, 1000.000000000000000 ) ;
#741 = EDGE_CURVE ( 'NONE', #930, #226, #525, .T. ) ;
#742 = VECTOR ( 'NONE', #853, 1000.000000000000000 ) ;
#743 = VERTEX_POINT ( 'NONE', #34 ) ;
#744 = CARTESIAN_POINT ( 'NONE',  ( 119.0000000000000142, -28.99999999999998224, 17.16666667000000146 ) ) ;
#745 = CARTESIAN_POINT ( 'NONE',  ( 120.0000000000000142, -29.99999999999998579, 17.16666667000000146 ) ) ;
#746 = DIRECTION ( 'NONE',  ( -0.000000000000000000, -0.000000000000000000, -1.000000000000000000 ) ) ;
#747 = EDGE_CURVE ( 'NONE', #91, #1154, #123, .T. ) ;
#748 = DIRECTION ( 'NONE',  ( 1.000000000000000000, 1.239088197126291063E-16, -0.000000000000000000 ) ) ;
#749 = ORIENTED_EDGE ( 'NONE', *, *, #339, .T. ) ;
#750 = DIRECTION ( 'NONE',  ( -0.000000000000000000, -0.000000000000000000, -1.000000000000000000 ) ) ;
#751 = FACE_OUTER_BOUND ( 'NONE', #13, .T. ) ;
#752 = PLANE ( 'NONE',  #1064 ) ;
#753 = LINE ( 'NONE', #453, #742 ) ;
#754 = DIRECTION ( 'NONE',  ( -1.000000000000000000, -1.210205401168416090E-16, 0.000000000000000000 ) ) ;
#755 = ORIENTED_EDGE ( 'NONE', *, *, #227, .F. ) ;
#756 = CARTESIAN_POINT ( 'NONE',  ( 0.000000000000000000, 29.00000000000000355, 17.16666667000000146 ) ) ;
#757 = CARTESIAN_POINT ( 'NONE',  ( 31.00000000000000355, 1.000000000000000888, 17.16666667000000146 ) ) ;
#758 = FACE_OUTER_BOUND ( 'NONE', #141, .T. ) ;
#759 = ADVANCED_FACE ( 'NONE', ( #324 ), #1215, .T. ) ;
#760 = CARTESIAN_POINT ( 'NONE',  ( 61.00000000000000711, -28.99999999999998934, 17.16666667000000146 ) ) ;
#761 = FACE_BOUND ( 'NONE', #58, .T. ) ;
#762 = ORIENTED_EDGE ( 'NONE', *, *, #581, .F. ) ;
#763 = AXIS2_PLACEMENT_3D ( 'NONE', #595, #1090, #207 ) ;
#764 = AXIS2_PLACEMENT_3D ( 'NONE', #524, #122, #928 ) ;
#765 = LINE ( 'NONE', #159, #889 ) ;
#766 = DIRECTION ( 'NONE',  ( -1.000000000000000000, 2.507059190210456853E-16, 0.000000000000000000 ) ) ;
#767 = DIRECTION ( 'NONE',  ( -1.210205401168415597E-16, 1.000000000000000000, 0.000000000000000000 ) ) ;
#768 = CARTESIAN_POINT ( 'NONE',  ( 3.509595663388404567E-15, -28.99999999999999289, 0.000000000000000000 ) ) ;
#769 = FACE_BOUND ( 'NONE', #625, .T. ) ;
#770 = ORIENTED_EDGE ( 'NONE', *, *, #741, .T. ) ;
#771 = CARTESIAN_POINT ( 'NONE',  ( 7.102951435054651215E-15, -29.00000000000000355, 17.16666667000000146 ) ) ;
#772 = ADVANCED_FACE ( 'NONE', ( #642 ), #66, .F. ) ;
#773 = DIRECTION ( 'NONE',  ( 1.239088197126291063E-16, -1.000000000000000000, 0.000000000000000000 ) ) ;
#774 = DIRECTION ( 'NONE',  ( -2.449293598294706907E-16, 1.000000000000000000, 0.000000000000000000 ) ) ;
#775 = CARTESIAN_POINT ( 'NONE',  ( 119.0000000000000142, -0.9999999999999863443, 17.16666667000000146 ) ) ;
#776 = DIRECTION ( 'NONE',  ( 0.000000000000000000, 1.000000000000000000, -0.000000000000000000 ) ) ;
#777 = EDGE_LOOP ( 'NONE', ( #604, #250, #182, #560 ) ) ;
#778 = ORIENTED_EDGE ( 'NONE', *, *, #470, .F. ) ;
#779 = DIRECTION ( 'NONE',  ( -0.000000000000000000, -0.000000000000000000, -1.000000000000000000 ) ) ;
#780 = CARTESIAN_POINT ( 'NONE',  ( 29.00000000000000000, 1.000000000000000000, 17.16666667000000146 ) ) ;
#781 = VECTOR ( 'NONE', #750, 1000.000000000000000 ) ;
#782 = AXIS2_PLACEMENT_3D ( 'NONE', #306, #301, #795 ) ;
#783 = LINE ( 'NONE', #579, #311 ) ;
#784 = ORIENTED_EDGE ( 'NONE', *, *, #984, .T. ) ;
#785 = EDGE_CURVE ( 'NONE', #902, #949, #1163, .T. ) ;
#786 = ORIENTED_EDGE ( 'NONE', *, *, #1225, .T. ) ;
#787 = VECTOR ( 'NONE', #573, 1000.000000000000000 ) ;
#788 = AXIS2_PLACEMENT_3D ( 'NONE', #828, #932, #304 ) ;
#789 = CARTESIAN_POINT ( 'NONE',  ( 59.00000000000000000, 29.00000000000000000, 17.16666667000000146 ) ) ;
#790 = CARTESIAN_POINT ( 'NONE',  ( 0.000000000000000000, 30.00000000000000000, 17.16666667000000146 ) ) ;
#791 = EDGE_CURVE ( 'NONE', #387, #1048, #56, .T. ) ;
#792 = ORIENTED_EDGE ( 'NONE', *, *, #36, .T. ) ;
#793 = ORIENTED_EDGE ( 'NONE', *, *, #405, .F. ) ;
#794 = DIRECTION ( 'NONE',  ( -0.000000000000000000, -0.000000000000000000, -1.000000000000000000 ) ) ;
#795 = DIRECTION ( 'NONE',  ( 1.210205401168415597E-16, -1.000000000000000000, 0.000000000000000000 ) ) ;
#796 = ORIENTED_EDGE ( 'NONE', *, *, #873, .T. ) ;
#797 = ORIENTED_EDGE ( 'NONE', *, *, #865, .T. ) ;
#798 = DIRECTION ( 'NONE',  ( 1.000000000000000000, 0.000000000000000000, 0.000000000000000000 ) ) ;
#799 = ADVANCED_FACE ( 'NONE', ( #656 ), #80, .T. ) ;
#800 = CARTESIAN_POINT ( 'NONE',  ( 29.00000000000000000, 7.102951435054649637E-15, 0.000000000000000000 ) ) ;
#801 = ORIENTED_EDGE ( 'NONE', *, *, #605, .F. ) ;
#802 = VERTEX_POINT ( 'NONE', #780 ) ;
#803 = FACE_BOUND ( 'NONE', #84, .T. ) ;
#804 = AXIS2_PLACEMENT_3D ( 'NONE', #363, #869, #951 ) ;
#805 = VECTOR ( 'NONE', #417, 1000.000000000000000 ) ;
#806 = FACE_OUTER_BOUND ( 'NONE', #413, .T. ) ;
#807 = AXIS2_PLACEMENT_3D ( 'NONE', #78, #334, #252 ) ;
#808 = PLANE ( 'NONE',  #782 ) ;
#809 = ORIENTED_EDGE ( 'NONE', *, *, #310, .T. ) ;
#810 = VERTEX_POINT ( 'NONE', #672 ) ;
#811 = PLANE ( 'NONE',  #763 ) ;
#812 = DIRECTION ( 'NONE',  ( -0.000000000000000000, -0.000000000000000000, -1.000000000000000000 ) ) ;
#813 = DIRECTION ( 'NONE',  ( -0.000000000000000000, -0.000000000000000000, -1.000000000000000000 ) ) ;
#814 = ORIENTED_EDGE ( 'NONE', *, *, #127, .F. ) ;
#815 = ORIENTED_EDGE ( 'NONE', *, *, #679, .F. ) ;
#816 = PLANE ( 'NONE',  #33 ) ;
#817 = EDGE_CURVE ( 'NONE', #1190, #1107, #877, .T. ) ;
#818 = PLANE ( 'NONE',  #719 ) ;
#819 = VERTEX_POINT ( 'NONE', #1044 ) ;
#820 = VECTOR ( 'NONE', #74, 1000.000000000000000 ) ;
#821 = ORIENTED_EDGE ( 'NONE', *, *, #370, .F. ) ;
#822 = ADVANCED_FACE ( 'NONE', ( #1149 ), #364, .F. ) ;
#823 = CARTESIAN_POINT ( 'NONE',  ( 61.00000000000000711, 1.000000000000000222, 17.16666667000000146 ) ) ;
#824 = CARTESIAN_POINT ( 'NONE',  ( 1.000000000000000000, 28.99999999999999289, 17.16666667000000146 ) ) ;
#825 = ORIENTED_EDGE ( 'NONE', *, *, #597, .T. ) ;
#826 = EDGE_CURVE ( 'NONE', #830, #427, #369, .T. ) ;
#827 = ORIENTED_EDGE ( 'NONE', *, *, #561, .T. ) ;
#828 = CARTESIAN_POINT ( 'NONE',  ( 91.00000000000000000, 0.000000000000000000, 17.16666667000000146 ) ) ;
#829 =( NAMED_UNIT ( * ) PLANE_ANGLE_UNIT ( ) SI_UNIT ( $, .RADIAN. ) );
#830 = VERTEX_POINT ( 'NONE', #542 ) ;
#831 = EDGE_CURVE ( 'NONE', #724, #1048, #72, .T. ) ;
#832 = ADVANCED_FACE ( 'NONE', ( #273 ), #1258, .F. ) ;
#833 = ORIENTED_EDGE ( 'NONE', *, *, #1204, .F. ) ;
#834 = DIRECTION ( 'NONE',  ( -0.000000000000000000, -0.000000000000000000, -1.000000000000000000 ) ) ;
#835 = PLANE ( 'NONE',  #764 ) ;
#836 = DIRECTION ( 'NONE',  ( -1.210205401168415844E-16, 1.000000000000000000, 0.000000000000000000 ) ) ;
#837 = EDGE_CURVE ( 'NONE', #1024, #326, #155, .T. ) ;
#838 = CARTESIAN_POINT ( 'NONE',  ( 2.759065647576284111E-16, -1.000000000000001776, 0.000000000000000000 ) ) ;
#839 = VERTEX_POINT ( 'NONE', #260 ) ;
#840 = VECTOR ( 'NONE', #156, 1000.000000000000000 ) ;
#841 = VECTOR ( 'NONE', #112, 1000.000000000000000 ) ;
#842 = CARTESIAN_POINT ( 'NONE',  ( 119.0000000000000142, -0.9999999999999863443, 0.000000000000000000 ) ) ;
#843 = DIRECTION ( 'NONE',  ( -0.000000000000000000, -0.000000000000000000, -1.000000000000000000 ) ) ;
#844 = VERTEX_POINT ( 'NONE', #1054 ) ;
#845 = CARTESIAN_POINT ( 'NONE',  ( 89.00000000000000000, -0.9999999999999861222, 17.16666667000000146 ) ) ;
#846 = CARTESIAN_POINT ( 'NONE',  ( 59.00000000000000000, 1.445083222993876957E-14, 0.000000000000000000 ) ) ;
#847 = VERTEX_POINT ( 'NONE', #169 ) ;
#848 = LINE ( 'NONE', #971, #174 ) ;
#849 = ORIENTED_EDGE ( 'NONE', *, *, #658, .T. ) ;
#850 = DIRECTION ( 'NONE',  ( -0.000000000000000000, -0.000000000000000000, -1.000000000000000000 ) ) ;
#851 = EDGE_CURVE ( 'NONE', #802, #37, #939, .T. ) ;
#852 = CARTESIAN_POINT ( 'NONE',  ( -3.469446951953614189E-15, 30.00000000000000000, 17.16666667000000146 ) ) ;
#853 = DIRECTION ( 'NONE',  ( 0.000000000000000000, 1.000000000000000000, -0.000000000000000000 ) ) ;
#854 = CARTESIAN_POINT ( 'NONE',  ( 3.509595663388404567E-15, -28.99999999999999289, 17.16666667000000146 ) ) ;
#855 = DIRECTION ( 'NONE',  ( -1.000000000000000000, -2.787948443534155386E-16, 0.000000000000000000 ) ) ;
#856 = ORIENTED_EDGE ( 'NONE', *, *, #464, .T. ) ;
#857 = LINE ( 'NONE', #640, #781 ) ;
#858 = CARTESIAN_POINT ( 'NONE',  ( 1.000000000000000000, 28.99999999999999289, 0.000000000000000000 ) ) ;
#859 = CARTESIAN_POINT ( 'NONE',  ( 3.878433842930505744E-15, -30.00000000000000000, 0.000000000000000000 ) ) ;
#860 = DIRECTION ( 'NONE',  ( 1.000000000000000000, 2.787948443534153414E-16, 0.000000000000000000 ) ) ;
#861 = EDGE_LOOP ( 'NONE', ( #392, #856, #1104, #373 ) ) ;
#862 = FACE_BOUND ( 'NONE', #644, .T. ) ;
#863 = EDGE_LOOP ( 'NONE', ( #245, #1194, #205, #183 ) ) ;
#864 = AXIS2_PLACEMENT_3D ( 'NONE', #655, #1043, #160 ) ;
#865 = EDGE_CURVE ( 'NONE', #1266, #25, #946, .T. ) ;
#866 = VECTOR ( 'NONE', #340, 1000.000000000000000 ) ;
#867 = VECTOR ( 'NONE', #64, 1000.000000000000000 ) ;
#868 = PLANE ( 'NONE',  #221 ) ;
#869 = DIRECTION ( 'NONE',  ( -2.787948443534153414E-16, 1.000000000000000000, 0.000000000000000000 ) ) ;
#870 = DIRECTION ( 'NONE',  ( 1.000000000000000000, 2.449293598294706907E-16, -0.000000000000000000 ) ) ;
#871 = CARTESIAN_POINT ( 'NONE',  ( -3.593355771666243492E-15, 28.99999999999999289, 0.000000000000000000 ) ) ;
#872 = ORIENTED_EDGE ( 'NONE', *, *, #325, .T. ) ;
#873 = EDGE_CURVE ( 'NONE', #466, #915, #753, .T. ) ;
#874 = ORIENTED_EDGE ( 'NONE', *, *, #325, .F. ) ;
#875 =( NAMED_UNIT ( * ) PLANE_ANGLE_UNIT ( ) SI_UNIT ( $, .RADIAN. ) );
#876 = PLANE ( 'NONE',  #333 ) ;
#877 = LINE ( 'NONE', #161, #888 ) ;
#878 = ADVANCED_FACE ( 'NONE', ( #758 ), #556, .T. ) ;
#879 = LINE ( 'NONE', #574, #901 ) ;
#880 = ORIENTED_EDGE ( 'NONE', *, *, #629, .T. ) ;
#881 = EDGE_LOOP ( 'NONE', ( #474, #381, #480, #1234 ) ) ;
#882 = CARTESIAN_POINT ( 'NONE',  ( 89.00000000000000000, 29.00000000000000355, 0.000000000000000000 ) ) ;
#883 = EDGE_CURVE ( 'NONE', #620, #322, #460, .T. ) ;
#884 = AXIS2_PLACEMENT_3D ( 'NONE', #181, #280, #274 ) ;
#885 = CARTESIAN_POINT ( 'NONE',  ( 31.00000000000000000, 28.99999999999999645, 17.16666667000000146 ) ) ;
#886 = EDGE_LOOP ( 'NONE', ( #995, #1002, #43, #1113 ) ) ;
#887 = ORIENTED_EDGE ( 'NONE', *, *, #927, .T. ) ;
#888 = VECTOR ( 'NONE', #178, 1000.000000000000000 ) ;
#889 = VECTOR ( 'NONE', #843, 1000.000000000000000 ) ;
#890 = FACE_BOUND ( 'NONE', #941, .T. ) ;
#891 = LINE ( 'NONE', #1222, #31 ) ;
#892 = ORIENTED_EDGE ( 'NONE', *, *, #741, .F. ) ;
#893 = VERTEX_POINT ( 'NONE', #355 ) ;
#894 = EDGE_CURVE ( 'NONE', #499, #1079, #602, .T. ) ;
#895 = CARTESIAN_POINT ( 'NONE',  ( 0.000000000000000000, 1.000000000000000000, 17.16666667000000146 ) ) ;
#896 = CARTESIAN_POINT ( 'NONE',  ( 3.097720492815732589E-17, 1.000000000000001776, 17.16666667000000146 ) ) ;
#897 = EDGE_LOOP ( 'NONE', ( #1101, #1173, #676, #709 ) ) ;
#898 = EDGE_LOOP ( 'NONE', ( #538, #1274, #199, #925 ) ) ;
#899 = LINE ( 'NONE', #1, #471 ) ;
#900 = LINE ( 'NONE', #885, #607 ) ;
#901 = VECTOR ( 'NONE', #754, 1000.000000000000000 ) ;
#902 = VERTEX_POINT ( 'NONE', #980 ) ;
#903 = EDGE_LOOP ( 'NONE', ( #919, #1240, #796, #1275 ) ) ;
#904 = FACE_OUTER_BOUND ( 'NONE', #1001, .T. ) ;
#905 = VECTOR ( 'NONE', #1102, 1000.000000000000000 ) ;
#906 = LINE ( 'NONE', #1192, #841 ) ;
#907 = ORIENTED_EDGE ( 'NONE', *, *, #1212, .F. ) ;
#908 = ORIENTED_EDGE ( 'NONE', *, *, #894, .F. ) ;
#909 = CARTESIAN_POINT ( 'NONE',  ( 89.00000000000000000, 2.179871302482289108E-14, 17.16666667000000146 ) ) ;
#910 = CARTESIAN_POINT ( 'NONE',  ( 89.00000000000000000, 1.000000000000007994, 17.16666667000000146 ) ) ;
#911 = CARTESIAN_POINT ( 'NONE',  ( -3.386548452394404666E-17, -0.9999999999999822364, 17.16666667000000146 ) ) ;
#912 = CARTESIAN_POINT ( 'NONE',  ( 1.000000000000007105, -28.99999999999999289, 0.000000000000000000 ) ) ;
#913 = EDGE_CURVE ( 'NONE', #682, #1269, #899, .T. ) ;
#914 = EDGE_LOOP ( 'NONE', ( #1159, #630, #815, #594 ) ) ;
#915 = VERTEX_POINT ( 'NONE', #789 ) ;
#916 = DIRECTION ( 'NONE',  ( 2.449293598294706907E-16, -1.000000000000000000, 0.000000000000000000 ) ) ;
#917 =( LENGTH_UNIT ( ) NAMED_UNIT ( * ) SI_UNIT ( .MILLI., .METRE. ) );
#918 = EDGE_CURVE ( 'NONE', #283, #192, #583, .T. ) ;
#919 = ORIENTED_EDGE ( 'NONE', *, *, #561, .F. ) ;
#920 = ORIENTED_EDGE ( 'NONE', *, *, #581, .T. ) ;
#921 = CARTESIAN_POINT ( 'NONE',  ( 29.00000000000000000, 7.102951435054649637E-15, 17.16666667000000146 ) ) ;
#922 = DIRECTION ( 'NONE',  ( -2.478176394252581141E-16, 1.000000000000000000, 0.000000000000000000 ) ) ;
#923 = VECTOR ( 'NONE', #531, 1000.000000000000000 ) ;
#924 = VECTOR ( 'NONE', #514, 1000.000000000000000 ) ;
#925 = ORIENTED_EDGE ( 'NONE', *, *, #1057, .T. ) ;
#926 = ORIENTED_EDGE ( 'NONE', *, *, #701, .T. ) ;
#927 = EDGE_CURVE ( 'NONE', #844, #668, #1174, .T. ) ;
#928 = DIRECTION ( 'NONE',  ( 1.000000000000000000, 1.239088197126290817E-16, 0.000000000000000000 ) ) ;
#929 = CARTESIAN_POINT ( 'NONE',  ( 29.00000000000000000, 28.99999999999999645, 17.16666667000000146 ) ) ;
#930 = VERTEX_POINT ( 'NONE', #882 ) ;
#931 = CARTESIAN_POINT ( 'NONE',  ( 89.00000000000000000, 29.00000000000000355, 17.16666667000000146 ) ) ;
#932 = DIRECTION ( 'NONE',  ( -1.000000000000000000, 0.000000000000000000, 0.000000000000000000 ) ) ;
#933 = LINE ( 'NONE', #760, #398 ) ;
#934 = ORIENTED_EDGE ( 'NONE', *, *, #120, .T. ) ;
#935 = AXIS2_PLACEMENT_3D ( 'NONE', #1127, #1045, #162 ) ;
#936 = VECTOR ( 'NONE', #674, 1000.000000000000000 ) ;
#937 = CARTESIAN_POINT ( 'NONE',  ( 119.0000000000000000, 29.00000000000000711, 17.16666667000000146 ) ) ;
#938 = DIRECTION ( 'NONE',  ( 1.000000000000000000, 2.449293598294706907E-16, 0.000000000000000000 ) ) ;
#939 = LINE ( 'NONE', #444, #198 ) ;
#940 = CLOSED_SHELL ( 'NONE', ( #1170, #412, #281, #759, #1042, #137, #1096, #832, #513, #688, #401, #878, #87, #548, #232, #772, #365, #1230, #1053, #954, #509, #523, #1085, #1073, #143, #645, #184, #799, #290, #1146, #1188, #1031, #822, #1193, #1178, #609, #223, #639 ) ) ;
#941 = EDGE_LOOP ( 'NONE', ( #562, #600, #586, #576 ) ) ;
#942 = VECTOR ( 'NONE', #494, 1000.000000000000000 ) ;
#943 = VECTOR ( 'NONE', #938, 1000.000000000000000 ) ;
#944 = ORIENTED_EDGE ( 'NONE', *, *, #441, .F. ) ;
#945 = DIRECTION ( 'NONE',  ( 1.239088197126291063E-16, -1.000000000000000000, 0.000000000000000000 ) ) ;
#946 = LINE ( 'NONE', #846, #866 ) ;
#947 = DIRECTION ( 'NONE',  ( -0.000000000000000000, -0.000000000000000000, -1.000000000000000000 ) ) ;
#948 = LINE ( 'NONE', #473, #999 ) ;
#949 = VERTEX_POINT ( 'NONE', #1179 ) ;
#950 = CARTESIAN_POINT ( 'NONE',  ( 1.000000000000003775, 1.210205401168420035E-16, 17.16666667000000146 ) ) ;
#951 = DIRECTION ( 'NONE',  ( -1.000000000000000000, -2.787948443534153414E-16, 0.000000000000000000 ) ) ;
#952 = DIRECTION ( 'NONE',  ( -1.000000000000000000, 3.097720492815727659E-17, 0.000000000000000000 ) ) ;
#953 = DIRECTION ( 'NONE',  ( -0.000000000000000000, -0.000000000000000000, -1.000000000000000000 ) ) ;
#954 = ADVANCED_FACE ( 'NONE', ( #803, #488, #1169, #997, #904, #284, #890, #1270, #1070 ), #279, .T. ) ;
#955 = CARTESIAN_POINT ( 'NONE',  ( 2.759065647576284111E-16, -1.000000000000001776, 17.16666667000000146 ) ) ;
#956 = CARTESIAN_POINT ( 'NONE',  ( -3.386548452394428701E-17, -0.9999999999999833467, 17.16666667000000146 ) ) ;
#957 = ORIENTED_EDGE ( 'NONE', *, *, #605, .T. ) ;
#958 = ORIENTED_EDGE ( 'NONE', *, *, #1136, .T. ) ;
#959 = DIRECTION ( 'NONE',  ( 1.000000000000000000, 1.210205401168415844E-16, 0.000000000000000000 ) ) ;
#960 = CARTESIAN_POINT ( 'NONE',  ( 0.000000000000000000, 30.00000000000000000, 0.000000000000000000 ) ) ;
#961 = CARTESIAN_POINT ( 'NONE',  ( 61.00000000000000000, 29.00000000000000355, 17.16666667000000146 ) ) ;
#962 = EDGE_CURVE ( 'NONE', #1068, #893, #382, .T. ) ;
#963 = CARTESIAN_POINT ( 'NONE',  ( 7.347880794884119933E-15, -30.00000000000000000, 17.16666667000000146 ) ) ;
#964 = ORIENTED_EDGE ( 'NONE', *, *, #46, .F. ) ;
#965 = VECTOR ( 'NONE', #168, 1000.000000000000000 ) ;
#966 = VECTOR ( 'NONE', #1243, 1000.000000000000000 ) ;
#967 = PLANE ( 'NONE',  #807 ) ;
#968 = PLANE ( 'NONE',  #804 ) ;
#969 = EDGE_CURVE ( 'NONE', #1154, #893, #678, .T. ) ;
#970 = DIRECTION ( 'NONE',  ( 2.449293598294706907E-16, -1.000000000000000000, 0.000000000000000000 ) ) ;
#971 = CARTESIAN_POINT ( 'NONE',  ( 29.00000000000000000, 0.000000000000000000, 0.000000000000000000 ) ) ;
#972 = ORIENTED_EDGE ( 'NONE', *, *, #894, .T. ) ;
#973 = ORIENTED_EDGE ( 'NONE', *, *, #734, .T. ) ;
#974 = EDGE_CURVE ( 'NONE', #810, #415, #689, .T. ) ;
#975 = DIRECTION ( 'NONE',  ( 2.888279595787423346E-18, 1.000000000000000000, 0.000000000000000000 ) ) ;
#976 = CARTESIAN_POINT ( 'NONE',  ( 120.0000000000000000, 30.00000000000001421, 17.16666667000000146 ) ) ;
#977 = CARTESIAN_POINT ( 'NONE',  ( 61.00000000000000000, 29.00000000000000355, 0.000000000000000000 ) ) ;
#978 = ORIENTED_EDGE ( 'NONE', *, *, #46, .T. ) ;
#979 = EDGE_LOOP ( 'NONE', ( #957, #291, #380, #121 ) ) ;
#980 = CARTESIAN_POINT ( 'NONE',  ( 31.00000000000000355, 1.000000000000000888, 0.000000000000000000 ) ) ;
#981 = DIRECTION ( 'NONE',  ( 0.000000000000000000, 1.000000000000000000, -0.000000000000000000 ) ) ;
#982 = ORIENTED_EDGE ( 'NONE', *, *, #171, .T. ) ;
#983 = VERTEX_POINT ( 'NONE', #1075 ) ;
#984 = EDGE_CURVE ( 'NONE', #819, #283, #104, .T. ) ;
#985 = AXIS2_PLACEMENT_3D ( 'NONE', #1139, #565, #952 ) ;
#986 = VECTOR ( 'NONE', #1119, 1000.000000000000000 ) ;
#987 = LINE ( 'NONE', #99, #942 ) ;
#988 = LINE ( 'NONE', #584, #566 ) ;
#989 = VERTEX_POINT ( 'NONE', #403 ) ;
#990 = VERTEX_POINT ( 'NONE', #194 ) ;
#991 = CARTESIAN_POINT ( 'NONE',  ( 1.000000000000003553, 1.000000000000000000, 17.16666667000000146 ) ) ;
#992 = DIRECTION ( 'NONE',  ( 1.000000000000000000, 0.000000000000000000, 0.000000000000000000 ) ) ;
#993 = EDGE_CURVE ( 'NONE', #492, #1024, #987, .T. ) ;
#994 = ORIENTED_EDGE ( 'NONE', *, *, #1009, .T. ) ;
#995 = ORIENTED_EDGE ( 'NONE', *, *, #447, .F. ) ;
#996 = APPLICATION_PROTOCOL_DEFINITION ( 'draft international standard', 'automotive_design', 1998, #711 ) ;
#997 = FACE_BOUND ( 'NONE', #237, .T. ) ;
#998 = LINE ( 'NONE', #502, #436 ) ;
#999 = VECTOR ( 'NONE', #776, 1000.000000000000000 ) ;
#1000 = VECTOR ( 'NONE', #992, 1000.000000000000000 ) ;
#1001 = EDGE_LOOP ( 'NONE', ( #731, #201, #784, #755 ) ) ;
#1002 = ORIENTED_EDGE ( 'NONE', *, *, #1147, .F. ) ;
#1003 = LINE ( 'NONE', #312, #1083 ) ;
#1004 = EDGE_CURVE ( 'NONE', #1068, #802, #1263, .T. ) ;
#1005 = CARTESIAN_POINT ( 'NONE',  ( 120.0000000000000000, 30.00000000000001421, 17.16666667000000146 ) ) ;
#1006 = LINE ( 'NONE', #515, #632 ) ;
#1007 = VERTEX_POINT ( 'NONE', #696 ) ;
#1008 = ORIENTED_EDGE ( 'NONE', *, *, #1152, .T. ) ;
#1009 = EDGE_CURVE ( 'NONE', #118, #1056, #300, .T. ) ;
#1010 = CARTESIAN_POINT ( 'NONE',  ( 3.878433842930505744E-15, -30.00000000000000000, 17.16666667000000146 ) ) ;
#1011 = CARTESIAN_POINT ( 'NONE',  ( 89.00000000000000000, 0.000000000000000000, 0.000000000000000000 ) ) ;
#1012 = EDGE_LOOP ( 'NONE', ( #7, #693, #907, #106 ) ) ;
#1013 = EDGE_LOOP ( 'NONE', ( #1224, #551, #327, #809 ) ) ;
#1014 = CARTESIAN_POINT ( 'NONE',  ( 3.509595663388404567E-15, -28.99999999999999289, 17.16666667000000146 ) ) ;
#1015 = SURFACE_STYLE_USAGE ( .BOTH. , #718 ) ;
#1016 = ORIENTED_EDGE ( 'NONE', *, *, #179, .F. ) ;
#1017 = DIRECTION ( 'NONE',  ( 2.507059190210457346E-16, 1.000000000000000000, 0.000000000000000000 ) ) ;
#1018 = EDGE_CURVE ( 'NONE', #499, #662, #86, .T. ) ;
#1019 = ORIENTED_EDGE ( 'NONE', *, *, #661, .T. ) ;
#1020 = CARTESIAN_POINT ( 'NONE',  ( 91.00000000000001421, -28.99999999999998579, 0.000000000000000000 ) ) ;
#1021 = VECTOR ( 'NONE', #272, 1000.000000000000000 ) ;
#1022 = COLOUR_RGB ( '',0.7921568627450980005, 0.8196078431372548767, 0.9333333333333333481 ) ;
#1023 = AXIS2_PLACEMENT_3D ( 'NONE', #694, #481, #1168 ) ;
#1024 = VERTEX_POINT ( 'NONE', #704 ) ;
#1025 = ORIENTED_EDGE ( 'NONE', *, *, #636, .F. ) ;
#1026 = FACE_OUTER_BOUND ( 'NONE', #270, .T. ) ;
#1027 = SURFACE_STYLE_FILL_AREA ( #1120 ) ;
#1028 = ORIENTED_EDGE ( 'NONE', *, *, #5, .F. ) ;
#1029 = FACE_OUTER_BOUND ( 'NONE', #367, .T. ) ;
#1030 = DIRECTION ( 'NONE',  ( -4.956352788505164254E-16, 1.000000000000000000, 0.000000000000000000 ) ) ;
#1031 = ADVANCED_FACE ( 'NONE', ( #376 ), #811, .F. ) ;
#1032 = ORIENTED_EDGE ( 'NONE', *, *, #851, .F. ) ;
#1033 = AXIS2_PLACEMENT_3D ( 'NONE', #389, #195, #203 ) ;
#1034 = CARTESIAN_POINT ( 'NONE',  ( 31.00000000000000000, 28.99999999999999645, 0.000000000000000000 ) ) ;
#1035 = CARTESIAN_POINT ( 'NONE',  ( 61.00000000000000711, 1.511687600494074664E-14, 17.16666667000000146 ) ) ;
#1036 = CARTESIAN_POINT ( 'NONE',  ( -3.593355771666243492E-15, 28.99999999999999289, 17.16666667000000146 ) ) ;
#1037 = EDGE_CURVE ( 'NONE', #432, #724, #508, .T. ) ;
#1038 = DIRECTION ( 'NONE',  ( -2.787948443534155386E-16, 1.000000000000000000, 0.000000000000000000 ) ) ;
#1039 = VECTOR ( 'NONE', #425, 1000.000000000000000 ) ;
#1040 = VERTEX_POINT ( 'NONE', #616 ) ;
#1041 = CARTESIAN_POINT ( 'NONE',  ( 91.00000000000000000, 29.00000000000000355, 0.000000000000000000 ) ) ;
#1042 = ADVANCED_FACE ( 'NONE', ( #409 ), #835, .T. ) ;
#1043 = DIRECTION ( 'NONE',  ( -1.000000000000000000, 0.000000000000000000, 0.000000000000000000 ) ) ;
#1044 = CARTESIAN_POINT ( 'NONE',  ( 120.0000000000000142, -29.99999999999998579, 17.16666667000000146 ) ) ;
#1045 = DIRECTION ( 'NONE',  ( 1.000000000000000000, 0.000000000000000000, -0.000000000000000000 ) ) ;
#1046 = CARTESIAN_POINT ( 'NONE',  ( 29.00000000000000000, -0.9999999999999928946, 17.16666667000000146 ) ) ;
#1047 = PLANE ( 'NONE',  #506 ) ;
#1048 = VERTEX_POINT ( 'NONE', #1020 ) ;
#1049 = ORIENTED_EDGE ( 'NONE', *, *, #216, .F. ) ;
#1050 = DIRECTION ( 'NONE',  ( 1.000000000000000000, 0.000000000000000000, 0.000000000000000000 ) ) ;
#1051 = PRODUCT_RELATED_PRODUCT_CATEGORY ( 'part', '', ( #142 ) ) ;
#1052 = CARTESIAN_POINT ( 'NONE',  ( 119.0000000000000142, 5.898059818321145383E-14, 17.16666667000000146 ) ) ;
#1053 = ADVANCED_FACE ( 'NONE', ( #139 ), #816, .T. ) ;
#1054 = CARTESIAN_POINT ( 'NONE',  ( 31.00000000000000711, -28.99999999999998934, 17.16666667000000146 ) ) ;
#1055 = LINE ( 'NONE', #800, #50 ) ;
#1056 = VERTEX_POINT ( 'NONE', #319 ) ;
#1057 = EDGE_CURVE ( 'NONE', #187, #662, #133, .T. ) ;
#1058 = DIRECTION ( 'NONE',  ( 1.000000000000000000, 1.239088197126291063E-16, 0.000000000000000000 ) ) ;
#1059 = VECTOR ( 'NONE', #88, 1000.000000000000000 ) ;
#1060 = DIRECTION ( 'NONE',  ( -2.507059190210456853E-16, -1.000000000000000000, 0.000000000000000000 ) ) ;
#1061 = DIRECTION ( 'NONE',  ( -1.239088197126291063E-16, 1.000000000000000000, 0.000000000000000000 ) ) ;
#1062 = LINE ( 'NONE', #871, #936 ) ;
#1063 = ORIENTED_EDGE ( 'NONE', *, *, #454, .T. ) ;
#1064 = AXIS2_PLACEMENT_3D ( 'NONE', #577, #766, #1060 ) ;
#1065 = ORIENTED_EDGE ( 'NONE', *, *, #197, .F. ) ;
#1066 = CARTESIAN_POINT ( 'NONE',  ( -3.386548452394428701E-17, -0.9999999999999833467, 0.000000000000000000 ) ) ;
#1067 = FACE_OUTER_BOUND ( 'NONE', #615, .T. ) ;
#1068 = VERTEX_POINT ( 'NONE', #1214 ) ;
#1069 = ORIENTED_EDGE ( 'NONE', *, *, #1091, .F. ) ;
#1070 = FACE_BOUND ( 'NONE', #303, .T. ) ;
#1071 = CARTESIAN_POINT ( 'NONE',  ( 59.00000000000000000, 29.00000000000000000, 0.000000000000000000 ) ) ;
#1072 = ORIENTED_EDGE ( 'NONE', *, *, #695, .F. ) ;
#1073 = ADVANCED_FACE ( 'NONE', ( #228 ), #241, .F. ) ;
#1074 = VERTEX_POINT ( 'NONE', #424 ) ;
#1075 = CARTESIAN_POINT ( 'NONE',  ( 1.000000000000003775, -0.9999999999999997780, 0.000000000000000000 ) ) ;
#1076 = PLANE ( 'NONE',  #1033 ) ;
#1077 = DIRECTION ( 'NONE',  ( -2.888279595787423346E-18, -1.000000000000000000, 0.000000000000000000 ) ) ;
#1078 = DIRECTION ( 'NONE',  ( -0.000000000000000000, -0.000000000000000000, -1.000000000000000000 ) ) ;
#1079 = VERTEX_POINT ( 'NONE', #32 ) ;
#1080 = ORIENTED_EDGE ( 'NONE', *, *, #171, .F. ) ;
#1081 = VECTOR ( 'NONE', #773, 1000.000000000000000 ) ;
#1082 = VECTOR ( 'NONE', #28, 1000.000000000000000 ) ;
#1083 = VECTOR ( 'NONE', #717, 1000.000000000000000 ) ;
#1084 = CARTESIAN_POINT ( 'NONE',  ( 119.0000000000000142, 5.898059818321145383E-14, 0.000000000000000000 ) ) ;
#1085 = ADVANCED_FACE ( 'NONE', ( #634 ), #1109, .F. ) ;
#1086 = EDGE_CURVE ( 'NONE', #322, #192, #1003, .T. ) ;
#1087 = DIRECTION ( 'NONE',  ( 2.449293598294706907E-16, -1.000000000000000000, 0.000000000000000000 ) ) ;
#1088 = ORIENTED_EDGE ( 'NONE', *, *, #197, .T. ) ;
#1089 = ORIENTED_EDGE ( 'NONE', *, *, #236, .F. ) ;
#1090 = DIRECTION ( 'NONE',  ( -2.759065647576279673E-16, 1.000000000000000000, 0.000000000000000000 ) ) ;
#1091 = EDGE_CURVE ( 'NONE', #990, #499, #736, .T. ) ;
#1092 = CARTESIAN_POINT ( 'NONE',  ( -3.386548452394428701E-17, -0.9999999999999833467, 17.16666667000000146 ) ) ;
#1093 = DIRECTION ( 'NONE',  ( 1.000000000000000000, -3.097720492815727659E-17, 0.000000000000000000 ) ) ;
#1094 = ORIENTED_EDGE ( 'NONE', *, *, #1004, .F. ) ;
#1095 = ORIENTED_EDGE ( 'NONE', *, *, #851, .T. ) ;
#1096 = ADVANCED_FACE ( 'NONE', ( #1026 ), #536, .F. ) ;
#1097 = LINE ( 'NONE', #214, #1144 ) ;
#1098 = PLANE ( 'NONE',  #374 ) ;
#1099 = VECTOR ( 'NONE', #1140, 1000.000000000000000 ) ;
#1100 = VECTOR ( 'NONE', #285, 1000.000000000000000 ) ;
#1101 = ORIENTED_EDGE ( 'NONE', *, *, #791, .F. ) ;
#1102 = DIRECTION ( 'NONE',  ( -1.210205401168415844E-16, 1.000000000000000000, 0.000000000000000000 ) ) ;
#1103 = EDGE_CURVE ( 'NONE', #432, #387, #1105, .T. ) ;
#1104 = ORIENTED_EDGE ( 'NONE', *, *, #394, .T. ) ;
#1105 = LINE ( 'NONE', #44, #422 ) ;
#1106 = PRODUCT_DEFINITION_SHAPE ( 'NONE', 'NONE',  #83 ) ;
#1107 = VERTEX_POINT ( 'NONE', #222 ) ;
#1108 = ORIENTED_EDGE ( 'NONE', *, *, #216, .T. ) ;
#1109 = PLANE ( 'NONE',  #298 ) ;
#1110 = CARTESIAN_POINT ( 'NONE',  ( 91.00000000000000000, 29.00000000000000355, 17.16666667000000146 ) ) ;
#1111 = ORIENTED_EDGE ( 'NONE', *, *, #120, .F. ) ;
#1112 = LINE ( 'NONE', #714, #905 ) ;
#1113 = ORIENTED_EDGE ( 'NONE', *, *, #236, .T. ) ;
#1114 = DIRECTION ( 'NONE',  ( -2.449293598294706907E-16, 1.000000000000000000, 0.000000000000000000 ) ) ;
#1115 = CARTESIAN_POINT ( 'NONE',  ( 31.00000000000000711, -28.99999999999998934, 0.000000000000000000 ) ) ;
#1116 = ORIENTED_EDGE ( 'NONE', *, *, #189, .T. ) ;
#1117 = VECTOR ( 'NONE', #1093, 1000.000000000000000 ) ;
#1118 = VERTEX_POINT ( 'NONE', #622 ) ;
#1119 = DIRECTION ( 'NONE',  ( -0.000000000000000000, -0.000000000000000000, -1.000000000000000000 ) ) ;
#1120 = FILL_AREA_STYLE ('',( #623 ) ) ;
#1121 = VECTOR ( 'NONE', #1151, 1000.000000000000000 ) ;
#1122 = AXIS2_PLACEMENT_3D ( 'NONE', #1036, #1061, #1237 ) ;
#1123 = ORIENTED_EDGE ( 'NONE', *, *, #441, .T. ) ;
#1124 = CARTESIAN_POINT ( 'NONE',  ( -3.593355771666243492E-15, 28.99999999999999289, 0.000000000000000000 ) ) ;
#1125 = EDGE_CURVE ( 'NONE', #1172, #819, #233, .T. ) ;
#1126 = CARTESIAN_POINT ( 'NONE',  ( 2.449293598294706907E-16, -1.000000000000000000, 0.000000000000000000 ) ) ;
#1127 = CARTESIAN_POINT ( 'NONE',  ( 89.00000000000000000, 0.000000000000000000, 17.16666667000000146 ) ) ;
#1128 = EDGE_LOOP ( 'NONE', ( #669, #1210, #1095, #1226 ) ) ;
#1129 = EDGE_LOOP ( 'NONE', ( #302, #1080, #113, #887 ) ) ;
#1130 = EDGE_CURVE ( 'NONE', #847, #844, #626, .T. ) ;
#1131 = FACE_OUTER_BOUND ( 'NONE', #1013, .T. ) ;
#1132 = CARTESIAN_POINT ( 'NONE',  ( 89.00000000000000000, 1.000000000000007994, 0.000000000000000000 ) ) ;
#1133 = DIRECTION ( 'NONE',  ( 1.000000000000000000, -3.097720492815727659E-17, 0.000000000000000000 ) ) ;
#1134 = DIRECTION ( 'NONE',  ( 1.000000000000000000, 0.000000000000000000, 0.000000000000000000 ) ) ;
#1135 = VERTEX_POINT ( 'NONE', #21 ) ;
#1136 = EDGE_CURVE ( 'NONE', #1040, #662, #1097, .T. ) ;
#1137 = LINE ( 'NONE', #264, #354 ) ;
#1138 = LINE ( 'NONE', #476, #965 ) ;
#1139 = CARTESIAN_POINT ( 'NONE',  ( 3.097720492815732589E-17, 1.000000000000001776, 17.16666667000000146 ) ) ;
#1140 = DIRECTION ( 'NONE',  ( -0.000000000000000000, -0.000000000000000000, -1.000000000000000000 ) ) ;
#1141 = CARTESIAN_POINT ( 'NONE',  ( -3.593355771666243492E-15, 28.99999999999999289, 17.16666667000000146 ) ) ;
#1142 = CARTESIAN_POINT ( 'NONE',  ( 0.000000000000000000, 30.00000000000000000, 17.16666667000000146 ) ) ;
#1143 = VECTOR ( 'NONE', #588, 1000.000000000000000 ) ;
#1144 = VECTOR ( 'NONE', #610, 1000.000000000000000 ) ;
#1145 = ORIENTED_EDGE ( 'NONE', *, *, #1204, .T. ) ;
#1146 = ADVANCED_FACE ( 'NONE', ( #27 ), #116, .T. ) ;
#1147 = EDGE_CURVE ( 'NONE', #810, #585, #416, .T. ) ;
#1148 = LINE ( 'NONE', #756, #677 ) ;
#1149 = FACE_OUTER_BOUND ( 'NONE', #231, .T. ) ;
#1150 = CARTESIAN_POINT ( 'NONE',  ( -3.593355771666242704E-15, 28.99999999999999289, 0.000000000000000000 ) ) ;
#1151 = DIRECTION ( 'NONE',  ( -1.000000000000000000, -1.210205401168415844E-16, 0.000000000000000000 ) ) ;
#1152 = EDGE_CURVE ( 'NONE', #830, #989, #1148, .T. ) ;
#1153 = DIRECTION ( 'NONE',  ( -1.292811280976835429E-16, 1.000000000000000000, 0.000000000000000000 ) ) ;
#1154 = VERTEX_POINT ( 'NONE', #858 ) ;
#1155 = CARTESIAN_POINT ( 'NONE',  ( 0.000000000000000000, 0.000000000000000000, 17.16666667000000146 ) ) ;
#1156 = CARTESIAN_POINT ( 'NONE',  ( 3.509595663388405356E-15, -28.99999999999999289, 17.16666667000000146 ) ) ;
#1157 = CARTESIAN_POINT ( 'NONE',  ( 91.00000000000000000, 2.228857174448183167E-14, 0.000000000000000000 ) ) ;
#1158 = CARTESIAN_POINT ( 'NONE',  ( 3.878433842930505744E-15, -30.00000000000000000, 17.16666667000000146 ) ) ;
#1159 = ORIENTED_EDGE ( 'NONE', *, *, #423, .T. ) ;
#1160 = VECTOR ( 'NONE', #11, 1000.000000000000000 ) ;
#1161 = AXIS2_PLACEMENT_3D ( 'NONE', #552, #1247, #1134 ) ;
#1162 = DIRECTION ( 'NONE',  ( 1.000000000000000000, -2.888279595787423346E-18, 0.000000000000000000 ) ) ;
#1163 = LINE ( 'NONE', #477, #316 ) ;
#1164 = FACE_BOUND ( 'NONE', #297, .T. ) ;
#1165 = VECTOR ( 'NONE', #430, 1000.000000000000000 ) ;
#1166 = ORIENTED_EDGE ( 'NONE', *, *, #339, .F. ) ;
#1167 = ORIENTED_EDGE ( 'NONE', *, *, #53, .F. ) ;
#1168 = DIRECTION ( 'NONE',  ( 1.000000000000000000, 0.000000000000000000, 0.000000000000000000 ) ) ;
#1169 = FACE_BOUND ( 'NONE', #342, .T. ) ;
#1170 = ADVANCED_FACE ( 'NONE', ( #451 ), #868, .T. ) ;
#1171 = LINE ( 'NONE', #12, #732 ) ;
#1172 = VERTEX_POINT ( 'NONE', #167 ) ;
#1173 = ORIENTED_EDGE ( 'NONE', *, *, #1103, .F. ) ;
#1174 = LINE ( 'NONE', #396, #219 ) ;
#1175 = FACE_OUTER_BOUND ( 'NONE', #211, .T. ) ;
#1176 = ORIENTED_EDGE ( 'NONE', *, *, #817, .T. ) ;
#1177 = ORIENTED_EDGE ( 'NONE', *, *, #1268, .T. ) ;
#1178 = ADVANCED_FACE ( 'NONE', ( #751 ), #1251, .F. ) ;
#1179 = CARTESIAN_POINT ( 'NONE',  ( 59.00000000000000000, 1.000000000000000000, 0.000000000000000000 ) ) ;
#1180 = LINE ( 'NONE', #289, #541 ) ;
#1181 = VERTEX_POINT ( 'NONE', #744 ) ;
#1182 = ORIENTED_EDGE ( 'NONE', *, *, #1130, .T. ) ;
#1183 = VECTOR ( 'NONE', #346, 1000.000000000000000 ) ;
#1184 = EDGE_CURVE ( 'NONE', #1024, #400, #765, .T. ) ;
#1185 = VECTOR ( 'NONE', #248, 1000.000000000000000 ) ;
#1186 = DIRECTION ( 'NONE',  ( 1.000000000000000000, -3.386548452394484168E-17, 0.000000000000000000 ) ) ;
#1187 = PLANE ( 'NONE',  #8 ) ;
#1188 = ADVANCED_FACE ( 'NONE', ( #1029 ), #1241, .T. ) ;
#1189 = EDGE_LOOP ( 'NONE', ( #220, #1111, #166, #30 ) ) ;
#1190 = VERTEX_POINT ( 'NONE', #547 ) ;
#1191 = CARTESIAN_POINT ( 'NONE',  ( 91.00000000000000000, 2.228857174448183167E-14, 17.16666667000000146 ) ) ;
#1192 = CARTESIAN_POINT ( 'NONE',  ( -0.000000000000000000, 29.00000000000000355, 0.000000000000000000 ) ) ;
#1193 = ADVANCED_FACE ( 'NONE', ( #1131 ), #670, .F. ) ;
#1194 = ORIENTED_EDGE ( 'NONE', *, *, #962, .F. ) ;
#1195 = ORIENTED_EDGE ( 'NONE', *, *, #383, .F. ) ;
#1196 = ADVANCED_BREP_SHAPE_REPRESENTATION ( 'Base_02 - LARGE', ( #737, #1023 ), #378 ) ;
#1197 = CARTESIAN_POINT ( 'NONE',  ( 89.00000000000000000, -0.9999999999999861222, 17.16666667000000146 ) ) ;
#1198 = CARTESIAN_POINT ( 'NONE',  ( 61.00000000000000711, 1.511687600494074664E-14, 17.16666667000000146 ) ) ;
#1199 = VECTOR ( 'NONE', #953, 1000.000000000000000 ) ;
#1200 = VERTEX_POINT ( 'NONE', #1034 ) ;
#1201 = ORIENTED_EDGE ( 'NONE', *, *, #423, .F. ) ;
#1202 = VECTOR ( 'NONE', #970, 1000.000000000000000 ) ;
#1203 = DIRECTION ( 'NONE',  ( -1.156482317317871478E-16, 1.000000000000000000, 0.000000000000000000 ) ) ;
#1204 = EDGE_CURVE ( 'NONE', #492, #743, #1137, .T. ) ;
#1205 = DIRECTION ( 'NONE',  ( -0.000000000000000000, -0.000000000000000000, -1.000000000000000000 ) ) ;
#1206 = ORIENTED_EDGE ( 'NONE', *, *, #791, .T. ) ;
#1207 = PRODUCT_DEFINITION_CONTEXT ( 'detailed design', #414, 'design' ) ;
#1208 = EDGE_LOOP ( 'NONE', ( #770, #1089, #637, #516 ) ) ;
#1209 = CARTESIAN_POINT ( 'NONE',  ( -3.469446951953614189E-15, 30.00000000000000000, 17.16666667000000146 ) ) ;
#1210 = ORIENTED_EDGE ( 'NONE', *, *, #628, .F. ) ;
#1211 = ORIENTED_EDGE ( 'NONE', *, *, #837, .F. ) ;
#1212 = EDGE_CURVE ( 'NONE', #682, #210, #1221, .T. ) ;
#1213 = CARTESIAN_POINT ( 'NONE',  ( 1.000000000000003775, -0.9999999999999997780, 17.16666667000000146 ) ) ;
#1214 = CARTESIAN_POINT ( 'NONE',  ( 1.000000000000003553, 1.000000000000000000, 17.16666667000000146 ) ) ;
#1215 = PLANE ( 'NONE',  #489 ) ;
#1216 = DIRECTION ( 'NONE',  ( 1.000000000000000000, 2.759065647576279673E-16, 0.000000000000000000 ) ) ;
#1217 = AXIS2_PLACEMENT_3D ( 'NONE', #651, #1038, #855 ) ;
#1218 = EDGE_LOOP ( 'NONE', ( #681, #1088, #406, #521 ) ) ;
#1219 = EDGE_CURVE ( 'NONE', #708, #1118, #176, .T. ) ;
#1220 = DIRECTION ( 'NONE',  ( -0.000000000000000000, -0.000000000000000000, -1.000000000000000000 ) ) ;
#1221 = LINE ( 'NONE', #337, #76 ) ;
#1222 = CARTESIAN_POINT ( 'NONE',  ( 2.449293598294706907E-16, -1.000000000000000000, 17.16666667000000146 ) ) ;
#1223 = CARTESIAN_POINT ( 'NONE',  ( -2.787948443534104110E-16, 0.9999999999999822364, 0.000000000000000000 ) ) ;
#1224 = ORIENTED_EDGE ( 'NONE', *, *, #53, .T. ) ;
#1225 = EDGE_CURVE ( 'NONE', #1048, #35, #663, .T. ) ;
#1226 = ORIENTED_EDGE ( 'NONE', *, *, #5, .T. ) ;
#1227 = LINE ( 'NONE', #428, #212 ) ;
#1228 = CARTESIAN_POINT ( 'NONE',  ( 119.0000000000000000, 29.00000000000000711, 17.16666667000000146 ) ) ;
#1229 = DIRECTION ( 'NONE',  ( -1.239088197126291063E-16, 1.000000000000000000, 0.000000000000000000 ) ) ;
#1230 = ADVANCED_FACE ( 'NONE', ( #569 ), #967, .T. ) ;
#1231 = ORIENTED_EDGE ( 'NONE', *, *, #747, .T. ) ;
#1232 = CARTESIAN_POINT ( 'NONE',  ( 29.00000000000000711, -28.99999999999998934, 17.16666667000000146 ) ) ;
#1233 = EDGE_LOOP ( 'NONE', ( #286, #827, #51, #1116 ) ) ;
#1234 = ORIENTED_EDGE ( 'NONE', *, *, #962, .T. ) ;
#1235 = DIRECTION ( 'NONE',  ( -1.000000000000000000, -2.449293598294706907E-16, 0.000000000000000000 ) ) ;
#1236 = DIRECTION ( 'NONE',  ( 1.000000000000000000, 1.156482317317871478E-16, 0.000000000000000000 ) ) ;
#1237 = DIRECTION ( 'NONE',  ( -1.000000000000000000, -1.239088197126291063E-16, 0.000000000000000000 ) ) ;
#1238 = DIRECTION ( 'NONE',  ( 1.000000000000000000, 2.787948443534153414E-16, 0.000000000000000000 ) ) ;
#1239 = CARTESIAN_POINT ( 'NONE',  ( 31.00000000000000355, 3.751636743622088919E-15, 17.16666667000000146 ) ) ;
#1240 = ORIENTED_EDGE ( 'NONE', *, *, #596, .F. ) ;
#1241 = PLANE ( 'NONE',  #200 ) ;
#1242 = EDGE_CURVE ( 'NONE', #1269, #118, #458, .T. ) ;
#1243 = DIRECTION ( 'NONE',  ( 1.000000000000000000, 1.292811280976835429E-16, 0.000000000000000000 ) ) ;
#1244 = CARTESIAN_POINT ( 'NONE',  ( 91.00000000000000000, -0.9999999999999852340, 0.000000000000000000 ) ) ;
#1245 = VECTOR ( 'NONE', #779, 1000.000000000000000 ) ;
#1246 = LINE ( 'NONE', #643, #617 ) ;
#1247 = DIRECTION ( 'NONE',  ( -0.000000000000000000, 0.000000000000000000, 1.000000000000000000 ) ) ;
#1248 = PRESENTATION_LAYER_ASSIGNMENT (  '', '', ( #153 ) ) ;
#1249 = VECTOR ( 'NONE', #434, 1000.000000000000000 ) ;
#1250 = ORIENTED_EDGE ( 'NONE', *, *, #189, .F. ) ;
#1251 = PLANE ( 'NONE',  #1267 ) ;
#1252 = FACE_OUTER_BOUND ( 'NONE', #287, .T. ) ;
#1253 = CARTESIAN_POINT ( 'NONE',  ( 3.509595663388404567E-15, -28.99999999999999289, 17.16666667000000146 ) ) ;
#1254 = FACE_BOUND ( 'NONE', #777, .T. ) ;
#1255 = ORIENTED_EDGE ( 'NONE', *, *, #503, .F. ) ;
#1256 = APPLICATION_PROTOCOL_DEFINITION ( 'draft international standard', 'automotive_design', 1998, #414 ) ;
#1257 = LINE ( 'NONE', #757, #1245 ) ;
#1258 = PLANE ( 'NONE',  #1122 ) ;
#1259 = LINE ( 'NONE', #1239, #213 ) ;
#1260 = ORIENTED_EDGE ( 'NONE', *, *, #974, .F. ) ;
#1261 = ORIENTED_EDGE ( 'NONE', *, *, #158, .T. ) ;
#1262 = AXIS2_PLACEMENT_3D ( 'NONE', #23, #496, #391 ) ;
#1263 = LINE ( 'NONE', #895, #377 ) ;
#1264 = DIRECTION ( 'NONE',  ( -1.000000000000000000, 3.386548452394465063E-17, 0.000000000000000000 ) ) ;
#1265 =( GEOMETRIC_REPRESENTATION_CONTEXT ( 3 ) GLOBAL_UNCERTAINTY_ASSIGNED_CONTEXT ( ( #537 ) ) GLOBAL_UNIT_ASSIGNED_CONTEXT ( ( #917, #829, #140 ) ) REPRESENTATION_CONTEXT ( 'NONE', 'WORKASPACE' ) );
#1266 = VERTEX_POINT ( 'NONE', #145 ) ;
#1267 = AXIS2_PLACEMENT_3D ( 'NONE', #950, #362, #70 ) ;
#1268 = EDGE_CURVE ( 'NONE', #1079, #1040, #150, .T. ) ;
#1269 = VERTEX_POINT ( 'NONE', #1041 ) ;
#1270 = FACE_BOUND ( 'NONE', #1189, .T. ) ;
#1271 = CARTESIAN_POINT ( 'NONE',  ( 89.00000000000000000, 0.000000000000000000, 17.16666667000000146 ) ) ;
#1272 = CARTESIAN_POINT ( 'NONE',  ( -3.593355771666243492E-15, 28.99999999999999289, 17.16666667000000146 ) ) ;
#1273 = EDGE_CURVE ( 'NONE', #91, #1068, #52, .T. ) ;
#1274 = ORIENTED_EDGE ( 'NONE', *, *, #395, .F. ) ;
#1275 = ORIENTED_EDGE ( 'NONE', *, *, #361, .T. ) ;
ENDSEC;
END-ISO-10303-21;
