ISO-10303-21;
HEADER;
FILE_DESCRIPTION (( 'STEP AP214' ),
    '1' );
FILE_NAME ('Base_02 - LARGE.STEP',
    '2025-07-25T12:28:22',
    ( '' ),
    ( '' ),
    'SwSTEP 2.0',
    'SolidWorks 2025',
    '' );
FILE_SCHEMA (( 'AUTOMOTIVE_DESIGN' ));
ENDSEC;

DATA;
#1 = AXIS2_PLACEMENT_3D ( 'NONE', #616, #245, #337 ) ;
#2 = DIRECTION ( 'NONE',  ( -1.000000000000000000, -1.210205401168415844E-16, 0.000000000000000000 ) ) ;
#3 = EDGE_CURVE ( 'NONE', #648, #785, #592, .T. ) ;
#4 = DIRECTION ( 'NONE',  ( -1.000000000000000000, -1.210205401168415844E-16, 0.000000000000000000 ) ) ;
#5 = CARTESIAN_POINT ( 'NONE',  ( -3.469446951953614189E-15, 30.00000000000000000, 14.83333334333333475 ) ) ;
#6 = VECTOR ( 'NONE', #755, 1000.000000000000000 ) ;
#7 = ORIENTED_EDGE ( 'NONE', *, *, #90, .F. ) ;
#8 = CARTESIAN_POINT ( 'NONE',  ( 89.00000000000001421, -28.99999999999998579, 0.000000000000000000 ) ) ;
#9 = EDGE_LOOP ( 'NONE', ( #1068, #96, #934, #1121 ) ) ;
#10 = LINE ( 'NONE', #791, #629 ) ;
#11 = DIRECTION ( 'NONE',  ( 1.000000000000000000, 1.156482317317871478E-16, 0.000000000000000000 ) ) ;
#12 = PLANE ( 'NONE',  #582 ) ;
#13 = EDGE_CURVE ( 'NONE', #33, #52, #1179, .T. ) ;
#14 = ORIENTED_EDGE ( 'NONE', *, *, #942, .T. ) ;
#15 = ORIENTED_EDGE ( 'NONE', *, *, #861, .F. ) ;
#16 = PLANE ( 'NONE',  #70 ) ;
#17 = ORIENTED_EDGE ( 'NONE', *, *, #3, .F. ) ;
#18 = LINE ( 'NONE', #602, #920 ) ;
#19 = CARTESIAN_POINT ( 'NONE',  ( 7.102951435054651215E-15, -29.00000000000000355, 0.000000000000000000 ) ) ;
#20 = LINE ( 'NONE', #872, #233 ) ;
#21 = ORIENTED_EDGE ( 'NONE', *, *, #36, .T. ) ;
#22 = EDGE_CURVE ( 'NONE', #595, #548, #20, .T. ) ;
#23 = EDGE_CURVE ( 'NONE', #365, #1038, #197, .T. ) ;
#24 = CARTESIAN_POINT ( 'NONE',  ( 89.00000000000000000, 29.00000000000000355, 14.83333334333333475 ) ) ;
#25 = ORIENTED_EDGE ( 'NONE', *, *, #204, .F. ) ;
#26 = LINE ( 'NONE', #150, #334 ) ;
#27 = FACE_OUTER_BOUND ( 'NONE', #1119, .T. ) ;
#28 = PRESENTATION_STYLE_ASSIGNMENT (( #801 ) ) ;
#29 = ORIENTED_EDGE ( 'NONE', *, *, #672, .F. ) ;
#30 = ORIENTED_EDGE ( 'NONE', *, *, #484, .T. ) ;
#31 = ORIENTED_EDGE ( 'NONE', *, *, #261, .T. ) ;
#32 = DIRECTION ( 'NONE',  ( -1.210205401168415844E-16, 1.000000000000000000, 0.000000000000000000 ) ) ;
#33 = VERTEX_POINT ( 'NONE', #702 ) ;
#34 = PLANE ( 'NONE',  #458 ) ;
#35 = DIRECTION ( 'NONE',  ( -0.000000000000000000, -0.000000000000000000, -1.000000000000000000 ) ) ;
#36 = EDGE_CURVE ( 'NONE', #711, #607, #95, .T. ) ;
#37 = ORIENTED_EDGE ( 'NONE', *, *, #633, .T. ) ;
#38 = PRESENTATION_LAYER_ASSIGNMENT (  '', '', ( #466 ) ) ;
#39 = DIRECTION ( 'NONE',  ( -0.000000000000000000, -0.000000000000000000, -1.000000000000000000 ) ) ;
#40 = ORIENTED_EDGE ( 'NONE', *, *, #699, .F. ) ;
#41 = DIRECTION ( 'NONE',  ( -1.000000000000000000, -1.239088197126290817E-16, 0.000000000000000000 ) ) ;
#42 = LINE ( 'NONE', #921, #915 ) ;
#43 = ORIENTED_EDGE ( 'NONE', *, *, #462, .F. ) ;
#44 = LINE ( 'NONE', #910, #1157 ) ;
#45 = VERTEX_POINT ( 'NONE', #585 ) ;
#46 = CARTESIAN_POINT ( 'NONE',  ( 61.00000000000000711, -28.99999999999998934, 14.83333334333333475 ) ) ;
#47 = CARTESIAN_POINT ( 'NONE',  ( 3.509595663388404567E-15, -28.99999999999999289, 14.83333334333333475 ) ) ;
#48 = FACE_BOUND ( 'NONE', #625, .T. ) ;
#49 = VECTOR ( 'NONE', #559, 1000.000000000000000 ) ;
#50 = ORIENTED_EDGE ( 'NONE', *, *, #1066, .T. ) ;
#51 = LINE ( 'NONE', #797, #599 ) ;
#52 = VERTEX_POINT ( 'NONE', #309 ) ;
#53 = DIRECTION ( 'NONE',  ( -0.000000000000000000, -0.000000000000000000, -1.000000000000000000 ) ) ;
#54 = LINE ( 'NONE', #647, #193 ) ;
#55 = AXIS2_PLACEMENT_3D ( 'NONE', #227, #1012, #472 ) ;
#56 = ORIENTED_EDGE ( 'NONE', *, *, #943, .T. ) ;
#57 = PLANE ( 'NONE',  #1204 ) ;
#58 = VECTOR ( 'NONE', #294, 1000.000000000000000 ) ;
#59 = ORIENTED_EDGE ( 'NONE', *, *, #416, .F. ) ;
#60 = LINE ( 'NONE', #188, #614 ) ;
#61 = PLANE ( 'NONE',  #960 ) ;
#62 = CARTESIAN_POINT ( 'NONE',  ( 1.000000000000007105, -28.99999999999999289, 14.83333334333333475 ) ) ;
#63 = VERTEX_POINT ( 'NONE', #695 ) ;
#64 = MANIFOLD_SOLID_BREP ( 'Sym\X2\00e9\X0\trie1', #952 ) ;
#65 = EDGE_CURVE ( 'NONE', #677, #908, #412, .T. ) ;
#66 = FACE_OUTER_BOUND ( 'NONE', #1196, .T. ) ;
#67 = ORIENTED_EDGE ( 'NONE', *, *, #869, .T. ) ;
#68 = CARTESIAN_POINT ( 'NONE',  ( 1.000000000000007105, -28.99999999999999289, 0.000000000000000000 ) ) ;
#69 = DIRECTION ( 'NONE',  ( -0.000000000000000000, -0.000000000000000000, -1.000000000000000000 ) ) ;
#70 = AXIS2_PLACEMENT_3D ( 'NONE', #477, #685, #863 ) ;
#71 = ORIENTED_EDGE ( 'NONE', *, *, #175, .T. ) ;
#72 = CARTESIAN_POINT ( 'NONE',  ( 31.00000000000000355, 3.841173411091502100E-15, 14.83333334333333475 ) ) ;
#73 = ADVANCED_FACE ( 'NONE', ( #406 ), #12, .T. ) ;
#74 = DIRECTION ( 'NONE',  ( -1.000000000000000000, -2.449293598294706907E-16, 0.000000000000000000 ) ) ;
#75 = VECTOR ( 'NONE', #248, 1000.000000000000000 ) ;
#76 = ADVANCED_FACE ( 'NONE', ( #970 ), #503, .F. ) ;
#77 = EDGE_LOOP ( 'NONE', ( #398, #700, #210, #300 ) ) ;
#78 = CARTESIAN_POINT ( 'NONE',  ( 1.000000000000003553, 1.000000000000000000, 0.000000000000000000 ) ) ;
#79 = VECTOR ( 'NONE', #1251, 1000.000000000000000 ) ;
#80 = LINE ( 'NONE', #553, #1013 ) ;
#81 = ADVANCED_FACE ( 'NONE', ( #120 ), #768, .T. ) ;
#82 = AXIS2_PLACEMENT_3D ( 'NONE', #207, #979, #493 ) ;
#83 = ADVANCED_FACE ( 'NONE', ( #283 ), #508, .T. ) ;
#84 = ORIENTED_EDGE ( 'NONE', *, *, #170, .F. ) ;
#85 = CARTESIAN_POINT ( 'NONE',  ( 29.00000000000000000, -0.9999999999999928946, 0.000000000000000000 ) ) ;
#86 = CARTESIAN_POINT ( 'NONE',  ( -3.469446951953614189E-15, 30.00000000000000000, 14.83333334333333475 ) ) ;
#87 = VERTEX_POINT ( 'NONE', #888 ) ;
#88 = CARTESIAN_POINT ( 'NONE',  ( 119.0000000000000142, 1.000000000000015321, 0.000000000000000000 ) ) ;
#89 = CARTESIAN_POINT ( 'NONE',  ( 3.509595663388405356E-15, -28.99999999999999289, 14.83333334333333475 ) ) ;
#90 = EDGE_CURVE ( 'NONE', #552, #677, #301, .T. ) ;
#91 = EDGE_CURVE ( 'NONE', #650, #119, #483, .T. ) ;
#92 = FACE_BOUND ( 'NONE', #9, .T. ) ;
#93 = LINE ( 'NONE', #1273, #103 ) ;
#94 = VECTOR ( 'NONE', #1073, 1000.000000000000000 ) ;
#95 = LINE ( 'NONE', #510, #1059 ) ;
#96 = ORIENTED_EDGE ( 'NONE', *, *, #796, .F. ) ;
#97 = DIRECTION ( 'NONE',  ( 4.625929269271485914E-16, -1.000000000000000000, 0.000000000000000000 ) ) ;
#98 = LINE ( 'NONE', #1075, #1222 ) ;
#99 = DIRECTION ( 'NONE',  ( 0.000000000000000000, 1.000000000000000000, -0.000000000000000000 ) ) ;
#100 = CARTESIAN_POINT ( 'NONE',  ( 1.000000000000003553, 1.000000000000000000, 14.83333334333333475 ) ) ;
#101 = DIRECTION ( 'NONE',  ( -1.210205401168415844E-16, 1.000000000000000000, 0.000000000000000000 ) ) ;
#102 = CARTESIAN_POINT ( 'NONE',  ( 29.00000000000000000, 7.102951435054649637E-15, 14.83333334333333475 ) ) ;
#103 = VECTOR ( 'NONE', #378, 1000.000000000000000 ) ;
#104 = FACE_OUTER_BOUND ( 'NONE', #429, .T. ) ;
#105 = CARTESIAN_POINT ( 'NONE',  ( 61.00000000000000000, 29.00000000000000355, 14.83333334333333475 ) ) ;
#106 = EDGE_CURVE ( 'NONE', #552, #268, #10, .T. ) ;
#107 = EDGE_LOOP ( 'NONE', ( #349, #1127, #1131, #928 ) ) ;
#108 = VECTOR ( 'NONE', #1015, 1000.000000000000000 ) ;
#109 = EDGE_CURVE ( 'NONE', #693, #607, #379, .T. ) ;
#110 = VECTOR ( 'NONE', #949, 1000.000000000000000 ) ;
#111 = CARTESIAN_POINT ( 'NONE',  ( 119.0000000000000142, -28.99999999999998224, 0.000000000000000000 ) ) ;
#112 = ORIENTED_EDGE ( 'NONE', *, *, #977, .F. ) ;
#113 = CARTESIAN_POINT ( 'NONE',  ( 0.000000000000000000, 0.000000000000000000, 0.000000000000000000 ) ) ;
#114 = DIRECTION ( 'NONE',  ( -0.000000000000000000, -0.000000000000000000, -1.000000000000000000 ) ) ;
#115 = DIRECTION ( 'NONE',  ( -0.000000000000000000, 0.000000000000000000, 1.000000000000000000 ) ) ;
#116 = ADVANCED_FACE ( 'NONE', ( #676, #772, #1076, #194, #307, #786, #1177, #583, #1085 ), #680, .F. ) ;
#117 = DIRECTION ( 'NONE',  ( -0.000000000000000000, -0.000000000000000000, -1.000000000000000000 ) ) ;
#118 = DIRECTION ( 'NONE',  ( 2.449293598294706907E-16, -1.000000000000000000, 0.000000000000000000 ) ) ;
#119 = VERTEX_POINT ( 'NONE', #1194 ) ;
#120 = FACE_OUTER_BOUND ( 'NONE', #947, .T. ) ;
#121 = DIRECTION ( 'NONE',  ( -1.292811280976835429E-16, 1.000000000000000000, 0.000000000000000000 ) ) ;
#122 = DIRECTION ( 'NONE',  ( 1.000000000000000000, 2.787948443534153414E-16, 0.000000000000000000 ) ) ;
#123 = EDGE_CURVE ( 'NONE', #1028, #1216, #994, .T. ) ;
#124 = VERTEX_POINT ( 'NONE', #500 ) ;
#125 = CARTESIAN_POINT ( 'NONE',  ( 59.00000000000000711, -28.99999999999998934, 14.83333334333333475 ) ) ;
#126 = ORIENTED_EDGE ( 'NONE', *, *, #109, .F. ) ;
#127 = CARTESIAN_POINT ( 'NONE',  ( 91.00000000000000000, 0.000000000000000000, 14.83333334333333475 ) ) ;
#128 = CARTESIAN_POINT ( 'NONE',  ( 91.00000000000000000, 1.000000000000007550, 14.83333334333333475 ) ) ;
#129 = ORIENTED_EDGE ( 'NONE', *, *, #241, .F. ) ;
#130 = VECTOR ( 'NONE', #339, 1000.000000000000000 ) ;
#131 = ORIENTED_EDGE ( 'NONE', *, *, #91, .T. ) ;
#132 = EDGE_CURVE ( 'NONE', #1210, #119, #1096, .T. ) ;
#133 = EDGE_CURVE ( 'NONE', #395, #413, #293, .T. ) ;
#134 = LINE ( 'NONE', #430, #171 ) ;
#135 = ORIENTED_EDGE ( 'NONE', *, *, #753, .T. ) ;
#136 = CARTESIAN_POINT ( 'NONE',  ( 29.00000000000000711, -28.99999999999998934, 14.83333334333333475 ) ) ;
#137 = DIRECTION ( 'NONE',  ( 0.000000000000000000, 1.000000000000000000, -0.000000000000000000 ) ) ;
#138 = AXIS2_PLACEMENT_3D ( 'NONE', #642, #151, #434 ) ;
#139 = ORIENTED_EDGE ( 'NONE', *, *, #876, .F. ) ;
#140 = ORIENTED_EDGE ( 'NONE', *, *, #1042, .T. ) ;
#141 = VECTOR ( 'NONE', #495, 1000.000000000000000 ) ;
#142 = CARTESIAN_POINT ( 'NONE',  ( 91.00000000000000000, 1.000000000000007550, 14.83333334333333475 ) ) ;
#143 = ORIENTED_EDGE ( 'NONE', *, *, #859, .T. ) ;
#144 = LINE ( 'NONE', #1108, #725 ) ;
#145 = CARTESIAN_POINT ( 'NONE',  ( 120.0000000000000000, 30.00000000000001421, 14.83333334333333475 ) ) ;
#146 = ORIENTED_EDGE ( 'NONE', *, *, #436, .F. ) ;
#147 = EDGE_LOOP ( 'NONE', ( #262, #757, #172, #311 ) ) ;
#148 = CARTESIAN_POINT ( 'NONE',  ( 119.0000000000000142, -28.99999999999998224, 14.83333334333333475 ) ) ;
#149 = EDGE_LOOP ( 'NONE', ( #135, #143, #739, #56 ) ) ;
#150 = CARTESIAN_POINT ( 'NONE',  ( -3.386548452394404666E-17, -0.9999999999999822364, 0.000000000000000000 ) ) ;
#151 = DIRECTION ( 'NONE',  ( 1.000000000000000000, 1.239088197126291063E-16, -0.000000000000000000 ) ) ;
#152 = EDGE_CURVE ( 'NONE', #1140, #1124, #18, .T. ) ;
#153 = ORIENTED_EDGE ( 'NONE', *, *, #878, .F. ) ;
#154 = CARTESIAN_POINT ( 'NONE',  ( 59.00000000000000000, 1.000000000000000000, 14.83333334333333475 ) ) ;
#155 = EDGE_LOOP ( 'NONE', ( #901, #713, #1136, #945 ) ) ;
#156 = DIRECTION ( 'NONE',  ( -4.625929269271485914E-16, 1.000000000000000000, 0.000000000000000000 ) ) ;
#157 = LINE ( 'NONE', #332, #464 ) ;
#158 = AXIS2_PLACEMENT_3D ( 'NONE', #847, #1261, #1141 ) ;
#159 = ADVANCED_FACE ( 'NONE', ( #912 ), #1202, .T. ) ;
#160 = EDGE_LOOP ( 'NONE', ( #609, #1193, #1198, #563 ) ) ;
#161 = CARTESIAN_POINT ( 'NONE',  ( 61.00000000000000711, 1.511687600494074664E-14, 14.83333334333333475 ) ) ;
#162 = VECTOR ( 'NONE', #889, 1000.000000000000000 ) ;
#163 = VERTEX_POINT ( 'NONE', #136 ) ;
#164 = DIRECTION ( 'NONE',  ( -0.000000000000000000, -0.000000000000000000, -1.000000000000000000 ) ) ;
#165 = PRODUCT_CONTEXT ( 'NONE', #561, 'mechanical' ) ;
#166 = VERTEX_POINT ( 'NONE', #46 ) ;
#167 = ORIENTED_EDGE ( 'NONE', *, *, #436, .T. ) ;
#168 = DIRECTION ( 'NONE',  ( -0.000000000000000000, -0.000000000000000000, -1.000000000000000000 ) ) ;
#169 = CARTESIAN_POINT ( 'NONE',  ( 2.449293598294706907E-16, -1.000000000000000000, 14.83333334333333475 ) ) ;
#170 = EDGE_CURVE ( 'NONE', #400, #221, #222, .T. ) ;
#171 = VECTOR ( 'NONE', #608, 1000.000000000000000 ) ;
#172 = ORIENTED_EDGE ( 'NONE', *, *, #1067, .T. ) ;
#173 = DIRECTION ( 'NONE',  ( 1.000000000000000000, -3.097720492815727659E-17, 0.000000000000000000 ) ) ;
#174 = EDGE_CURVE ( 'NONE', #257, #788, #925, .T. ) ;
#175 = EDGE_CURVE ( 'NONE', #812, #327, #1236, .T. ) ;
#176 = DIRECTION ( 'NONE',  ( -1.000000000000000000, -1.156482317317871478E-16, 0.000000000000000000 ) ) ;
#177 = VECTOR ( 'NONE', #230, 1000.000000000000000 ) ;
#178 = ORIENTED_EDGE ( 'NONE', *, *, #520, .F. ) ;
#179 = CARTESIAN_POINT ( 'NONE',  ( -3.386548452394428701E-17, -0.9999999999999833467, 14.83333334333333475 ) ) ;
#180 = VECTOR ( 'NONE', #69, 1000.000000000000000 ) ;
#181 = LINE ( 'NONE', #963, #49 ) ;
#182 =( NAMED_UNIT ( * ) PLANE_ANGLE_UNIT ( ) SI_UNIT ( $, .RADIAN. ) );
#183 = ORIENTED_EDGE ( 'NONE', *, *, #827, .T. ) ;
#184 = LINE ( 'NONE', #476, #604 ) ;
#185 = LINE ( 'NONE', #783, #1057 ) ;
#186 = ADVANCED_FACE ( 'NONE', ( #344 ), #708, .F. ) ;
#187 = ORIENTED_EDGE ( 'NONE', *, *, #891, .T. ) ;
#188 = CARTESIAN_POINT ( 'NONE',  ( 59.00000000000000000, 1.000000000000000000, 14.83333334333333475 ) ) ;
#189 = DIRECTION ( 'NONE',  ( -2.449293598294706907E-16, 1.000000000000000000, 0.000000000000000000 ) ) ;
#190 = EDGE_CURVE ( 'NONE', #814, #45, #880, .T. ) ;
#191 = DIRECTION ( 'NONE',  ( 1.000000000000000000, 1.156482317317871478E-16, 0.000000000000000000 ) ) ;
#192 = LINE ( 'NONE', #1192, #819 ) ;
#193 = VECTOR ( 'NONE', #137, 1000.000000000000000 ) ;
#194 = FACE_BOUND ( 'NONE', #155, .T. ) ;
#195 = DIRECTION ( 'NONE',  ( 1.000000000000000000, 1.239088197126291063E-16, 0.000000000000000000 ) ) ;
#196 = VECTOR ( 'NONE', #376, 1000.000000000000000 ) ;
#197 = LINE ( 'NONE', #209, #881 ) ;
#198 = EDGE_CURVE ( 'NONE', #788, #219, #531, .T. ) ;
#199 = CARTESIAN_POINT ( 'NONE',  ( 2.759065647576284111E-16, -1.000000000000001776, 14.83333334333333475 ) ) ;
#200 = CARTESIAN_POINT ( 'NONE',  ( 89.00000000000000000, 0.000000000000000000, 14.83333334333333475 ) ) ;
#201 = DIRECTION ( 'NONE',  ( 0.000000000000000000, 0.000000000000000000, 1.000000000000000000 ) ) ;
#202 = ORIENTED_EDGE ( 'NONE', *, *, #90, .T. ) ;
#203 = FACE_OUTER_BOUND ( 'NONE', #312, .T. ) ;
#204 = EDGE_CURVE ( 'NONE', #668, #1200, #618, .T. ) ;
#205 = EDGE_CURVE ( 'NONE', #63, #530, #144, .T. ) ;
#206 = ORIENTED_EDGE ( 'NONE', *, *, #861, .T. ) ;
#207 = CARTESIAN_POINT ( 'NONE',  ( 91.00000000000000000, 2.228857174448183167E-14, 14.83333334333333475 ) ) ;
#208 = CARTESIAN_POINT ( 'NONE',  ( 7.347880794884119933E-15, -30.00000000000000000, 0.000000000000000000 ) ) ;
#209 = CARTESIAN_POINT ( 'NONE',  ( 1.000000000000003775, 1.210205401168420035E-16, 0.000000000000000000 ) ) ;
#210 = ORIENTED_EDGE ( 'NONE', *, *, #65, .F. ) ;
#211 = VECTOR ( 'NONE', #829, 1000.000000000000000 ) ;
#212 = LINE ( 'NONE', #600, #1265 ) ;
#213 = VERTEX_POINT ( 'NONE', #324 ) ;
#214 = EDGE_CURVE ( 'NONE', #748, #961, #831, .T. ) ;
#215 = LINE ( 'NONE', #5, #1168 ) ;
#216 = EDGE_CURVE ( 'NONE', #45, #365, #929, .T. ) ;
#217 = DIRECTION ( 'NONE',  ( 3.386548452394484168E-17, 1.000000000000000000, -0.000000000000000000 ) ) ;
#218 = AXIS2_PLACEMENT_3D ( 'NONE', #1203, #611, #201 ) ;
#219 = VERTEX_POINT ( 'NONE', #799 ) ;
#220 = CARTESIAN_POINT ( 'NONE',  ( 91.00000000000000000, -0.9999999999999852340, 0.000000000000000000 ) ) ;
#221 = VERTEX_POINT ( 'NONE', #731 ) ;
#222 = LINE ( 'NONE', #433, #244 ) ;
#223 = DIRECTION ( 'NONE',  ( -0.000000000000000000, -0.000000000000000000, -1.000000000000000000 ) ) ;
#224 = EDGE_CURVE ( 'NONE', #693, #743, #26, .T. ) ;
#225 = ORIENTED_EDGE ( 'NONE', *, *, #381, .F. ) ;
#226 = ORIENTED_EDGE ( 'NONE', *, *, #1052, .T. ) ;
#227 = CARTESIAN_POINT ( 'NONE',  ( -2.787948443534104110E-16, 0.9999999999999822364, 14.83333334333333475 ) ) ;
#228 = VECTOR ( 'NONE', #485, 1000.000000000000000 ) ;
#229 = ORIENTED_EDGE ( 'NONE', *, *, #753, .F. ) ;
#230 = DIRECTION ( 'NONE',  ( 0.000000000000000000, 1.000000000000000000, -0.000000000000000000 ) ) ;
#231 = CARTESIAN_POINT ( 'NONE',  ( 3.509595663388404567E-15, -28.99999999999999289, 14.83333334333333475 ) ) ;
#232 = CARTESIAN_POINT ( 'NONE',  ( 31.00000000000000711, -28.99999999999998934, 0.000000000000000000 ) ) ;
#233 = VECTOR ( 'NONE', #117, 1000.000000000000000 ) ;
#234 = ORIENTED_EDGE ( 'NONE', *, *, #836, .F. ) ;
#235 = AXIS2_PLACEMENT_3D ( 'NONE', #354, #958, #669 ) ;
#236 = ORIENTED_EDGE ( 'NONE', *, *, #224, .T. ) ;
#237 = CARTESIAN_POINT ( 'NONE',  ( 89.00000000000000000, -0.9999999999999861222, 0.000000000000000000 ) ) ;
#238 = ORIENTED_EDGE ( 'NONE', *, *, #246, .T. ) ;
#239 = DIRECTION ( 'NONE',  ( 1.000000000000000000, -3.386548452394465063E-17, 0.000000000000000000 ) ) ;
#240 = DIRECTION ( 'NONE',  ( -0.000000000000000000, -0.000000000000000000, -1.000000000000000000 ) ) ;
#241 = EDGE_CURVE ( 'NONE', #648, #395, #442, .T. ) ;
#242 = VECTOR ( 'NONE', #1116, 1000.000000000000000 ) ;
#243 = ORIENTED_EDGE ( 'NONE', *, *, #304, .F. ) ;
#244 = VECTOR ( 'NONE', #410, 1000.000000000000000 ) ;
#245 = DIRECTION ( 'NONE',  ( 0.000000000000000000, 1.000000000000000000, 0.000000000000000000 ) ) ;
#246 = EDGE_CURVE ( 'NONE', #650, #326, #735, .T. ) ;
#247 = ORIENTED_EDGE ( 'NONE', *, *, #747, .T. ) ;
#248 = DIRECTION ( 'NONE',  ( 1.000000000000000000, 2.449293598294706907E-16, 0.000000000000000000 ) ) ;
#249 = CARTESIAN_POINT ( 'NONE',  ( 120.0000000000000142, 5.551115123125783964E-14, 14.83333334333333475 ) ) ;
#250 = DIRECTION ( 'NONE',  ( -1.000000000000000000, -1.239088197126291063E-16, 0.000000000000000000 ) ) ;
#251 = ORIENTED_EDGE ( 'NONE', *, *, #1223, .T. ) ;
#252 = EDGE_CURVE ( 'NONE', #288, #542, #253, .T. ) ;
#253 = LINE ( 'NONE', #905, #776 ) ;
#254 = FACE_OUTER_BOUND ( 'NONE', #1003, .T. ) ;
#255 = ORIENTED_EDGE ( 'NONE', *, *, #742, .T. ) ;
#256 = CARTESIAN_POINT ( 'NONE',  ( 120.0000000000000142, -29.99999999999998579, 0.000000000000000000 ) ) ;
#257 = VERTEX_POINT ( 'NONE', #317 ) ;
#258 = FACE_OUTER_BOUND ( 'NONE', #1006, .T. ) ;
#259 = PLANE ( 'NONE',  #1019 ) ;
#260 = ADVANCED_FACE ( 'NONE', ( #425 ), #34, .T. ) ;
#261 = EDGE_CURVE ( 'NONE', #803, #634, #1115, .T. ) ;
#262 = ORIENTED_EDGE ( 'NONE', *, *, #1052, .F. ) ;
#263 = CARTESIAN_POINT ( 'NONE',  ( -3.386548452394428701E-17, -0.9999999999999833467, 0.000000000000000000 ) ) ;
#264 = VECTOR ( 'NONE', #156, 1000.000000000000000 ) ;
#265 = VECTOR ( 'NONE', #763, 1000.000000000000000 ) ;
#266 = CARTESIAN_POINT ( 'NONE',  ( 31.00000000000000355, 3.751636743622088919E-15, 14.83333334333333475 ) ) ;
#267 = CARTESIAN_POINT ( 'NONE',  ( 61.00000000000000711, 1.511687600494074664E-14, 0.000000000000000000 ) ) ;
#268 = VERTEX_POINT ( 'NONE', #331 ) ;
#269 = ADVANCED_FACE ( 'NONE', ( #658 ), #280, .T. ) ;
#270 = DIRECTION ( 'NONE',  ( 1.000000000000000000, -3.386548452394484168E-17, 0.000000000000000000 ) ) ;
#271 = PLANE ( 'NONE',  #385 ) ;
#272 = DIRECTION ( 'NONE',  ( -2.478176394252581141E-16, 1.000000000000000000, 0.000000000000000000 ) ) ;
#273 = VECTOR ( 'NONE', #965, 1000.000000000000000 ) ;
#274 = ORIENTED_EDGE ( 'NONE', *, *, #691, .T. ) ;
#275 = CARTESIAN_POINT ( 'NONE',  ( 91.00000000000001421, -28.99999999999998579, 14.83333334333333475 ) ) ;
#276 = LINE ( 'NONE', #266, #1123 ) ;
#277 = VECTOR ( 'NONE', #663, 1000.000000000000000 ) ;
#278 = EDGE_LOOP ( 'NONE', ( #1111, #536, #613, #1095 ) ) ;
#279 = ORIENTED_EDGE ( 'NONE', *, *, #389, .T. ) ;
#280 = PLANE ( 'NONE',  #235 ) ;
#281 = ORIENTED_EDGE ( 'NONE', *, *, #437, .F. ) ;
#282 = LINE ( 'NONE', #679, #329 ) ;
#283 = FACE_OUTER_BOUND ( 'NONE', #640, .T. ) ;
#284 = DIRECTION ( 'NONE',  ( -1.000000000000000000, -2.759065647576279673E-16, 0.000000000000000000 ) ) ;
#285 = VECTOR ( 'NONE', #1137, 1000.000000000000000 ) ;
#286 = DIRECTION ( 'NONE',  ( -1.239088197126291063E-16, 1.000000000000000000, 0.000000000000000000 ) ) ;
#287 = LINE ( 'NONE', #494, #420 ) ;
#288 = VERTEX_POINT ( 'NONE', #359 ) ;
#289 = ADVANCED_FACE ( 'NONE', ( #745 ), #450, .T. ) ;
#290 = ORIENTED_EDGE ( 'NONE', *, *, #878, .T. ) ;
#291 = CARTESIAN_POINT ( 'NONE',  ( 3.509595663388404567E-15, -28.99999999999999289, 14.83333334333333475 ) ) ;
#292 = VECTOR ( 'NONE', #351, 1000.000000000000000 ) ;
#293 = LINE ( 'NONE', #386, #1253 ) ;
#294 = DIRECTION ( 'NONE',  ( 1.000000000000000000, 2.449293598294706907E-16, 0.000000000000000000 ) ) ;
#295 = VECTOR ( 'NONE', #969, 1000.000000000000000 ) ;
#296 = PRODUCT_DEFINITION_CONTEXT ( 'detailed design', #621, 'design' ) ;
#297 = CARTESIAN_POINT ( 'NONE',  ( 29.00000000000000000, 1.000000000000000000, 14.83333334333333475 ) ) ;
#298 = EDGE_CURVE ( 'NONE', #972, #650, #461, .T. ) ;
#299 = FACE_OUTER_BOUND ( 'NONE', #107, .T. ) ;
#300 = ORIENTED_EDGE ( 'NONE', *, *, #567, .F. ) ;
#301 = LINE ( 'NONE', #778, #295 ) ;
#302 = PLANE ( 'NONE',  #1271 ) ;
#303 = ORIENTED_EDGE ( 'NONE', *, *, #950, .T. ) ;
#304 = EDGE_CURVE ( 'NONE', #705, #166, #80, .T. ) ;
#305 = DIRECTION ( 'NONE',  ( 1.000000000000000000, 1.292811280976835429E-16, 0.000000000000000000 ) ) ;
#306 = ORIENTED_EDGE ( 'NONE', *, *, #1067, .F. ) ;
#307 = FACE_OUTER_BOUND ( 'NONE', #455, .T. ) ;
#308 = LINE ( 'NONE', #701, #523 ) ;
#309 = CARTESIAN_POINT ( 'NONE',  ( 29.00000000000000000, 1.000000000000000000, 0.000000000000000000 ) ) ;
#310 = VERTEX_POINT ( 'NONE', #1143 ) ;
#311 = ORIENTED_EDGE ( 'NONE', *, *, #1031, .F. ) ;
#312 = EDGE_LOOP ( 'NONE', ( #855, #645, #1050, #1197 ) ) ;
#313 = ORIENTED_EDGE ( 'NONE', *, *, #190, .F. ) ;
#314 = VECTOR ( 'NONE', #837, 1000.000000000000000 ) ;
#315 = CARTESIAN_POINT ( 'NONE',  ( 61.00000000000000711, -0.9999999999999852340, 14.83333334333333475 ) ) ;
#316 = ORIENTED_EDGE ( 'NONE', *, *, #1156, .F. ) ;
#317 = CARTESIAN_POINT ( 'NONE',  ( 31.00000000000000355, -0.9999999999999933387, 14.83333334333333475 ) ) ;
#318 = CARTESIAN_POINT ( 'NONE',  ( 59.00000000000000000, 29.00000000000000000, 14.83333334333333475 ) ) ;
#319 = ADVANCED_FACE ( 'NONE', ( #1060 ), #271, .T. ) ;
#320 = AXIS2_PLACEMENT_3D ( 'NONE', #990, #967, #97 ) ;
#321 = EDGE_CURVE ( 'NONE', #972, #838, #1159, .T. ) ;
#322 = ORIENTED_EDGE ( 'NONE', *, *, #65, .T. ) ;
#323 = FACE_OUTER_BOUND ( 'NONE', #811, .T. ) ;
#324 = CARTESIAN_POINT ( 'NONE',  ( 1.000000000000003553, 1.000000000000000000, 14.83333334333333475 ) ) ;
#325 = LINE ( 'NONE', #249, #242 ) ;
#326 = VERTEX_POINT ( 'NONE', #653 ) ;
#327 = VERTEX_POINT ( 'NONE', #848 ) ;
#328 = CARTESIAN_POINT ( 'NONE',  ( 1.000000000000003775, 1.210205401168420035E-16, 14.83333334333333475 ) ) ;
#329 = VECTOR ( 'NONE', #674, 1000.000000000000000 ) ;
#330 = ORIENTED_EDGE ( 'NONE', *, *, #372, .F. ) ;
#331 = CARTESIAN_POINT ( 'NONE',  ( 31.00000000000000711, -28.99999999999998934, 14.83333334333333475 ) ) ;
#332 = CARTESIAN_POINT ( 'NONE',  ( 31.00000000000000711, -28.99999999999998934, 14.83333334333333475 ) ) ;
#333 = ORIENTED_EDGE ( 'NONE', *, *, #549, .F. ) ;
#334 = VECTOR ( 'NONE', #239, 1000.000000000000000 ) ;
#335 = ADVANCED_FACE ( 'NONE', ( #258 ), #946, .T. ) ;
#336 = ORIENTED_EDGE ( 'NONE', *, *, #533, .T. ) ;
#337 = DIRECTION ( 'NONE',  ( 0.000000000000000000, -0.000000000000000000, 1.000000000000000000 ) ) ;
#338 = EDGE_LOOP ( 'NONE', ( #84, #457, #67, #167 ) ) ;
#339 = DIRECTION ( 'NONE',  ( 1.000000000000000000, 2.759065647576279673E-16, 0.000000000000000000 ) ) ;
#340 = LINE ( 'NONE', #824, #292 ) ;
#341 = ADVANCED_FACE ( 'NONE', ( #750 ), #1069, .F. ) ;
#342 = CARTESIAN_POINT ( 'NONE',  ( 31.00000000000000355, 3.751636743622088919E-15, 0.000000000000000000 ) ) ;
#343 = VERTEX_POINT ( 'NONE', #468 ) ;
#344 = FACE_OUTER_BOUND ( 'NONE', #356, .T. ) ;
#345 = LINE ( 'NONE', #47, #683 ) ;
#346 = ORIENTED_EDGE ( 'NONE', *, *, #1154, .F. ) ;
#347 = CARTESIAN_POINT ( 'NONE',  ( 89.00000000000000000, -0.9999999999999861222, 14.83333334333333475 ) ) ;
#348 = EDGE_CURVE ( 'NONE', #1093, #327, #1245, .T. ) ;
#349 = ORIENTED_EDGE ( 'NONE', *, *, #198, .T. ) ;
#350 = DIRECTION ( 'NONE',  ( -1.000000000000000000, 3.097720492815727659E-17, 0.000000000000000000 ) ) ;
#351 = DIRECTION ( 'NONE',  ( 1.000000000000000000, 0.000000000000000000, 0.000000000000000000 ) ) ;
#352 = ORIENTED_EDGE ( 'NONE', *, *, #123, .T. ) ;
#353 = CARTESIAN_POINT ( 'NONE',  ( 120.0000000000000142, -29.99999999999998579, 14.83333334333333475 ) ) ;
#354 = CARTESIAN_POINT ( 'NONE',  ( 89.00000000000000000, 2.179871302482289108E-14, 14.83333334333333475 ) ) ;
#355 = EDGE_CURVE ( 'NONE', #268, #257, #276, .T. ) ;
#356 = EDGE_LOOP ( 'NONE', ( #615, #1090, #513, #830 ) ) ;
#357 = VECTOR ( 'NONE', #628, 1000.000000000000000 ) ;
#358 = LINE ( 'NONE', #652, #828 ) ;
#359 = CARTESIAN_POINT ( 'NONE',  ( 29.00000000000000000, 28.99999999999999645, 14.83333334333333475 ) ) ;
#360 = DIRECTION ( 'NONE',  ( 0.000000000000000000, 0.000000000000000000, 1.000000000000000000 ) ) ;
#361 = EDGE_CURVE ( 'NONE', #119, #1238, #566, .T. ) ;
#362 = ORIENTED_EDGE ( 'NONE', *, *, #23, .F. ) ;
#363 = CARTESIAN_POINT ( 'NONE',  ( 61.00000000000000711, -0.9999999999999852340, 14.83333334333333475 ) ) ;
#364 = DIRECTION ( 'NONE',  ( 0.000000000000000000, 0.000000000000000000, 1.000000000000000000 ) ) ;
#365 = VERTEX_POINT ( 'NONE', #68 ) ;
#366 = ORIENTED_EDGE ( 'NONE', *, *, #664, .F. ) ;
#367 = PLANE ( 'NONE',  #431 ) ;
#368 = AXIS2_PLACEMENT_3D ( 'NONE', #328, #720, #1020 ) ;
#369 = ORIENTED_EDGE ( 'NONE', *, *, #446, .T. ) ;
#370 = CARTESIAN_POINT ( 'NONE',  ( 0.000000000000000000, 30.00000000000000000, 14.83333334333333475 ) ) ;
#371 = EDGE_CURVE ( 'NONE', #343, #785, #456, .T. ) ;
#372 = EDGE_CURVE ( 'NONE', #1038, #814, #1064, .T. ) ;
#373 = CARTESIAN_POINT ( 'NONE',  ( 119.0000000000000142, -2.983400436350443808E-14, 14.83333334333333475 ) ) ;
#374 = LINE ( 'NONE', #849, #79 ) ;
#375 = VECTOR ( 'NONE', #394, 1000.000000000000000 ) ;
#376 = DIRECTION ( 'NONE',  ( 0.000000000000000000, -1.000000000000000000, 0.000000000000000000 ) ) ;
#377 = LINE ( 'NONE', #974, #94 ) ;
#378 = DIRECTION ( 'NONE',  ( 0.000000000000000000, -1.000000000000000000, 0.000000000000000000 ) ) ;
#379 = LINE ( 'NONE', #396, #1187 ) ;
#380 = DIRECTION ( 'NONE',  ( 0.000000000000000000, 0.000000000000000000, 1.000000000000000000 ) ) ;
#381 = EDGE_CURVE ( 'NONE', #52, #1145, #181, .T. ) ;
#382 = CARTESIAN_POINT ( 'NONE',  ( -3.386548452394428701E-17, -0.9999999999999833467, 14.83333334333333475 ) ) ;
#383 = VECTOR ( 'NONE', #870, 1000.000000000000000 ) ;
#384 = CARTESIAN_POINT ( 'NONE',  ( 3.878433842930505744E-15, -30.00000000000000000, 14.83333334333333475 ) ) ;
#385 = AXIS2_PLACEMENT_3D ( 'NONE', #839, #1257, #350 ) ;
#386 = CARTESIAN_POINT ( 'NONE',  ( 91.00000000000000000, 29.00000000000000355, 14.83333334333333475 ) ) ;
#387 = DIRECTION ( 'NONE',  ( -1.000000000000000000, 0.000000000000000000, 0.000000000000000000 ) ) ;
#388 = ADVANCED_FACE ( 'NONE', ( #473 ), #367, .F. ) ;
#389 = EDGE_CURVE ( 'NONE', #748, #422, #60, .T. ) ;
#390 = FILL_AREA_STYLE_COLOUR ( '', #490 ) ;
#391 = ORIENTED_EDGE ( 'NONE', *, *, #361, .T. ) ;
#392 = FACE_OUTER_BOUND ( 'NONE', #782, .T. ) ;
#393 = VECTOR ( 'NONE', #954, 1000.000000000000000 ) ;
#394 = DIRECTION ( 'NONE',  ( 0.000000000000000000, 1.000000000000000000, -0.000000000000000000 ) ) ;
#395 = VERTEX_POINT ( 'NONE', #481 ) ;
#396 = CARTESIAN_POINT ( 'NONE',  ( 91.00000000000000000, 2.228857174448183167E-14, 0.000000000000000000 ) ) ;
#397 = LINE ( 'NONE', #19, #58 ) ;
#398 = ORIENTED_EDGE ( 'NONE', *, *, #198, .F. ) ;
#399 = ADVANCED_FACE ( 'NONE', ( #392 ), #16, .T. ) ;
#400 = VERTEX_POINT ( 'NONE', #1089 ) ;
#401 = DIRECTION ( 'NONE',  ( -1.000000000000000000, 2.507059190210457346E-16, 0.000000000000000000 ) ) ;
#402 = ORIENTED_EDGE ( 'NONE', *, *, #355, .T. ) ;
#403 = DIRECTION ( 'NONE',  ( 2.449293598294706907E-16, -1.000000000000000000, 0.000000000000000000 ) ) ;
#404 = PLANE ( 'NONE',  #1081 ) ;
#405 = CARTESIAN_POINT ( 'NONE',  ( 59.00000000000000000, 0.000000000000000000, 14.83333334333333475 ) ) ;
#406 = FACE_OUTER_BOUND ( 'NONE', #826, .T. ) ;
#407 = ORIENTED_EDGE ( 'NONE', *, *, #671, .F. ) ;
#408 = PLANE ( 'NONE',  #368 ) ;
#409 = ORIENTED_EDGE ( 'NONE', *, *, #132, .F. ) ;
#410 = DIRECTION ( 'NONE',  ( -1.000000000000000000, -1.239088197126291063E-16, 0.000000000000000000 ) ) ;
#411 = DIRECTION ( 'NONE',  ( 1.000000000000000000, 1.239088197126291063E-16, 0.000000000000000000 ) ) ;
#412 = LINE ( 'NONE', #775, #141 ) ;
#413 = VERTEX_POINT ( 'NONE', #887 ) ;
#414 = ORIENTED_EDGE ( 'NONE', *, *, #205, .F. ) ;
#415 = DIRECTION ( 'NONE',  ( -0.000000000000000000, -0.000000000000000000, -1.000000000000000000 ) ) ;
#416 = EDGE_CURVE ( 'NONE', #326, #1238, #93, .T. ) ;
#417 = DIRECTION ( 'NONE',  ( 1.000000000000000000, 1.239088197126290817E-16, 0.000000000000000000 ) ) ;
#418 = PLANE ( 'NONE',  #781 ) ;
#419 = VECTOR ( 'NONE', #807, 1000.000000000000000 ) ;
#420 = VECTOR ( 'NONE', #584, 1000.000000000000000 ) ;
#421 = ORIENTED_EDGE ( 'NONE', *, *, #3, .T. ) ;
#422 = VERTEX_POINT ( 'NONE', #894 ) ;
#423 = LINE ( 'NONE', #1029, #211 ) ;
#424 = ORIENTED_EDGE ( 'NONE', *, *, #767, .F. ) ;
#425 = FACE_OUTER_BOUND ( 'NONE', #1243, .T. ) ;
#426 = DIRECTION ( 'NONE',  ( -0.000000000000000000, 0.000000000000000000, -1.000000000000000000 ) ) ;
#427 = PLANE ( 'NONE',  #482 ) ;
#428 = ADVANCED_FACE ( 'NONE', ( #104 ), #1268, .T. ) ;
#429 = EDGE_LOOP ( 'NONE', ( #899, #1087, #1103, #769 ) ) ;
#430 = CARTESIAN_POINT ( 'NONE',  ( 0.000000000000000000, 30.00000000000000000, 14.83333334333333475 ) ) ;
#431 = AXIS2_PLACEMENT_3D ( 'NONE', #759, #1166, #938 ) ;
#432 = EDGE_LOOP ( 'NONE', ( #1249, #43, #729, #243 ) ) ;
#433 = CARTESIAN_POINT ( 'NONE',  ( -3.593355771666243492E-15, 28.99999999999999289, 0.000000000000000000 ) ) ;
#434 = DIRECTION ( 'NONE',  ( -1.239088197126291063E-16, 1.000000000000000000, 0.000000000000000000 ) ) ;
#435 = FACE_OUTER_BOUND ( 'NONE', #1104, .T. ) ;
#436 = EDGE_CURVE ( 'NONE', #999, #221, #185, .T. ) ;
#437 = EDGE_CURVE ( 'NONE', #595, #1124, #777, .T. ) ;
#438 = ORIENTED_EDGE ( 'NONE', *, *, #252, .T. ) ;
#439 = DIRECTION ( 'NONE',  ( 2.449293598294706907E-16, -1.000000000000000000, 0.000000000000000000 ) ) ;
#440 = VECTOR ( 'NONE', #415, 1000.000000000000000 ) ;
#441 = EDGE_LOOP ( 'NONE', ( #236, #802, #684, #538 ) ) ;
#442 = LINE ( 'NONE', #127, #492 ) ;
#443 = CARTESIAN_POINT ( 'NONE',  ( 61.00000000000000711, 1.511687600494074664E-14, 14.83333334333333475 ) ) ;
#444 = ORIENTED_EDGE ( 'NONE', *, *, #771, .F. ) ;
#445 = ORIENTED_EDGE ( 'NONE', *, *, #806, .F. ) ;
#446 = EDGE_CURVE ( 'NONE', #1028, #812, #282, .T. ) ;
#447 = AXIS2_PLACEMENT_3D ( 'NONE', #980, #877, #792 ) ;
#448 = LINE ( 'NONE', #657, #761 ) ;
#449 = ORIENTED_EDGE ( 'NONE', *, *, #204, .T. ) ;
#450 = PLANE ( 'NONE',  #845 ) ;
#451 = CARTESIAN_POINT ( 'NONE',  ( 91.00000000000000000, -0.9999999999999852340, 14.83333334333333475 ) ) ;
#452 = ORIENTED_EDGE ( 'NONE', *, *, #890, .T. ) ;
#453 = CARTESIAN_POINT ( 'NONE',  ( 119.0000000000000142, -0.9999999999999863443, 0.000000000000000000 ) ) ;
#454 = EDGE_CURVE ( 'NONE', #1142, #841, #1171, .T. ) ;
#455 = EDGE_LOOP ( 'NONE', ( #352, #638, #497, #737 ) ) ;
#456 = LINE ( 'NONE', #572, #662 ) ;
#457 = ORIENTED_EDGE ( 'NONE', *, *, #633, .F. ) ;
#458 = AXIS2_PLACEMENT_3D ( 'NONE', #1125, #716, #516 ) ;
#459 = LINE ( 'NONE', #1045, #1099 ) ;
#460 = ORIENTED_EDGE ( 'NONE', *, *, #152, .T. ) ;
#461 = LINE ( 'NONE', #1241, #6 ) ;
#462 = EDGE_CURVE ( 'NONE', #846, #803, #770, .T. ) ;
#463 = ORIENTED_EDGE ( 'NONE', *, *, #205, .T. ) ;
#464 = VECTOR ( 'NONE', #240, 1000.000000000000000 ) ;
#465 = LINE ( 'NONE', #179, #110 ) ;
#466 = STYLED_ITEM ( 'NONE', ( #28 ), #64 ) ;
#467 = ORIENTED_EDGE ( 'NONE', *, *, #747, .F. ) ;
#468 = CARTESIAN_POINT ( 'NONE',  ( 119.0000000000000000, 29.00000000000000711, 14.83333334333333475 ) ) ;
#469 = DIRECTION ( 'NONE',  ( 1.000000000000000000, 4.956352788505164254E-16, -0.000000000000000000 ) ) ;
#470 = EDGE_CURVE ( 'NONE', #1225, #586, #98, .T. ) ;
#471 = VERTEX_POINT ( 'NONE', #8 ) ;
#472 = DIRECTION ( 'NONE',  ( -1.000000000000000000, -2.787948443534153414E-16, 0.000000000000000000 ) ) ;
#473 = FACE_OUTER_BOUND ( 'NONE', #1002, .T. ) ;
#474 = ADVANCED_FACE ( 'NONE', ( #299 ), #1176, .F. ) ;
#475 = EDGE_LOOP ( 'NONE', ( #330, #362, #719, #313 ) ) ;
#476 = CARTESIAN_POINT ( 'NONE',  ( -3.593355771666243492E-15, 28.99999999999999289, 14.83333334333333475 ) ) ;
#477 = CARTESIAN_POINT ( 'NONE',  ( 61.00000000000000711, -1.761850553430331939E-16, 14.83333334333333475 ) ) ;
#478 = CARTESIAN_POINT ( 'NONE',  ( 61.00000000000000711, -0.9999999999999852340, 0.000000000000000000 ) ) ;
#479 = VECTOR ( 'NONE', #1058, 1000.000000000000000 ) ;
#480 = FACE_BOUND ( 'NONE', #1228, .T. ) ;
#481 = CARTESIAN_POINT ( 'NONE',  ( 91.00000000000000000, 29.00000000000000355, 14.83333334333333475 ) ) ;
#482 = AXIS2_PLACEMENT_3D ( 'NONE', #1213, #115, #502 ) ;
#483 = LINE ( 'NONE', #200, #196 ) ;
#484 = EDGE_CURVE ( 'NONE', #166, #846, #491, .T. ) ;
#485 = DIRECTION ( 'NONE',  ( 2.507059190210457346E-16, 1.000000000000000000, 0.000000000000000000 ) ) ;
#486 = CARTESIAN_POINT ( 'NONE',  ( -2.787948443534108547E-16, 0.9999999999999833467, 14.83333334333333475 ) ) ;
#487 = LINE ( 'NONE', #688, #162 ) ;
#488 =( LENGTH_UNIT ( ) NAMED_UNIT ( * ) SI_UNIT ( .MILLI., .METRE. ) );
#489 = VECTOR ( 'NONE', #991, 1000.000000000000000 ) ;
#490 = COLOUR_RGB ( '',0.7921568627450980005, 0.8196078431372548767, 0.9333333333333333481 ) ;
#491 = LINE ( 'NONE', #978, #660 ) ;
#492 = VECTOR ( 'NONE', #627, 1000.000000000000000 ) ;
#493 = DIRECTION ( 'NONE',  ( -2.449293598294706907E-16, 1.000000000000000000, 0.000000000000000000 ) ) ;
#494 = CARTESIAN_POINT ( 'NONE',  ( 89.00000000000000000, 2.179871302482289108E-14, 0.000000000000000000 ) ) ;
#495 = DIRECTION ( 'NONE',  ( -1.000000000000000000, -1.210205401168415844E-16, 0.000000000000000000 ) ) ;
#496 = VECTOR ( 'NONE', #270, 1000.000000000000000 ) ;
#497 = ORIENTED_EDGE ( 'NONE', *, *, #175, .F. ) ;
#498 = CARTESIAN_POINT ( 'NONE',  ( 7.347880794884119933E-15, -30.00000000000000000, 14.83333334333333475 ) ) ;
#499 = ORIENTED_EDGE ( 'NONE', *, *, #91, .F. ) ;
#500 = CARTESIAN_POINT ( 'NONE',  ( 91.00000000000000000, 1.000000000000007550, 0.000000000000000000 ) ) ;
#501 = DIRECTION ( 'NONE',  ( -1.000000000000000000, 3.386548452394465679E-17, 0.000000000000000000 ) ) ;
#502 = DIRECTION ( 'NONE',  ( 1.000000000000000000, 0.000000000000000000, 0.000000000000000000 ) ) ;
#503 = PLANE ( 'NONE',  #973 ) ;
#504 = ORIENTED_EDGE ( 'NONE', *, *, #570, .T. ) ;
#505 = ORIENTED_EDGE ( 'NONE', *, *, #1263, .T. ) ;
#506 = LINE ( 'NONE', #624, #560 ) ;
#507 = ORIENTED_EDGE ( 'NONE', *, *, #246, .F. ) ;
#508 = PLANE ( 'NONE',  #1082 ) ;
#509 = PLANE ( 'NONE',  #447 ) ;
#510 = CARTESIAN_POINT ( 'NONE',  ( 91.00000000000001421, -28.99999999999998579, 14.83333334333333475 ) ) ;
#511 = ORIENTED_EDGE ( 'NONE', *, *, #1009, .T. ) ;
#512 = ADVANCED_FACE ( 'NONE', ( #203 ), #574, .T. ) ;
#513 = ORIENTED_EDGE ( 'NONE', *, *, #1263, .F. ) ;
#514 = CARTESIAN_POINT ( 'NONE',  ( 59.00000000000000000, 29.00000000000000000, 14.83333334333333475 ) ) ;
#515 = ORIENTED_EDGE ( 'NONE', *, *, #971, .T. ) ;
#516 = DIRECTION ( 'NONE',  ( -1.000000000000000000, -2.787948443534155386E-16, 0.000000000000000000 ) ) ;
#517 = CARTESIAN_POINT ( 'NONE',  ( 29.00000000000000000, -0.9999999999999928946, 14.83333334333333475 ) ) ;
#518 = FACE_BOUND ( 'NONE', #1128, .T. ) ;
#519 = ORIENTED_EDGE ( 'NONE', *, *, #133, .T. ) ;
#520 = EDGE_CURVE ( 'NONE', #288, #1145, #192, .T. ) ;
#521 = CARTESIAN_POINT ( 'NONE',  ( 1.000000000000007105, -28.99999999999999289, 14.83333334333333475 ) ) ;
#522 = EDGE_LOOP ( 'NONE', ( #251, #911, #424, #255 ) ) ;
#523 = VECTOR ( 'NONE', #411, 1000.000000000000000 ) ;
#524 = CARTESIAN_POINT ( 'NONE',  ( 89.00000000000000000, 29.00000000000000355, 14.83333334333333475 ) ) ;
#525 = DIRECTION ( 'NONE',  ( -1.000000000000000000, -2.478176394252581141E-16, 0.000000000000000000 ) ) ;
#526 = FACE_BOUND ( 'NONE', #432, .T. ) ;
#527 = AXIS2_PLACEMENT_3D ( 'NONE', #1091, #596, #687 ) ;
#528 = ORIENTED_EDGE ( 'NONE', *, *, #1034, .T. ) ;
#529 = LINE ( 'NONE', #1094, #996 ) ;
#530 = VERTEX_POINT ( 'NONE', #697 ) ;
#531 = LINE ( 'NONE', #1211, #130 ) ;
#532 = CARTESIAN_POINT ( 'NONE',  ( 119.0000000000000142, 1.000000000000015321, 14.83333334333333475 ) ) ;
#533 = EDGE_CURVE ( 'NONE', #310, #1238, #581, .T. ) ;
#534 = FACE_BOUND ( 'NONE', #758, .T. ) ;
#535 = ORIENTED_EDGE ( 'NONE', *, *, #321, .T. ) ;
#536 = ORIENTED_EDGE ( 'NONE', *, *, #966, .F. ) ;
#537 = CARTESIAN_POINT ( 'NONE',  ( 1.000000000000003775, -0.9999999999999997780, 14.83333334333333475 ) ) ;
#538 = ORIENTED_EDGE ( 'NONE', *, *, #612, .T. ) ;
#539 = CARTESIAN_POINT ( 'NONE',  ( 31.00000000000000355, -0.9999999999999933387, 14.83333334333333475 ) ) ;
#540 = CARTESIAN_POINT ( 'NONE',  ( 89.00000000000000000, 0.000000000000000000, 14.83333334333333475 ) ) ;
#541 = ORIENTED_EDGE ( 'NONE', *, *, #132, .T. ) ;
#542 = VERTEX_POINT ( 'NONE', #588 ) ;
#543 = DIRECTION ( 'NONE',  ( 1.239088197126291063E-16, -1.000000000000000000, 0.000000000000000000 ) ) ;
#544 = VECTOR ( 'NONE', #1152, 1000.000000000000000 ) ;
#545 = VERTEX_POINT ( 'NONE', #88 ) ;
#546 = DIRECTION ( 'NONE',  ( -0.000000000000000000, -0.000000000000000000, -1.000000000000000000 ) ) ;
#547 = CARTESIAN_POINT ( 'NONE',  ( 7.347880794884119933E-15, -30.00000000000000000, 14.83333334333333475 ) ) ;
#548 = VERTEX_POINT ( 'NONE', #111 ) ;
#549 = EDGE_CURVE ( 'NONE', #1142, #1028, #983, .T. ) ;
#550 = AXIS2_PLACEMENT_3D ( 'NONE', #603, #906, #501 ) ;
#551 = LINE ( 'NONE', #558, #479 ) ;
#552 = VERTEX_POINT ( 'NONE', #125 ) ;
#553 = CARTESIAN_POINT ( 'NONE',  ( 61.00000000000000711, -1.761850553430331939E-16, 14.83333334333333475 ) ) ;
#554 = DIRECTION ( 'NONE',  ( -0.000000000000000000, -0.000000000000000000, -1.000000000000000000 ) ) ;
#555 = ORIENTED_EDGE ( 'NONE', *, *, #966, .T. ) ;
#556 = ORIENTED_EDGE ( 'NONE', *, *, #348, .T. ) ;
#557 = EDGE_CURVE ( 'NONE', #908, #788, #903, .T. ) ;
#558 = CARTESIAN_POINT ( 'NONE',  ( 61.00000000000000711, 1.000000000000000222, 14.83333334333333475 ) ) ;
#559 = DIRECTION ( 'NONE',  ( 0.000000000000000000, 1.000000000000000000, -0.000000000000000000 ) ) ;
#560 = VECTOR ( 'NONE', #32, 1000.000000000000000 ) ;
#561 = APPLICATION_CONTEXT ( 'automotive_design' ) ;
#562 = VECTOR ( 'NONE', #122, 1000.000000000000000 ) ;
#563 = ORIENTED_EDGE ( 'NONE', *, *, #575, .T. ) ;
#564 = VECTOR ( 'NONE', #646, 1000.000000000000000 ) ;
#565 = CARTESIAN_POINT ( 'NONE',  ( 61.00000000000000000, 29.00000000000000355, 0.000000000000000000 ) ) ;
#566 = LINE ( 'NONE', #858, #955 ) ;
#567 = EDGE_CURVE ( 'NONE', #219, #677, #44, .T. ) ;
#568 = ORIENTED_EDGE ( 'NONE', *, *, #691, .F. ) ;
#569 = VECTOR ( 'NONE', #1065, 1000.000000000000000 ) ;
#570 = EDGE_CURVE ( 'NONE', #622, #668, #506, .T. ) ;
#571 = DIRECTION ( 'NONE',  ( 2.449293598294706907E-16, -1.000000000000000000, 0.000000000000000000 ) ) ;
#572 = CARTESIAN_POINT ( 'NONE',  ( 119.0000000000000142, 5.898059818321145383E-14, 14.83333334333333475 ) ) ;
#573 = ORIENTED_EDGE ( 'NONE', *, *, #389, .F. ) ;
#574 = PLANE ( 'NONE',  #1117 ) ;
#575 = EDGE_CURVE ( 'NONE', #343, #87, #821, .T. ) ;
#576 = CARTESIAN_POINT ( 'NONE',  ( 1.000000000000003775, 1.239088197126295747E-16, 14.83333334333333475 ) ) ;
#577 = CARTESIAN_POINT ( 'NONE',  ( 119.0000000000000142, -2.983400436350443808E-14, 14.83333334333333475 ) ) ;
#578 = CARTESIAN_POINT ( 'NONE',  ( 7.102951435054651215E-15, -29.00000000000000355, 14.83333334333333475 ) ) ;
#579 = ADVANCED_FACE ( 'NONE', ( #706 ), #1130, .F. ) ;
#580 = EDGE_LOOP ( 'NONE', ( #1260, #818, #528, #956 ) ) ;
#581 = LINE ( 'NONE', #875, #489 ) ;
#582 = AXIS2_PLACEMENT_3D ( 'NONE', #578, #189, #1101 ) ;
#583 = FACE_BOUND ( 'NONE', #1155, .T. ) ;
#584 = DIRECTION ( 'NONE',  ( -2.449293598294706907E-16, 1.000000000000000000, 0.000000000000000000 ) ) ;
#585 = CARTESIAN_POINT ( 'NONE',  ( 29.00000000000000711, -28.99999999999998934, 0.000000000000000000 ) ) ;
#586 = VERTEX_POINT ( 'NONE', #927 ) ;
#587 = LINE ( 'NONE', #862, #868 ) ;
#588 = CARTESIAN_POINT ( 'NONE',  ( 1.000000000000000000, 28.99999999999999289, 14.83333334333333475 ) ) ;
#589 = CARTESIAN_POINT ( 'NONE',  ( 1.000000000000003775, 1.239088197126295747E-16, 14.83333334333333475 ) ) ;
#590 = LINE ( 'NONE', #773, #810 ) ;
#591 = UNCERTAINTY_MEASURE_WITH_UNIT (LENGTH_MEASURE( 1.000000000000000082E-05 ), #488, 'distance_accuracy_value', 'NONE');
#592 = LINE ( 'NONE', #1191, #562 ) ;
#593 = VECTOR ( 'NONE', #1147, 1000.000000000000000 ) ;
#594 = DIRECTION ( 'NONE',  ( -0.000000000000000000, -0.000000000000000000, -1.000000000000000000 ) ) ;
#595 = VERTEX_POINT ( 'NONE', #148 ) ;
#596 = DIRECTION ( 'NONE',  ( -0.000000000000000000, 0.000000000000000000, 1.000000000000000000 ) ) ;
#597 = FACE_OUTER_BOUND ( 'NONE', #631, .T. ) ;
#598 = EDGE_CURVE ( 'NONE', #893, #1216, #134, .T. ) ;
#599 = VECTOR ( 'NONE', #1234, 1000.000000000000000 ) ;
#600 = CARTESIAN_POINT ( 'NONE',  ( 61.00000000000000711, -28.99999999999998934, 14.83333334333333475 ) ) ;
#601 = ORIENTED_EDGE ( 'NONE', *, *, #844, .T. ) ;
#602 = CARTESIAN_POINT ( 'NONE',  ( -3.386548452394404666E-17, -0.9999999999999822364, 14.83333334333333475 ) ) ;
#603 = CARTESIAN_POINT ( 'NONE',  ( -3.386548452394404666E-17, -0.9999999999999822364, 14.83333334333333475 ) ) ;
#604 = VECTOR ( 'NONE', #1088, 1000.000000000000000 ) ;
#605 = EDGE_LOOP ( 'NONE', ( #225, #1018, #511, #1046 ) ) ;
#606 = ORIENTED_EDGE ( 'NONE', *, *, #612, .F. ) ;
#607 = VERTEX_POINT ( 'NONE', #813 ) ;
#608 = DIRECTION ( 'NONE',  ( -0.000000000000000000, -0.000000000000000000, -1.000000000000000000 ) ) ;
#609 = ORIENTED_EDGE ( 'NONE', *, *, #1233, .T. ) ;
#610 = CARTESIAN_POINT ( 'NONE',  ( 59.00000000000000000, 0.000000000000000000, 14.83333334333333475 ) ) ;
#611 = DIRECTION ( 'NONE',  ( -1.000000000000000000, 0.000000000000000000, 0.000000000000000000 ) ) ;
#612 = EDGE_CURVE ( 'NONE', #1140, #693, #998, .T. ) ;
#613 = ORIENTED_EDGE ( 'NONE', *, *, #570, .F. ) ;
#614 = VECTOR ( 'NONE', #968, 1000.000000000000000 ) ;
#615 = ORIENTED_EDGE ( 'NONE', *, *, #216, .T. ) ;
#616 = CARTESIAN_POINT ( 'NONE',  ( 0.000000000000000000, 29.00000000000000355, 14.83333334333333475 ) ) ;
#617 = EDGE_LOOP ( 'NONE', ( #17, #643, #752, #1043 ) ) ;
#618 = LINE ( 'NONE', #918, #75 ) ;
#619 = FACE_OUTER_BOUND ( 'NONE', #1235, .T. ) ;
#620 = VECTOR ( 'NONE', #164, 1000.000000000000000 ) ;
#621 = APPLICATION_CONTEXT ( 'automotive_design' ) ;
#622 = VERTEX_POINT ( 'NONE', #521 ) ;
#623 = EDGE_CURVE ( 'NONE', #395, #343, #423, .T. ) ;
#624 = CARTESIAN_POINT ( 'NONE',  ( 1.000000000000003775, 1.210205401168420035E-16, 14.83333334333333475 ) ) ;
#625 = EDGE_LOOP ( 'NONE', ( #449, #187, #505, #504 ) ) ;
#626 = VECTOR ( 'NONE', #272, 1000.000000000000000 ) ;
#627 = DIRECTION ( 'NONE',  ( 0.000000000000000000, 1.000000000000000000, -0.000000000000000000 ) ) ;
#628 = DIRECTION ( 'NONE',  ( -0.000000000000000000, -0.000000000000000000, -1.000000000000000000 ) ) ;
#629 = VECTOR ( 'NONE', #4, 1000.000000000000000 ) ;
#630 = ORIENTED_EDGE ( 'NONE', *, *, #106, .F. ) ;
#631 = EDGE_LOOP ( 'NONE', ( #369, #234, #834, #689 ) ) ;
#632 = DIRECTION ( 'NONE',  ( -0.000000000000000000, -0.000000000000000000, -1.000000000000000000 ) ) ;
#633 = EDGE_CURVE ( 'NONE', #961, #400, #1122, .T. ) ;
#634 = VERTEX_POINT ( 'NONE', #237 ) ;
#635 = EDGE_LOOP ( 'NONE', ( #346, #1240, #247, #795 ) ) ;
#636 = DIRECTION ( 'NONE',  ( -1.000000000000000000, -1.210205401168416090E-16, 0.000000000000000000 ) ) ;
#637 = CARTESIAN_POINT ( 'NONE',  ( 1.000000000000000000, 28.99999999999999289, 0.000000000000000000 ) ) ;
#638 = ORIENTED_EDGE ( 'NONE', *, *, #876, .T. ) ;
#639 = LINE ( 'NONE', #1036, #666 ) ;
#640 = EDGE_LOOP ( 'NONE', ( #444, #407, #206, #515 ) ) ;
#641 = CARTESIAN_POINT ( 'NONE',  ( -3.593355771666242704E-15, 28.99999999999999289, 14.83333334333333475 ) ) ;
#642 = CARTESIAN_POINT ( 'NONE',  ( 31.00000000000000355, 3.841173411091502100E-15, 14.83333334333333475 ) ) ;
#643 = ORIENTED_EDGE ( 'NONE', *, *, #241, .T. ) ;
#644 = DIRECTION ( 'NONE',  ( -1.239088197126291063E-16, 1.000000000000000000, 0.000000000000000000 ) ) ;
#645 = ORIENTED_EDGE ( 'NONE', *, *, #36, .F. ) ;
#646 = DIRECTION ( 'NONE',  ( -0.000000000000000000, -0.000000000000000000, -1.000000000000000000 ) ) ;
#647 = CARTESIAN_POINT ( 'NONE',  ( 0.000000000000000000, 0.000000000000000000, 14.83333334333333475 ) ) ;
#648 = VERTEX_POINT ( 'NONE', #142 ) ;
#649 = ADVANCED_FACE ( 'NONE', ( #1113 ), #408, .F. ) ;
#650 = VERTEX_POINT ( 'NONE', #24 ) ;
#651 = AXIS2_PLACEMENT_3D ( 'NONE', #405, #793, #1100 ) ;
#652 = CARTESIAN_POINT ( 'NONE',  ( 59.00000000000000000, 0.000000000000000000, 0.000000000000000000 ) ) ;
#653 = CARTESIAN_POINT ( 'NONE',  ( 89.00000000000000000, 29.00000000000000355, 0.000000000000000000 ) ) ;
#654 = CARTESIAN_POINT ( 'NONE',  ( -2.787948443534104110E-16, 0.9999999999999822364, 0.000000000000000000 ) ) ;
#655 = ORIENTED_EDGE ( 'NONE', *, *, #1223, .F. ) ;
#656 = EDGE_CURVE ( 'NONE', #726, #552, #529, .T. ) ;
#657 = CARTESIAN_POINT ( 'NONE',  ( 91.00000000000000000, 2.228857174448183167E-14, 14.83333334333333475 ) ) ;
#658 = FACE_OUTER_BOUND ( 'NONE', #1207, .T. ) ;
#659 = DIRECTION ( 'NONE',  ( -4.956352788505164254E-16, 1.000000000000000000, 0.000000000000000000 ) ) ;
#660 = VECTOR ( 'NONE', #1078, 1000.000000000000000 ) ;
#661 = ORIENTED_EDGE ( 'NONE', *, *, #656, .F. ) ;
#662 = VECTOR ( 'NONE', #665, 1000.000000000000000 ) ;
#663 = DIRECTION ( 'NONE',  ( 1.239088197126291063E-16, -1.000000000000000000, 0.000000000000000000 ) ) ;
#664 = EDGE_CURVE ( 'NONE', #163, #45, #923, .T. ) ;
#665 = DIRECTION ( 'NONE',  ( 4.956352788505164254E-16, -1.000000000000000000, 0.000000000000000000 ) ) ;
#666 = VECTOR ( 'NONE', #1063, 1000.000000000000000 ) ;
#667 = ORIENTED_EDGE ( 'NONE', *, *, #1077, .T. ) ;
#668 = VERTEX_POINT ( 'NONE', #537 ) ;
#669 = DIRECTION ( 'NONE',  ( 2.449293598294706907E-16, -1.000000000000000000, 0.000000000000000000 ) ) ;
#670 = LINE ( 'NONE', #959, #180 ) ;
#671 = EDGE_CURVE ( 'NONE', #542, #1134, #51, .T. ) ;
#672 = EDGE_CURVE ( 'NONE', #166, #586, #212, .T. ) ;
#673 = ORIENTED_EDGE ( 'NONE', *, *, #767, .T. ) ;
#674 = DIRECTION ( 'NONE',  ( 1.000000000000000000, 1.292811280976835429E-16, 0.000000000000000000 ) ) ;
#675 =( NAMED_UNIT ( * ) SI_UNIT ( $, .STERADIAN. ) SOLID_ANGLE_UNIT ( ) );
#676 = FACE_BOUND ( 'NONE', #149, .T. ) ;
#677 = VERTEX_POINT ( 'NONE', #1199 ) ;
#678 = AXIS2_PLACEMENT_3D ( 'NONE', #823, #1023, #723 ) ;
#679 = CARTESIAN_POINT ( 'NONE',  ( 3.878433842930505744E-15, -30.00000000000000000, 0.000000000000000000 ) ) ;
#680 = PLANE ( 'NONE',  #527 ) ;
#681 = LINE ( 'NONE', #128, #940 ) ;
#682 = DIRECTION ( 'NONE',  ( -0.000000000000000000, -0.000000000000000000, -1.000000000000000000 ) ) ;
#683 = VECTOR ( 'NONE', #736, 1000.000000000000000 ) ;
#684 = ORIENTED_EDGE ( 'NONE', *, *, #152, .F. ) ;
#685 = DIRECTION ( 'NONE',  ( 1.000000000000000000, -2.888279595787423346E-18, 0.000000000000000000 ) ) ;
#686 = VECTOR ( 'NONE', #1182, 1000.000000000000000 ) ;
#687 = DIRECTION ( 'NONE',  ( 1.000000000000000000, 0.000000000000000000, 0.000000000000000000 ) ) ;
#688 = CARTESIAN_POINT ( 'NONE',  ( 29.00000000000000000, 0.000000000000000000, 14.83333334333333475 ) ) ;
#689 = ORIENTED_EDGE ( 'NONE', *, *, #549, .T. ) ;
#690 = ORIENTED_EDGE ( 'NONE', *, *, #470, .F. ) ;
#691 = EDGE_CURVE ( 'NONE', #705, #1225, #1209, .T. ) ;
#692 = DIRECTION ( 'NONE',  ( -2.759065647576279673E-16, 1.000000000000000000, 0.000000000000000000 ) ) ;
#693 = VERTEX_POINT ( 'NONE', #220 ) ;
#694 = CARTESIAN_POINT ( 'NONE',  ( 31.00000000000000355, 3.841173411091502100E-15, 0.000000000000000000 ) ) ;
#695 = CARTESIAN_POINT ( 'NONE',  ( 31.00000000000000355, 1.000000000000000888, 14.83333334333333475 ) ) ;
#696 = ORIENTED_EDGE ( 'NONE', *, *, #557, .T. ) ;
#697 = CARTESIAN_POINT ( 'NONE',  ( 31.00000000000000355, 1.000000000000000888, 0.000000000000000000 ) ) ;
#698 = ADVANCED_FACE ( 'NONE', ( #323 ), #714, .T. ) ;
#699 = EDGE_CURVE ( 'NONE', #1140, #711, #448, .T. ) ;
#700 = ORIENTED_EDGE ( 'NONE', *, *, #557, .F. ) ;
#701 = CARTESIAN_POINT ( 'NONE',  ( -3.593355771666243492E-15, 28.99999999999999289, 0.000000000000000000 ) ) ;
#702 = CARTESIAN_POINT ( 'NONE',  ( 29.00000000000000000, 1.000000000000000000, 14.83333334333333475 ) ) ;
#703 = VECTOR ( 'NONE', #543, 1000.000000000000000 ) ;
#704 = ORIENTED_EDGE ( 'NONE', *, *, #1120, .F. ) ;
#705 = VERTEX_POINT ( 'NONE', #363 ) ;
#706 = FACE_OUTER_BOUND ( 'NONE', #851, .T. ) ;
#707 = EDGE_LOOP ( 'NONE', ( #882, #178, #438, #1232 ) ) ;
#708 = PLANE ( 'NONE',  #678 ) ;
#709 = LINE ( 'NONE', #100, #1105 ) ;
#710 = AXIS2_PLACEMENT_3D ( 'NONE', #1080, #1178, #195 ) ;
#711 = VERTEX_POINT ( 'NONE', #275 ) ;
#712 = ORIENTED_EDGE ( 'NONE', *, *, #1274, .F. ) ;
#713 = ORIENTED_EDGE ( 'NONE', *, *, #381, .T. ) ;
#714 = PLANE ( 'NONE',  #55 ) ;
#715 = ORIENTED_EDGE ( 'NONE', *, *, #1009, .F. ) ;
#716 = DIRECTION ( 'NONE',  ( -2.787948443534155386E-16, 1.000000000000000000, 0.000000000000000000 ) ) ;
#717 = CARTESIAN_POINT ( 'NONE',  ( 119.0000000000000142, -0.9999999999999863443, 14.83333334333333475 ) ) ;
#718 = VECTOR ( 'NONE', #305, 1000.000000000000000 ) ;
#719 = ORIENTED_EDGE ( 'NONE', *, *, #216, .F. ) ;
#720 = DIRECTION ( 'NONE',  ( -1.000000000000000000, -1.210205401168415844E-16, 0.000000000000000000 ) ) ;
#721 = VECTOR ( 'NONE', #682, 1000.000000000000000 ) ;
#722 = ORIENTED_EDGE ( 'NONE', *, *, #106, .T. ) ;
#723 = DIRECTION ( 'NONE',  ( 1.000000000000000000, 1.210205401168416090E-16, 0.000000000000000000 ) ) ;
#724 = CARTESIAN_POINT ( 'NONE',  ( 0.000000000000000000, 30.00000000000000000, 0.000000000000000000 ) ) ;
#725 = VECTOR ( 'NONE', #53, 1000.000000000000000 ) ;
#726 = VERTEX_POINT ( 'NONE', #749 ) ;
#727 = ORIENTED_EDGE ( 'NONE', *, *, #836, .T. ) ;
#728 = CARTESIAN_POINT ( 'NONE',  ( 119.0000000000000000, 29.00000000000000711, 14.83333334333333475 ) ) ;
#729 = ORIENTED_EDGE ( 'NONE', *, *, #484, .F. ) ;
#730 = VECTOR ( 'NONE', #1237, 1000.000000000000000 ) ;
#731 = CARTESIAN_POINT ( 'NONE',  ( 31.00000000000000000, 28.99999999999999645, 0.000000000000000000 ) ) ;
#732 = FACE_OUTER_BOUND ( 'NONE', #1051, .T. ) ;
#733 = LINE ( 'NONE', #842, #314 ) ;
#734 = ORIENTED_EDGE ( 'NONE', *, *, #261, .F. ) ;
#735 = LINE ( 'NONE', #524, #285 ) ;
#736 = DIRECTION ( 'NONE',  ( 1.000000000000000000, 1.210205401168415844E-16, 0.000000000000000000 ) ) ;
#737 = ORIENTED_EDGE ( 'NONE', *, *, #446, .F. ) ;
#738 = LINE ( 'NONE', #161, #544 ) ;
#739 = ORIENTED_EDGE ( 'NONE', *, *, #170, .T. ) ;
#740 = DIRECTION ( 'NONE',  ( -2.449293598294706907E-16, 1.000000000000000000, 0.000000000000000000 ) ) ;
#741 = PLANE ( 'NONE',  #850 ) ;
#742 = EDGE_CURVE ( 'NONE', #1210, #310, #551, .T. ) ;
#743 = VERTEX_POINT ( 'NONE', #453 ) ;
#744 = CARTESIAN_POINT ( 'NONE',  ( 119.0000000000000142, 1.000000000000015321, 14.83333334333333475 ) ) ;
#745 = FACE_OUTER_BOUND ( 'NONE', #937, .T. ) ;
#746 = FACE_OUTER_BOUND ( 'NONE', #160, .T. ) ;
#747 = EDGE_CURVE ( 'NONE', #213, #33, #639, .T. ) ;
#748 = VERTEX_POINT ( 'NONE', #154 ) ;
#749 = CARTESIAN_POINT ( 'NONE',  ( 59.00000000000000000, -0.9999999999999854561, 14.83333334333333475 ) ) ;
#750 = FACE_OUTER_BOUND ( 'NONE', #790, .T. ) ;
#751 = CARTESIAN_POINT ( 'NONE',  ( 119.0000000000000142, 5.898059818321145383E-14, 14.83333334333333475 ) ) ;
#752 = ORIENTED_EDGE ( 'NONE', *, *, #623, .T. ) ;
#753 = EDGE_CURVE ( 'NONE', #530, #422, #459, .T. ) ;
#754 = LINE ( 'NONE', #1158, #277 ) ;
#755 = DIRECTION ( 'NONE',  ( 1.000000000000000000, 0.000000000000000000, 0.000000000000000000 ) ) ;
#756 = LINE ( 'NONE', #267, #626 ) ;
#757 = ORIENTED_EDGE ( 'NONE', *, *, #454, .T. ) ;
#758 = EDGE_LOOP ( 'NONE', ( #460, #281, #704, #40 ) ) ;
#759 = CARTESIAN_POINT ( 'NONE',  ( 31.00000000000000355, 3.751636743622088919E-15, 14.83333334333333475 ) ) ;
#760 = LINE ( 'NONE', #89, #393 ) ;
#761 = VECTOR ( 'NONE', #571, 1000.000000000000000 ) ;
#762 = EDGE_LOOP ( 'NONE', ( #873, #1219, #499, #238 ) ) ;
#763 = DIRECTION ( 'NONE',  ( 1.239088197126291063E-16, -1.000000000000000000, 0.000000000000000000 ) ) ;
#764 = VECTOR ( 'NONE', #867, 1000.000000000000000 ) ;
#765 = DIRECTION ( 'NONE',  ( -2.507059190210457346E-16, -1.000000000000000000, 0.000000000000000000 ) ) ;
#766 = CARTESIAN_POINT ( 'NONE',  ( 0.000000000000000000, 0.000000000000000000, 0.000000000000000000 ) ) ;
#767 = EDGE_CURVE ( 'NONE', #1210, #972, #738, .T. ) ;
#768 = PLANE ( 'NONE',  #82 ) ;
#769 = ORIENTED_EDGE ( 'NONE', *, *, #854, .T. ) ;
#770 = LINE ( 'NONE', #1181, #383 ) ;
#771 = EDGE_CURVE ( 'NONE', #1134, #860, #754, .T. ) ;
#772 = FACE_BOUND ( 'NONE', #1259, .T. ) ;
#773 = CARTESIAN_POINT ( 'NONE',  ( 2.759065647576284111E-16, -1.000000000000001776, 14.83333334333333475 ) ) ;
#774 = AXIS2_PLACEMENT_3D ( 'NONE', #373, #401, #765 ) ;
#775 = CARTESIAN_POINT ( 'NONE',  ( 3.509595663388404567E-15, -28.99999999999999289, 0.000000000000000000 ) ) ;
#776 = VECTOR ( 'NONE', #41, 1000.000000000000000 ) ;
#777 = LINE ( 'NONE', #577, #228 ) ;
#778 = CARTESIAN_POINT ( 'NONE',  ( 59.00000000000000711, -28.99999999999998934, 14.83333334333333475 ) ) ;
#779 = CARTESIAN_POINT ( 'NONE',  ( 31.00000000000000000, 28.99999999999999645, 14.83333334333333475 ) ) ;
#780 = UNCERTAINTY_MEASURE_WITH_UNIT (LENGTH_MEASURE( 1.000000000000000082E-05 ), #1148, 'distance_accuracy_value', 'NONE');
#781 = AXIS2_PLACEMENT_3D ( 'NONE', #443, #525, #1026 ) ;
#782 = EDGE_LOOP ( 'NONE', ( #690, #568, #1022, #909 ) ) ;
#783 = CARTESIAN_POINT ( 'NONE',  ( 31.00000000000000000, 28.99999999999999645, 14.83333334333333475 ) ) ;
#784 = MECHANICAL_DESIGN_GEOMETRIC_PRESENTATION_REPRESENTATION (  '', ( #466 ), #1149 ) ;
#785 = VERTEX_POINT ( 'NONE', #744 ) ;
#786 = FACE_BOUND ( 'NONE', #77, .T. ) ;
#787 = DIRECTION ( 'NONE',  ( -1.000000000000000000, -1.292811280976835429E-16, 0.000000000000000000 ) ) ;
#788 = VERTEX_POINT ( 'NONE', #1239 ) ;
#789 = DIRECTION ( 'NONE',  ( -0.000000000000000000, -0.000000000000000000, -1.000000000000000000 ) ) ;
#790 = EDGE_LOOP ( 'NONE', ( #1004, #1010, #25, #555 ) ) ;
#791 = CARTESIAN_POINT ( 'NONE',  ( 3.509595663388404567E-15, -28.99999999999999289, 14.83333334333333475 ) ) ;
#792 = DIRECTION ( 'NONE',  ( -2.449293598294706907E-16, 1.000000000000000000, 0.000000000000000000 ) ) ;
#793 = DIRECTION ( 'NONE',  ( -1.000000000000000000, 0.000000000000000000, 0.000000000000000000 ) ) ;
#794 = DIRECTION ( 'NONE',  ( -1.000000000000000000, 3.386548452394484168E-17, 0.000000000000000000 ) ) ;
#795 = ORIENTED_EDGE ( 'NONE', *, *, #13, .T. ) ;
#796 = EDGE_CURVE ( 'NONE', #999, #63, #857, .T. ) ;
#797 = CARTESIAN_POINT ( 'NONE',  ( 1.000000000000000000, 28.99999999999999289, 14.83333334333333475 ) ) ;
#798 = ORIENTED_EDGE ( 'NONE', *, *, #859, .F. ) ;
#799 = CARTESIAN_POINT ( 'NONE',  ( 59.00000000000000000, -0.9999999999999854561, 0.000000000000000000 ) ) ;
#800 = DIRECTION ( 'NONE',  ( 1.000000000000000000, 2.759065647576279673E-16, 0.000000000000000000 ) ) ;
#801 = SURFACE_STYLE_USAGE ( .BOTH. , #989 ) ;
#802 = ORIENTED_EDGE ( 'NONE', *, *, #854, .F. ) ;
#803 = VERTEX_POINT ( 'NONE', #347 ) ;
#804 = DIRECTION ( 'NONE',  ( -0.000000000000000000, -0.000000000000000000, -1.000000000000000000 ) ) ;
#805 = ORIENTED_EDGE ( 'NONE', *, *, #623, .F. ) ;
#806 = EDGE_CURVE ( 'NONE', #705, #803, #465, .T. ) ;
#807 = DIRECTION ( 'NONE',  ( -0.000000000000000000, -0.000000000000000000, -1.000000000000000000 ) ) ;
#808 = VECTOR ( 'NONE', #99, 1000.000000000000000 ) ;
#809 = DIRECTION ( 'NONE',  ( -2.449293598294706907E-16, 1.000000000000000000, 0.000000000000000000 ) ) ;
#810 = VECTOR ( 'NONE', #800, 1000.000000000000000 ) ;
#811 = EDGE_LOOP ( 'NONE', ( #712, #112, #421, #1017 ) ) ;
#812 = VERTEX_POINT ( 'NONE', #256 ) ;
#813 = CARTESIAN_POINT ( 'NONE',  ( 91.00000000000001421, -28.99999999999998579, 0.000000000000000000 ) ) ;
#814 = VERTEX_POINT ( 'NONE', #85 ) ;
#815 = CARTESIAN_POINT ( 'NONE',  ( 89.00000000000000000, -0.9999999999999861222, 14.83333334333333475 ) ) ;
#816 = DIRECTION ( 'NONE',  ( -1.000000000000000000, -1.239088197126290817E-16, 0.000000000000000000 ) ) ;
#817 = ADVANCED_FACE ( 'NONE', ( #962 ), #944, .T. ) ;
#818 = ORIENTED_EDGE ( 'NONE', *, *, #470, .T. ) ;
#819 = VECTOR ( 'NONE', #594, 1000.000000000000000 ) ;
#820 = ORIENTED_EDGE ( 'NONE', *, *, #1021, .F. ) ;
#821 = LINE ( 'NONE', #728, #879 ) ;
#822 = ORIENTED_EDGE ( 'NONE', *, *, #1274, .T. ) ;
#823 = CARTESIAN_POINT ( 'NONE',  ( 3.509595663388405356E-15, -28.99999999999999289, 14.83333334333333475 ) ) ;
#824 = CARTESIAN_POINT ( 'NONE',  ( -0.000000000000000000, 1.000000000000000000, 0.000000000000000000 ) ) ;
#825 = FACE_OUTER_BOUND ( 'NONE', #147, .T. ) ;
#826 = EDGE_LOOP ( 'NONE', ( #1169, #29, #30, #992 ) ) ;
#827 = EDGE_CURVE ( 'NONE', #548, #743, #733, .T. ) ;
#828 = VECTOR ( 'NONE', #957, 1000.000000000000000 ) ;
#829 = DIRECTION ( 'NONE',  ( 1.000000000000000000, 1.239088197126291063E-16, 0.000000000000000000 ) ) ;
#830 = ORIENTED_EDGE ( 'NONE', *, *, #664, .T. ) ;
#831 = LINE ( 'NONE', #610, #177 ) ;
#832 = DIRECTION ( 'NONE',  ( -0.000000000000000000, -0.000000000000000000, -1.000000000000000000 ) ) ;
#833 = PRODUCT_DEFINITION ( 'UNKNOWN', '', #1024, #296 ) ;
#834 = ORIENTED_EDGE ( 'NONE', *, *, #454, .F. ) ;
#835 = ADVANCED_FACE ( 'NONE', ( #66 ), #57, .F. ) ;
#836 = EDGE_CURVE ( 'NONE', #841, #812, #1244, .T. ) ;
#837 = DIRECTION ( 'NONE',  ( 2.507059190210457346E-16, 1.000000000000000000, 0.000000000000000000 ) ) ;
#838 = VERTEX_POINT ( 'NONE', #565 ) ;
#839 = CARTESIAN_POINT ( 'NONE',  ( 3.097720492815732589E-17, 1.000000000000001776, 14.83333334333333475 ) ) ;
#840 = LINE ( 'NONE', #926, #730 ) ;
#841 = VERTEX_POINT ( 'NONE', #936 ) ;
#842 = CARTESIAN_POINT ( 'NONE',  ( 119.0000000000000142, -2.983400436350443808E-14, 0.000000000000000000 ) ) ;
#843 = DIRECTION ( 'NONE',  ( -1.210205401168415844E-16, 1.000000000000000000, 0.000000000000000000 ) ) ;
#844 = EDGE_CURVE ( 'NONE', #1225, #634, #852, .T. ) ;
#845 = AXIS2_PLACEMENT_3D ( 'NONE', #1047, #953, #364 ) ;
#846 = VERTEX_POINT ( 'NONE', #1247 ) ;
#847 = CARTESIAN_POINT ( 'NONE',  ( 0.000000000000000000, 1.000000000000000000, 14.83333334333333475 ) ) ;
#848 = CARTESIAN_POINT ( 'NONE',  ( 120.0000000000000000, 30.00000000000001421, 0.000000000000000000 ) ) ;
#849 = CARTESIAN_POINT ( 'NONE',  ( 119.0000000000000142, 5.898059818321145383E-14, 0.000000000000000000 ) ) ;
#850 = AXIS2_PLACEMENT_3D ( 'NONE', #231, #1221, #930 ) ;
#851 = EDGE_LOOP ( 'NONE', ( #290, #507, #1186, #535 ) ) ;
#852 = LINE ( 'NONE', #263, #496 ) ;
#853 = DIRECTION ( 'NONE',  ( -2.888279595787423346E-18, -1.000000000000000000, 0.000000000000000000 ) ) ;
#854 = EDGE_CURVE ( 'NONE', #1124, #743, #1256, .T. ) ;
#855 = ORIENTED_EDGE ( 'NONE', *, *, #1077, .F. ) ;
#856 = ORIENTED_EDGE ( 'NONE', *, *, #1071, .T. ) ;
#857 = LINE ( 'NONE', #72, #703 ) ;
#858 = CARTESIAN_POINT ( 'NONE',  ( 89.00000000000000000, 1.000000000000007994, 14.83333334333333475 ) ) ;
#859 = EDGE_CURVE ( 'NONE', #422, #400, #358, .T. ) ;
#860 = VERTEX_POINT ( 'NONE', #78 ) ;
#861 = EDGE_CURVE ( 'NONE', #542, #213, #1174, .T. ) ;
#862 = CARTESIAN_POINT ( 'NONE',  ( -3.469446951953614189E-15, 30.00000000000000000, 0.000000000000000000 ) ) ;
#863 = DIRECTION ( 'NONE',  ( 2.888279595787423346E-18, 1.000000000000000000, 0.000000000000000000 ) ) ;
#864 = PLANE ( 'NONE',  #1129 ) ;
#865 = VECTOR ( 'NONE', #1146, 1000.000000000000000 ) ;
#866 = PRODUCT_RELATED_PRODUCT_CATEGORY ( 'part', '', ( #1214 ) ) ;
#867 = DIRECTION ( 'NONE',  ( 1.000000000000000000, -3.097720492815727659E-17, 0.000000000000000000 ) ) ;
#868 = VECTOR ( 'NONE', #191, 1000.000000000000000 ) ;
#869 = EDGE_CURVE ( 'NONE', #961, #999, #184, .T. ) ;
#870 = DIRECTION ( 'NONE',  ( -2.449293598294706907E-16, 1.000000000000000000, 0.000000000000000000 ) ) ;
#871 = DIRECTION ( 'NONE',  ( 1.239088197126291063E-16, -1.000000000000000000, 0.000000000000000000 ) ) ;
#872 = CARTESIAN_POINT ( 'NONE',  ( 119.0000000000000142, -28.99999999999998224, 14.83333334333333475 ) ) ;
#873 = ORIENTED_EDGE ( 'NONE', *, *, #416, .T. ) ;
#874 = LINE ( 'NONE', #982, #764 ) ;
#875 = CARTESIAN_POINT ( 'NONE',  ( -2.787948443534108547E-16, 0.9999999999999833467, 0.000000000000000000 ) ) ;
#876 = EDGE_CURVE ( 'NONE', #1216, #327, #587, .T. ) ;
#877 = DIRECTION ( 'NONE',  ( 1.000000000000000000, 2.449293598294706907E-16, -0.000000000000000000 ) ) ;
#878 = EDGE_CURVE ( 'NONE', #838, #326, #377, .T. ) ;
#879 = VECTOR ( 'NONE', #39, 1000.000000000000000 ) ;
#880 = LINE ( 'NONE', #1007, #108 ) ;
#881 = VECTOR ( 'NONE', #101, 1000.000000000000000 ) ;
#882 = ORIENTED_EDGE ( 'NONE', *, *, #1215, .F. ) ;
#883 = ADVANCED_FACE ( 'NONE', ( #1266 ), #1170, .F. ) ;
#884 = DIRECTION ( 'NONE',  ( 2.449293598294706907E-16, -1.000000000000000000, 0.000000000000000000 ) ) ;
#885 = ORIENTED_EDGE ( 'NONE', *, *, #943, .F. ) ;
#886 = VECTOR ( 'NONE', #636, 1000.000000000000000 ) ;
#887 = CARTESIAN_POINT ( 'NONE',  ( 91.00000000000000000, 29.00000000000000355, 0.000000000000000000 ) ) ;
#888 = CARTESIAN_POINT ( 'NONE',  ( 119.0000000000000000, 29.00000000000000711, 0.000000000000000000 ) ) ;
#889 = DIRECTION ( 'NONE',  ( 0.000000000000000000, 1.000000000000000000, -0.000000000000000000 ) ) ;
#890 = EDGE_CURVE ( 'NONE', #63, #748, #874, .T. ) ;
#891 = EDGE_CURVE ( 'NONE', #1200, #163, #1164, .T. ) ;
#892 = DIRECTION ( 'NONE',  ( -0.000000000000000000, -0.000000000000000000, -1.000000000000000000 ) ) ;
#893 = VERTEX_POINT ( 'NONE', #370 ) ;
#894 = CARTESIAN_POINT ( 'NONE',  ( 59.00000000000000000, 1.000000000000000000, 0.000000000000000000 ) ) ;
#895 = EDGE_LOOP ( 'NONE', ( #467, #15, #976, #715 ) ) ;
#896 = DIRECTION ( 'NONE',  ( -0.000000000000000000, -0.000000000000000000, -1.000000000000000000 ) ) ;
#897 = CARTESIAN_POINT ( 'NONE',  ( 1.000000000000003775, -0.9999999999999997780, 14.83333334333333475 ) ) ;
#898 = PLANE ( 'NONE',  #651 ) ;
#899 = ORIENTED_EDGE ( 'NONE', *, *, #827, .F. ) ;
#900 = ADVANCED_FACE ( 'NONE', ( #92, #480, #1272, #1110, #825, #518, #526, #534, #48 ), #427, .T. ) ;
#901 = ORIENTED_EDGE ( 'NONE', *, *, #1154, .T. ) ;
#902 = EDGE_LOOP ( 'NONE', ( #71, #931, #306, #727 ) ) ;
#903 = LINE ( 'NONE', #342, #988 ) ;
#904 = ORIENTED_EDGE ( 'NONE', *, *, #1071, .F. ) ;
#905 = CARTESIAN_POINT ( 'NONE',  ( -3.593355771666242704E-15, 28.99999999999999289, 14.83333334333333475 ) ) ;
#906 = DIRECTION ( 'NONE',  ( 3.386548452394465679E-17, 1.000000000000000000, -0.000000000000000000 ) ) ;
#907 = FILL_AREA_STYLE ('',( #390 ) ) ;
#908 = VERTEX_POINT ( 'NONE', #232 ) ;
#909 = ORIENTED_EDGE ( 'NONE', *, *, #672, .T. ) ;
#910 = CARTESIAN_POINT ( 'NONE',  ( 59.00000000000000000, 1.445083222993876957E-14, 0.000000000000000000 ) ) ;
#911 = ORIENTED_EDGE ( 'NONE', *, *, #321, .F. ) ;
#912 = FACE_OUTER_BOUND ( 'NONE', #707, .T. ) ;
#913 = LINE ( 'NONE', #1212, #1184 ) ;
#914 = ORIENTED_EDGE ( 'NONE', *, *, #575, .F. ) ;
#915 = VECTOR ( 'NONE', #35, 1000.000000000000000 ) ;
#916 = CARTESIAN_POINT ( 'NONE',  ( 91.00000000000000000, -0.9999999999999852340, 14.83333334333333475 ) ) ;
#917 = ORIENTED_EDGE ( 'NONE', *, *, #174, .F. ) ;
#918 = CARTESIAN_POINT ( 'NONE',  ( 2.449293598294706907E-16, -1.000000000000000000, 14.83333334333333475 ) ) ;
#919 =( GEOMETRIC_REPRESENTATION_CONTEXT ( 3 ) GLOBAL_UNCERTAINTY_ASSIGNED_CONTEXT ( ( #780 ) ) GLOBAL_UNIT_ASSIGNED_CONTEXT ( ( #1148, #182, #675 ) ) REPRESENTATION_CONTEXT ( 'NONE', 'WORKASPACE' ) );
#920 = VECTOR ( 'NONE', #1229, 1000.000000000000000 ) ;
#921 = CARTESIAN_POINT ( 'NONE',  ( 89.00000000000001421, -28.99999999999998579, 14.83333334333333475 ) ) ;
#922 = ORIENTED_EDGE ( 'NONE', *, *, #224, .F. ) ;
#923 = LINE ( 'NONE', #1226, #1163 ) ;
#924 = ORIENTED_EDGE ( 'NONE', *, *, #796, .T. ) ;
#925 = LINE ( 'NONE', #539, #419 ) ;
#926 = CARTESIAN_POINT ( 'NONE',  ( 3.509595663388404567E-15, -28.99999999999999289, 0.000000000000000000 ) ) ;
#927 = CARTESIAN_POINT ( 'NONE',  ( 61.00000000000000711, -28.99999999999998934, 0.000000000000000000 ) ) ;
#928 = ORIENTED_EDGE ( 'NONE', *, *, #174, .T. ) ;
#929 = LINE ( 'NONE', #1032, #886 ) ;
#930 = DIRECTION ( 'NONE',  ( 1.000000000000000000, 1.210205401168415844E-16, 0.000000000000000000 ) ) ;
#931 = ORIENTED_EDGE ( 'NONE', *, *, #348, .F. ) ;
#932 = ADVANCED_FACE ( 'NONE', ( #435 ), #898, .T. ) ;
#933 = EDGE_CURVE ( 'NONE', #622, #365, #1001, .T. ) ;
#934 = ORIENTED_EDGE ( 'NONE', *, *, #869, .F. ) ;
#935 = VECTOR ( 'NONE', #1106, 1000.000000000000000 ) ;
#936 = CARTESIAN_POINT ( 'NONE',  ( 120.0000000000000142, -29.99999999999998579, 14.83333334333333475 ) ) ;
#937 = EDGE_LOOP ( 'NONE', ( #1107, #333, #226, #1255 ) ) ;
#938 = DIRECTION ( 'NONE',  ( 1.210205401168415844E-16, -1.000000000000000000, 0.000000000000000000 ) ) ;
#939 = CARTESIAN_POINT ( 'NONE',  ( 29.00000000000000000, 28.99999999999999645, 0.000000000000000000 ) ) ;
#940 = VECTOR ( 'NONE', #114, 1000.000000000000000 ) ;
#941 = ORIENTED_EDGE ( 'NONE', *, *, #1031, .T. ) ;
#942 = EDGE_CURVE ( 'NONE', #124, #413, #1079, .T. ) ;
#943 = EDGE_CURVE ( 'NONE', #221, #530, #1083, .T. ) ;
#944 = PLANE ( 'NONE',  #158 ) ;
#945 = ORIENTED_EDGE ( 'NONE', *, *, #771, .T. ) ;
#946 = PLANE ( 'NONE',  #1180 ) ;
#947 = EDGE_LOOP ( 'NONE', ( #126, #606, #1062, #21 ) ) ;
#948 = AXIS2_PLACEMENT_3D ( 'NONE', #199, #692, #284 ) ;
#949 = DIRECTION ( 'NONE',  ( 1.000000000000000000, -3.386548452394484168E-17, 0.000000000000000000 ) ) ;
#950 = EDGE_CURVE ( 'NONE', #257, #726, #590, .T. ) ;
#951 = ADVANCED_FACE ( 'NONE', ( #995 ), #987, .T. ) ;
#952 = CLOSED_SHELL ( 'NONE', ( #289, #883, #817, #83, #159, #698, #986, #835, #260, #1098, #579, #319, #1139, #993, #951, #1267, #1173, #932, #335, #900, #116, #1041, #341, #1165, #186, #985, #428, #512, #76, #269, #73, #474, #1027, #1053, #649, #81, #399, #388 ) ) ;
#953 = DIRECTION ( 'NONE',  ( -1.000000000000000000, 0.000000000000000000, 0.000000000000000000 ) ) ;
#954 = DIRECTION ( 'NONE',  ( -1.000000000000000000, -1.210205401168416090E-16, 0.000000000000000000 ) ) ;
#955 = VECTOR ( 'NONE', #546, 1000.000000000000000 ) ;
#956 = ORIENTED_EDGE ( 'NONE', *, *, #1021, .T. ) ;
#957 = DIRECTION ( 'NONE',  ( 0.000000000000000000, 1.000000000000000000, -0.000000000000000000 ) ) ;
#958 = DIRECTION ( 'NONE',  ( -1.000000000000000000, -2.449293598294706907E-16, 0.000000000000000000 ) ) ;
#959 = CARTESIAN_POINT ( 'NONE',  ( 59.00000000000000000, -0.9999999999999854561, 14.83333334333333475 ) ) ;
#960 = AXIS2_PLACEMENT_3D ( 'NONE', #1242, #1133, #809 ) ;
#961 = VERTEX_POINT ( 'NONE', #318 ) ;
#962 = FACE_OUTER_BOUND ( 'NONE', #635, .T. ) ;
#963 = CARTESIAN_POINT ( 'NONE',  ( 29.00000000000000000, 0.000000000000000000, 0.000000000000000000 ) ) ;
#964 = ORIENTED_EDGE ( 'NONE', *, *, #355, .F. ) ;
#965 = DIRECTION ( 'NONE',  ( -0.000000000000000000, -0.000000000000000000, -1.000000000000000000 ) ) ;
#966 = EDGE_CURVE ( 'NONE', #668, #1038, #1275, .T. ) ;
#967 = DIRECTION ( 'NONE',  ( -1.000000000000000000, -4.625929269271485914E-16, 0.000000000000000000 ) ) ;
#968 = DIRECTION ( 'NONE',  ( -0.000000000000000000, -0.000000000000000000, -1.000000000000000000 ) ) ;
#969 = DIRECTION ( 'NONE',  ( -0.000000000000000000, -0.000000000000000000, -1.000000000000000000 ) ) ;
#970 = FACE_OUTER_BOUND ( 'NONE', #1030, .T. ) ;
#971 = EDGE_CURVE ( 'NONE', #213, #860, #709, .T. ) ;
#972 = VERTEX_POINT ( 'NONE', #105 ) ;
#973 = AXIS2_PLACEMENT_3D ( 'NONE', #382, #217, #794 ) ;
#974 = CARTESIAN_POINT ( 'NONE',  ( -0.000000000000000000, 29.00000000000000355, 0.000000000000000000 ) ) ;
#975 = VECTOR ( 'NONE', #1000, 1000.000000000000000 ) ;
#976 = ORIENTED_EDGE ( 'NONE', *, *, #252, .F. ) ;
#977 = EDGE_CURVE ( 'NONE', #648, #124, #681, .T. ) ;
#978 = CARTESIAN_POINT ( 'NONE',  ( 7.102951435054651215E-15, -29.00000000000000355, 14.83333334333333475 ) ) ;
#979 = DIRECTION ( 'NONE',  ( 1.000000000000000000, 2.449293598294706907E-16, -0.000000000000000000 ) ) ;
#980 = CARTESIAN_POINT ( 'NONE',  ( 59.00000000000000000, 1.445083222993876957E-14, 14.83333334333333475 ) ) ;
#981 = SURFACE_STYLE_FILL_AREA ( #907 ) ;
#982 = CARTESIAN_POINT ( 'NONE',  ( 3.097720492815732589E-17, 1.000000000000001776, 14.83333334333333475 ) ) ;
#983 = LINE ( 'NONE', #498, #273 ) ;
#984 = CARTESIAN_POINT ( 'NONE',  ( 91.00000000000000000, 0.000000000000000000, 0.000000000000000000 ) ) ;
#985 = ADVANCED_FACE ( 'NONE', ( #1190 ), #1183, .F. ) ;
#986 = ADVANCED_FACE ( 'NONE', ( #1109 ), #302, .F. ) ;
#987 = PLANE ( 'NONE',  #218 ) ;
#988 = VECTOR ( 'NONE', #1218, 1000.000000000000000 ) ;
#989 = SURFACE_SIDE_STYLE ('',( #981 ) ) ;
#990 = CARTESIAN_POINT ( 'NONE',  ( 120.0000000000000142, 5.551115123125783964E-14, 14.83333334333333475 ) ) ;
#991 = DIRECTION ( 'NONE',  ( 1.000000000000000000, 2.787948443534155386E-16, 0.000000000000000000 ) ) ;
#992 = ORIENTED_EDGE ( 'NONE', *, *, #1156, .T. ) ;
#993 = ADVANCED_FACE ( 'NONE', ( #1097 ), #1008, .T. ) ;
#994 = LINE ( 'NONE', #113, #808 ) ;
#995 = FACE_OUTER_BOUND ( 'NONE', #605, .T. ) ;
#996 = VECTOR ( 'NONE', #118, 1000.000000000000000 ) ;
#997 =( NAMED_UNIT ( * ) SI_UNIT ( $, .STERADIAN. ) SOLID_ANGLE_UNIT ( ) );
#998 = LINE ( 'NONE', #916, #1044 ) ;
#999 = VERTEX_POINT ( 'NONE', #779 ) ;
#1000 = DIRECTION ( 'NONE',  ( -0.000000000000000000, -0.000000000000000000, -1.000000000000000000 ) ) ;
#1001 = LINE ( 'NONE', #62, #1049 ) ;
#1002 = EDGE_LOOP ( 'NONE', ( #696, #917, #964, #856 ) ) ;
#1003 = EDGE_LOOP ( 'NONE', ( #322, #904, #630, #202 ) ) ;
#1004 = ORIENTED_EDGE ( 'NONE', *, *, #372, .T. ) ;
#1005 = DIRECTION ( 'NONE',  ( -0.000000000000000000, -0.000000000000000000, -1.000000000000000000 ) ) ;
#1006 = EDGE_LOOP ( 'NONE', ( #139, #1175, #941, #556 ) ) ;
#1007 = CARTESIAN_POINT ( 'NONE',  ( 29.00000000000000000, 7.102951435054649637E-15, 0.000000000000000000 ) ) ;
#1008 = PLANE ( 'NONE',  #710 ) ;
#1009 = EDGE_CURVE ( 'NONE', #33, #288, #487, .T. ) ;
#1010 = ORIENTED_EDGE ( 'NONE', *, *, #1066, .F. ) ;
#1011 = PRODUCT_DEFINITION_SHAPE ( 'NONE', 'NONE',  #833 ) ;
#1012 = DIRECTION ( 'NONE',  ( -2.787948443534153414E-16, 1.000000000000000000, 0.000000000000000000 ) ) ;
#1013 = VECTOR ( 'NONE', #853, 1000.000000000000000 ) ;
#1014 = ORIENTED_EDGE ( 'NONE', *, *, #109, .T. ) ;
#1015 = DIRECTION ( 'NONE',  ( 2.449293598294706907E-16, -1.000000000000000000, 0.000000000000000000 ) ) ;
#1016 = CARTESIAN_POINT ( 'NONE',  ( 61.00000000000000711, 1.000000000000000222, 14.83333334333333475 ) ) ;
#1017 = ORIENTED_EDGE ( 'NONE', *, *, #1118, .T. ) ;
#1018 = ORIENTED_EDGE ( 'NONE', *, *, #13, .F. ) ;
#1019 = AXIS2_PLACEMENT_3D ( 'NONE', #540, #1048, #426 ) ;
#1020 = DIRECTION ( 'NONE',  ( 1.210205401168415844E-16, -1.000000000000000000, 0.000000000000000000 ) ) ;
#1021 = EDGE_CURVE ( 'NONE', #471, #634, #287, .T. ) ;
#1022 = ORIENTED_EDGE ( 'NONE', *, *, #304, .T. ) ;
#1023 = DIRECTION ( 'NONE',  ( 1.210205401168416090E-16, -1.000000000000000000, 0.000000000000000000 ) ) ;
#1024 = PRODUCT_DEFINITION_FORMATION_WITH_SPECIFIED_SOURCE ( 'ANY', '', #1214, .NOT_KNOWN. ) ;
#1025 = AXIS2_PLACEMENT_3D ( 'NONE', #641, #1039, #417 ) ;
#1026 = DIRECTION ( 'NONE',  ( 2.478176394252581141E-16, -1.000000000000000000, 0.000000000000000000 ) ) ;
#1027 = ADVANCED_FACE ( 'NONE', ( #27 ), #509, .F. ) ;
#1028 = VERTEX_POINT ( 'NONE', #208 ) ;
#1029 = CARTESIAN_POINT ( 'NONE',  ( -3.593355771666243492E-15, 28.99999999999999289, 14.83333334333333475 ) ) ;
#1030 = EDGE_LOOP ( 'NONE', ( #601, #734, #445, #274 ) ) ;
#1031 = EDGE_CURVE ( 'NONE', #893, #1093, #215, .T. ) ;
#1032 = CARTESIAN_POINT ( 'NONE',  ( 3.509595663388405356E-15, -28.99999999999999289, 0.000000000000000000 ) ) ;
#1033 = FACE_OUTER_BOUND ( 'NONE', #522, .T. ) ;
#1034 = EDGE_CURVE ( 'NONE', #586, #471, #397, .T. ) ;
#1035 = ORIENTED_EDGE ( 'NONE', *, *, #567, .T. ) ;
#1036 = CARTESIAN_POINT ( 'NONE',  ( 0.000000000000000000, 1.000000000000000000, 14.83333334333333475 ) ) ;
#1037 = ORIENTED_EDGE ( 'NONE', *, *, #214, .T. ) ;
#1038 = VERTEX_POINT ( 'NONE', #1086 ) ;
#1039 = DIRECTION ( 'NONE',  ( 1.239088197126290817E-16, -1.000000000000000000, 0.000000000000000000 ) ) ;
#1040 = CARTESIAN_POINT ( 'NONE',  ( 29.00000000000000000, -0.9999999999999928946, 14.83333334333333475 ) ) ;
#1041 = ADVANCED_FACE ( 'NONE', ( #597 ), #404, .F. ) ;
#1042 = EDGE_CURVE ( 'NONE', #413, #87, #308, .T. ) ;
#1043 = ORIENTED_EDGE ( 'NONE', *, *, #371, .T. ) ;
#1044 = VECTOR ( 'NONE', #1005, 1000.000000000000000 ) ;
#1045 = CARTESIAN_POINT ( 'NONE',  ( 3.097720492815732589E-17, 1.000000000000001776, 0.000000000000000000 ) ) ;
#1046 = ORIENTED_EDGE ( 'NONE', *, *, #520, .T. ) ;
#1047 = CARTESIAN_POINT ( 'NONE',  ( 0.000000000000000000, 0.000000000000000000, 14.83333334333333475 ) ) ;
#1048 = DIRECTION ( 'NONE',  ( 1.000000000000000000, 0.000000000000000000, -0.000000000000000000 ) ) ;
#1049 = VECTOR ( 'NONE', #554, 1000.000000000000000 ) ;
#1050 = ORIENTED_EDGE ( 'NONE', *, *, #1120, .T. ) ;
#1051 = EDGE_LOOP ( 'NONE', ( #1056, #366, #1264, #50 ) ) ;
#1052 = EDGE_CURVE ( 'NONE', #1142, #893, #54, .T. ) ;
#1053 = ADVANCED_FACE ( 'NONE', ( #254 ), #741, .F. ) ;
#1054 = CARTESIAN_POINT ( 'NONE',  ( 119.0000000000000142, -0.9999999999999863443, 14.83333334333333475 ) ) ;
#1055 = CARTESIAN_POINT ( 'NONE',  ( 2.449293598294706907E-16, -1.000000000000000000, 0.000000000000000000 ) ) ;
#1056 = ORIENTED_EDGE ( 'NONE', *, *, #190, .T. ) ;
#1057 = VECTOR ( 'NONE', #789, 1000.000000000000000 ) ;
#1058 = DIRECTION ( 'NONE',  ( -0.000000000000000000, -0.000000000000000000, -1.000000000000000000 ) ) ;
#1059 = VECTOR ( 'NONE', #892, 1000.000000000000000 ) ;
#1060 = FACE_OUTER_BOUND ( 'NONE', #1224, .T. ) ;
#1061 = VECTOR ( 'NONE', #1220, 1000.000000000000000 ) ;
#1062 = ORIENTED_EDGE ( 'NONE', *, *, #699, .T. ) ;
#1063 = DIRECTION ( 'NONE',  ( 1.000000000000000000, 0.000000000000000000, 0.000000000000000000 ) ) ;
#1064 = LINE ( 'NONE', #1055, #593 ) ;
#1065 = DIRECTION ( 'NONE',  ( 1.000000000000000000, 2.787948443534153414E-16, 0.000000000000000000 ) ) ;
#1066 = EDGE_CURVE ( 'NONE', #1200, #814, #1126, .T. ) ;
#1067 = EDGE_CURVE ( 'NONE', #841, #1093, #325, .T. ) ;
#1068 = ORIENTED_EDGE ( 'NONE', *, *, #890, .F. ) ;
#1069 = PLANE ( 'NONE',  #1227 ) ;
#1070 = DIRECTION ( 'NONE',  ( 1.000000000000000000, 0.000000000000000000, 0.000000000000000000 ) ) ;
#1071 = EDGE_CURVE ( 'NONE', #268, #908, #157, .T. ) ;
#1072 = ORIENTED_EDGE ( 'NONE', *, *, #133, .F. ) ;
#1073 = DIRECTION ( 'NONE',  ( 1.000000000000000000, 0.000000000000000000, 0.000000000000000000 ) ) ;
#1074 = ORIENTED_EDGE ( 'NONE', *, *, #977, .T. ) ;
#1075 = CARTESIAN_POINT ( 'NONE',  ( 61.00000000000000711, -1.761850553430331939E-16, 0.000000000000000000 ) ) ;
#1076 = FACE_BOUND ( 'NONE', #1112, .T. ) ;
#1077 = EDGE_CURVE ( 'NONE', #607, #548, #840, .T. ) ;
#1078 = DIRECTION ( 'NONE',  ( 1.000000000000000000, 2.449293598294706907E-16, 0.000000000000000000 ) ) ;
#1079 = LINE ( 'NONE', #984, #375 ) ;
#1080 = CARTESIAN_POINT ( 'NONE',  ( -3.593355771666243492E-15, 28.99999999999999289, 14.83333334333333475 ) ) ;
#1081 = AXIS2_PLACEMENT_3D ( 'NONE', #1195, #121, #787 ) ;
#1082 = AXIS2_PLACEMENT_3D ( 'NONE', #589, #1270, #286 ) ;
#1083 = LINE ( 'NONE', #694, #1208 ) ;
#1084 = DIRECTION ( 'NONE',  ( -1.210205401168415844E-16, 1.000000000000000000, 0.000000000000000000 ) ) ;
#1085 = FACE_BOUND ( 'NONE', #475, .T. ) ;
#1086 = CARTESIAN_POINT ( 'NONE',  ( 1.000000000000003775, -0.9999999999999997780, 0.000000000000000000 ) ) ;
#1087 = ORIENTED_EDGE ( 'NONE', *, *, #22, .F. ) ;
#1088 = DIRECTION ( 'NONE',  ( -1.000000000000000000, -1.239088197126291063E-16, 0.000000000000000000 ) ) ;
#1089 = CARTESIAN_POINT ( 'NONE',  ( 59.00000000000000000, 29.00000000000000000, 0.000000000000000000 ) ) ;
#1090 = ORIENTED_EDGE ( 'NONE', *, *, #933, .F. ) ;
#1091 = CARTESIAN_POINT ( 'NONE',  ( 0.000000000000000000, 0.000000000000000000, 0.000000000000000000 ) ) ;
#1092 = CARTESIAN_POINT ( 'NONE',  ( 91.00000000000000000, 0.000000000000000000, 14.83333334333333475 ) ) ;
#1093 = VERTEX_POINT ( 'NONE', #145 ) ;
#1094 = CARTESIAN_POINT ( 'NONE',  ( 59.00000000000000000, 1.445083222993876957E-14, 14.83333334333333475 ) ) ;
#1095 = ORIENTED_EDGE ( 'NONE', *, *, #933, .T. ) ;
#1096 = LINE ( 'NONE', #486, #686 ) ;
#1097 = FACE_OUTER_BOUND ( 'NONE', #338, .T. ) ;
#1098 = ADVANCED_FACE ( 'NONE', ( #1033 ), #418, .F. ) ;
#1099 = VECTOR ( 'NONE', #173, 1000.000000000000000 ) ;
#1100 = DIRECTION ( 'NONE',  ( 0.000000000000000000, 0.000000000000000000, 1.000000000000000000 ) ) ;
#1101 = DIRECTION ( 'NONE',  ( -1.000000000000000000, -2.449293598294706907E-16, 0.000000000000000000 ) ) ;
#1102 = EDGE_LOOP ( 'NONE', ( #14, #1072, #129, #1074 ) ) ;
#1103 = ORIENTED_EDGE ( 'NONE', *, *, #437, .T. ) ;
#1104 = EDGE_LOOP ( 'NONE', ( #798, #573, #1037, #37 ) ) ;
#1105 = VECTOR ( 'NONE', #223, 1000.000000000000000 ) ;
#1106 = DIRECTION ( 'NONE',  ( -0.000000000000000000, -0.000000000000000000, -1.000000000000000000 ) ) ;
#1107 = ORIENTED_EDGE ( 'NONE', *, *, #123, .F. ) ;
#1108 = CARTESIAN_POINT ( 'NONE',  ( 31.00000000000000355, 1.000000000000000888, 14.83333334333333475 ) ) ;
#1109 = FACE_OUTER_BOUND ( 'NONE', #1102, .T. ) ;
#1110 = FACE_BOUND ( 'NONE', #895, .T. ) ;
#1111 = ORIENTED_EDGE ( 'NONE', *, *, #23, .T. ) ;
#1112 = EDGE_LOOP ( 'NONE', ( #822, #1151, #1185, #1162 ) ) ;
#1113 = FACE_OUTER_BOUND ( 'NONE', #278, .T. ) ;
#1114 = ORIENTED_EDGE ( 'NONE', *, *, #462, .T. ) ;
#1115 = LINE ( 'NONE', #815, #1061 ) ;
#1116 = DIRECTION ( 'NONE',  ( -4.625929269271485914E-16, 1.000000000000000000, 0.000000000000000000 ) ) ;
#1117 = AXIS2_PLACEMENT_3D ( 'NONE', #291, #1084, #2 ) ;
#1118 = EDGE_CURVE ( 'NONE', #785, #545, #1230, .T. ) ;
#1119 = EDGE_LOOP ( 'NONE', ( #1035, #7, #661, #1246 ) ) ;
#1120 = EDGE_CURVE ( 'NONE', #711, #595, #345, .T. ) ;
#1121 = ORIENTED_EDGE ( 'NONE', *, *, #214, .F. ) ;
#1122 = LINE ( 'NONE', #514, #440 ) ;
#1123 = VECTOR ( 'NONE', #843, 1000.000000000000000 ) ;
#1124 = VERTEX_POINT ( 'NONE', #717 ) ;
#1125 = CARTESIAN_POINT ( 'NONE',  ( -2.787948443534108547E-16, 0.9999999999999833467, 14.83333334333333475 ) ) ;
#1126 = LINE ( 'NONE', #1040, #357 ) ;
#1127 = ORIENTED_EDGE ( 'NONE', *, *, #1254, .F. ) ;
#1128 = EDGE_LOOP ( 'NONE', ( #303, #1161, #722, #402 ) ) ;
#1129 = AXIS2_PLACEMENT_3D ( 'NONE', #751, #469, #659 ) ;
#1130 = PLANE ( 'NONE',  #1 ) ;
#1131 = ORIENTED_EDGE ( 'NONE', *, *, #950, .F. ) ;
#1132 = CARTESIAN_POINT ( 'NONE',  ( 120.0000000000000142, 5.551115123125783964E-14, 0.000000000000000000 ) ) ;
#1133 = DIRECTION ( 'NONE',  ( 1.000000000000000000, 2.449293598294706907E-16, -0.000000000000000000 ) ) ;
#1134 = VERTEX_POINT ( 'NONE', #637 ) ;
#1135 = CARTESIAN_POINT ( 'NONE',  ( -3.593355771666243492E-15, 28.99999999999999289, 14.83333334333333475 ) ) ;
#1136 = ORIENTED_EDGE ( 'NONE', *, *, #1215, .T. ) ;
#1137 = DIRECTION ( 'NONE',  ( -0.000000000000000000, -0.000000000000000000, -1.000000000000000000 ) ) ;
#1138 = PLANE ( 'NONE',  #138 ) ;
#1139 = ADVANCED_FACE ( 'NONE', ( #619 ), #1138, .T. ) ;
#1140 = VERTEX_POINT ( 'NONE', #451 ) ;
#1141 = DIRECTION ( 'NONE',  ( 0.000000000000000000, -0.000000000000000000, 1.000000000000000000 ) ) ;
#1142 = VERTEX_POINT ( 'NONE', #547 ) ;
#1143 = CARTESIAN_POINT ( 'NONE',  ( 61.00000000000000711, 1.000000000000000222, 0.000000000000000000 ) ) ;
#1144 = FACE_OUTER_BOUND ( 'NONE', #762, .T. ) ;
#1145 = VERTEX_POINT ( 'NONE', #939 ) ;
#1146 = DIRECTION ( 'NONE',  ( -0.000000000000000000, -0.000000000000000000, -1.000000000000000000 ) ) ;
#1147 = DIRECTION ( 'NONE',  ( 1.000000000000000000, 2.449293598294706907E-16, 0.000000000000000000 ) ) ;
#1148 =( LENGTH_UNIT ( ) NAMED_UNIT ( * ) SI_UNIT ( .MILLI., .METRE. ) );
#1149 =( GEOMETRIC_REPRESENTATION_CONTEXT ( 3 ) GLOBAL_UNCERTAINTY_ASSIGNED_CONTEXT ( ( #591 ) ) GLOBAL_UNIT_ASSIGNED_CONTEXT ( ( #488, #1205, #997 ) ) REPRESENTATION_CONTEXT ( 'NONE', 'WORKASPACE' ) );
#1150 = VECTOR ( 'NONE', #884, 1000.000000000000000 ) ;
#1151 = ORIENTED_EDGE ( 'NONE', *, *, #1233, .F. ) ;
#1152 = DIRECTION ( 'NONE',  ( -2.478176394252581141E-16, 1.000000000000000000, 0.000000000000000000 ) ) ;
#1153 = CARTESIAN_POINT ( 'NONE',  ( 120.0000000000000000, 30.00000000000001421, 14.83333334333333475 ) ) ;
#1154 = EDGE_CURVE ( 'NONE', #860, #52, #340, .T. ) ;
#1155 = EDGE_LOOP ( 'NONE', ( #922, #1014, #667, #183 ) ) ;
#1156 = EDGE_CURVE ( 'NONE', #846, #471, #42, .T. ) ;
#1157 = VECTOR ( 'NONE', #439, 1000.000000000000000 ) ;
#1158 = CARTESIAN_POINT ( 'NONE',  ( 1.000000000000003775, 1.239088197126295747E-16, 0.000000000000000000 ) ) ;
#1159 = LINE ( 'NONE', #1250, #564 ) ;
#1160 = CARTESIAN_POINT ( 'NONE',  ( 89.00000000000000000, 1.000000000000007994, 0.000000000000000000 ) ) ;
#1161 = ORIENTED_EDGE ( 'NONE', *, *, #656, .T. ) ;
#1162 = ORIENTED_EDGE ( 'NONE', *, *, #942, .F. ) ;
#1163 = VECTOR ( 'NONE', #632, 1000.000000000000000 ) ;
#1164 = LINE ( 'NONE', #102, #1150 ) ;
#1165 = ADVANCED_FACE ( 'NONE', ( #732 ), #61, .F. ) ;
#1166 = DIRECTION ( 'NONE',  ( -1.000000000000000000, -1.210205401168415844E-16, 0.000000000000000000 ) ) ;
#1167 = APPLICATION_PROTOCOL_DEFINITION ( 'draft international standard', 'automotive_design', 1998, #621 ) ;
#1168 = VECTOR ( 'NONE', #11, 1000.000000000000000 ) ;
#1169 = ORIENTED_EDGE ( 'NONE', *, *, #1034, .F. ) ;
#1170 = PLANE ( 'NONE',  #320 ) ;
#1171 = LINE ( 'NONE', #384, #718 ) ;
#1172 = APPLICATION_PROTOCOL_DEFINITION ( 'draft international standard', 'automotive_design', 1998, #561 ) ;
#1173 = ADVANCED_FACE ( 'NONE', ( #1144 ), #259, .F. ) ;
#1174 = LINE ( 'NONE', #576, #265 ) ;
#1175 = ORIENTED_EDGE ( 'NONE', *, *, #598, .F. ) ;
#1176 = PLANE ( 'NONE',  #948 ) ;
#1177 = FACE_BOUND ( 'NONE', #580, .T. ) ;
#1178 = DIRECTION ( 'NONE',  ( 1.239088197126291063E-16, -1.000000000000000000, 0.000000000000000000 ) ) ;
#1179 = LINE ( 'NONE', #297, #721 ) ;
#1180 = AXIS2_PLACEMENT_3D ( 'NONE', #86, #1262, #176 ) ;
#1181 = CARTESIAN_POINT ( 'NONE',  ( 89.00000000000000000, 2.179871302482289108E-14, 14.83333334333333475 ) ) ;
#1182 = DIRECTION ( 'NONE',  ( 1.000000000000000000, 2.787948443534155386E-16, 0.000000000000000000 ) ) ;
#1183 = PLANE ( 'NONE',  #550 ) ;
#1184 = VECTOR ( 'NONE', #816, 1000.000000000000000 ) ;
#1185 = ORIENTED_EDGE ( 'NONE', *, *, #1042, .F. ) ;
#1186 = ORIENTED_EDGE ( 'NONE', *, *, #298, .F. ) ;
#1187 = VECTOR ( 'NONE', #403, 1000.000000000000000 ) ;
#1188 = DIRECTION ( 'NONE',  ( -2.888279595787423346E-18, -1.000000000000000000, 0.000000000000000000 ) ) ;
#1189 = ORIENTED_EDGE ( 'NONE', *, *, #298, .T. ) ;
#1190 = FACE_OUTER_BOUND ( 'NONE', #441, .T. ) ;
#1191 = CARTESIAN_POINT ( 'NONE',  ( -2.787948443534104110E-16, 0.9999999999999822364, 14.83333334333333475 ) ) ;
#1192 = CARTESIAN_POINT ( 'NONE',  ( 29.00000000000000000, 28.99999999999999645, 14.83333334333333475 ) ) ;
#1193 = ORIENTED_EDGE ( 'NONE', *, *, #1118, .F. ) ;
#1194 = CARTESIAN_POINT ( 'NONE',  ( 89.00000000000000000, 1.000000000000007994, 14.83333334333333475 ) ) ;
#1195 = CARTESIAN_POINT ( 'NONE',  ( 3.878433842930505744E-15, -30.00000000000000000, 14.83333334333333475 ) ) ;
#1196 = EDGE_LOOP ( 'NONE', ( #140, #914, #805, #519 ) ) ;
#1197 = ORIENTED_EDGE ( 'NONE', *, *, #22, .T. ) ;
#1198 = ORIENTED_EDGE ( 'NONE', *, *, #371, .F. ) ;
#1199 = CARTESIAN_POINT ( 'NONE',  ( 59.00000000000000711, -28.99999999999998934, 0.000000000000000000 ) ) ;
#1200 = VERTEX_POINT ( 'NONE', #517 ) ;
#1201 = ADVANCED_BREP_SHAPE_REPRESENTATION ( 'Base_02 - LARGE', ( #64, #1252 ), #919 ) ;
#1202 = PLANE ( 'NONE',  #1025 ) ;
#1203 = CARTESIAN_POINT ( 'NONE',  ( 29.00000000000000000, 0.000000000000000000, 14.83333334333333475 ) ) ;
#1204 = AXIS2_PLACEMENT_3D ( 'NONE', #1135, #644, #250 ) ;
#1205 =( NAMED_UNIT ( * ) PLANE_ANGLE_UNIT ( ) SI_UNIT ( $, .RADIAN. ) );
#1206 = ORIENTED_EDGE ( 'NONE', *, *, #742, .F. ) ;
#1207 = EDGE_LOOP ( 'NONE', ( #820, #316, #1114, #31 ) ) ;
#1208 = VECTOR ( 'NONE', #871, 1000.000000000000000 ) ;
#1209 = LINE ( 'NONE', #315, #935 ) ;
#1210 = VERTEX_POINT ( 'NONE', #1016 ) ;
#1211 = CARTESIAN_POINT ( 'NONE',  ( 2.759065647576284111E-16, -1.000000000000001776, 0.000000000000000000 ) ) ;
#1212 = CARTESIAN_POINT ( 'NONE',  ( -3.593355771666242704E-15, 28.99999999999999289, 0.000000000000000000 ) ) ;
#1213 = CARTESIAN_POINT ( 'NONE',  ( 0.000000000000000000, 0.000000000000000000, 14.83333334333333475 ) ) ;
#1214 = PRODUCT ( 'Base_02 - LARGE', 'Base_02 - LARGE', '', ( #165 ) ) ;
#1215 = EDGE_CURVE ( 'NONE', #1145, #1134, #913, .T. ) ;
#1216 = VERTEX_POINT ( 'NONE', #724 ) ;
#1217 = ORIENTED_EDGE ( 'NONE', *, *, #533, .F. ) ;
#1218 = DIRECTION ( 'NONE',  ( -1.210205401168415844E-16, 1.000000000000000000, 0.000000000000000000 ) ) ;
#1219 = ORIENTED_EDGE ( 'NONE', *, *, #361, .F. ) ;
#1220 = DIRECTION ( 'NONE',  ( -0.000000000000000000, -0.000000000000000000, -1.000000000000000000 ) ) ;
#1221 = DIRECTION ( 'NONE',  ( 1.210205401168415844E-16, -1.000000000000000000, 0.000000000000000000 ) ) ;
#1222 = VECTOR ( 'NONE', #1188, 1000.000000000000000 ) ;
#1223 = EDGE_CURVE ( 'NONE', #310, #838, #756, .T. ) ;
#1224 = EDGE_LOOP ( 'NONE', ( #229, #414, #452, #279 ) ) ;
#1225 = VERTEX_POINT ( 'NONE', #478 ) ;
#1226 = CARTESIAN_POINT ( 'NONE',  ( 29.00000000000000711, -28.99999999999998934, 14.83333334333333475 ) ) ;
#1227 = AXIS2_PLACEMENT_3D ( 'NONE', #169, #740, #74 ) ;
#1228 = EDGE_LOOP ( 'NONE', ( #409, #673, #1189, #131 ) ) ;
#1229 = DIRECTION ( 'NONE',  ( 1.000000000000000000, -3.386548452394465063E-17, 0.000000000000000000 ) ) ;
#1230 = LINE ( 'NONE', #532, #1248 ) ;
#1231 = VECTOR ( 'NONE', #168, 1000.000000000000000 ) ;
#1232 = ORIENTED_EDGE ( 'NONE', *, *, #671, .T. ) ;
#1233 = EDGE_CURVE ( 'NONE', #87, #545, #374, .T. ) ;
#1234 = DIRECTION ( 'NONE',  ( -0.000000000000000000, -0.000000000000000000, -1.000000000000000000 ) ) ;
#1235 = EDGE_LOOP ( 'NONE', ( #885, #146, #924, #463 ) ) ;
#1236 = LINE ( 'NONE', #1132, #264 ) ;
#1237 = DIRECTION ( 'NONE',  ( 1.000000000000000000, 1.210205401168415844E-16, 0.000000000000000000 ) ) ;
#1238 = VERTEX_POINT ( 'NONE', #1160 ) ;
#1239 = CARTESIAN_POINT ( 'NONE',  ( 31.00000000000000355, -0.9999999999999933387, 0.000000000000000000 ) ) ;
#1240 = ORIENTED_EDGE ( 'NONE', *, *, #971, .F. ) ;
#1241 = CARTESIAN_POINT ( 'NONE',  ( 0.000000000000000000, 29.00000000000000355, 14.83333334333333475 ) ) ;
#1242 = CARTESIAN_POINT ( 'NONE',  ( 29.00000000000000000, 7.102951435054649637E-15, 14.83333334333333475 ) ) ;
#1243 = EDGE_LOOP ( 'NONE', ( #1217, #1206, #541, #391 ) ) ;
#1244 = LINE ( 'NONE', #353, #865 ) ;
#1245 = LINE ( 'NONE', #1153, #620 ) ;
#1246 = ORIENTED_EDGE ( 'NONE', *, *, #1254, .T. ) ;
#1247 = CARTESIAN_POINT ( 'NONE',  ( 89.00000000000001421, -28.99999999999998579, 14.83333334333333475 ) ) ;
#1248 = VECTOR ( 'NONE', #832, 1000.000000000000000 ) ;
#1249 = ORIENTED_EDGE ( 'NONE', *, *, #806, .T. ) ;
#1250 = CARTESIAN_POINT ( 'NONE',  ( 61.00000000000000000, 29.00000000000000355, 14.83333334333333475 ) ) ;
#1251 = DIRECTION ( 'NONE',  ( 4.956352788505164254E-16, -1.000000000000000000, 0.000000000000000000 ) ) ;
#1252 = AXIS2_PLACEMENT_3D ( 'NONE', #766, #360, #1070 ) ;
#1253 = VECTOR ( 'NONE', #896, 1000.000000000000000 ) ;
#1254 = EDGE_CURVE ( 'NONE', #726, #219, #670, .T. ) ;
#1255 = ORIENTED_EDGE ( 'NONE', *, *, #598, .T. ) ;
#1256 = LINE ( 'NONE', #1054, #1231 ) ;
#1257 = DIRECTION ( 'NONE',  ( 3.097720492815727659E-17, 1.000000000000000000, -0.000000000000000000 ) ) ;
#1258 = SHAPE_DEFINITION_REPRESENTATION ( #1011, #1201 ) ;
#1259 = EDGE_LOOP ( 'NONE', ( #336, #59, #153, #655 ) ) ;
#1260 = ORIENTED_EDGE ( 'NONE', *, *, #844, .F. ) ;
#1261 = DIRECTION ( 'NONE',  ( 0.000000000000000000, 1.000000000000000000, 0.000000000000000000 ) ) ;
#1262 = DIRECTION ( 'NONE',  ( -1.156482317317871478E-16, 1.000000000000000000, 0.000000000000000000 ) ) ;
#1263 = EDGE_CURVE ( 'NONE', #163, #622, #760, .T. ) ;
#1264 = ORIENTED_EDGE ( 'NONE', *, *, #891, .F. ) ;
#1265 = VECTOR ( 'NONE', #804, 1000.000000000000000 ) ;
#1266 = FACE_OUTER_BOUND ( 'NONE', #902, .T. ) ;
#1267 = ADVANCED_FACE ( 'NONE', ( #746 ), #864, .F. ) ;
#1268 = PLANE ( 'NONE',  #774 ) ;
#1269 = LINE ( 'NONE', #654, #569 ) ;
#1270 = DIRECTION ( 'NONE',  ( 1.000000000000000000, 1.239088197126291063E-16, -0.000000000000000000 ) ) ;
#1271 = AXIS2_PLACEMENT_3D ( 'NONE', #1092, #387, #380 ) ;
#1272 = FACE_BOUND ( 'NONE', #617, .T. ) ;
#1273 = CARTESIAN_POINT ( 'NONE',  ( 89.00000000000000000, 0.000000000000000000, 0.000000000000000000 ) ) ;
#1274 = EDGE_CURVE ( 'NONE', #124, #545, #1269, .T. ) ;
#1275 = LINE ( 'NONE', #897, #975 ) ;
ENDSEC;
END-ISO-10303-21;
