ISO-10303-21;
HEADER;
FILE_DESCRIPTION (( 'STEP AP214' ),
    '1' );
FILE_NAME ('Base_fond_02 - LARGE.STEP',
    '2025-07-24T19:55:47',
    ( '' ),
    ( '' ),
    'SwSTEP 2.0',
    'SolidWorks 2024',
    '' );
FILE_SCHEMA (( 'AUTOMOTIVE_DESIGN' ));
ENDSEC;

DATA;
#1 = LINE ( 'NONE', #723, #547 ) ;
#2 = CARTESIAN_POINT ( 'NONE',  ( 119.0000000000000142, -2.983400436350443808E-14, 14.83333334333333475 ) ) ;
#3 = FACE_OUTER_BOUND ( 'NONE', #978, .T. ) ;
#4 = VERTEX_POINT ( 'NONE', #703 ) ;
#5 = ADVANCED_FACE ( 'NONE', ( #190 ), #930, .T. ) ;
#6 = VERTEX_POINT ( 'NONE', #908 ) ;
#7 = PLANE ( 'NONE',  #586 ) ;
#8 = VECTOR ( 'NONE', #35, 1000.000000000000000 ) ;
#9 = AXIS2_PLACEMENT_3D ( 'NONE', #541, #106, #16 ) ;
#10 = DIRECTION ( 'NONE',  ( -0.000000000000000000, -0.000000000000000000, -1.000000000000000000 ) ) ;
#11 = ORIENTED_EDGE ( 'NONE', *, *, #1059, .T. ) ;
#12 = DIRECTION ( 'NONE',  ( -1.000000000000000000, 0.000000000000000000, 0.000000000000000000 ) ) ;
#13 = PLANE ( 'NONE',  #115 ) ;
#14 = ORIENTED_EDGE ( 'NONE', *, *, #851, .T. ) ;
#15 = ADVANCED_FACE ( 'NONE', ( #597 ), #121, .T. ) ;
#16 = DIRECTION ( 'NONE',  ( 2.888279595787423346E-18, 1.000000000000000000, 0.000000000000000000 ) ) ;
#17 = PLANE ( 'NONE',  #114 ) ;
#18 = DIRECTION ( 'NONE',  ( -2.449293598294706907E-16, 1.000000000000000000, 0.000000000000000000 ) ) ;
#19 = ORIENTED_EDGE ( 'NONE', *, *, #149, .F. ) ;
#20 = CARTESIAN_POINT ( 'NONE',  ( 0.000000000000000000, 0.000000000000000000, 14.83333334333333475 ) ) ;
#21 = LINE ( 'NONE', #1025, #924 ) ;
#22 = ORIENTED_EDGE ( 'NONE', *, *, #1285, .F. ) ;
#23 = VERTEX_POINT ( 'NONE', #821 ) ;
#24 = DIRECTION ( 'NONE',  ( 1.000000000000000000, 2.759065647576279673E-16, 0.000000000000000000 ) ) ;
#25 = EDGE_CURVE ( 'NONE', #82, #1039, #450, .T. ) ;
#26 = CARTESIAN_POINT ( 'NONE',  ( 1.000000000000000000, 28.99999999999999289, 14.83333334333333475 ) ) ;
#27 = ORIENTED_EDGE ( 'NONE', *, *, #202, .T. ) ;
#28 = FACE_BOUND ( 'NONE', #1172, .T. ) ;
#29 = CARTESIAN_POINT ( 'NONE',  ( 29.00000000000000000, 7.102951435054649637E-15, 0.000000000000000000 ) ) ;
#30 = ORIENTED_EDGE ( 'NONE', *, *, #755, .F. ) ;
#31 = LINE ( 'NONE', #639, #444 ) ;
#32 = VERTEX_POINT ( 'NONE', #38 ) ;
#33 = EDGE_CURVE ( 'NONE', #415, #473, #843, .T. ) ;
#34 = AXIS2_PLACEMENT_3D ( 'NONE', #1189, #61, #560 ) ;
#35 = DIRECTION ( 'NONE',  ( -1.210205401168415844E-16, 1.000000000000000000, 0.000000000000000000 ) ) ;
#36 = DIRECTION ( 'NONE',  ( 1.000000000000000000, 0.000000000000000000, 0.000000000000000000 ) ) ;
#37 = VECTOR ( 'NONE', #735, 1000.000000000000000 ) ;
#38 = CARTESIAN_POINT ( 'NONE',  ( 1.000000000000000000, 28.99999999999999289, 0.000000000000000000 ) ) ;
#39 = AXIS2_PLACEMENT_3D ( 'NONE', #247, #1046, #448 ) ;
#40 = ORIENTED_EDGE ( 'NONE', *, *, #722, .T. ) ;
#41 = DIRECTION ( 'NONE',  ( 2.449293598294706907E-16, -1.000000000000000000, 0.000000000000000000 ) ) ;
#42 = DIRECTION ( 'NONE',  ( -0.000000000000000000, -0.000000000000000000, -1.000000000000000000 ) ) ;
#43 = ADVANCED_FACE ( 'NONE', ( #937 ), #128, .F. ) ;
#44 = DIRECTION ( 'NONE',  ( 1.000000000000000000, 2.449293598294706907E-16, -0.000000000000000000 ) ) ;
#45 = EDGE_CURVE ( 'NONE', #686, #1129, #225, .T. ) ;
#46 = ORIENTED_EDGE ( 'NONE', *, *, #865, .T. ) ;
#47 = EDGE_LOOP ( 'NONE', ( #1296, #1036, #343, #589 ) ) ;
#48 = LINE ( 'NONE', #1168, #242 ) ;
#49 = PLANE ( 'NONE',  #879 ) ;
#50 = ORIENTED_EDGE ( 'NONE', *, *, #967, .F. ) ;
#51 = ADVANCED_FACE ( 'NONE', ( #1250 ), #944, .T. ) ;
#52 = ORIENTED_EDGE ( 'NONE', *, *, #1249, .F. ) ;
#53 = DIRECTION ( 'NONE',  ( -0.000000000000000000, -0.000000000000000000, -1.000000000000000000 ) ) ;
#54 = VECTOR ( 'NONE', #126, 1000.000000000000000 ) ;
#55 = VECTOR ( 'NONE', #548, 1000.000000000000000 ) ;
#56 = FACE_OUTER_BOUND ( 'NONE', #1019, .T. ) ;
#57 = EDGE_LOOP ( 'NONE', ( #46, #117, #407, #583 ) ) ;
#58 = AXIS2_PLACEMENT_3D ( 'NONE', #676, #779, #587 ) ;
#59 = EDGE_CURVE ( 'NONE', #182, #328, #1145, .T. ) ;
#60 = VERTEX_POINT ( 'NONE', #134 ) ;
#61 = DIRECTION ( 'NONE',  ( -1.000000000000000000, 0.000000000000000000, 0.000000000000000000 ) ) ;
#62 = CARTESIAN_POINT ( 'NONE',  ( 91.00000000000000000, 29.00000000000000355, 0.000000000000000000 ) ) ;
#63 = DIRECTION ( 'NONE',  ( -2.888279595787423346E-18, -1.000000000000000000, 0.000000000000000000 ) ) ;
#64 = ORIENTED_EDGE ( 'NONE', *, *, #842, .F. ) ;
#65 = EDGE_LOOP ( 'NONE', ( #514, #697, #869, #620 ) ) ;
#66 = ORIENTED_EDGE ( 'NONE', *, *, #716, .F. ) ;
#67 = DIRECTION ( 'NONE',  ( -2.449293598294706907E-16, 1.000000000000000000, 0.000000000000000000 ) ) ;
#68 = DIRECTION ( 'NONE',  ( 0.000000000000000000, 0.000000000000000000, 1.000000000000000000 ) ) ;
#69 = ORIENTED_EDGE ( 'NONE', *, *, #1304, .T. ) ;
#70 = EDGE_LOOP ( 'NONE', ( #593, #1011, #249, #840 ) ) ;
#71 = CARTESIAN_POINT ( 'NONE',  ( 89.00000000000000000, 2.179871302482289108E-14, 14.83333334333333475 ) ) ;
#72 = LINE ( 'NONE', #481, #790 ) ;
#73 = CARTESIAN_POINT ( 'NONE',  ( 29.00000000000000711, -28.99999999999998934, 0.000000000000000000 ) ) ;
#74 = VECTOR ( 'NONE', #1127, 1000.000000000000000 ) ;
#75 = ORIENTED_EDGE ( 'NONE', *, *, #996, .F. ) ;
#76 = VECTOR ( 'NONE', #83, 1000.000000000000000 ) ;
#77 = DIRECTION ( 'NONE',  ( -1.000000000000000000, -1.239088197126290817E-16, 0.000000000000000000 ) ) ;
#78 = CARTESIAN_POINT ( 'NONE',  ( 61.00000000000000711, -0.9999999999999852340, 14.83333334333333475 ) ) ;
#79 = LINE ( 'NONE', #368, #712 ) ;
#80 = ORIENTED_EDGE ( 'NONE', *, *, #503, .T. ) ;
#81 = ADVANCED_FACE ( 'NONE', ( #231 ), #545, .T. ) ;
#82 = VERTEX_POINT ( 'NONE', #927 ) ;
#83 = DIRECTION ( 'NONE',  ( 1.000000000000000000, -3.386548452394465063E-17, 0.000000000000000000 ) ) ;
#84 = CARTESIAN_POINT ( 'NONE',  ( 1.000000000000003775, 1.239088197126295747E-16, 14.83333334333333475 ) ) ;
#85 = FACE_OUTER_BOUND ( 'NONE', #99, .T. ) ;
#86 = ORIENTED_EDGE ( 'NONE', *, *, #571, .F. ) ;
#87 = EDGE_CURVE ( 'NONE', #369, #32, #622, .T. ) ;
#88 = DIRECTION ( 'NONE',  ( -0.000000000000000000, -0.000000000000000000, -1.000000000000000000 ) ) ;
#89 = CARTESIAN_POINT ( 'NONE',  ( 119.0000000000000142, 5.898059818321145383E-14, 0.000000000000000000 ) ) ;
#90 = FACE_OUTER_BOUND ( 'NONE', #1012, .T. ) ;
#91 = ORIENTED_EDGE ( 'NONE', *, *, #59, .F. ) ;
#92 = AXIS2_PLACEMENT_3D ( 'NONE', #920, #1040, #12 ) ;
#93 = ADVANCED_FACE ( 'NONE', ( #1222 ), #313, .F. ) ;
#94 = VECTOR ( 'NONE', #594, 1000.000000000000000 ) ;
#95 = CARTESIAN_POINT ( 'NONE',  ( 29.00000000000000000, 1.000000000000000000, 0.000000000000000000 ) ) ;
#96 = CARTESIAN_POINT ( 'NONE',  ( 91.00000000000000000, -0.9999999999999852340, 14.83333334333333475 ) ) ;
#97 = PLANE ( 'NONE',  #1288 ) ;
#98 = DIRECTION ( 'NONE',  ( 1.000000000000000000, 1.239088197126291063E-16, -0.000000000000000000 ) ) ;
#99 = EDGE_LOOP ( 'NONE', ( #993, #807, #1084, #1146 ) ) ;
#100 = CARTESIAN_POINT ( 'NONE',  ( -3.386548452394404666E-17, -0.9999999999999822364, 14.83333334333333475 ) ) ;
#101 = CARTESIAN_POINT ( 'NONE',  ( 31.00000000000000355, 1.000000000000000888, 14.83333334333333475 ) ) ;
#102 = EDGE_CURVE ( 'NONE', #1197, #542, #215, .T. ) ;
#103 =( NAMED_UNIT ( * ) SI_UNIT ( $, .STERADIAN. ) SOLID_ANGLE_UNIT ( ) );
#104 = CARTESIAN_POINT ( 'NONE',  ( 0.000000000000000000, 0.000000000000000000, 0.000000000000000000 ) ) ;
#105 = EDGE_LOOP ( 'NONE', ( #1151, #966, #69, #825 ) ) ;
#106 = DIRECTION ( 'NONE',  ( 1.000000000000000000, -2.888279595787423346E-18, 0.000000000000000000 ) ) ;
#107 = LINE ( 'NONE', #729, #118 ) ;
#108 = VERTEX_POINT ( 'NONE', #1098 ) ;
#109 = DIRECTION ( 'NONE',  ( 1.000000000000000000, -3.097720492815727659E-17, 0.000000000000000000 ) ) ;
#110 = EDGE_CURVE ( 'NONE', #1294, #540, #917, .T. ) ;
#111 = DIRECTION ( 'NONE',  ( 4.625929269271485914E-16, -1.000000000000000000, 0.000000000000000000 ) ) ;
#112 = VERTEX_POINT ( 'NONE', #504 ) ;
#113 = DIRECTION ( 'NONE',  ( 1.000000000000000000, 2.449293598294706907E-16, 0.000000000000000000 ) ) ;
#114 = AXIS2_PLACEMENT_3D ( 'NONE', #268, #577, #156 ) ;
#115 = AXIS2_PLACEMENT_3D ( 'NONE', #893, #324, #111 ) ;
#116 = DIRECTION ( 'NONE',  ( 2.449293598294706907E-16, -1.000000000000000000, 0.000000000000000000 ) ) ;
#117 = ORIENTED_EDGE ( 'NONE', *, *, #1174, .F. ) ;
#118 = VECTOR ( 'NONE', #10, 1000.000000000000000 ) ;
#119 = FACE_BOUND ( 'NONE', #280, .T. ) ;
#120 = APPLICATION_PROTOCOL_DEFINITION ( 'draft international standard', 'automotive_design', 1998, #515 ) ;
#121 = PLANE ( 'NONE',  #568 ) ;
#122 = ORIENTED_EDGE ( 'NONE', *, *, #776, .T. ) ;
#123 = PLANE ( 'NONE',  #1159 ) ;
#124 = FACE_OUTER_BOUND ( 'NONE', #656, .T. ) ;
#125 = ORIENTED_EDGE ( 'NONE', *, *, #510, .T. ) ;
#126 = DIRECTION ( 'NONE',  ( 1.239088197126291063E-16, -1.000000000000000000, 0.000000000000000000 ) ) ;
#127 = CARTESIAN_POINT ( 'NONE',  ( 119.0000000000000000, 29.00000000000000711, 14.83333334333333475 ) ) ;
#128 = PLANE ( 'NONE',  #527 ) ;
#129 = ORIENTED_EDGE ( 'NONE', *, *, #716, .T. ) ;
#130 = PLANE ( 'NONE',  #1248 ) ;
#131 = ADVANCED_FACE ( 'NONE', ( #222 ), #194, .F. ) ;
#132 = ORIENTED_EDGE ( 'NONE', *, *, #955, .F. ) ;
#133 = CARTESIAN_POINT ( 'NONE',  ( 89.00000000000000000, -0.9999999999999861222, 0.000000000000000000 ) ) ;
#134 = CARTESIAN_POINT ( 'NONE',  ( 31.00000000000000355, -0.9999999999999933387, 0.000000000000000000 ) ) ;
#135 = EDGE_LOOP ( 'NONE', ( #623, #1155, #11, #562 ) ) ;
#136 = CARTESIAN_POINT ( 'NONE',  ( 59.00000000000000000, 0.000000000000000000, 14.83333334333333475 ) ) ;
#137 = EDGE_CURVE ( 'NONE', #855, #542, #708, .T. ) ;
#138 = VECTOR ( 'NONE', #619, 1000.000000000000000 ) ;
#139 = LINE ( 'NONE', #447, #835 ) ;
#140 =( NAMED_UNIT ( * ) SI_UNIT ( $, .STERADIAN. ) SOLID_ANGLE_UNIT ( ) );
#141 = VECTOR ( 'NONE', #408, 1000.000000000000000 ) ;
#142 = AXIS2_PLACEMENT_3D ( 'NONE', #738, #827, #36 ) ;
#143 = AXIS2_PLACEMENT_3D ( 'NONE', #528, #958, #580 ) ;
#144 = ORIENTED_EDGE ( 'NONE', *, *, #25, .T. ) ;
#145 = CARTESIAN_POINT ( 'NONE',  ( 120.0000000000000142, -29.99999999999998579, 14.83333334333333475 ) ) ;
#146 = VERTEX_POINT ( 'NONE', #1031 ) ;
#147 = CARTESIAN_POINT ( 'NONE',  ( -3.593355771666242704E-15, 28.99999999999999289, 0.000000000000000000 ) ) ;
#148 = DIRECTION ( 'NONE',  ( 1.000000000000000000, 1.239088197126290817E-16, 0.000000000000000000 ) ) ;
#149 = EDGE_CURVE ( 'NONE', #1192, #1096, #809, .T. ) ;
#150 = ORIENTED_EDGE ( 'NONE', *, *, #704, .F. ) ;
#151 = ORIENTED_EDGE ( 'NONE', *, *, #87, .F. ) ;
#152 = LINE ( 'NONE', #957, #178 ) ;
#153 = EDGE_CURVE ( 'NONE', #679, #23, #203, .T. ) ;
#154 = PLANE ( 'NONE',  #1202 ) ;
#155 = ORIENTED_EDGE ( 'NONE', *, *, #551, .F. ) ;
#156 = DIRECTION ( 'NONE',  ( -1.000000000000000000, 0.000000000000000000, 0.000000000000000000 ) ) ;
#157 = ORIENTED_EDGE ( 'NONE', *, *, #1126, .T. ) ;
#158 = LINE ( 'NONE', #567, #604 ) ;
#159 = MECHANICAL_DESIGN_GEOMETRIC_PRESENTATION_REPRESENTATION (  '', ( #711 ), #897 ) ;
#160 = VECTOR ( 'NONE', #1142, 1000.000000000000000 ) ;
#161 = LINE ( 'NONE', #569, #960 ) ;
#162 = VERTEX_POINT ( 'NONE', #96 ) ;
#163 = EDGE_CURVE ( 'NONE', #582, #565, #1021, .T. ) ;
#164 = DIRECTION ( 'NONE',  ( -0.000000000000000000, -0.000000000000000000, -1.000000000000000000 ) ) ;
#165 = LINE ( 'NONE', #469, #1199 ) ;
#166 = CARTESIAN_POINT ( 'NONE',  ( 1.000000000000003553, 1.000000000000000000, 14.83333334333333475 ) ) ;
#167 = ORIENTED_EDGE ( 'NONE', *, *, #434, .F. ) ;
#168 = ORIENTED_EDGE ( 'NONE', *, *, #690, .T. ) ;
#169 = ADVANCED_FACE ( 'NONE', ( #124 ), #609, .F. ) ;
#170 = CARTESIAN_POINT ( 'NONE',  ( 119.0000000000000000, 29.00000000000000711, 0.000000000000000000 ) ) ;
#171 = CARTESIAN_POINT ( 'NONE',  ( 29.00000000000000000, 0.000000000000000000, 14.83333334333333475 ) ) ;
#172 = PLANE ( 'NONE',  #651 ) ;
#173 = ORIENTED_EDGE ( 'NONE', *, *, #149, .T. ) ;
#174 = ORIENTED_EDGE ( 'NONE', *, *, #235, .T. ) ;
#175 = LINE ( 'NONE', #187, #94 ) ;
#176 = DIRECTION ( 'NONE',  ( -0.000000000000000000, -0.000000000000000000, -1.000000000000000000 ) ) ;
#177 = FACE_OUTER_BOUND ( 'NONE', #57, .T. ) ;
#178 = VECTOR ( 'NONE', #468, 1000.000000000000000 ) ;
#179 = ORIENTED_EDGE ( 'NONE', *, *, #191, .F. ) ;
#180 = AXIS2_PLACEMENT_3D ( 'NONE', #1176, #1279, #68 ) ;
#181 = AXIS2_PLACEMENT_3D ( 'NONE', #1150, #1054, #148 ) ;
#182 = VERTEX_POINT ( 'NONE', #911 ) ;
#183 = CARTESIAN_POINT ( 'NONE',  ( 1.000000000000003553, 1.000000000000000000, 0.000000000000000000 ) ) ;
#184 = EDGE_CURVE ( 'NONE', #108, #348, #1, .T. ) ;
#185 = PLANE ( 'NONE',  #395 ) ;
#186 = ORIENTED_EDGE ( 'NONE', *, *, #513, .T. ) ;
#187 = CARTESIAN_POINT ( 'NONE',  ( 0.000000000000000000, 29.00000000000000355, 14.83333334333333475 ) ) ;
#188 = SURFACE_SIDE_STYLE ('',( #1204 ) ) ;
#189 = FACE_OUTER_BOUND ( 'NONE', #931, .T. ) ;
#190 = FACE_OUTER_BOUND ( 'NONE', #612, .T. ) ;
#191 = EDGE_CURVE ( 'NONE', #679, #1178, #632, .T. ) ;
#192 = EDGE_LOOP ( 'NONE', ( #1160, #216, #643, #155 ) ) ;
#193 = LINE ( 'NONE', #600, #500 ) ;
#194 = PLANE ( 'NONE',  #1243 ) ;
#195 = CARTESIAN_POINT ( 'NONE',  ( 119.0000000000000142, 5.898059818321145383E-14, 14.83333334333333475 ) ) ;
#196 = CARTESIAN_POINT ( 'NONE',  ( -2.787948443534104110E-16, 0.9999999999999822364, 14.83333334333333475 ) ) ;
#197 = VECTOR ( 'NONE', #732, 1000.000000000000000 ) ;
#198 = ORIENTED_EDGE ( 'NONE', *, *, #663, .T. ) ;
#199 = VECTOR ( 'NONE', #670, 1000.000000000000000 ) ;
#200 = VECTOR ( 'NONE', #700, 1000.000000000000000 ) ;
#201 = DIRECTION ( 'NONE',  ( -0.000000000000000000, -0.000000000000000000, -1.000000000000000000 ) ) ;
#202 = EDGE_CURVE ( 'NONE', #162, #1091, #535, .T. ) ;
#203 = LINE ( 'NONE', #804, #441 ) ;
#204 = DIRECTION ( 'NONE',  ( 1.000000000000000000, 1.239088197126291063E-16, -0.000000000000000000 ) ) ;
#205 = ORIENTED_EDGE ( 'NONE', *, *, #383, .F. ) ;
#206 = ORIENTED_EDGE ( 'NONE', *, *, #413, .F. ) ;
#207 = LINE ( 'NONE', #614, #160 ) ;
#208 = EDGE_CURVE ( 'NONE', #1206, #1314, #327, .T. ) ;
#209 = DIRECTION ( 'NONE',  ( -0.000000000000000000, -0.000000000000000000, -1.000000000000000000 ) ) ;
#210 = ORIENTED_EDGE ( 'NONE', *, *, #1102, .F. ) ;
#211 = DIRECTION ( 'NONE',  ( -0.000000000000000000, -0.000000000000000000, -1.000000000000000000 ) ) ;
#212 = LINE ( 'NONE', #1018, #336 ) ;
#213 = ORIENTED_EDGE ( 'NONE', *, *, #865, .F. ) ;
#214 = LINE ( 'NONE', #425, #754 ) ;
#215 = LINE ( 'NONE', #830, #446 ) ;
#216 = ORIENTED_EDGE ( 'NONE', *, *, #339, .F. ) ;
#217 = CARTESIAN_POINT ( 'NONE',  ( 119.0000000000000142, -0.9999999999999863443, 14.83333334333333475 ) ) ;
#218 = EDGE_LOOP ( 'NONE', ( #1263, #335, #888, #1238 ) ) ;
#219 = FACE_OUTER_BOUND ( 'NONE', #616, .T. ) ;
#220 = VECTOR ( 'NONE', #463, 1000.000000000000000 ) ;
#221 = AXIS2_PLACEMENT_3D ( 'NONE', #575, #970, #475 ) ;
#222 = FACE_OUTER_BOUND ( 'NONE', #1171, .T. ) ;
#223 = ORIENTED_EDGE ( 'NONE', *, *, #652, .F. ) ;
#224 = DIRECTION ( 'NONE',  ( 3.097720492815727659E-17, 1.000000000000000000, -0.000000000000000000 ) ) ;
#225 = LINE ( 'NONE', #636, #259 ) ;
#226 = EDGE_CURVE ( 'NONE', #686, #836, #107, .T. ) ;
#227 = ORIENTED_EDGE ( 'NONE', *, *, #776, .F. ) ;
#228 = DIRECTION ( 'NONE',  ( -1.000000000000000000, 0.000000000000000000, 0.000000000000000000 ) ) ;
#229 = VERTEX_POINT ( 'NONE', #419 ) ;
#230 = FACE_BOUND ( 'NONE', #325, .T. ) ;
#231 = FACE_OUTER_BOUND ( 'NONE', #1016, .T. ) ;
#232 = EDGE_LOOP ( 'NONE', ( #959, #971, #633, #295 ) ) ;
#233 = ADVANCED_FACE ( 'NONE', ( #817 ), #1228, .T. ) ;
#234 = LINE ( 'NONE', #332, #605 ) ;
#235 = EDGE_CURVE ( 'NONE', #733, #229, #758, .T. ) ;
#236 = ORIENTED_EDGE ( 'NONE', *, *, #389, .T. ) ;
#237 = PLANE ( 'NONE',  #1158 ) ;
#238 =( LENGTH_UNIT ( ) NAMED_UNIT ( * ) SI_UNIT ( .MILLI., .METRE. ) );
#239 = ORIENTED_EDGE ( 'NONE', *, *, #163, .T. ) ;
#240 = LINE ( 'NONE', #145, #837 ) ;
#241 = ADVANCED_FACE ( 'NONE', ( #56 ), #1292, .F. ) ;
#242 = VECTOR ( 'NONE', #682, 1000.000000000000000 ) ;
#243 = CARTESIAN_POINT ( 'NONE',  ( -3.386548452394404666E-17, -0.9999999999999822364, 0.000000000000000000 ) ) ;
#244 = ORIENTED_EDGE ( 'NONE', *, *, #33, .F. ) ;
#245 = VECTOR ( 'NONE', #201, 1000.000000000000000 ) ;
#246 = DIRECTION ( 'NONE',  ( -0.000000000000000000, -0.000000000000000000, -1.000000000000000000 ) ) ;
#247 = CARTESIAN_POINT ( 'NONE',  ( -3.386548452394428701E-17, -0.9999999999999833467, 14.83333334333333475 ) ) ;
#248 = EDGE_LOOP ( 'NONE', ( #50, #167, #901, #322 ) ) ;
#249 = ORIENTED_EDGE ( 'NONE', *, *, #282, .T. ) ;
#250 = ADVANCED_FACE ( 'NONE', ( #660 ), #969, .T. ) ;
#251 = CARTESIAN_POINT ( 'NONE',  ( 31.00000000000000355, 3.751636743622088919E-15, 14.83333334333333475 ) ) ;
#252 = DIRECTION ( 'NONE',  ( -1.210205401168415844E-16, 1.000000000000000000, 0.000000000000000000 ) ) ;
#253 = ORIENTED_EDGE ( 'NONE', *, *, #872, .F. ) ;
#254 = CARTESIAN_POINT ( 'NONE',  ( 61.00000000000000711, 1.511687600494074664E-14, 0.000000000000000000 ) ) ;
#255 = CARTESIAN_POINT ( 'NONE',  ( 120.0000000000000000, -30.00000000000000000, -1.000000000000000000 ) ) ;
#256 = EDGE_CURVE ( 'NONE', #32, #831, #1190, .T. ) ;
#257 = ORIENTED_EDGE ( 'NONE', *, *, #339, .T. ) ;
#258 = ORIENTED_EDGE ( 'NONE', *, *, #844, .F. ) ;
#259 = VECTOR ( 'NONE', #834, 1000.000000000000000 ) ;
#260 = PLANE ( 'NONE',  #34 ) ;
#261 = VECTOR ( 'NONE', #1045, 1000.000000000000000 ) ;
#262 = VECTOR ( 'NONE', #1315, 1000.000000000000000 ) ;
#263 = CARTESIAN_POINT ( 'NONE',  ( 2.449293598294706907E-16, -1.000000000000000000, 0.000000000000000000 ) ) ;
#264 = CARTESIAN_POINT ( 'NONE',  ( -2.787948443534108547E-16, 0.9999999999999833467, 0.000000000000000000 ) ) ;
#265 = ORIENTED_EDGE ( 'NONE', *, *, #366, .T. ) ;
#266 = VECTOR ( 'NONE', #766, 1000.000000000000000 ) ;
#267 = ADVANCED_FACE ( 'NONE', ( #773 ), #154, .F. ) ;
#268 = CARTESIAN_POINT ( 'NONE',  ( 0.000000000000000000, 0.000000000000000000, 0.000000000000000000 ) ) ;
#269 = DIRECTION ( 'NONE',  ( 1.000000000000000000, 2.449293598294706907E-16, -0.000000000000000000 ) ) ;
#270 = DIRECTION ( 'NONE',  ( 2.478176394252581141E-16, -1.000000000000000000, 0.000000000000000000 ) ) ;
#271 = CARTESIAN_POINT ( 'NONE',  ( 119.0000000000000142, -28.99999999999998224, 14.83333334333333475 ) ) ;
#272 = EDGE_LOOP ( 'NONE', ( #743, #151, #546, #941 ) ) ;
#273 = EDGE_CURVE ( 'NONE', #679, #855, #1082, .T. ) ;
#274 = CARTESIAN_POINT ( 'NONE',  ( -3.593355771666243492E-15, 28.99999999999999289, 14.83333334333333475 ) ) ;
#275 = ADVANCED_FACE ( 'NONE', ( #1063 ), #1075, .F. ) ;
#276 = FACE_OUTER_BOUND ( 'NONE', #65, .T. ) ;
#277 = DIRECTION ( 'NONE',  ( 1.239088197126291063E-16, -1.000000000000000000, 0.000000000000000000 ) ) ;
#278 = PLANE ( 'NONE',  #180 ) ;
#279 = ORIENTED_EDGE ( 'NONE', *, *, #455, .F. ) ;
#280 = EDGE_LOOP ( 'NONE', ( #1055, #150, #606, #179 ) ) ;
#281 = DIRECTION ( 'NONE',  ( 1.000000000000000000, 1.210205401168416090E-16, 0.000000000000000000 ) ) ;
#282 = EDGE_CURVE ( 'NONE', #1280, #375, #487, .T. ) ;
#283 = FILL_AREA_STYLE_COLOUR ( '', #1308 ) ;
#284 = LINE ( 'NONE', #983, #311 ) ;
#285 = PRESENTATION_LAYER_ASSIGNMENT (  '', '', ( #711 ) ) ;
#286 = EDGE_LOOP ( 'NONE', ( #988, #52, #1061, #1251 ) ) ;
#287 = VECTOR ( 'NONE', #992, 1000.000000000000000 ) ;
#288 = VECTOR ( 'NONE', #626, 1000.000000000000000 ) ;
#289 = ORIENTED_EDGE ( 'NONE', *, *, #292, .T. ) ;
#290 = AXIS2_PLACEMENT_3D ( 'NONE', #373, #861, #683 ) ;
#291 = DIRECTION ( 'NONE',  ( 1.210205401168416090E-16, -1.000000000000000000, 0.000000000000000000 ) ) ;
#292 = EDGE_CURVE ( 'NONE', #540, #406, #465, .T. ) ;
#293 = CARTESIAN_POINT ( 'NONE',  ( 59.00000000000000000, 0.000000000000000000, 0.000000000000000000 ) ) ;
#294 = DIRECTION ( 'NONE',  ( -4.956352788505164254E-16, 1.000000000000000000, 0.000000000000000000 ) ) ;
#295 = ORIENTED_EDGE ( 'NONE', *, *, #310, .T. ) ;
#296 = EDGE_LOOP ( 'NONE', ( #928, #598, #553, #661 ) ) ;
#297 = PLANE ( 'NONE',  #1107 ) ;
#298 = DIRECTION ( 'NONE',  ( 4.956352788505164254E-16, -1.000000000000000000, 0.000000000000000000 ) ) ;
#299 = PLANE ( 'NONE',  #480 ) ;
#300 = ORIENTED_EDGE ( 'NONE', *, *, #806, .T. ) ;
#301 = EDGE_CURVE ( 'NONE', #1230, #1254, #1164, .T. ) ;
#302 = ORIENTED_EDGE ( 'NONE', *, *, #652, .T. ) ;
#303 = CARTESIAN_POINT ( 'NONE',  ( 3.509595663388405356E-15, -28.99999999999999289, 14.83333334333333475 ) ) ;
#304 = DIRECTION ( 'NONE',  ( 1.000000000000000000, 2.449293598294706907E-16, -0.000000000000000000 ) ) ;
#305 = DIRECTION ( 'NONE',  ( 2.507059190210457346E-16, 1.000000000000000000, 0.000000000000000000 ) ) ;
#306 = FACE_OUTER_BOUND ( 'NONE', #272, .T. ) ;
#307 = ORIENTED_EDGE ( 'NONE', *, *, #59, .T. ) ;
#308 = VECTOR ( 'NONE', #349, 1000.000000000000000 ) ;
#309 = VERTEX_POINT ( 'NONE', #1058 ) ;
#310 = EDGE_CURVE ( 'NONE', #1178, #489, #1278, .T. ) ;
#311 = VECTOR ( 'NONE', #677, 1000.000000000000000 ) ;
#312 = DIRECTION ( 'NONE',  ( -1.000000000000000000, -2.449293598294706907E-16, 0.000000000000000000 ) ) ;
#313 = PLANE ( 'NONE',  #666 ) ;
#314 = UNCERTAINTY_MEASURE_WITH_UNIT (LENGTH_MEASURE( 1.000000000000000082E-05 ), #1318, 'distance_accuracy_value', 'NONE');
#315 = CARTESIAN_POINT ( 'NONE',  ( 1.000000000000000000, 28.99999999999999289, 14.83333334333333475 ) ) ;
#316 = CARTESIAN_POINT ( 'NONE',  ( 89.00000000000000000, 0.000000000000000000, 14.83333334333333475 ) ) ;
#317 = VERTEX_POINT ( 'NONE', #255 ) ;
#318 = EDGE_LOOP ( 'NONE', ( #501, #1165, #781, #236 ) ) ;
#319 = LINE ( 'NONE', #829, #37 ) ;
#320 = EDGE_CURVE ( 'NONE', #685, #1230, #161, .T. ) ;
#321 = CARTESIAN_POINT ( 'NONE',  ( 1.000000000000003775, 1.210205401168420035E-16, 14.83333334333333475 ) ) ;
#322 = ORIENTED_EDGE ( 'NONE', *, *, #282, .F. ) ;
#323 = LINE ( 'NONE', #725, #74 ) ;
#324 = DIRECTION ( 'NONE',  ( -1.000000000000000000, -4.625929269271485914E-16, 0.000000000000000000 ) ) ;
#325 = EDGE_LOOP ( 'NONE', ( #1213, #951, #477, #524 ) ) ;
#326 = CARTESIAN_POINT ( 'NONE',  ( 2.449293598294706907E-16, -1.000000000000000000, 14.83333334333333475 ) ) ;
#327 = LINE ( 'NONE', #615, #691 ) ;
#328 = VERTEX_POINT ( 'NONE', #62 ) ;
#329 = EDGE_CURVE ( 'NONE', #1096, #741, #165, .T. ) ;
#330 = CARTESIAN_POINT ( 'NONE',  ( 29.00000000000000711, -28.99999999999998934, 14.83333334333333475 ) ) ;
#331 = VERTEX_POINT ( 'NONE', #1175 ) ;
#332 = CARTESIAN_POINT ( 'NONE',  ( 3.509595663388404567E-15, -28.99999999999999289, 0.000000000000000000 ) ) ;
#333 = AXIS2_PLACEMENT_3D ( 'NONE', #868, #780, #671 ) ;
#334 = DIRECTION ( 'NONE',  ( 1.000000000000000000, -3.386548452394484168E-17, 0.000000000000000000 ) ) ;
#335 = ORIENTED_EDGE ( 'NONE', *, *, #1249, .T. ) ;
#336 = VECTOR ( 'NONE', #1034, 1000.000000000000000 ) ;
#337 = VECTOR ( 'NONE', #717, 1000.000000000000000 ) ;
#338 = FACE_OUTER_BOUND ( 'NONE', #400, .T. ) ;
#339 = EDGE_CURVE ( 'NONE', #1219, #82, #976, .T. ) ;
#340 = CARTESIAN_POINT ( 'NONE',  ( 59.00000000000000000, 0.000000000000000000, 14.83333334333333475 ) ) ;
#341 = ORIENTED_EDGE ( 'NONE', *, *, #967, .T. ) ;
#342 = CARTESIAN_POINT ( 'NONE',  ( 120.0000000000000000, 30.00000000000001421, -1.000000000000000000 ) ) ;
#343 = ORIENTED_EDGE ( 'NONE', *, *, #153, .F. ) ;
#344 = CARTESIAN_POINT ( 'NONE',  ( -0.000000000000000000, 1.000000000000000000, 0.000000000000000000 ) ) ;
#345 = ORIENTED_EDGE ( 'NONE', *, *, #815, .F. ) ;
#346 = EDGE_CURVE ( 'NONE', #713, #730, #72, .T. ) ;
#347 = DIRECTION ( 'NONE',  ( -1.000000000000000000, -1.156482317317871478E-16, 0.000000000000000000 ) ) ;
#348 = VERTEX_POINT ( 'NONE', #574 ) ;
#349 = DIRECTION ( 'NONE',  ( 0.000000000000000000, 1.000000000000000000, -0.000000000000000000 ) ) ;
#350 = ORIENTED_EDGE ( 'NONE', *, *, #87, .T. ) ;
#351 = EDGE_CURVE ( 'NONE', #730, #733, #397, .T. ) ;
#352 = VECTOR ( 'NONE', #211, 1000.000000000000000 ) ;
#353 = ORIENTED_EDGE ( 'NONE', *, *, #371, .F. ) ;
#354 = VECTOR ( 'NONE', #948, 1000.000000000000000 ) ;
#355 = LINE ( 'NONE', #579, #1179 ) ;
#356 = CARTESIAN_POINT ( 'NONE',  ( 119.0000000000000142, 1.000000000000015321, 14.83333334333333475 ) ) ;
#357 =( GEOMETRIC_REPRESENTATION_CONTEXT ( 3 ) GLOBAL_UNCERTAINTY_ASSIGNED_CONTEXT ( ( #1229 ) ) GLOBAL_UNIT_ASSIGNED_CONTEXT ( ( #238, #438, #140 ) ) REPRESENTATION_CONTEXT ( 'NONE', 'WORKASPACE' ) );
#358 = DIRECTION ( 'NONE',  ( -1.000000000000000000, -2.478176394252581141E-16, 0.000000000000000000 ) ) ;
#359 = ORIENTED_EDGE ( 'NONE', *, *, #989, .F. ) ;
#360 = ORIENTED_EDGE ( 'NONE', *, *, #1187, .F. ) ;
#361 = EDGE_CURVE ( 'NONE', #909, #1234, #1001, .T. ) ;
#362 = DIRECTION ( 'NONE',  ( 1.000000000000000000, 1.239088197126291063E-16, 0.000000000000000000 ) ) ;
#363 = CARTESIAN_POINT ( 'NONE',  ( -2.787948443534108547E-16, 0.9999999999999833467, 14.83333334333333475 ) ) ;
#364 = ORIENTED_EDGE ( 'NONE', *, *, #381, .T. ) ;
#365 = FACE_OUTER_BOUND ( 'NONE', #801, .T. ) ;
#366 = EDGE_CURVE ( 'NONE', #1294, #82, #718, .T. ) ;
#367 = DIRECTION ( 'NONE',  ( 0.000000000000000000, -1.000000000000000000, 0.000000000000000000 ) ) ;
#368 = CARTESIAN_POINT ( 'NONE',  ( 61.00000000000000711, -1.761850553430331939E-16, 0.000000000000000000 ) ) ;
#369 = VERTEX_POINT ( 'NONE', #315 ) ;
#370 = CARTESIAN_POINT ( 'NONE',  ( 120.0000000000000000, 30.00000000000001421, -1.000000000000000000 ) ) ;
#371 = EDGE_CURVE ( 'NONE', #1302, #657, #410, .T. ) ;
#372 = VECTOR ( 'NONE', #805, 1000.000000000000000 ) ;
#373 = CARTESIAN_POINT ( 'NONE',  ( 2.449293598294706907E-16, -1.000000000000000000, 14.83333334333333475 ) ) ;
#374 = LINE ( 'NONE', #774, #525 ) ;
#375 = VERTEX_POINT ( 'NONE', #505 ) ;
#376 = LINE ( 'NONE', #485, #1026 ) ;
#377 = PLANE ( 'NONE',  #998 ) ;
#378 = CARTESIAN_POINT ( 'NONE',  ( -3.593355771666243492E-15, 28.99999999999999289, 0.000000000000000000 ) ) ;
#379 = FACE_OUTER_BOUND ( 'NONE', #768, .T. ) ;
#380 = ORIENTED_EDGE ( 'NONE', *, *, #1037, .F. ) ;
#381 = EDGE_CURVE ( 'NONE', #1129, #576, #1195, .T. ) ;
#382 = ORIENTED_EDGE ( 'NONE', *, *, #389, .F. ) ;
#383 = EDGE_CURVE ( 'NONE', #112, #1096, #811, .T. ) ;
#384 = CARTESIAN_POINT ( 'NONE',  ( 7.347880794884119933E-15, -30.00000000000000000, 14.83333334333333475 ) ) ;
#385 = LINE ( 'NONE', #892, #649 ) ;
#386 = DIRECTION ( 'NONE',  ( -2.759065647576279673E-16, 1.000000000000000000, 0.000000000000000000 ) ) ;
#387 = ORIENTED_EDGE ( 'NONE', *, *, #872, .T. ) ;
#388 = ORIENTED_EDGE ( 'NONE', *, *, #1180, .T. ) ;
#389 = EDGE_CURVE ( 'NONE', #1129, #653, #1089, .T. ) ;
#390 = DIRECTION ( 'NONE',  ( -0.000000000000000000, -0.000000000000000000, -1.000000000000000000 ) ) ;
#391 = DIRECTION ( 'NONE',  ( -0.000000000000000000, -0.000000000000000000, -1.000000000000000000 ) ) ;
#392 = CARTESIAN_POINT ( 'NONE',  ( 61.00000000000000000, 29.00000000000000355, 0.000000000000000000 ) ) ;
#393 = VECTOR ( 'NONE', #492, 1000.000000000000000 ) ;
#394 = VERTEX_POINT ( 'NONE', #618 ) ;
#395 = AXIS2_PLACEMENT_3D ( 'NONE', #554, #386, #1196 ) ;
#396 = CARTESIAN_POINT ( 'NONE',  ( 119.0000000000000000, 29.00000000000000711, 14.83333334333333475 ) ) ;
#397 = LINE ( 'NONE', #293, #564 ) ;
#398 = CARTESIAN_POINT ( 'NONE',  ( 31.00000000000000355, 3.841173411091502100E-15, 14.83333334333333475 ) ) ;
#399 = ORIENTED_EDGE ( 'NONE', *, *, #755, .T. ) ;
#400 = EDGE_LOOP ( 'NONE', ( #22, #1207, #935, #1117 ) ) ;
#401 = DIRECTION ( 'NONE',  ( -2.507059190210457346E-16, -1.000000000000000000, 0.000000000000000000 ) ) ;
#402 = DIRECTION ( 'NONE',  ( 1.000000000000000000, 0.000000000000000000, 0.000000000000000000 ) ) ;
#403 = DIRECTION ( 'NONE',  ( -1.000000000000000000, 3.386548452394465679E-17, 0.000000000000000000 ) ) ;
#404 = EDGE_CURVE ( 'NONE', #582, #713, #1017, .T. ) ;
#405 = LINE ( 'NONE', #611, #734 ) ;
#406 = VERTEX_POINT ( 'NONE', #784 ) ;
#407 = ORIENTED_EDGE ( 'NONE', *, *, #1052, .F. ) ;
#408 = DIRECTION ( 'NONE',  ( -0.000000000000000000, -0.000000000000000000, -1.000000000000000000 ) ) ;
#409 = DIRECTION ( 'NONE',  ( -2.478176394252581141E-16, 1.000000000000000000, 0.000000000000000000 ) ) ;
#410 = LINE ( 'NONE', #195, #499 ) ;
#411 = LINE ( 'NONE', #1218, #791 ) ;
#412 = DIRECTION ( 'NONE',  ( 0.000000000000000000, 1.000000000000000000, 0.000000000000000000 ) ) ;
#413 = EDGE_CURVE ( 'NONE', #909, #685, #519, .T. ) ;
#414 = VECTOR ( 'NONE', #929, 1000.000000000000000 ) ;
#415 = VERTEX_POINT ( 'NONE', #1298 ) ;
#416 = VECTOR ( 'NONE', #873, 1000.000000000000000 ) ;
#417 = ADVANCED_FACE ( 'NONE', ( #602 ), #97, .F. ) ;
#418 = CARTESIAN_POINT ( 'NONE',  ( 91.00000000000000000, 0.000000000000000000, 14.83333334333333475 ) ) ;
#419 = CARTESIAN_POINT ( 'NONE',  ( 31.00000000000000000, 28.99999999999999645, 0.000000000000000000 ) ) ;
#420 = ORIENTED_EDGE ( 'NONE', *, *, #235, .F. ) ;
#421 = LINE ( 'NONE', #1231, #8 ) ;
#422 = CARTESIAN_POINT ( 'NONE',  ( 89.00000000000001421, -28.99999999999998579, 0.000000000000000000 ) ) ;
#423 = DIRECTION ( 'NONE',  ( -1.000000000000000000, -2.787948443534153414E-16, 0.000000000000000000 ) ) ;
#424 = ORIENTED_EDGE ( 'NONE', *, *, #832, .T. ) ;
#425 = CARTESIAN_POINT ( 'NONE',  ( 31.00000000000000355, -0.9999999999999933387, 14.83333334333333475 ) ) ;
#426 = EDGE_CURVE ( 'NONE', #613, #558, #792, .T. ) ;
#427 = DIRECTION ( 'NONE',  ( -0.000000000000000000, 0.000000000000000000, -1.000000000000000000 ) ) ;
#428 = VERTEX_POINT ( 'NONE', #709 ) ;
#429 = CARTESIAN_POINT ( 'NONE',  ( 3.097720492815732589E-17, 1.000000000000001776, 14.83333334333333475 ) ) ;
#430 = CARTESIAN_POINT ( 'NONE',  ( 0.000000000000000000, 1.000000000000000000, 14.83333334333333475 ) ) ;
#431 = EDGE_LOOP ( 'NONE', ( #769, #360, #484, #559 ) ) ;
#432 = MANIFOLD_SOLID_BREP ( 'Boss.-Extru.2', #1177 ) ;
#433 = DIRECTION ( 'NONE',  ( -0.000000000000000000, 0.000000000000000000, -1.000000000000000000 ) ) ;
#434 = EDGE_CURVE ( 'NONE', #369, #428, #986, .T. ) ;
#435 = CARTESIAN_POINT ( 'NONE',  ( 59.00000000000000000, 1.445083222993876957E-14, 14.83333334333333475 ) ) ;
#436 = ORIENTED_EDGE ( 'NONE', *, *, #933, .T. ) ;
#437 = DIRECTION ( 'NONE',  ( 1.000000000000000000, 0.000000000000000000, 0.000000000000000000 ) ) ;
#438 =( NAMED_UNIT ( * ) PLANE_ANGLE_UNIT ( ) SI_UNIT ( $, .RADIAN. ) );
#439 = DIRECTION ( 'NONE',  ( -0.000000000000000000, 0.000000000000000000, -1.000000000000000000 ) ) ;
#440 = ORIENTED_EDGE ( 'NONE', *, *, #740, .F. ) ;
#441 = VECTOR ( 'NONE', #601, 1000.000000000000000 ) ;
#442 = FACE_OUTER_BOUND ( 'NONE', #570, .T. ) ;
#443 = VECTOR ( 'NONE', #246, 1000.000000000000000 ) ;
#444 = VECTOR ( 'NONE', #24, 1000.000000000000000 ) ;
#445 = ORIENTED_EDGE ( 'NONE', *, *, #895, .T. ) ;
#446 = VECTOR ( 'NONE', #18, 1000.000000000000000 ) ;
#447 = CARTESIAN_POINT ( 'NONE',  ( 3.509595663388405356E-15, -28.99999999999999289, 0.000000000000000000 ) ) ;
#448 = DIRECTION ( 'NONE',  ( -1.000000000000000000, 3.386548452394484168E-17, 0.000000000000000000 ) ) ;
#449 = EDGE_CURVE ( 'NONE', #1091, #836, #385, .T. ) ;
#450 = LINE ( 'NONE', #29, #197 ) ;
#451 = ORIENTED_EDGE ( 'NONE', *, *, #1044, .T. ) ;
#452 = FACE_OUTER_BOUND ( 'NONE', #665, .T. ) ;
#453 = ORIENTED_EDGE ( 'NONE', *, *, #45, .F. ) ;
#454 = DIRECTION ( 'NONE',  ( 2.449293598294706907E-16, -1.000000000000000000, 0.000000000000000000 ) ) ;
#455 = EDGE_CURVE ( 'NONE', #850, #32, #1135, .T. ) ;
#456 = ORIENTED_EDGE ( 'NONE', *, *, #797, .T. ) ;
#457 = DIRECTION ( 'NONE',  ( -1.000000000000000000, -1.210205401168415844E-16, 0.000000000000000000 ) ) ;
#458 = DIRECTION ( 'NONE',  ( -1.000000000000000000, -1.210205401168415844E-16, 0.000000000000000000 ) ) ;
#459 = FACE_OUTER_BOUND ( 'NONE', #47, .T. ) ;
#460 = ORIENTED_EDGE ( 'NONE', *, *, #974, .F. ) ;
#461 = VECTOR ( 'NONE', #744, 1000.000000000000000 ) ;
#462 = VECTOR ( 'NONE', #1161, 1000.000000000000000 ) ;
#463 = DIRECTION ( 'NONE',  ( 1.000000000000000000, 2.449293598294706907E-16, 0.000000000000000000 ) ) ;
#464 = VECTOR ( 'NONE', #1132, 1000.000000000000000 ) ;
#465 = LINE ( 'NONE', #1275, #1109 ) ;
#466 = ORIENTED_EDGE ( 'NONE', *, *, #903, .F. ) ;
#467 = ADVANCED_FACE ( 'NONE', ( #338 ), #1255, .T. ) ;
#468 = DIRECTION ( 'NONE',  ( 2.449293598294706907E-16, -1.000000000000000000, 0.000000000000000000 ) ) ;
#469 = CARTESIAN_POINT ( 'NONE',  ( 89.00000000000000000, 0.000000000000000000, 0.000000000000000000 ) ) ;
#470 = CARTESIAN_POINT ( 'NONE',  ( 61.00000000000000711, 1.000000000000000222, 14.83333334333333475 ) ) ;
#471 = ORIENTED_EDGE ( 'NONE', *, *, #557, .F. ) ;
#472 = CARTESIAN_POINT ( 'NONE',  ( 59.00000000000000000, 1.000000000000000000, 14.83333334333333475 ) ) ;
#473 = VERTEX_POINT ( 'NONE', #654 ) ;
#474 = PLANE ( 'NONE',  #753 ) ;
#475 = DIRECTION ( 'NONE',  ( -1.000000000000000000, 0.000000000000000000, 0.000000000000000000 ) ) ;
#476 = ORIENTED_EDGE ( 'NONE', *, *, #625, .T. ) ;
#477 = ORIENTED_EDGE ( 'NONE', *, *, #320, .T. ) ;
#478 = VECTOR ( 'NONE', #42, 1000.000000000000000 ) ;
#479 = CARTESIAN_POINT ( 'NONE',  ( 29.00000000000000000, 0.000000000000000000, 0.000000000000000000 ) ) ;
#480 = AXIS2_PLACEMENT_3D ( 'NONE', #1010, #1205, #1128 ) ;
#481 = CARTESIAN_POINT ( 'NONE',  ( 59.00000000000000000, 1.000000000000000000, 14.83333334333333475 ) ) ;
#482 = ADVANCED_FACE ( 'NONE', ( #543, #1144, #1053, #1262, #943, #230, #119, #28, #1033 ), #237, .T. ) ;
#483 = DIRECTION ( 'NONE',  ( -0.000000000000000000, -0.000000000000000000, -1.000000000000000000 ) ) ;
#484 = ORIENTED_EDGE ( 'NONE', *, *, #292, .F. ) ;
#485 = CARTESIAN_POINT ( 'NONE',  ( 120.0000000000000000, 30.00000000000001421, -1.000000000000000000 ) ) ;
#486 = PRODUCT_DEFINITION_CONTEXT ( 'detailed design', #515, 'design' ) ;
#487 = LINE ( 'NONE', #171, #1069 ) ;
#488 = CARTESIAN_POINT ( 'NONE',  ( 2.759065647576284111E-16, -1.000000000000001776, 0.000000000000000000 ) ) ;
#489 = VERTEX_POINT ( 'NONE', #848 ) ;
#490 = EDGE_CURVE ( 'NONE', #852, #1206, #530, .T. ) ;
#491 = LINE ( 'NONE', #608, #630 ) ;
#492 = DIRECTION ( 'NONE',  ( 1.239088197126291063E-16, -1.000000000000000000, 0.000000000000000000 ) ) ;
#493 = FACE_OUTER_BOUND ( 'NONE', #286, .T. ) ;
#494 = ORIENTED_EDGE ( 'NONE', *, *, #690, .F. ) ;
#495 = ORIENTED_EDGE ( 'NONE', *, *, #226, .T. ) ;
#496 = CARTESIAN_POINT ( 'NONE',  ( 29.00000000000000000, 28.99999999999999645, 0.000000000000000000 ) ) ;
#497 = AXIS2_PLACEMENT_3D ( 'NONE', #999, #1216, #116 ) ;
#498 = PLANE ( 'NONE',  #566 ) ;
#499 = VECTOR ( 'NONE', #298, 1000.000000000000000 ) ;
#500 = VECTOR ( 'NONE', #77, 1000.000000000000000 ) ;
#501 = ORIENTED_EDGE ( 'NONE', *, *, #933, .F. ) ;
#502 = DIRECTION ( 'NONE',  ( -0.000000000000000000, -0.000000000000000000, -1.000000000000000000 ) ) ;
#503 = EDGE_CURVE ( 'NONE', #229, #565, #833, .T. ) ;
#504 = CARTESIAN_POINT ( 'NONE',  ( 89.00000000000000000, 29.00000000000000355, 14.83333334333333475 ) ) ;
#505 = CARTESIAN_POINT ( 'NONE',  ( 29.00000000000000000, 28.99999999999999645, 14.83333334333333475 ) ) ;
#506 = DIRECTION ( 'NONE',  ( -1.000000000000000000, 0.000000000000000000, 0.000000000000000000 ) ) ;
#507 = ORIENTED_EDGE ( 'NONE', *, *, #1015, .F. ) ;
#508 = LINE ( 'NONE', #910, #668 ) ;
#509 = DIRECTION ( 'NONE',  ( 1.210205401168415844E-16, -1.000000000000000000, 0.000000000000000000 ) ) ;
#510 = EDGE_CURVE ( 'NONE', #1314, #705, #750, .T. ) ;
#511 = CARTESIAN_POINT ( 'NONE',  ( 3.097720492815732589E-17, 1.000000000000001776, 14.83333334333333475 ) ) ;
#512 = CARTESIAN_POINT ( 'NONE',  ( 7.347880794884119933E-15, -30.00000000000000000, -1.000000000000000000 ) ) ;
#513 = EDGE_CURVE ( 'NONE', #331, #1219, #1024, .T. ) ;
#514 = ORIENTED_EDGE ( 'NONE', *, *, #572, .T. ) ;
#515 = APPLICATION_CONTEXT ( 'automotive_design' ) ;
#516 = CARTESIAN_POINT ( 'NONE',  ( -3.593355771666243492E-15, 28.99999999999999289, 14.83333334333333475 ) ) ;
#517 = DIRECTION ( 'NONE',  ( -0.000000000000000000, -0.000000000000000000, -1.000000000000000000 ) ) ;
#518 = ORIENTED_EDGE ( 'NONE', *, *, #329, .F. ) ;
#519 = LINE ( 'NONE', #1210, #1246 ) ;
#520 = CARTESIAN_POINT ( 'NONE',  ( 1.000000000000007105, -28.99999999999999289, 14.83333334333333475 ) ) ;
#521 = CARTESIAN_POINT ( 'NONE',  ( -2.787948443534104110E-16, 0.9999999999999822364, 14.83333334333333475 ) ) ;
#522 = ADVANCED_FACE ( 'NONE', ( #641 ), #624, .F. ) ;
#523 = AXIS2_PLACEMENT_3D ( 'NONE', #429, #224, #737 ) ;
#524 = ORIENTED_EDGE ( 'NONE', *, *, #301, .T. ) ;
#525 = VECTOR ( 'NONE', #1076, 1000.000000000000000 ) ;
#526 = CARTESIAN_POINT ( 'NONE',  ( 89.00000000000001421, -28.99999999999998579, 14.83333334333333475 ) ) ;
#527 = AXIS2_PLACEMENT_3D ( 'NONE', #1240, #439, #739 ) ;
#528 = CARTESIAN_POINT ( 'NONE',  ( 0.000000000000000000, 0.000000000000000000, -1.000000000000000000 ) ) ;
#529 = ORIENTED_EDGE ( 'NONE', *, *, #510, .F. ) ;
#530 = LINE ( 'NONE', #20, #308 ) ;
#531 = ORIENTED_EDGE ( 'NONE', *, *, #844, .T. ) ;
#532 = ORIENTED_EDGE ( 'NONE', *, *, #1180, .F. ) ;
#533 = EDGE_CURVE ( 'NONE', #6, #1219, #421, .T. ) ;
#534 = DIRECTION ( 'NONE',  ( 0.000000000000000000, 0.000000000000000000, 1.000000000000000000 ) ) ;
#535 = LINE ( 'NONE', #1116, #839 ) ;
#536 = EDGE_LOOP ( 'NONE', ( #451, #938, #529, #764 ) ) ;
#537 = CARTESIAN_POINT ( 'NONE',  ( 119.0000000000000142, -0.9999999999999863443, 14.83333334333333475 ) ) ;
#538 = PLANE ( 'NONE',  #181 ) ;
#539 = DIRECTION ( 'NONE',  ( 0.000000000000000000, 0.000000000000000000, 1.000000000000000000 ) ) ;
#540 = VERTEX_POINT ( 'NONE', #330 ) ;
#541 = CARTESIAN_POINT ( 'NONE',  ( 61.00000000000000711, -1.761850553430331939E-16, 14.83333334333333475 ) ) ;
#542 = VERTEX_POINT ( 'NONE', #133 ) ;
#543 = FACE_BOUND ( 'NONE', #814, .T. ) ;
#544 = DIRECTION ( 'NONE',  ( -2.449293598294706907E-16, 1.000000000000000000, 0.000000000000000000 ) ) ;
#545 = PLANE ( 'NONE',  #497 ) ;
#546 = ORIENTED_EDGE ( 'NONE', *, *, #434, .T. ) ;
#547 = VECTOR ( 'NONE', #409, 1000.000000000000000 ) ;
#548 = DIRECTION ( 'NONE',  ( 0.000000000000000000, 1.000000000000000000, -0.000000000000000000 ) ) ;
#549 = VECTOR ( 'NONE', #1118, 1000.000000000000000 ) ;
#550 = AXIS2_PLACEMENT_3D ( 'NONE', #1252, #816, #312 ) ;
#551 = EDGE_CURVE ( 'NONE', #1039, #6, #139, .T. ) ;
#552 = CARTESIAN_POINT ( 'NONE',  ( 31.00000000000000355, 1.000000000000000888, 0.000000000000000000 ) ) ;
#553 = ORIENTED_EDGE ( 'NONE', *, *, #455, .T. ) ;
#554 = CARTESIAN_POINT ( 'NONE',  ( 2.759065647576284111E-16, -1.000000000000001776, 14.83333334333333475 ) ) ;
#555 = CARTESIAN_POINT ( 'NONE',  ( 7.102951435054651215E-15, -29.00000000000000355, 14.83333334333333475 ) ) ;
#556 = DIRECTION ( 'NONE',  ( -4.625929269271485914E-16, 1.000000000000000000, 0.000000000000000000 ) ) ;
#557 = EDGE_CURVE ( 'NONE', #831, #745, #731, .T. ) ;
#558 = VERTEX_POINT ( 'NONE', #1149 ) ;
#559 = ORIENTED_EDGE ( 'NONE', *, *, #1272, .T. ) ;
#560 = DIRECTION ( 'NONE',  ( 0.000000000000000000, 0.000000000000000000, 1.000000000000000000 ) ) ;
#561 = CARTESIAN_POINT ( 'NONE',  ( 61.00000000000000711, -28.99999999999998934, 14.83333334333333475 ) ) ;
#562 = ORIENTED_EDGE ( 'NONE', *, *, #989, .T. ) ;
#563 = EDGE_CURVE ( 'NONE', #576, #146, #646, .T. ) ;
#564 = VECTOR ( 'NONE', #906, 1000.000000000000000 ) ;
#565 = VERTEX_POINT ( 'NONE', #552 ) ;
#566 = AXIS2_PLACEMENT_3D ( 'NONE', #398, #98, #799 ) ;
#567 = CARTESIAN_POINT ( 'NONE',  ( 29.00000000000000000, 1.000000000000000000, 14.83333334333333475 ) ) ;
#568 = AXIS2_PLACEMENT_3D ( 'NONE', #521, #923, #423 ) ;
#569 = CARTESIAN_POINT ( 'NONE',  ( 3.509595663388404567E-15, -28.99999999999999289, 14.83333334333333475 ) ) ;
#570 = EDGE_LOOP ( 'NONE', ( #1111, #828, #724, #91 ) ) ;
#571 = EDGE_CURVE ( 'NONE', #1230, #4, #949, .T. ) ;
#572 = EDGE_CURVE ( 'NONE', #4, #60, #323, .T. ) ;
#573 = CARTESIAN_POINT ( 'NONE',  ( 31.00000000000000355, 1.000000000000000888, 14.83333334333333475 ) ) ;
#574 = CARTESIAN_POINT ( 'NONE',  ( 61.00000000000000000, 29.00000000000000355, 14.83333334333333475 ) ) ;
#575 = CARTESIAN_POINT ( 'NONE',  ( 0.000000000000000000, 0.000000000000000000, 0.000000000000000000 ) ) ;
#576 = VERTEX_POINT ( 'NONE', #217 ) ;
#577 = DIRECTION ( 'NONE',  ( -0.000000000000000000, 0.000000000000000000, -1.000000000000000000 ) ) ;
#578 = ADVANCED_FACE ( 'NONE', ( #771 ), #377, .T. ) ;
#579 = CARTESIAN_POINT ( 'NONE',  ( 91.00000000000000000, 1.000000000000007550, 14.83333334333333475 ) ) ;
#580 = DIRECTION ( 'NONE',  ( -1.000000000000000000, 0.000000000000000000, 0.000000000000000000 ) ) ;
#581 = LINE ( 'NONE', #1191, #1268 ) ;
#582 = VERTEX_POINT ( 'NONE', #573 ) ;
#583 = ORIENTED_EDGE ( 'NONE', *, *, #490, .T. ) ;
#584 = LINE ( 'NONE', #1097, #979 ) ;
#585 = ADVANCED_FACE ( 'NONE', ( #365 ), #757, .T. ) ;
#586 = AXIS2_PLACEMENT_3D ( 'NONE', #1235, #433, #1226 ) ;
#587 = DIRECTION ( 'NONE',  ( 0.000000000000000000, -0.000000000000000000, 1.000000000000000000 ) ) ;
#588 = CARTESIAN_POINT ( 'NONE',  ( 91.00000000000000000, -0.9999999999999852340, 0.000000000000000000 ) ) ;
#589 = ORIENTED_EDGE ( 'NONE', *, *, #273, .T. ) ;
#590 = ORIENTED_EDGE ( 'NONE', *, *, #1037, .T. ) ;
#591 = FACE_OUTER_BOUND ( 'NONE', #1032, .T. ) ;
#592 = DIRECTION ( 'NONE',  ( -1.239088197126291063E-16, 1.000000000000000000, 0.000000000000000000 ) ) ;
#593 = ORIENTED_EDGE ( 'NONE', *, *, #659, .F. ) ;
#594 = DIRECTION ( 'NONE',  ( 1.000000000000000000, 0.000000000000000000, 0.000000000000000000 ) ) ;
#595 = CARTESIAN_POINT ( 'NONE',  ( 119.0000000000000142, -28.99999999999998224, 14.83333334333333475 ) ) ;
#596 = CARTESIAN_POINT ( 'NONE',  ( 0.000000000000000000, 30.00000000000000000, 14.83333334333333475 ) ) ;
#597 = FACE_OUTER_BOUND ( 'NONE', #1143, .T. ) ;
#598 = ORIENTED_EDGE ( 'NONE', *, *, #659, .T. ) ;
#599 = ADVANCED_FACE ( 'NONE', ( #1062 ), #260, .T. ) ;
#600 = CARTESIAN_POINT ( 'NONE',  ( -3.593355771666242704E-15, 28.99999999999999289, 14.83333334333333475 ) ) ;
#601 = DIRECTION ( 'NONE',  ( 1.000000000000000000, -3.386548452394484168E-17, 0.000000000000000000 ) ) ;
#602 = FACE_OUTER_BOUND ( 'NONE', #759, .T. ) ;
#603 = CARTESIAN_POINT ( 'NONE',  ( 31.00000000000000355, -0.9999999999999933387, 14.83333334333333475 ) ) ;
#604 = VECTOR ( 'NONE', #866, 1000.000000000000000 ) ;
#605 = VECTOR ( 'NONE', #932, 1000.000000000000000 ) ;
#606 = ORIENTED_EDGE ( 'NONE', *, *, #625, .F. ) ;
#607 = EDGE_CURVE ( 'NONE', #375, #850, #1265, .T. ) ;
#608 = CARTESIAN_POINT ( 'NONE',  ( 89.00000000000001421, -28.99999999999998579, 14.83333334333333475 ) ) ;
#609 = PLANE ( 'NONE',  #669 ) ;
#610 = FILL_AREA_STYLE ('',( #283 ) ) ;
#611 = CARTESIAN_POINT ( 'NONE',  ( 29.00000000000000711, -28.99999999999998934, 14.83333334333333475 ) ) ;
#612 = EDGE_LOOP ( 'NONE', ( #471, #629, #341, #782 ) ) ;
#613 = VERTEX_POINT ( 'NONE', #170 ) ;
#614 = CARTESIAN_POINT ( 'NONE',  ( 31.00000000000000000, 28.99999999999999645, 14.83333334333333475 ) ) ;
#615 = CARTESIAN_POINT ( 'NONE',  ( -3.469446951953614189E-15, 30.00000000000000000, 14.83333334333333475 ) ) ;
#616 = EDGE_LOOP ( 'NONE', ( #1056, #847, #648, #445 ) ) ;
#617 = EDGE_CURVE ( 'NONE', #348, #1192, #48, .T. ) ;
#618 = CARTESIAN_POINT ( 'NONE',  ( 59.00000000000000711, -28.99999999999998934, 0.000000000000000000 ) ) ;
#619 = DIRECTION ( 'NONE',  ( -0.000000000000000000, -0.000000000000000000, -1.000000000000000000 ) ) ;
#620 = ORIENTED_EDGE ( 'NONE', *, *, #571, .T. ) ;
#621 = LINE ( 'NONE', #742, #141 ) ;
#622 = LINE ( 'NONE', #26, #1104 ) ;
#623 = ORIENTED_EDGE ( 'NONE', *, *, #102, .T. ) ;
#624 = PLANE ( 'NONE',  #92 ) ;
#625 = EDGE_CURVE ( 'NONE', #1178, #994, #1274, .T. ) ;
#626 = DIRECTION ( 'NONE',  ( -0.000000000000000000, -0.000000000000000000, -1.000000000000000000 ) ) ;
#627 = VERTEX_POINT ( 'NONE', #1070 ) ;
#628 = VECTOR ( 'NONE', #1093, 1000.000000000000000 ) ;
#629 = ORIENTED_EDGE ( 'NONE', *, *, #1115, .F. ) ;
#630 = VECTOR ( 'NONE', #88, 1000.000000000000000 ) ;
#631 = DIRECTION ( 'NONE',  ( -0.000000000000000000, -0.000000000000000000, -1.000000000000000000 ) ) ;
#632 = LINE ( 'NONE', #1237, #337 ) ;
#633 = ORIENTED_EDGE ( 'NONE', *, *, #191, .T. ) ;
#634 = CARTESIAN_POINT ( 'NONE',  ( 0.000000000000000000, 0.000000000000000000, 14.83333334333333475 ) ) ;
#635 = CARTESIAN_POINT ( 'NONE',  ( 61.00000000000000711, 1.000000000000000222, 0.000000000000000000 ) ) ;
#636 = CARTESIAN_POINT ( 'NONE',  ( 3.509595663388404567E-15, -28.99999999999999289, 14.83333334333333475 ) ) ;
#637 = EDGE_CURVE ( 'NONE', #415, #182, #355, .T. ) ;
#638 = ORIENTED_EDGE ( 'NONE', *, *, #704, .T. ) ;
#639 = CARTESIAN_POINT ( 'NONE',  ( 2.759065647576284111E-16, -1.000000000000001776, 14.83333334333333475 ) ) ;
#640 = EDGE_LOOP ( 'NONE', ( #1051, #518, #19, #870 ) ) ;
#641 = FACE_OUTER_BOUND ( 'NONE', #1148, .T. ) ;
#642 = DIRECTION ( 'NONE',  ( 0.000000000000000000, 1.000000000000000000, -0.000000000000000000 ) ) ;
#643 = ORIENTED_EDGE ( 'NONE', *, *, #533, .F. ) ;
#644 = PLANE ( 'NONE',  #9 ) ;
#645 = ADVANCED_FACE ( 'NONE', ( #276 ), #474, .F. ) ;
#646 = LINE ( 'NONE', #537, #261 ) ;
#647 = FACE_OUTER_BOUND ( 'NONE', #818, .T. ) ;
#648 = ORIENTED_EDGE ( 'NONE', *, *, #880, .F. ) ;
#649 = VECTOR ( 'NONE', #454, 1000.000000000000000 ) ;
#650 = LINE ( 'NONE', #1050, #770 ) ;
#651 = AXIS2_PLACEMENT_3D ( 'NONE', #1090, #1083, #347 ) ;
#652 = EDGE_CURVE ( 'NONE', #473, #1302, #1183, .T. ) ;
#653 = VERTEX_POINT ( 'NONE', #658 ) ;
#654 = CARTESIAN_POINT ( 'NONE',  ( 91.00000000000000000, 29.00000000000000355, 14.83333334333333475 ) ) ;
#655 = PRODUCT_CONTEXT ( 'NONE', #1167, 'mechanical' ) ;
#656 = EDGE_LOOP ( 'NONE', ( #802, #1233, #258, #736 ) ) ;
#657 = VERTEX_POINT ( 'NONE', #1057 ) ;
#658 = CARTESIAN_POINT ( 'NONE',  ( 119.0000000000000142, -28.99999999999998224, 0.000000000000000000 ) ) ;
#659 = EDGE_CURVE ( 'NONE', #745, #850, #762, .T. ) ;
#660 = FACE_OUTER_BOUND ( 'NONE', #946, .T. ) ;
#661 = ORIENTED_EDGE ( 'NONE', *, *, #256, .T. ) ;
#662 = DIRECTION ( 'NONE',  ( -2.478176394252581141E-16, 1.000000000000000000, 0.000000000000000000 ) ) ;
#663 = EDGE_CURVE ( 'NONE', #1234, #394, #152, .T. ) ;
#664 = EDGE_LOOP ( 'NONE', ( #198, #494, #206, #984 ) ) ;
#665 = EDGE_LOOP ( 'NONE', ( #40, #86, #1282, #168 ) ) ;
#666 = AXIS2_PLACEMENT_3D ( 'NONE', #435, #304, #1124 ) ;
#667 = VECTOR ( 'NONE', #819, 1000.000000000000000 ) ;
#668 = VECTOR ( 'NONE', #502, 1000.000000000000000 ) ;
#669 = AXIS2_PLACEMENT_3D ( 'NONE', #321, #1007, #509 ) ;
#670 = DIRECTION ( 'NONE',  ( 1.000000000000000000, 2.449293598294706907E-16, 0.000000000000000000 ) ) ;
#671 = DIRECTION ( 'NONE',  ( 1.000000000000000000, 1.210205401168415844E-16, 0.000000000000000000 ) ) ;
#672 = ORIENTED_EDGE ( 'NONE', *, *, #381, .F. ) ;
#673 = ORIENTED_EDGE ( 'NONE', *, *, #310, .F. ) ;
#674 = EDGE_CURVE ( 'NONE', #1300, #1192, #975, .T. ) ;
#675 = CARTESIAN_POINT ( 'NONE',  ( 61.00000000000000711, -0.9999999999999852340, 14.83333334333333475 ) ) ;
#676 = CARTESIAN_POINT ( 'NONE',  ( 0.000000000000000000, 29.00000000000000355, 14.83333334333333475 ) ) ;
#677 = DIRECTION ( 'NONE',  ( 0.000000000000000000, -1.000000000000000000, 0.000000000000000000 ) ) ;
#678 = ORIENTED_EDGE ( 'NONE', *, *, #1065, .T. ) ;
#679 = VERTEX_POINT ( 'NONE', #675 ) ;
#680 = EDGE_CURVE ( 'NONE', #1280, #745, #158, .T. ) ;
#681 = DIRECTION ( 'NONE',  ( -0.000000000000000000, 0.000000000000000000, -1.000000000000000000 ) ) ;
#682 = DIRECTION ( 'NONE',  ( -0.000000000000000000, -0.000000000000000000, -1.000000000000000000 ) ) ;
#683 = DIRECTION ( 'NONE',  ( -1.000000000000000000, -2.449293598294706907E-16, 0.000000000000000000 ) ) ;
#684 = LINE ( 'NONE', #882, #922 ) ;
#685 = VERTEX_POINT ( 'NONE', #1277 ) ;
#686 = VERTEX_POINT ( 'NONE', #871 ) ;
#687 = CARTESIAN_POINT ( 'NONE',  ( 91.00000000000001421, -28.99999999999998579, 0.000000000000000000 ) ) ;
#688 = VECTOR ( 'NONE', #953, 1000.000000000000000 ) ;
#689 = AXIS2_PLACEMENT_3D ( 'NONE', #913, #204, #592 ) ;
#690 = EDGE_CURVE ( 'NONE', #685, #394, #765, .T. ) ;
#691 = VECTOR ( 'NONE', #1014, 1000.000000000000000 ) ;
#692 = LINE ( 'NONE', #1293, #416 ) ;
#693 = ORIENTED_EDGE ( 'NONE', *, *, #962, .T. ) ;
#694 = PLANE ( 'NONE',  #1138 ) ;
#695 = CARTESIAN_POINT ( 'NONE',  ( 89.00000000000000000, 29.00000000000000355, 14.83333334333333475 ) ) ;
#696 = CARTESIAN_POINT ( 'NONE',  ( 31.00000000000000711, -28.99999999999998934, 14.83333334333333475 ) ) ;
#697 = ORIENTED_EDGE ( 'NONE', *, *, #895, .F. ) ;
#698 = DIRECTION ( 'NONE',  ( 0.000000000000000000, -0.000000000000000000, 1.000000000000000000 ) ) ;
#699 = ORIENTED_EDGE ( 'NONE', *, *, #33, .T. ) ;
#700 = DIRECTION ( 'NONE',  ( -1.000000000000000000, -1.239088197126291063E-16, 0.000000000000000000 ) ) ;
#701 = DIRECTION ( 'NONE',  ( 2.449293598294706907E-16, -1.000000000000000000, 0.000000000000000000 ) ) ;
#702 = PLANE ( 'NONE',  #1200 ) ;
#703 = CARTESIAN_POINT ( 'NONE',  ( 31.00000000000000711, -28.99999999999998934, 0.000000000000000000 ) ) ;
#704 = EDGE_CURVE ( 'NONE', #994, #23, #968, .T. ) ;
#705 = VERTEX_POINT ( 'NONE', #370 ) ;
#706 = ADVANCED_FACE ( 'NONE', ( #1253 ), #17, .F. ) ;
#707 = CARTESIAN_POINT ( 'NONE',  ( 0.000000000000000000, 0.000000000000000000, 0.000000000000000000 ) ) ;
#708 = LINE ( 'NONE', #904, #1271 ) ;
#709 = CARTESIAN_POINT ( 'NONE',  ( 1.000000000000003553, 1.000000000000000000, 14.83333334333333475 ) ) ;
#710 = DIRECTION ( 'NONE',  ( -0.000000000000000000, 0.000000000000000000, -1.000000000000000000 ) ) ;
#711 = STYLED_ITEM ( 'NONE', ( #991 ), #432 ) ;
#712 = VECTOR ( 'NONE', #63, 1000.000000000000000 ) ;
#713 = VERTEX_POINT ( 'NONE', #472 ) ;
#714 = VECTOR ( 'NONE', #252, 1000.000000000000000 ) ;
#715 = LINE ( 'NONE', #342, #1289 ) ;
#716 = EDGE_CURVE ( 'NONE', #309, #582, #1273, .T. ) ;
#717 = DIRECTION ( 'NONE',  ( -2.888279595787423346E-18, -1.000000000000000000, 0.000000000000000000 ) ) ;
#718 = LINE ( 'NONE', #1099, #549 ) ;
#719 = CARTESIAN_POINT ( 'NONE',  ( 7.347880794884119933E-15, 30.00000000000001421, -1.000000000000000000 ) ) ;
#720 = ORIENTED_EDGE ( 'NONE', *, *, #740, .T. ) ;
#721 = LINE ( 'NONE', #1122, #947 ) ;
#722 = EDGE_CURVE ( 'NONE', #394, #4, #1166, .T. ) ;
#723 = CARTESIAN_POINT ( 'NONE',  ( 61.00000000000000711, 1.511687600494074664E-14, 14.83333334333333475 ) ) ;
#724 = ORIENTED_EDGE ( 'NONE', *, *, #1169, .F. ) ;
#725 = CARTESIAN_POINT ( 'NONE',  ( 31.00000000000000355, 3.751636743622088919E-15, 0.000000000000000000 ) ) ;
#726 = CARTESIAN_POINT ( 'NONE',  ( 61.00000000000000711, -28.99999999999998934, 14.83333334333333475 ) ) ;
#727 = EDGE_LOOP ( 'NONE', ( #173, #205, #64, #1049 ) ) ;
#728 = DIRECTION ( 'NONE',  ( 1.000000000000000000, 2.449293598294706907E-16, 0.000000000000000000 ) ) ;
#729 = CARTESIAN_POINT ( 'NONE',  ( 91.00000000000001421, -28.99999999999998579, 14.83333334333333475 ) ) ;
#730 = VERTEX_POINT ( 'NONE', #748 ) ;
#731 = LINE ( 'NONE', #344, #461 ) ;
#732 = DIRECTION ( 'NONE',  ( 2.449293598294706907E-16, -1.000000000000000000, 0.000000000000000000 ) ) ;
#733 = VERTEX_POINT ( 'NONE', #1154 ) ;
#734 = VECTOR ( 'NONE', #812, 1000.000000000000000 ) ;
#735 = DIRECTION ( 'NONE',  ( 1.000000000000000000, 0.000000000000000000, 0.000000000000000000 ) ) ;
#736 = ORIENTED_EDGE ( 'NONE', *, *, #1187, .T. ) ;
#737 = DIRECTION ( 'NONE',  ( -1.000000000000000000, 3.097720492815727659E-17, 0.000000000000000000 ) ) ;
#738 = CARTESIAN_POINT ( 'NONE',  ( 0.000000000000000000, 0.000000000000000000, 0.000000000000000000 ) ) ;
#739 = DIRECTION ( 'NONE',  ( -1.000000000000000000, 0.000000000000000000, 0.000000000000000000 ) ) ;
#740 = EDGE_CURVE ( 'NONE', #1091, #146, #756, .T. ) ;
#741 = VERTEX_POINT ( 'NONE', #777 ) ;
#742 = CARTESIAN_POINT ( 'NONE',  ( 59.00000000000000000, 29.00000000000000000, 14.83333334333333475 ) ) ;
#743 = ORIENTED_EDGE ( 'NONE', *, *, #256, .F. ) ;
#744 = DIRECTION ( 'NONE',  ( 1.000000000000000000, 0.000000000000000000, 0.000000000000000000 ) ) ;
#745 = VERTEX_POINT ( 'NONE', #95 ) ;
#746 = ADVANCED_FACE ( 'NONE', ( #591 ), #297, .T. ) ;
#747 = DIRECTION ( 'NONE',  ( 1.000000000000000000, 2.759065647576279673E-16, 0.000000000000000000 ) ) ;
#748 = CARTESIAN_POINT ( 'NONE',  ( 59.00000000000000000, 1.000000000000000000, 0.000000000000000000 ) ) ;
#749 = ORIENTED_EDGE ( 'NONE', *, *, #202, .F. ) ;
#750 = LINE ( 'NONE', #826, #667 ) ;
#751 = CARTESIAN_POINT ( 'NONE',  ( 120.0000000000000000, 30.00000000000001421, 14.83333334333333475 ) ) ;
#752 = VERTEX_POINT ( 'NONE', #803 ) ;
#753 = AXIS2_PLACEMENT_3D ( 'NONE', #251, #458, #1081 ) ;
#754 = VECTOR ( 'NONE', #631, 1000.000000000000000 ) ;
#755 = EDGE_CURVE ( 'NONE', #162, #576, #1079, .T. ) ;
#756 = LINE ( 'NONE', #243, #462 ) ;
#757 = PLANE ( 'NONE',  #1267 ) ;
#758 = LINE ( 'NONE', #378, #266 ) ;
#759 = EDGE_LOOP ( 'NONE', ( #720, #1121, #30, #27 ) ) ;
#760 = CARTESIAN_POINT ( 'NONE',  ( 31.00000000000000355, 3.841173411091502100E-15, 14.83333334333333475 ) ) ;
#761 = EDGE_CURVE ( 'NONE', #1281, #705, #376, .T. ) ;
#762 = LINE ( 'NONE', #479, #688 ) ;
#763 = CARTESIAN_POINT ( 'NONE',  ( 61.00000000000000711, 1.511687600494074664E-14, 14.83333334333333475 ) ) ;
#764 = ORIENTED_EDGE ( 'NONE', *, *, #1304, .F. ) ;
#765 = LINE ( 'NONE', #1173, #919 ) ;
#766 = DIRECTION ( 'NONE',  ( -1.000000000000000000, -1.239088197126291063E-16, 0.000000000000000000 ) ) ;
#767 = DIRECTION ( 'NONE',  ( -0.000000000000000000, -0.000000000000000000, -1.000000000000000000 ) ) ;
#768 = EDGE_LOOP ( 'NONE', ( #125, #1060, #213, #894 ) ) ;
#769 = ORIENTED_EDGE ( 'NONE', *, *, #551, .T. ) ;
#770 = VECTOR ( 'NONE', #1072, 1000.000000000000000 ) ;
#771 = FACE_OUTER_BOUND ( 'NONE', #318, .T. ) ;
#772 = AXIS2_PLACEMENT_3D ( 'NONE', #430, #412, #698 ) ;
#773 = FACE_OUTER_BOUND ( 'NONE', #775, .T. ) ;
#774 = CARTESIAN_POINT ( 'NONE',  ( 3.878433842930505744E-15, -30.00000000000000000, 14.83333334333333475 ) ) ;
#775 = EDGE_LOOP ( 'NONE', ( #884, #972, #1322, #678 ) ) ;
#776 = EDGE_CURVE ( 'NONE', #752, #309, #985, .T. ) ;
#777 = CARTESIAN_POINT ( 'NONE',  ( 89.00000000000000000, 1.000000000000007994, 0.000000000000000000 ) ) ;
#778 = DIRECTION ( 'NONE',  ( -2.449293598294706907E-16, 1.000000000000000000, 0.000000000000000000 ) ) ;
#779 = DIRECTION ( 'NONE',  ( 0.000000000000000000, 1.000000000000000000, 0.000000000000000000 ) ) ;
#780 = DIRECTION ( 'NONE',  ( 1.210205401168415844E-16, -1.000000000000000000, 0.000000000000000000 ) ) ;
#781 = ORIENTED_EDGE ( 'NONE', *, *, #45, .T. ) ;
#782 = ORIENTED_EDGE ( 'NONE', *, *, #680, .T. ) ;
#783 = PLANE ( 'NONE',  #1000 ) ;
#784 = CARTESIAN_POINT ( 'NONE',  ( 1.000000000000007105, -28.99999999999999289, 14.83333334333333475 ) ) ;
#785 = PLANE ( 'NONE',  #221 ) ;
#786 = ORIENTED_EDGE ( 'NONE', *, *, #1169, .T. ) ;
#787 = ORIENTED_EDGE ( 'NONE', *, *, #1311, .T. ) ;
#788 = CARTESIAN_POINT ( 'NONE',  ( 0.000000000000000000, 30.00000000000000000, 14.83333334333333475 ) ) ;
#789 = ADVANCED_FACE ( 'NONE', ( #902 ), #896, .F. ) ;
#790 = VECTOR ( 'NONE', #881, 1000.000000000000000 ) ;
#791 = VECTOR ( 'NONE', #1212, 1000.000000000000000 ) ;
#792 = LINE ( 'NONE', #89, #628 ) ;
#793 = DIRECTION ( 'NONE',  ( -0.000000000000000000, 0.000000000000000000, -1.000000000000000000 ) ) ;
#794 = ORIENTED_EDGE ( 'NONE', *, *, #351, .F. ) ;
#795 = EDGE_LOOP ( 'NONE', ( #786, #253, #223, #693 ) ) ;
#796 = CARTESIAN_POINT ( 'NONE',  ( 89.00000000000000000, -0.9999999999999861222, 14.83333334333333475 ) ) ;
#797 = EDGE_CURVE ( 'NONE', #375, #369, #193, .T. ) ;
#798 = DIRECTION ( 'NONE',  ( -0.000000000000000000, -0.000000000000000000, -1.000000000000000000 ) ) ;
#799 = DIRECTION ( 'NONE',  ( -1.239088197126291063E-16, 1.000000000000000000, 0.000000000000000000 ) ) ;
#800 = ADVANCED_FACE ( 'NONE', ( #1092 ), #694, .F. ) ;
#801 = EDGE_LOOP ( 'NONE', ( #1078, #749, #590, #495 ) ) ;
#802 = ORIENTED_EDGE ( 'NONE', *, *, #533, .T. ) ;
#803 = CARTESIAN_POINT ( 'NONE',  ( 59.00000000000000000, 29.00000000000000000, 14.83333334333333475 ) ) ;
#804 = CARTESIAN_POINT ( 'NONE',  ( -3.386548452394428701E-17, -0.9999999999999833467, 14.83333334333333475 ) ) ;
#805 = DIRECTION ( 'NONE',  ( 1.000000000000000000, 2.787948443534153414E-16, 0.000000000000000000 ) ) ;
#806 = EDGE_CURVE ( 'NONE', #23, #542, #995, .T. ) ;
#807 = ORIENTED_EDGE ( 'NONE', *, *, #1095, .F. ) ;
#808 = DIRECTION ( 'NONE',  ( -1.239088197126291063E-16, 1.000000000000000000, 0.000000000000000000 ) ) ;
#809 = LINE ( 'NONE', #824, #859 ) ;
#810 = VECTOR ( 'NONE', #1283, 1000.000000000000000 ) ;
#811 = LINE ( 'NONE', #695, #1105 ) ;
#812 = DIRECTION ( 'NONE',  ( -0.000000000000000000, -0.000000000000000000, -1.000000000000000000 ) ) ;
#813 = AXIS2_PLACEMENT_3D ( 'NONE', #303, #291, #281 ) ;
#814 = EDGE_LOOP ( 'NONE', ( #1101, #66, #227, #132 ) ) ;
#815 = EDGE_CURVE ( 'NONE', #1073, #741, #508, .T. ) ;
#816 = DIRECTION ( 'NONE',  ( -2.449293598294706907E-16, 1.000000000000000000, 0.000000000000000000 ) ) ;
#817 = FACE_OUTER_BOUND ( 'NONE', #218, .T. ) ;
#818 = EDGE_LOOP ( 'NONE', ( #144, #1307, #889, #265 ) ) ;
#819 = DIRECTION ( 'NONE',  ( -0.000000000000000000, -0.000000000000000000, -1.000000000000000000 ) ) ;
#820 = PLANE ( 'NONE',  #689 ) ;
#821 = CARTESIAN_POINT ( 'NONE',  ( 89.00000000000000000, -0.9999999999999861222, 14.83333334333333475 ) ) ;
#822 = ORIENTED_EDGE ( 'NONE', *, *, #366, .F. ) ;
#823 = DIRECTION ( 'NONE',  ( -0.000000000000000000, -0.000000000000000000, -1.000000000000000000 ) ) ;
#824 = CARTESIAN_POINT ( 'NONE',  ( -0.000000000000000000, 29.00000000000000355, 0.000000000000000000 ) ) ;
#825 = ORIENTED_EDGE ( 'NONE', *, *, #208, .F. ) ;
#826 = CARTESIAN_POINT ( 'NONE',  ( 120.0000000000000000, 30.00000000000001421, 14.83333334333333475 ) ) ;
#827 = DIRECTION ( 'NONE',  ( 0.000000000000000000, 0.000000000000000000, 1.000000000000000000 ) ) ;
#828 = ORIENTED_EDGE ( 'NONE', *, *, #426, .F. ) ;
#829 = CARTESIAN_POINT ( 'NONE',  ( 0.000000000000000000, 1.000000000000000000, 14.83333334333333475 ) ) ;
#830 = CARTESIAN_POINT ( 'NONE',  ( 89.00000000000000000, 2.179871302482289108E-14, 0.000000000000000000 ) ) ;
#831 = VERTEX_POINT ( 'NONE', #183 ) ;
#832 = EDGE_CURVE ( 'NONE', #994, #1197, #491, .T. ) ;
#833 = LINE ( 'NONE', #1247, #54 ) ;
#834 = DIRECTION ( 'NONE',  ( 1.000000000000000000, 1.210205401168415844E-16, 0.000000000000000000 ) ) ;
#835 = VECTOR ( 'NONE', #841, 1000.000000000000000 ) ;
#836 = VERTEX_POINT ( 'NONE', #687 ) ;
#837 = VECTOR ( 'NONE', #483, 1000.000000000000000 ) ;
#838 = DIRECTION ( 'NONE',  ( -1.000000000000000000, -1.239088197126291063E-16, 0.000000000000000000 ) ) ;
#839 = VECTOR ( 'NONE', #209, 1000.000000000000000 ) ;
#840 = ORIENTED_EDGE ( 'NONE', *, *, #607, .T. ) ;
#841 = DIRECTION ( 'NONE',  ( -1.000000000000000000, -1.210205401168416090E-16, 0.000000000000000000 ) ) ;
#842 = EDGE_CURVE ( 'NONE', #348, #112, #175, .T. ) ;
#843 = LINE ( 'NONE', #1257, #1088 ) ;
#844 = EDGE_CURVE ( 'NONE', #406, #331, #584, .T. ) ;
#845 = EDGE_LOOP ( 'NONE', ( #359, #673, #476, #424 ) ) ;
#846 = LINE ( 'NONE', #166, #1086 ) ;
#847 = ORIENTED_EDGE ( 'NONE', *, *, #361, .F. ) ;
#848 = CARTESIAN_POINT ( 'NONE',  ( 61.00000000000000711, -28.99999999999998934, 0.000000000000000000 ) ) ;
#849 = PLANE ( 'NONE',  #39 ) ;
#850 = VERTEX_POINT ( 'NONE', #496 ) ;
#851 = EDGE_CURVE ( 'NONE', #653, #146, #980, .T. ) ;
#852 = VERTEX_POINT ( 'NONE', #384 ) ;
#853 = CARTESIAN_POINT ( 'NONE',  ( 3.509595663388404567E-15, -28.99999999999999289, 14.83333334333333475 ) ) ;
#854 = CARTESIAN_POINT ( 'NONE',  ( 29.00000000000000000, 7.102951435054649637E-15, 14.83333334333333475 ) ) ;
#855 = VERTEX_POINT ( 'NONE', #1310 ) ;
#856 = VECTOR ( 'NONE', #662, 1000.000000000000000 ) ;
#857 = ADVANCED_FACE ( 'NONE', ( #1297 ), #783, .T. ) ;
#858 = AXIS2_PLACEMENT_3D ( 'NONE', #104, #710, #506 ) ;
#859 = VECTOR ( 'NONE', #402, 1000.000000000000000 ) ;
#860 = CARTESIAN_POINT ( 'NONE',  ( -3.593355771666243492E-15, 28.99999999999999289, 14.83333334333333475 ) ) ;
#861 = DIRECTION ( 'NONE',  ( -2.449293598294706907E-16, 1.000000000000000000, 0.000000000000000000 ) ) ;
#862 = ORIENTED_EDGE ( 'NONE', *, *, #1126, .F. ) ;
#863 = DIRECTION ( 'NONE',  ( 1.239088197126291063E-16, -1.000000000000000000, 0.000000000000000000 ) ) ;
#864 = ORIENTED_EDGE ( 'NONE', *, *, #383, .T. ) ;
#865 = EDGE_CURVE ( 'NONE', #1206, #1281, #1303, .T. ) ;
#866 = DIRECTION ( 'NONE',  ( -0.000000000000000000, -0.000000000000000000, -1.000000000000000000 ) ) ;
#867 = DIRECTION ( 'NONE',  ( 0.000000000000000000, 1.000000000000000000, -0.000000000000000000 ) ) ;
#868 = CARTESIAN_POINT ( 'NONE',  ( 3.509595663388404567E-15, -28.99999999999999289, 14.83333334333333475 ) ) ;
#869 = ORIENTED_EDGE ( 'NONE', *, *, #301, .F. ) ;
#870 = ORIENTED_EDGE ( 'NONE', *, *, #674, .F. ) ;
#871 = CARTESIAN_POINT ( 'NONE',  ( 91.00000000000001421, -28.99999999999998579, 14.83333334333333475 ) ) ;
#872 = EDGE_CURVE ( 'NONE', #1302, #613, #1201, .T. ) ;
#873 = DIRECTION ( 'NONE',  ( -0.000000000000000000, -0.000000000000000000, -1.000000000000000000 ) ) ;
#874 = ORIENTED_EDGE ( 'NONE', *, *, #962, .F. ) ;
#875 = VECTOR ( 'NONE', #798, 1000.000000000000000 ) ;
#876 = VECTOR ( 'NONE', #823, 1000.000000000000000 ) ;
#877 = VECTOR ( 'NONE', #728, 1000.000000000000000 ) ;
#878 = DIRECTION ( 'NONE',  ( -1.210205401168415844E-16, 1.000000000000000000, 0.000000000000000000 ) ) ;
#879 = AXIS2_PLACEMENT_3D ( 'NONE', #854, #44, #544 ) ;
#880 = EDGE_CURVE ( 'NONE', #1254, #909, #31, .T. ) ;
#881 = DIRECTION ( 'NONE',  ( -0.000000000000000000, -0.000000000000000000, -1.000000000000000000 ) ) ;
#882 = CARTESIAN_POINT ( 'NONE',  ( 91.00000000000000000, 2.228857174448183167E-14, 14.83333334333333475 ) ) ;
#883 = ORIENTED_EDGE ( 'NONE', *, *, #503, .F. ) ;
#884 = ORIENTED_EDGE ( 'NONE', *, *, #674, .T. ) ;
#885 = CARTESIAN_POINT ( 'NONE',  ( 119.0000000000000142, -2.983400436350443808E-14, 0.000000000000000000 ) ) ;
#886 = DIRECTION ( 'NONE',  ( -1.000000000000000000, -1.210205401168416090E-16, 0.000000000000000000 ) ) ;
#887 = CARTESIAN_POINT ( 'NONE',  ( 89.00000000000000000, 29.00000000000000355, 0.000000000000000000 ) ) ;
#888 = ORIENTED_EDGE ( 'NONE', *, *, #1174, .T. ) ;
#889 = ORIENTED_EDGE ( 'NONE', *, *, #110, .F. ) ;
#890 = ADVANCED_FACE ( 'NONE', ( #1220 ), #644, .T. ) ;
#891 = DIRECTION ( 'NONE',  ( -1.000000000000000000, 2.507059190210457346E-16, 0.000000000000000000 ) ) ;
#892 = CARTESIAN_POINT ( 'NONE',  ( 91.00000000000000000, 2.228857174448183167E-14, 0.000000000000000000 ) ) ;
#893 = CARTESIAN_POINT ( 'NONE',  ( 120.0000000000000142, 5.551115123125783964E-14, 14.83333334333333475 ) ) ;
#894 = ORIENTED_EDGE ( 'NONE', *, *, #208, .T. ) ;
#895 = EDGE_CURVE ( 'NONE', #1254, #60, #214, .T. ) ;
#896 = PLANE ( 'NONE',  #813 ) ;
#897 =( GEOMETRIC_REPRESENTATION_CONTEXT ( 3 ) GLOBAL_UNCERTAINTY_ASSIGNED_CONTEXT ( ( #314 ) ) GLOBAL_UNIT_ASSIGNED_CONTEXT ( ( #1318, #1217, #103 ) ) REPRESENTATION_CONTEXT ( 'NONE', 'WORKASPACE' ) );
#898 = VECTOR ( 'NONE', #767, 1000.000000000000000 ) ;
#899 = VECTOR ( 'NONE', #1316, 1000.000000000000000 ) ;
#900 = DIRECTION ( 'NONE',  ( 1.000000000000000000, 0.000000000000000000, -0.000000000000000000 ) ) ;
#901 = ORIENTED_EDGE ( 'NONE', *, *, #797, .F. ) ;
#902 = FACE_OUTER_BOUND ( 'NONE', #431, .T. ) ;
#903 = EDGE_CURVE ( 'NONE', #752, #733, #621, .T. ) ;
#904 = CARTESIAN_POINT ( 'NONE',  ( -3.386548452394428701E-17, -0.9999999999999833467, 0.000000000000000000 ) ) ;
#905 = ADVANCED_FACE ( 'NONE', ( #1038 ), #130, .F. ) ;
#906 = DIRECTION ( 'NONE',  ( 0.000000000000000000, 1.000000000000000000, -0.000000000000000000 ) ) ;
#907 = CARTESIAN_POINT ( 'NONE',  ( 120.0000000000000000, -30.00000000000000000, -1.000000000000000000 ) ) ;
#908 = CARTESIAN_POINT ( 'NONE',  ( 1.000000000000007105, -28.99999999999999289, 0.000000000000000000 ) ) ;
#909 = VERTEX_POINT ( 'NONE', #1043 ) ;
#910 = CARTESIAN_POINT ( 'NONE',  ( 89.00000000000000000, 1.000000000000007994, 14.83333334333333475 ) ) ;
#911 = CARTESIAN_POINT ( 'NONE',  ( 91.00000000000000000, 1.000000000000007550, 0.000000000000000000 ) ) ;
#912 = EDGE_CURVE ( 'NONE', #182, #558, #1147, .T. ) ;
#913 = CARTESIAN_POINT ( 'NONE',  ( 1.000000000000003775, 1.239088197126295747E-16, 14.83333334333333475 ) ) ;
#914 = ORIENTED_EDGE ( 'NONE', *, *, #449, .T. ) ;
#915 = EDGE_LOOP ( 'NONE', ( #279, #1120, #456, #350 ) ) ;
#916 = DIRECTION ( 'NONE',  ( 0.000000000000000000, -1.000000000000000000, 0.000000000000000000 ) ) ;
#917 = LINE ( 'NONE', #934, #464 ) ;
#918 = ORIENTED_EDGE ( 'NONE', *, *, #832, .F. ) ;
#919 = VECTOR ( 'NONE', #164, 1000.000000000000000 ) ;
#920 = CARTESIAN_POINT ( 'NONE',  ( 0.000000000000000000, 0.000000000000000000, 0.000000000000000000 ) ) ;
#921 = LINE ( 'NONE', #196, #372 ) ;
#922 = VECTOR ( 'NONE', #41, 1000.000000000000000 ) ;
#923 = DIRECTION ( 'NONE',  ( -2.787948443534153414E-16, 1.000000000000000000, 0.000000000000000000 ) ) ;
#924 = VECTOR ( 'NONE', #556, 1000.000000000000000 ) ;
#925 = ORIENTED_EDGE ( 'NONE', *, *, #815, .T. ) ;
#926 = LINE ( 'NONE', #326, #877 ) ;
#927 = CARTESIAN_POINT ( 'NONE',  ( 29.00000000000000000, -0.9999999999999928946, 0.000000000000000000 ) ) ;
#928 = ORIENTED_EDGE ( 'NONE', *, *, #557, .T. ) ;
#929 = DIRECTION ( 'NONE',  ( -1.000000000000000000, -1.239088197126290817E-16, 0.000000000000000000 ) ) ;
#930 = PLANE ( 'NONE',  #772 ) ;
#931 = EDGE_LOOP ( 'NONE', ( #883, #460, #129, #239 ) ) ;
#932 = DIRECTION ( 'NONE',  ( 1.000000000000000000, 1.210205401168415844E-16, 0.000000000000000000 ) ) ;
#933 = EDGE_CURVE ( 'NONE', #836, #653, #234, .T. ) ;
#934 = CARTESIAN_POINT ( 'NONE',  ( 29.00000000000000000, 7.102951435054649637E-15, 14.83333334333333475 ) ) ;
#935 = ORIENTED_EDGE ( 'NONE', *, *, #404, .T. ) ;
#936 = CARTESIAN_POINT ( 'NONE',  ( 1.000000000000003775, -0.9999999999999997780, 14.83333334333333475 ) ) ;
#937 = FACE_OUTER_BOUND ( 'NONE', #296, .T. ) ;
#938 = ORIENTED_EDGE ( 'NONE', *, *, #942, .F. ) ;
#939 = DIRECTION ( 'NONE',  ( 1.000000000000000000, 2.787948443534153414E-16, 0.000000000000000000 ) ) ;
#940 = ADVANCED_FACE ( 'NONE', ( #1020 ), #1242, .T. ) ;
#941 = ORIENTED_EDGE ( 'NONE', *, *, #1115, .T. ) ;
#942 = EDGE_CURVE ( 'NONE', #705, #317, #715, .T. ) ;
#943 = FACE_OUTER_BOUND ( 'NONE', #105, .T. ) ;
#944 = PLANE ( 'NONE',  #1290 ) ;
#945 = VECTOR ( 'NONE', #305, 1000.000000000000000 ) ;
#946 = EDGE_LOOP ( 'NONE', ( #210, #1162, #157, #925 ) ) ;
#947 = VECTOR ( 'NONE', #113, 1000.000000000000000 ) ;
#948 = DIRECTION ( 'NONE',  ( 1.000000000000000000, 2.787948443534155386E-16, 0.000000000000000000 ) ) ;
#949 = LINE ( 'NONE', #1156, #443 ) ;
#950 = ADVANCED_FACE ( 'NONE', ( #442 ), #7, .F. ) ;
#951 = ORIENTED_EDGE ( 'NONE', *, *, #413, .T. ) ;
#952 = ORIENTED_EDGE ( 'NONE', *, *, #102, .F. ) ;
#953 = DIRECTION ( 'NONE',  ( 0.000000000000000000, 1.000000000000000000, -0.000000000000000000 ) ) ;
#954 = LINE ( 'NONE', #356, #288 ) ;
#955 = EDGE_CURVE ( 'NONE', #713, #752, #1131, .T. ) ;
#956 = EDGE_LOOP ( 'NONE', ( #1182, #382, #364, #1077 ) ) ;
#957 = CARTESIAN_POINT ( 'NONE',  ( 59.00000000000000000, 1.445083222993876957E-14, 0.000000000000000000 ) ) ;
#958 = DIRECTION ( 'NONE',  ( -0.000000000000000000, 0.000000000000000000, -1.000000000000000000 ) ) ;
#959 = ORIENTED_EDGE ( 'NONE', *, *, #1059, .F. ) ;
#960 = VECTOR ( 'NONE', #964, 1000.000000000000000 ) ;
#961 = AXIS2_PLACEMENT_3D ( 'NONE', #316, #900, #793 ) ;
#962 = EDGE_CURVE ( 'NONE', #473, #328, #1323, .T. ) ;
#963 = AXIS2_PLACEMENT_3D ( 'NONE', #363, #1184, #1284 ) ;
#964 = DIRECTION ( 'NONE',  ( -1.000000000000000000, -1.210205401168415844E-16, 0.000000000000000000 ) ) ;
#965 = LINE ( 'NONE', #264, #354 ) ;
#966 = ORIENTED_EDGE ( 'NONE', *, *, #1153, .T. ) ;
#967 = EDGE_CURVE ( 'NONE', #428, #1280, #319, .T. ) ;
#968 = LINE ( 'NONE', #71, #1085 ) ;
#969 = PLANE ( 'NONE',  #963 ) ;
#970 = DIRECTION ( 'NONE',  ( -0.000000000000000000, 0.000000000000000000, -1.000000000000000000 ) ) ;
#971 = ORIENTED_EDGE ( 'NONE', *, *, #273, .F. ) ;
#972 = ORIENTED_EDGE ( 'NONE', *, *, #617, .F. ) ;
#973 = CARTESIAN_POINT ( 'NONE',  ( 3.509595663388404567E-15, -28.99999999999999289, 0.000000000000000000 ) ) ;
#974 = EDGE_CURVE ( 'NONE', #309, #229, #207, .T. ) ;
#975 = LINE ( 'NONE', #254, #856 ) ;
#976 = LINE ( 'NONE', #263, #199 ) ;
#977 = LINE ( 'NONE', #470, #898 ) ;
#978 = EDGE_LOOP ( 'NONE', ( #1022, #345, #507, #864 ) ) ;
#979 = VECTOR ( 'NONE', #990, 1000.000000000000000 ) ;
#980 = LINE ( 'NONE', #885, #262 ) ;
#981 = CARTESIAN_POINT ( 'NONE',  ( 1.000000000000003775, 1.239088197126295747E-16, 0.000000000000000000 ) ) ;
#982 = ADVANCED_FACE ( 'NONE', ( #1013 ), #123, .F. ) ;
#983 = CARTESIAN_POINT ( 'NONE',  ( 89.00000000000000000, 0.000000000000000000, 14.83333334333333475 ) ) ;
#984 = ORIENTED_EDGE ( 'NONE', *, *, #361, .T. ) ;
#985 = LINE ( 'NONE', #274, #200 ) ;
#986 = LINE ( 'NONE', #84, #393 ) ;
#987 = CARTESIAN_POINT ( 'NONE',  ( 1.000000000000003775, -0.9999999999999997780, 0.000000000000000000 ) ) ;
#988 = ORIENTED_EDGE ( 'NONE', *, *, #1052, .T. ) ;
#989 = EDGE_CURVE ( 'NONE', #489, #1197, #721, .T. ) ;
#990 = DIRECTION ( 'NONE',  ( -1.210205401168415844E-16, 1.000000000000000000, 0.000000000000000000 ) ) ;
#991 = PRESENTATION_STYLE_ASSIGNMENT (( #1009 ) ) ;
#992 = DIRECTION ( 'NONE',  ( -1.000000000000000000, 0.000000000000000000, 0.000000000000000000 ) ) ;
#993 = ORIENTED_EDGE ( 'NONE', *, *, #663, .F. ) ;
#994 = VERTEX_POINT ( 'NONE', #526 ) ;
#995 = LINE ( 'NONE', #796, #245 ) ;
#996 = EDGE_CURVE ( 'NONE', #331, #1294, #926, .T. ) ;
#997 = VECTOR ( 'NONE', #642, 1000.000000000000000 ) ;
#998 = AXIS2_PLACEMENT_3D ( 'NONE', #853, #878, #1291 ) ;
#999 = CARTESIAN_POINT ( 'NONE',  ( 89.00000000000000000, 2.179871302482289108E-14, 14.83333334333333475 ) ) ;
#1000 = AXIS2_PLACEMENT_3D ( 'NONE', #1087, #891, #401 ) ;
#1001 = LINE ( 'NONE', #1223, #875 ) ;
#1002 = VECTOR ( 'NONE', #176, 1000.000000000000000 ) ;
#1003 = LINE ( 'NONE', #520, #138 ) ;
#1004 = ORIENTED_EDGE ( 'NONE', *, *, #637, .T. ) ;
#1005 = DIRECTION ( 'NONE',  ( 1.000000000000000000, -0.000000000000000000, -0.000000000000000000 ) ) ;
#1006 = ADVANCED_FACE ( 'NONE', ( #219 ), #185, .F. ) ;
#1007 = DIRECTION ( 'NONE',  ( -1.000000000000000000, -1.210205401168415844E-16, 0.000000000000000000 ) ) ;
#1008 = PRODUCT_DEFINITION_SHAPE ( 'NONE', 'NONE',  #1301 ) ;
#1009 = SURFACE_STYLE_USAGE ( .BOTH. , #188 ) ;
#1010 = CARTESIAN_POINT ( 'NONE',  ( 3.878433842930505744E-15, -30.00000000000000000, 14.83333334333333475 ) ) ;
#1011 = ORIENTED_EDGE ( 'NONE', *, *, #680, .F. ) ;
#1012 = EDGE_LOOP ( 'NONE', ( #1198, #1245, #353, #387 ) ) ;
#1013 = FACE_OUTER_BOUND ( 'NONE', #1225, .T. ) ;
#1014 = DIRECTION ( 'NONE',  ( 1.000000000000000000, 1.156482317317871478E-16, 0.000000000000000000 ) ) ;
#1015 = EDGE_CURVE ( 'NONE', #112, #1073, #284, .T. ) ;
#1016 = EDGE_LOOP ( 'NONE', ( #952, #918, #638, #300 ) ) ;
#1017 = LINE ( 'NONE', #511, #1066 ) ;
#1018 = CARTESIAN_POINT ( 'NONE',  ( 3.097720492815732589E-17, 1.000000000000001776, 0.000000000000000000 ) ) ;
#1019 = EDGE_LOOP ( 'NONE', ( #257, #822, #75, #186 ) ) ;
#1020 = FACE_OUTER_BOUND ( 'NONE', #845, .T. ) ;
#1021 = LINE ( 'NONE', #101, #899 ) ;
#1022 = ORIENTED_EDGE ( 'NONE', *, *, #329, .T. ) ;
#1023 = VECTOR ( 'NONE', #362, 1000.000000000000000 ) ;
#1024 = LINE ( 'NONE', #936, #478 ) ;
#1025 = CARTESIAN_POINT ( 'NONE',  ( 120.0000000000000142, 5.551115123125783964E-14, 14.83333334333333475 ) ) ;
#1026 = VECTOR ( 'NONE', #1005, 1000.000000000000000 ) ;
#1027 = ORIENTED_EDGE ( 'NONE', *, *, #1015, .T. ) ;
#1028 = ADVANCED_FACE ( 'NONE', ( #177 ), #278, .T. ) ;
#1029 = ORIENTED_EDGE ( 'NONE', *, *, #351, .T. ) ;
#1030 = CARTESIAN_POINT ( 'NONE',  ( -2.787948443534104110E-16, 0.9999999999999822364, 0.000000000000000000 ) ) ;
#1031 = CARTESIAN_POINT ( 'NONE',  ( 119.0000000000000142, -0.9999999999999863443, 0.000000000000000000 ) ) ;
#1032 = EDGE_LOOP ( 'NONE', ( #420, #466, #122, #1068 ) ) ;
#1033 = FACE_BOUND ( 'NONE', #1133, .T. ) ;
#1034 = DIRECTION ( 'NONE',  ( 1.000000000000000000, -3.097720492815727659E-17, 0.000000000000000000 ) ) ;
#1035 = DIRECTION ( 'NONE',  ( -1.000000000000000000, 0.000000000000000000, 0.000000000000000000 ) ) ;
#1036 = ORIENTED_EDGE ( 'NONE', *, *, #806, .F. ) ;
#1037 = EDGE_CURVE ( 'NONE', #162, #686, #684, .T. ) ;
#1038 = FACE_OUTER_BOUND ( 'NONE', #795, .T. ) ;
#1039 = VERTEX_POINT ( 'NONE', #73 ) ;
#1040 = DIRECTION ( 'NONE',  ( -0.000000000000000000, 0.000000000000000000, -1.000000000000000000 ) ) ;
#1041 = CARTESIAN_POINT ( 'NONE',  ( 91.00000000000000000, 0.000000000000000000, 0.000000000000000000 ) ) ;
#1042 = ORIENTED_EDGE ( 'NONE', *, *, #912, .F. ) ;
#1043 = CARTESIAN_POINT ( 'NONE',  ( 59.00000000000000000, -0.9999999999999854561, 14.83333334333333475 ) ) ;
#1044 = EDGE_CURVE ( 'NONE', #627, #317, #240, .T. ) ;
#1045 = DIRECTION ( 'NONE',  ( -0.000000000000000000, -0.000000000000000000, -1.000000000000000000 ) ) ;
#1046 = DIRECTION ( 'NONE',  ( 3.386548452394484168E-17, 1.000000000000000000, -0.000000000000000000 ) ) ;
#1047 = VECTOR ( 'NONE', #1170, 1000.000000000000000 ) ;
#1048 = VECTOR ( 'NONE', #390, 1000.000000000000000 ) ;
#1049 = ORIENTED_EDGE ( 'NONE', *, *, #617, .T. ) ;
#1050 = CARTESIAN_POINT ( 'NONE',  ( -2.787948443534108547E-16, 0.9999999999999833467, 14.83333334333333475 ) ) ;
#1051 = ORIENTED_EDGE ( 'NONE', *, *, #1102, .T. ) ;
#1052 = EDGE_CURVE ( 'NONE', #852, #1214, #692, .T. ) ;
#1053 = FACE_BOUND ( 'NONE', #1130, .T. ) ;
#1054 = DIRECTION ( 'NONE',  ( 1.239088197126290817E-16, -1.000000000000000000, 0.000000000000000000 ) ) ;
#1055 = ORIENTED_EDGE ( 'NONE', *, *, #153, .T. ) ;
#1056 = ORIENTED_EDGE ( 'NONE', *, *, #1095, .T. ) ;
#1057 = CARTESIAN_POINT ( 'NONE',  ( 119.0000000000000142, 1.000000000000015321, 14.83333334333333475 ) ) ;
#1058 = CARTESIAN_POINT ( 'NONE',  ( 31.00000000000000000, 28.99999999999999645, 14.83333334333333475 ) ) ;
#1059 = EDGE_CURVE ( 'NONE', #855, #489, #79, .T. ) ;
#1060 = ORIENTED_EDGE ( 'NONE', *, *, #761, .F. ) ;
#1061 = ORIENTED_EDGE ( 'NONE', *, *, #1044, .F. ) ;
#1062 = FACE_OUTER_BOUND ( 'NONE', #70, .T. ) ;
#1063 = FACE_OUTER_BOUND ( 'NONE', #727, .T. ) ;
#1064 = ORIENTED_EDGE ( 'NONE', *, *, #996, .T. ) ;
#1065 = EDGE_CURVE ( 'NONE', #108, #1300, #977, .T. ) ;
#1066 = VECTOR ( 'NONE', #109, 1000.000000000000000 ) ;
#1067 = VECTOR ( 'NONE', #1208, 1000.000000000000000 ) ;
#1068 = ORIENTED_EDGE ( 'NONE', *, *, #974, .T. ) ;
#1069 = VECTOR ( 'NONE', #867, 1000.000000000000000 ) ;
#1070 = CARTESIAN_POINT ( 'NONE',  ( 120.0000000000000142, -29.99999999999998579, 14.83333334333333475 ) ) ;
#1071 = CARTESIAN_POINT ( 'NONE',  ( 31.00000000000000355, 3.751636743622088919E-15, 14.83333334333333475 ) ) ;
#1072 = DIRECTION ( 'NONE',  ( 1.000000000000000000, 2.787948443534155386E-16, 0.000000000000000000 ) ) ;
#1073 = VERTEX_POINT ( 'NONE', #1260 ) ;
#1074 = CARTESIAN_POINT ( 'NONE',  ( 91.00000000000000000, 2.228857174448183167E-14, 14.83333334333333475 ) ) ;
#1075 = PLANE ( 'NONE',  #58 ) ;
#1076 = DIRECTION ( 'NONE',  ( 1.000000000000000000, 1.292811280976835429E-16, 0.000000000000000000 ) ) ;
#1077 = ORIENTED_EDGE ( 'NONE', *, *, #563, .T. ) ;
#1078 = ORIENTED_EDGE ( 'NONE', *, *, #449, .F. ) ;
#1079 = LINE ( 'NONE', #100, #76 ) ;
#1080 = ADVANCED_FACE ( 'NONE', ( #379 ), #172, .T. ) ;
#1081 = DIRECTION ( 'NONE',  ( 1.210205401168415844E-16, -1.000000000000000000, 0.000000000000000000 ) ) ;
#1082 = LINE ( 'NONE', #78, #1002 ) ;
#1083 = DIRECTION ( 'NONE',  ( -1.156482317317871478E-16, 1.000000000000000000, 0.000000000000000000 ) ) ;
#1084 = ORIENTED_EDGE ( 'NONE', *, *, #572, .F. ) ;
#1085 = VECTOR ( 'NONE', #67, 1000.000000000000000 ) ;
#1086 = VECTOR ( 'NONE', #1152, 1000.000000000000000 ) ;
#1087 = CARTESIAN_POINT ( 'NONE',  ( 119.0000000000000142, -2.983400436350443808E-14, 14.83333334333333475 ) ) ;
#1088 = VECTOR ( 'NONE', #1139, 1000.000000000000000 ) ;
#1089 = LINE ( 'NONE', #595, #352 ) ;
#1090 = CARTESIAN_POINT ( 'NONE',  ( -3.469446951953614189E-15, 30.00000000000000000, 14.83333334333333475 ) ) ;
#1091 = VERTEX_POINT ( 'NONE', #588 ) ;
#1092 = FACE_OUTER_BOUND ( 'NONE', #192, .T. ) ;
#1093 = DIRECTION ( 'NONE',  ( 4.956352788505164254E-16, -1.000000000000000000, 0.000000000000000000 ) ) ;
#1094 = CARTESIAN_POINT ( 'NONE',  ( 59.00000000000000000, -0.9999999999999854561, 0.000000000000000000 ) ) ;
#1095 = EDGE_CURVE ( 'NONE', #60, #1234, #1185, .T. ) ;
#1096 = VERTEX_POINT ( 'NONE', #887 ) ;
#1097 = CARTESIAN_POINT ( 'NONE',  ( 1.000000000000003775, 1.210205401168420035E-16, 14.83333334333333475 ) ) ;
#1098 = CARTESIAN_POINT ( 'NONE',  ( 61.00000000000000711, 1.000000000000000222, 14.83333334333333475 ) ) ;
#1099 = CARTESIAN_POINT ( 'NONE',  ( 29.00000000000000000, -0.9999999999999928946, 14.83333334333333475 ) ) ;
#1100 = DIRECTION ( 'NONE',  ( 1.000000000000000000, 4.956352788505164254E-16, -0.000000000000000000 ) ) ;
#1101 = ORIENTED_EDGE ( 'NONE', *, *, #404, .F. ) ;
#1102 = EDGE_CURVE ( 'NONE', #1300, #741, #965, .T. ) ;
#1103 = DIRECTION ( 'NONE',  ( -1.000000000000000000, 0.000000000000000000, 0.000000000000000000 ) ) ;
#1104 = VECTOR ( 'NONE', #517, 1000.000000000000000 ) ;
#1105 = VECTOR ( 'NONE', #391, 1000.000000000000000 ) ;
#1106 = CARTESIAN_POINT ( 'NONE',  ( 0.000000000000000000, 0.000000000000000000, 0.000000000000000000 ) ) ;
#1107 = AXIS2_PLACEMENT_3D ( 'NONE', #1215, #1194, #1188 ) ;
#1108 = DIRECTION ( 'NONE',  ( 3.386548452394465679E-17, 1.000000000000000000, -0.000000000000000000 ) ) ;
#1109 = VECTOR ( 'NONE', #886, 1000.000000000000000 ) ;
#1110 = LINE ( 'NONE', #907, #287 ) ;
#1111 = ORIENTED_EDGE ( 'NONE', *, *, #912, .T. ) ;
#1112 = ORIENTED_EDGE ( 'NONE', *, *, #903, .T. ) ;
#1113 = ADVANCED_FACE ( 'NONE', ( #452 ), #1299, .F. ) ;
#1114 = CARTESIAN_POINT ( 'NONE',  ( 91.00000000000000000, 29.00000000000000355, 14.83333334333333475 ) ) ;
#1115 = EDGE_CURVE ( 'NONE', #428, #831, #846, .T. ) ;
#1116 = CARTESIAN_POINT ( 'NONE',  ( 91.00000000000000000, -0.9999999999999852340, 14.83333334333333475 ) ) ;
#1117 = ORIENTED_EDGE ( 'NONE', *, *, #346, .T. ) ;
#1118 = DIRECTION ( 'NONE',  ( -0.000000000000000000, -0.000000000000000000, -1.000000000000000000 ) ) ;
#1119 = PLANE ( 'NONE',  #858 ) ;
#1120 = ORIENTED_EDGE ( 'NONE', *, *, #607, .F. ) ;
#1121 = ORIENTED_EDGE ( 'NONE', *, *, #563, .F. ) ;
#1122 = CARTESIAN_POINT ( 'NONE',  ( 7.102951435054651215E-15, -29.00000000000000355, 0.000000000000000000 ) ) ;
#1123 = PRODUCT_RELATED_PRODUCT_CATEGORY ( 'part', '', ( #1209 ) ) ;
#1124 = DIRECTION ( 'NONE',  ( -2.449293598294706907E-16, 1.000000000000000000, 0.000000000000000000 ) ) ;
#1125 = ORIENTED_EDGE ( 'NONE', *, *, #955, .T. ) ;
#1126 = EDGE_CURVE ( 'NONE', #108, #1073, #650, .T. ) ;
#1127 = DIRECTION ( 'NONE',  ( -1.210205401168415844E-16, 1.000000000000000000, 0.000000000000000000 ) ) ;
#1128 = DIRECTION ( 'NONE',  ( -1.000000000000000000, -1.292811280976835429E-16, 0.000000000000000000 ) ) ;
#1129 = VERTEX_POINT ( 'NONE', #271 ) ;
#1130 = EDGE_LOOP ( 'NONE', ( #532, #699, #302, #1259 ) ) ;
#1131 = LINE ( 'NONE', #136, #55 ) ;
#1132 = DIRECTION ( 'NONE',  ( 2.449293598294706907E-16, -1.000000000000000000, 0.000000000000000000 ) ) ;
#1133 = EDGE_LOOP ( 'NONE', ( #1064, #1269, #289, #531 ) ) ;
#1134 = VECTOR ( 'NONE', #863, 1000.000000000000000 ) ;
#1135 = LINE ( 'NONE', #147, #414 ) ;
#1136 = ADVANCED_FACE ( 'NONE', ( #1286 ), #785, .F. ) ;
#1137 = SHAPE_DEFINITION_REPRESENTATION ( #1008, #1321 ) ;
#1138 = AXIS2_PLACEMENT_3D ( 'NONE', #707, #681, #1103 ) ;
#1139 = DIRECTION ( 'NONE',  ( 0.000000000000000000, 1.000000000000000000, -0.000000000000000000 ) ) ;
#1140 = VECTOR ( 'NONE', #277, 1000.000000000000000 ) ;
#1141 = ORIENTED_EDGE ( 'NONE', *, *, #1285, .T. ) ;
#1142 = DIRECTION ( 'NONE',  ( -0.000000000000000000, -0.000000000000000000, -1.000000000000000000 ) ) ;
#1143 = EDGE_LOOP ( 'NONE', ( #1042, #1287, #388, #787 ) ) ;
#1144 = FACE_BOUND ( 'NONE', #1186, .T. ) ;
#1145 = LINE ( 'NONE', #1041, #997 ) ;
#1146 = ORIENTED_EDGE ( 'NONE', *, *, #722, .F. ) ;
#1147 = LINE ( 'NONE', #1030, #1181 ) ;
#1148 = EDGE_LOOP ( 'NONE', ( #1141, #1029, #174, #80 ) ) ;
#1149 = CARTESIAN_POINT ( 'NONE',  ( 119.0000000000000142, 1.000000000000015321, 0.000000000000000000 ) ) ;
#1150 = CARTESIAN_POINT ( 'NONE',  ( -3.593355771666242704E-15, 28.99999999999999289, 14.83333334333333475 ) ) ;
#1151 = ORIENTED_EDGE ( 'NONE', *, *, #490, .F. ) ;
#1152 = DIRECTION ( 'NONE',  ( -0.000000000000000000, -0.000000000000000000, -1.000000000000000000 ) ) ;
#1153 = EDGE_CURVE ( 'NONE', #852, #627, #374, .T. ) ;
#1154 = CARTESIAN_POINT ( 'NONE',  ( 59.00000000000000000, 29.00000000000000000, 0.000000000000000000 ) ) ;
#1155 = ORIENTED_EDGE ( 'NONE', *, *, #137, .F. ) ;
#1156 = CARTESIAN_POINT ( 'NONE',  ( 31.00000000000000711, -28.99999999999998934, 14.83333334333333475 ) ) ;
#1157 = FACE_OUTER_BOUND ( 'NONE', #915, .T. ) ;
#1158 = AXIS2_PLACEMENT_3D ( 'NONE', #634, #1239, #437 ) ;
#1159 = AXIS2_PLACEMENT_3D ( 'NONE', #418, #228, #534 ) ;
#1160 = ORIENTED_EDGE ( 'NONE', *, *, #25, .F. ) ;
#1161 = DIRECTION ( 'NONE',  ( 1.000000000000000000, -3.386548452394465063E-17, 0.000000000000000000 ) ) ;
#1162 = ORIENTED_EDGE ( 'NONE', *, *, #1065, .F. ) ;
#1163 = CARTESIAN_POINT ( 'NONE',  ( 29.00000000000000000, 28.99999999999999645, 14.83333334333333475 ) ) ;
#1164 = LINE ( 'NONE', #1071, #714 ) ;
#1165 = ORIENTED_EDGE ( 'NONE', *, *, #226, .F. ) ;
#1166 = LINE ( 'NONE', #973, #1221 ) ;
#1167 = APPLICATION_CONTEXT ( 'automotive_design' ) ;
#1168 = CARTESIAN_POINT ( 'NONE',  ( 61.00000000000000000, 29.00000000000000355, 14.83333334333333475 ) ) ;
#1169 = EDGE_CURVE ( 'NONE', #328, #613, #581, .T. ) ;
#1170 = DIRECTION ( 'NONE',  ( -0.000000000000000000, -0.000000000000000000, -1.000000000000000000 ) ) ;
#1171 = EDGE_LOOP ( 'NONE', ( #14, #440, #914, #436 ) ) ;
#1172 = EDGE_LOOP ( 'NONE', ( #399, #672, #453, #380 ) ) ;
#1173 = CARTESIAN_POINT ( 'NONE',  ( 59.00000000000000711, -28.99999999999998934, 14.83333334333333475 ) ) ;
#1174 = EDGE_CURVE ( 'NONE', #1214, #1281, #411, .T. ) ;
#1175 = CARTESIAN_POINT ( 'NONE',  ( 1.000000000000003775, -0.9999999999999997780, 14.83333334333333475 ) ) ;
#1176 = CARTESIAN_POINT ( 'NONE',  ( 0.000000000000000000, 0.000000000000000000, 14.83333334333333475 ) ) ;
#1177 = CLOSED_SHELL ( 'NONE', ( #1028, #1211, #5, #1203, #1295, #15, #982, #905, #250, #267, #275, #467, #1264, #746, #599, #1258, #1236, #51, #1080, #482, #1193, #241, #1317, #789, #417, #857, #578, #1320, #81, #940, #1006, #93, #1113, #169, #585, #890, #645, #1227, #706, #131, #800, #233, #522, #1136, #950, #43 ) ) ;
#1178 = VERTEX_POINT ( 'NONE', #726 ) ;
#1179 = VECTOR ( 'NONE', #53, 1000.000000000000000 ) ;
#1180 = EDGE_CURVE ( 'NONE', #415, #657, #921, .T. ) ;
#1181 = VECTOR ( 'NONE', #939, 1000.000000000000000 ) ;
#1182 = ORIENTED_EDGE ( 'NONE', *, *, #851, .F. ) ;
#1183 = LINE ( 'NONE', #860, #1023 ) ;
#1184 = DIRECTION ( 'NONE',  ( -2.787948443534155386E-16, 1.000000000000000000, 0.000000000000000000 ) ) ;
#1185 = LINE ( 'NONE', #488, #1309 ) ;
#1186 = EDGE_LOOP ( 'NONE', ( #862, #1313, #1276, #1027 ) ) ;
#1187 = EDGE_CURVE ( 'NONE', #406, #6, #1003, .T. ) ;
#1188 = DIRECTION ( 'NONE',  ( 1.000000000000000000, 1.239088197126291063E-16, 0.000000000000000000 ) ) ;
#1189 = CARTESIAN_POINT ( 'NONE',  ( 29.00000000000000000, 0.000000000000000000, 14.83333334333333475 ) ) ;
#1190 = LINE ( 'NONE', #981, #1140 ) ;
#1191 = CARTESIAN_POINT ( 'NONE',  ( -3.593355771666243492E-15, 28.99999999999999289, 0.000000000000000000 ) ) ;
#1192 = VERTEX_POINT ( 'NONE', #392 ) ;
#1193 = ADVANCED_FACE ( 'NONE', ( #493 ), #299, .F. ) ;
#1194 = DIRECTION ( 'NONE',  ( 1.239088197126291063E-16, -1.000000000000000000, 0.000000000000000000 ) ) ;
#1195 = LINE ( 'NONE', #2, #945 ) ;
#1196 = DIRECTION ( 'NONE',  ( -1.000000000000000000, -2.759065647576279673E-16, 0.000000000000000000 ) ) ;
#1197 = VERTEX_POINT ( 'NONE', #422 ) ;
#1198 = ORIENTED_EDGE ( 'NONE', *, *, #426, .T. ) ;
#1199 = VECTOR ( 'NONE', #367, 1000.000000000000000 ) ;
#1200 = AXIS2_PLACEMENT_3D ( 'NONE', #1319, #1100, #294 ) ;
#1201 = LINE ( 'NONE', #396, #1067 ) ;
#1202 = AXIS2_PLACEMENT_3D ( 'NONE', #763, #358, #270 ) ;
#1203 = ADVANCED_FACE ( 'NONE', ( #306 ), #820, .T. ) ;
#1204 = SURFACE_STYLE_FILL_AREA ( #610 ) ;
#1205 = DIRECTION ( 'NONE',  ( -1.292811280976835429E-16, 1.000000000000000000, 0.000000000000000000 ) ) ;
#1206 = VERTEX_POINT ( 'NONE', #596 ) ;
#1207 = ORIENTED_EDGE ( 'NONE', *, *, #163, .F. ) ;
#1208 = DIRECTION ( 'NONE',  ( -0.000000000000000000, -0.000000000000000000, -1.000000000000000000 ) ) ;
#1209 = PRODUCT ( 'Base_fond_02 - LARGE', 'Base_fond_02 - LARGE', '', ( #655 ) ) ;
#1210 = CARTESIAN_POINT ( 'NONE',  ( 59.00000000000000000, 1.445083222993876957E-14, 14.83333334333333475 ) ) ;
#1211 = ADVANCED_FACE ( 'NONE', ( #1312 ), #13, .F. ) ;
#1212 = DIRECTION ( 'NONE',  ( -0.000000000000000000, 1.000000000000000000, -0.000000000000000000 ) ) ;
#1213 = ORIENTED_EDGE ( 'NONE', *, *, #880, .T. ) ;
#1214 = VERTEX_POINT ( 'NONE', #512 ) ;
#1215 = CARTESIAN_POINT ( 'NONE',  ( -3.593355771666243492E-15, 28.99999999999999289, 14.83333334333333475 ) ) ;
#1216 = DIRECTION ( 'NONE',  ( -1.000000000000000000, -2.449293598294706907E-16, 0.000000000000000000 ) ) ;
#1217 =( NAMED_UNIT ( * ) PLANE_ANGLE_UNIT ( ) SI_UNIT ( $, .RADIAN. ) );
#1218 = CARTESIAN_POINT ( 'NONE',  ( 7.347880794884119933E-15, 30.00000000000001421, -1.000000000000000000 ) ) ;
#1219 = VERTEX_POINT ( 'NONE', #987 ) ;
#1220 = FACE_OUTER_BOUND ( 'NONE', #232, .T. ) ;
#1221 = VECTOR ( 'NONE', #457, 1000.000000000000000 ) ;
#1222 = FACE_OUTER_BOUND ( 'NONE', #664, .T. ) ;
#1223 = CARTESIAN_POINT ( 'NONE',  ( 59.00000000000000000, -0.9999999999999854561, 14.83333334333333475 ) ) ;
#1224 = CARTESIAN_POINT ( 'NONE',  ( 29.00000000000000000, 1.000000000000000000, 14.83333334333333475 ) ) ;
#1225 = EDGE_LOOP ( 'NONE', ( #307, #874, #244, #1004 ) ) ;
#1226 = DIRECTION ( 'NONE',  ( -1.000000000000000000, 0.000000000000000000, 0.000000000000000000 ) ) ;
#1227 = ADVANCED_FACE ( 'NONE', ( #85 ), #1119, .F. ) ;
#1228 = PLANE ( 'NONE',  #143 ) ;
#1229 = UNCERTAINTY_MEASURE_WITH_UNIT (LENGTH_MEASURE( 1.000000000000000082E-05 ), #238, 'distance_accuracy_value', 'NONE');
#1230 = VERTEX_POINT ( 'NONE', #696 ) ;
#1231 = CARTESIAN_POINT ( 'NONE',  ( 1.000000000000003775, 1.210205401168420035E-16, 0.000000000000000000 ) ) ;
#1232 = DIRECTION ( 'NONE',  ( 1.000000000000000000, 1.239088197126291063E-16, 0.000000000000000000 ) ) ;
#1233 = ORIENTED_EDGE ( 'NONE', *, *, #513, .F. ) ;
#1234 = VERTEX_POINT ( 'NONE', #1094 ) ;
#1235 = CARTESIAN_POINT ( 'NONE',  ( 0.000000000000000000, 0.000000000000000000, 0.000000000000000000 ) ) ;
#1236 = ADVANCED_FACE ( 'NONE', ( #3 ), #1306, .F. ) ;
#1237 = CARTESIAN_POINT ( 'NONE',  ( 61.00000000000000711, -1.761850553430331939E-16, 14.83333334333333475 ) ) ;
#1238 = ORIENTED_EDGE ( 'NONE', *, *, #761, .T. ) ;
#1239 = DIRECTION ( 'NONE',  ( -0.000000000000000000, 0.000000000000000000, 1.000000000000000000 ) ) ;
#1240 = CARTESIAN_POINT ( 'NONE',  ( 0.000000000000000000, 0.000000000000000000, 0.000000000000000000 ) ) ;
#1241 = ORIENTED_EDGE ( 'NONE', *, *, #346, .F. ) ;
#1242 = PLANE ( 'NONE',  #550 ) ;
#1243 = AXIS2_PLACEMENT_3D ( 'NONE', #1106, #427, #1244 ) ;
#1244 = DIRECTION ( 'NONE',  ( -1.000000000000000000, 0.000000000000000000, 0.000000000000000000 ) ) ;
#1245 = ORIENTED_EDGE ( 'NONE', *, *, #1311, .F. ) ;
#1246 = VECTOR ( 'NONE', #701, 1000.000000000000000 ) ;
#1247 = CARTESIAN_POINT ( 'NONE',  ( 31.00000000000000355, 3.841173411091502100E-15, 0.000000000000000000 ) ) ;
#1248 = AXIS2_PLACEMENT_3D ( 'NONE', #516, #808, #838 ) ;
#1249 = EDGE_CURVE ( 'NONE', #317, #1214, #1110, .T. ) ;
#1250 = FACE_OUTER_BOUND ( 'NONE', #1261, .T. ) ;
#1251 = ORIENTED_EDGE ( 'NONE', *, *, #1153, .F. ) ;
#1252 = CARTESIAN_POINT ( 'NONE',  ( 7.102951435054651215E-15, -29.00000000000000355, 14.83333334333333475 ) ) ;
#1253 = FACE_OUTER_BOUND ( 'NONE', #135, .T. ) ;
#1254 = VERTEX_POINT ( 'NONE', #603 ) ;
#1255 = PLANE ( 'NONE',  #523 ) ;
#1256 = APPLICATION_PROTOCOL_DEFINITION ( 'draft international standard', 'automotive_design', 1998, #1167 ) ;
#1257 = CARTESIAN_POINT ( 'NONE',  ( 91.00000000000000000, 0.000000000000000000, 14.83333334333333475 ) ) ;
#1258 = ADVANCED_FACE ( 'NONE', ( #90 ), #702, .F. ) ;
#1259 = ORIENTED_EDGE ( 'NONE', *, *, #371, .T. ) ;
#1260 = CARTESIAN_POINT ( 'NONE',  ( 89.00000000000000000, 1.000000000000007994, 14.83333334333333475 ) ) ;
#1261 = EDGE_LOOP ( 'NONE', ( #794, #1241, #1125, #1112 ) ) ;
#1262 = FACE_BOUND ( 'NONE', #248, .T. ) ;
#1263 = ORIENTED_EDGE ( 'NONE', *, *, #942, .T. ) ;
#1264 = ADVANCED_FACE ( 'NONE', ( #189 ), #498, .T. ) ;
#1265 = LINE ( 'NONE', #1163, #810 ) ;
#1266 = CARTESIAN_POINT ( 'NONE',  ( 29.00000000000000000, -0.9999999999999928946, 14.83333334333333475 ) ) ;
#1267 = AXIS2_PLACEMENT_3D ( 'NONE', #1074, #269, #778 ) ;
#1268 = VECTOR ( 'NONE', #1232, 1000.000000000000000 ) ;
#1269 = ORIENTED_EDGE ( 'NONE', *, *, #110, .T. ) ;
#1270 = PRODUCT_DEFINITION_FORMATION_WITH_SPECIFIED_SOURCE ( 'ANY', '', #1209, .NOT_KNOWN. ) ;
#1271 = VECTOR ( 'NONE', #334, 1000.000000000000000 ) ;
#1272 = EDGE_CURVE ( 'NONE', #540, #1039, #405, .T. ) ;
#1273 = LINE ( 'NONE', #760, #1134 ) ;
#1274 = LINE ( 'NONE', #555, #220 ) ;
#1275 = CARTESIAN_POINT ( 'NONE',  ( 3.509595663388405356E-15, -28.99999999999999289, 14.83333334333333475 ) ) ;
#1276 = ORIENTED_EDGE ( 'NONE', *, *, #842, .T. ) ;
#1277 = CARTESIAN_POINT ( 'NONE',  ( 59.00000000000000711, -28.99999999999998934, 14.83333334333333475 ) ) ;
#1278 = LINE ( 'NONE', #561, #1047 ) ;
#1279 = DIRECTION ( 'NONE',  ( -1.000000000000000000, 0.000000000000000000, 0.000000000000000000 ) ) ;
#1280 = VERTEX_POINT ( 'NONE', #1224 ) ;
#1281 = VERTEX_POINT ( 'NONE', #719 ) ;
#1282 = ORIENTED_EDGE ( 'NONE', *, *, #320, .F. ) ;
#1283 = DIRECTION ( 'NONE',  ( -0.000000000000000000, -0.000000000000000000, -1.000000000000000000 ) ) ;
#1284 = DIRECTION ( 'NONE',  ( -1.000000000000000000, -2.787948443534155386E-16, 0.000000000000000000 ) ) ;
#1285 = EDGE_CURVE ( 'NONE', #565, #730, #212, .T. ) ;
#1286 = FACE_OUTER_BOUND ( 'NONE', #640, .T. ) ;
#1287 = ORIENTED_EDGE ( 'NONE', *, *, #637, .F. ) ;
#1288 = AXIS2_PLACEMENT_3D ( 'NONE', #1305, #1108, #403 ) ;
#1289 = VECTOR ( 'NONE', #916, 1000.000000000000000 ) ;
#1290 = AXIS2_PLACEMENT_3D ( 'NONE', #340, #1035, #539 ) ;
#1291 = DIRECTION ( 'NONE',  ( -1.000000000000000000, -1.210205401168415844E-16, 0.000000000000000000 ) ) ;
#1292 = PLANE ( 'NONE',  #290 ) ;
#1293 = CARTESIAN_POINT ( 'NONE',  ( 7.347880794884119933E-15, -30.00000000000000000, 14.83333334333333475 ) ) ;
#1294 = VERTEX_POINT ( 'NONE', #1266 ) ;
#1295 = ADVANCED_FACE ( 'NONE', ( #1157 ), #538, .T. ) ;
#1296 = ORIENTED_EDGE ( 'NONE', *, *, #137, .T. ) ;
#1297 = FACE_OUTER_BOUND ( 'NONE', #956, .T. ) ;
#1298 = CARTESIAN_POINT ( 'NONE',  ( 91.00000000000000000, 1.000000000000007550, 14.83333334333333475 ) ) ;
#1299 = PLANE ( 'NONE',  #333 ) ;
#1300 = VERTEX_POINT ( 'NONE', #635 ) ;
#1301 = PRODUCT_DEFINITION ( 'UNKNOWN', '', #1270, #486 ) ;
#1302 = VERTEX_POINT ( 'NONE', #127 ) ;
#1303 = LINE ( 'NONE', #788, #1048 ) ;
#1304 = EDGE_CURVE ( 'NONE', #627, #1314, #21, .T. ) ;
#1305 = CARTESIAN_POINT ( 'NONE',  ( -3.386548452394404666E-17, -0.9999999999999822364, 14.83333334333333475 ) ) ;
#1306 = PLANE ( 'NONE',  #961 ) ;
#1307 = ORIENTED_EDGE ( 'NONE', *, *, #1272, .F. ) ;
#1308 = COLOUR_RGB ( '',0.7921568627450980005, 0.8196078431372548767, 0.9333333333333333481 ) ;
#1309 = VECTOR ( 'NONE', #747, 1000.000000000000000 ) ;
#1310 = CARTESIAN_POINT ( 'NONE',  ( 61.00000000000000711, -0.9999999999999852340, 0.000000000000000000 ) ) ;
#1311 = EDGE_CURVE ( 'NONE', #657, #558, #954, .T. ) ;
#1312 = FACE_OUTER_BOUND ( 'NONE', #536, .T. ) ;
#1313 = ORIENTED_EDGE ( 'NONE', *, *, #184, .T. ) ;
#1314 = VERTEX_POINT ( 'NONE', #751 ) ;
#1315 = DIRECTION ( 'NONE',  ( 2.507059190210457346E-16, 1.000000000000000000, 0.000000000000000000 ) ) ;
#1316 = DIRECTION ( 'NONE',  ( -0.000000000000000000, -0.000000000000000000, -1.000000000000000000 ) ) ;
#1317 = ADVANCED_FACE ( 'NONE', ( #647 ), #49, .F. ) ;
#1318 =( LENGTH_UNIT ( ) NAMED_UNIT ( * ) SI_UNIT ( .MILLI., .METRE. ) );
#1319 = CARTESIAN_POINT ( 'NONE',  ( 119.0000000000000142, 5.898059818321145383E-14, 14.83333334333333475 ) ) ;
#1320 = ADVANCED_FACE ( 'NONE', ( #459 ), #849, .F. ) ;
#1321 = ADVANCED_BREP_SHAPE_REPRESENTATION ( 'Base_fond_02 - LARGE', ( #432, #142 ), #357 ) ;
#1322 = ORIENTED_EDGE ( 'NONE', *, *, #184, .F. ) ;
#1323 = LINE ( 'NONE', #1114, #876 ) ;
ENDSEC;
END-ISO-10303-21;
