0
SECTION
2
HEADER
0
ENDSEC
0
SECTION
2
TABLES
0
ENDSEC
0
SECTION
2
BLOCKS
0
ENDSEC
0
SECTION
2
ENTITIES
0
CIRCLE
8
0
62
1
370
-1
10
9.462236
20
7.053846
30
0.0
40
0.100000
0
CIRCLE
8
0
62
1
370
-1
10
9.462236
20
9.207692
30
0.0
40
0.100000
0
CIRCLE
8
0
62
1
370
-1
10
9.462236
20
11.361538
30
0.0
40
0.100000
0
CIRCLE
8
0
62
1
370
-1
10
9.462236
20
13.515385
30
0.0
40
0.100000
0
CIRCLE
8
0
62
1
370
-1
10
9.462236
20
15.669231
30
0.0
40
0.100000
0
CIRCLE
8
0
62
1
370
-1
10
9.462236
20
17.823077
30
0.0
40
0.100000
0
CIRCLE
8
0
62
1
370
-1
10
9.462236
20
19.976923
30
0.0
40
0.100000
0
CIRCLE
8
0
62
1
370
-1
10
9.462236
20
22.130769
30
0.0
40
0.100000
0
CIRCLE
8
0
62
1
370
-1
10
9.462236
20
24.284615
30
0.0
40
0.100000
0
CIRCLE
8
0
62
1
370
-1
10
9.462236
20
26.438462
30
0.0
40
0.100000
0
CIRCLE
8
0
62
1
370
-1
10
9.462236
20
28.592308
30
0.0
40
0.100000
0
CIRCLE
8
0
62
1
370
-1
10
9.462236
20
30.746154
30
0.0
40
0.100000
0
CIRCLE
8
0
62
1
370
-1
10
11.178193
20
7.053846
30
0.0
40
0.100000
0
CIRCLE
8
0
62
1
370
-1
10
11.178193
20
9.207692
30
0.0
40
0.100000
0
CIRCLE
8
0
62
1
370
-1
10
11.178193
20
11.361538
30
0.0
40
0.100000
0
CIRCLE
8
0
62
1
370
-1
10
11.178193
20
13.515385
30
0.0
40
0.100000
0
CIRCLE
8
0
62
1
370
-1
10
11.178193
20
15.669231
30
0.0
40
0.100000
0
CIRCLE
8
0
62
1
370
-1
10
11.178193
20
17.823077
30
0.0
40
0.100000
0
CIRCLE
8
0
62
1
370
-1
10
11.178193
20
19.976923
30
0.0
40
0.100000
0
CIRCLE
8
0
62
1
370
-1
10
11.178193
20
22.130769
30
0.0
40
0.100000
0
CIRCLE
8
0
62
1
370
-1
10
11.178193
20
24.284615
30
0.0
40
0.100000
0
CIRCLE
8
0
62
1
370
-1
10
11.178193
20
26.438462
30
0.0
40
0.100000
0
CIRCLE
8
0
62
1
370
-1
10
11.178193
20
28.592308
30
0.0
40
0.100000
0
CIRCLE
8
0
62
1
370
-1
10
11.178193
20
30.746154
30
0.0
40
0.100000
0
CIRCLE
8
0
62
1
370
-1
10
12.894150
20
7.053846
30
0.0
40
0.100000
0
CIRCLE
8
0
62
1
370
-1
10
12.894150
20
9.207692
30
0.0
40
0.100000
0
CIRCLE
8
0
62
1
370
-1
10
12.894150
20
11.361538
30
0.0
40
0.100000
0
CIRCLE
8
0
62
1
370
-1
10
12.894150
20
13.515385
30
0.0
40
0.100000
0
CIRCLE
8
0
62
1
370
-1
10
12.894150
20
15.669231
30
0.0
40
0.100000
0
CIRCLE
8
0
62
1
370
-1
10
12.894150
20
17.823077
30
0.0
40
0.100000
0
CIRCLE
8
0
62
1
370
-1
10
12.894150
20
19.976923
30
0.0
40
0.100000
0
CIRCLE
8
0
62
1
370
-1
10
12.894150
20
22.130769
30
0.0
40
0.100000
0
CIRCLE
8
0
62
1
370
-1
10
12.894150
20
24.284615
30
0.0
40
0.100000
0
CIRCLE
8
0
62
1
370
-1
10
12.894150
20
26.438462
30
0.0
40
0.100000
0
CIRCLE
8
0
62
1
370
-1
10
12.894150
20
28.592308
30
0.0
40
0.100000
0
CIRCLE
8
0
62
1
370
-1
10
12.894150
20
30.746154
30
0.0
40
0.100000
0
CIRCLE
8
0
62
1
370
-1
10
14.610107
20
7.053846
30
0.0
40
0.100000
0
CIRCLE
8
0
62
1
370
-1
10
14.610107
20
9.207692
30
0.0
40
0.100000
0
CIRCLE
8
0
62
1
370
-1
10
14.610107
20
11.361538
30
0.0
40
0.100000
0
CIRCLE
8
0
62
1
370
-1
10
14.610107
20
13.515385
30
0.0
40
0.100000
0
CIRCLE
8
0
62
1
370
-1
10
14.610107
20
15.669231
30
0.0
40
0.100000
0
CIRCLE
8
0
62
1
370
-1
10
14.610107
20
17.823077
30
0.0
40
0.100000
0
CIRCLE
8
0
62
1
370
-1
10
14.610107
20
19.976923
30
0.0
40
0.100000
0
CIRCLE
8
0
62
1
370
-1
10
14.610107
20
22.130769
30
0.0
40
0.100000
0
CIRCLE
8
0
62
1
370
-1
10
14.610107
20
24.284615
30
0.0
40
0.100000
0
CIRCLE
8
0
62
1
370
-1
10
14.610107
20
26.438462
30
0.0
40
0.100000
0
CIRCLE
8
0
62
1
370
-1
10
14.610107
20
28.592308
30
0.0
40
0.100000
0
CIRCLE
8
0
62
1
370
-1
10
14.610107
20
30.746154
30
0.0
40
0.100000
0
CIRCLE
8
0
62
1
370
-1
10
16.326064
20
7.053846
30
0.0
40
0.100000
0
CIRCLE
8
0
62
1
370
-1
10
16.326064
20
9.207692
30
0.0
40
0.100000
0
CIRCLE
8
0
62
1
370
-1
10
16.326064
20
11.361538
30
0.0
40
0.100000
0
CIRCLE
8
0
62
1
370
-1
10
16.326064
20
13.515385
30
0.0
40
0.100000
0
CIRCLE
8
0
62
1
370
-1
10
16.326064
20
15.669231
30
0.0
40
0.100000
0
CIRCLE
8
0
62
1
370
-1
10
16.326064
20
17.823077
30
0.0
40
0.100000
0
CIRCLE
8
0
62
1
370
-1
10
16.326064
20
19.976923
30
0.0
40
0.100000
0
CIRCLE
8
0
62
1
370
-1
10
16.326064
20
22.130769
30
0.0
40
0.100000
0
CIRCLE
8
0
62
1
370
-1
10
16.326064
20
24.284615
30
0.0
40
0.100000
0
CIRCLE
8
0
62
1
370
-1
10
16.326064
20
26.438462
30
0.0
40
0.100000
0
CIRCLE
8
0
62
1
370
-1
10
16.326064
20
28.592308
30
0.0
40
0.100000
0
CIRCLE
8
0
62
1
370
-1
10
16.326064
20
30.746154
30
0.0
40
0.100000
0
CIRCLE
8
0
62
1
370
-1
10
18.042021
20
7.053846
30
0.0
40
0.100000
0
CIRCLE
8
0
62
1
370
-1
10
18.042021
20
9.207692
30
0.0
40
0.100000
0
CIRCLE
8
0
62
1
370
-1
10
18.042021
20
11.361538
30
0.0
40
0.100000
0
CIRCLE
8
0
62
1
370
-1
10
18.042021
20
13.515385
30
0.0
40
0.100000
0
CIRCLE
8
0
62
1
370
-1
10
18.042021
20
15.669231
30
0.0
40
0.100000
0
CIRCLE
8
0
62
1
370
-1
10
18.042021
20
17.823077
30
0.0
40
0.100000
0
CIRCLE
8
0
62
1
370
-1
10
18.042021
20
19.976923
30
0.0
40
0.100000
0
CIRCLE
8
0
62
1
370
-1
10
18.042021
20
22.130769
30
0.0
40
0.100000
0
CIRCLE
8
0
62
1
370
-1
10
18.042021
20
24.284615
30
0.0
40
0.100000
0
CIRCLE
8
0
62
1
370
-1
10
18.042021
20
26.438462
30
0.0
40
0.100000
0
CIRCLE
8
0
62
1
370
-1
10
18.042021
20
28.592308
30
0.0
40
0.100000
0
CIRCLE
8
0
62
1
370
-1
10
18.042021
20
30.746154
30
0.0
40
0.100000
0
CIRCLE
8
0
62
1
370
-1
10
19.757979
20
7.053846
30
0.0
40
0.100000
0
CIRCLE
8
0
62
1
370
-1
10
19.757979
20
9.207692
30
0.0
40
0.100000
0
CIRCLE
8
0
62
1
370
-1
10
19.757979
20
11.361538
30
0.0
40
0.100000
0
CIRCLE
8
0
62
1
370
-1
10
19.757979
20
13.515385
30
0.0
40
0.100000
0
CIRCLE
8
0
62
1
370
-1
10
19.757979
20
15.669231
30
0.0
40
0.100000
0
CIRCLE
8
0
62
1
370
-1
10
19.757979
20
17.823077
30
0.0
40
0.100000
0
CIRCLE
8
0
62
1
370
-1
10
19.757979
20
19.976923
30
0.0
40
0.100000
0
CIRCLE
8
0
62
1
370
-1
10
19.757979
20
22.130769
30
0.0
40
0.100000
0
CIRCLE
8
0
62
1
370
-1
10
19.757979
20
24.284615
30
0.0
40
0.100000
0
CIRCLE
8
0
62
1
370
-1
10
19.757979
20
26.438462
30
0.0
40
0.100000
0
CIRCLE
8
0
62
1
370
-1
10
19.757979
20
28.592308
30
0.0
40
0.100000
0
CIRCLE
8
0
62
1
370
-1
10
19.757979
20
30.746154
30
0.0
40
0.100000
0
CIRCLE
8
0
62
1
370
-1
10
21.473936
20
7.053846
30
0.0
40
0.100000
0
CIRCLE
8
0
62
1
370
-1
10
21.473936
20
9.207692
30
0.0
40
0.100000
0
CIRCLE
8
0
62
1
370
-1
10
21.473936
20
11.361538
30
0.0
40
0.100000
0
CIRCLE
8
0
62
1
370
-1
10
21.473936
20
13.515385
30
0.0
40
0.100000
0
CIRCLE
8
0
62
1
370
-1
10
21.473936
20
15.669231
30
0.0
40
0.100000
0
CIRCLE
8
0
62
1
370
-1
10
21.473936
20
17.823077
30
0.0
40
0.100000
0
CIRCLE
8
0
62
1
370
-1
10
21.473936
20
19.976923
30
0.0
40
0.100000
0
CIRCLE
8
0
62
1
370
-1
10
21.473936
20
22.130769
30
0.0
40
0.100000
0
CIRCLE
8
0
62
1
370
-1
10
21.473936
20
24.284615
30
0.0
40
0.100000
0
CIRCLE
8
0
62
1
370
-1
10
21.473936
20
26.438462
30
0.0
40
0.100000
0
CIRCLE
8
0
62
1
370
-1
10
21.473936
20
28.592308
30
0.0
40
0.100000
0
CIRCLE
8
0
62
1
370
-1
10
21.473936
20
30.746154
30
0.0
40
0.100000
0
CIRCLE
8
0
62
1
370
-1
10
23.189893
20
7.053846
30
0.0
40
0.100000
0
CIRCLE
8
0
62
1
370
-1
10
23.189893
20
9.207692
30
0.0
40
0.100000
0
CIRCLE
8
0
62
1
370
-1
10
23.189893
20
11.361538
30
0.0
40
0.100000
0
CIRCLE
8
0
62
1
370
-1
10
23.189893
20
13.515385
30
0.0
40
0.100000
0
CIRCLE
8
0
62
1
370
-1
10
23.189893
20
15.669231
30
0.0
40
0.100000
0
CIRCLE
8
0
62
1
370
-1
10
23.189893
20
17.823077
30
0.0
40
0.100000
0
CIRCLE
8
0
62
1
370
-1
10
23.189893
20
19.976923
30
0.0
40
0.100000
0
CIRCLE
8
0
62
1
370
-1
10
23.189893
20
22.130769
30
0.0
40
0.100000
0
CIRCLE
8
0
62
1
370
-1
10
23.189893
20
24.284615
30
0.0
40
0.100000
0
CIRCLE
8
0
62
1
370
-1
10
23.189893
20
26.438462
30
0.0
40
0.100000
0
CIRCLE
8
0
62
1
370
-1
10
23.189893
20
28.592308
30
0.0
40
0.100000
0
CIRCLE
8
0
62
1
370
-1
10
23.189893
20
30.746154
30
0.0
40
0.100000
0
CIRCLE
8
0
62
1
370
-1
10
24.905850
20
7.053846
30
0.0
40
0.100000
0
CIRCLE
8
0
62
1
370
-1
10
24.905850
20
9.207692
30
0.0
40
0.100000
0
CIRCLE
8
0
62
1
370
-1
10
24.905850
20
11.361538
30
0.0
40
0.100000
0
CIRCLE
8
0
62
1
370
-1
10
24.905850
20
13.515385
30
0.0
40
0.100000
0
CIRCLE
8
0
62
1
370
-1
10
24.905850
20
15.669231
30
0.0
40
0.100000
0
CIRCLE
8
0
62
1
370
-1
10
24.905850
20
17.823077
30
0.0
40
0.100000
0
CIRCLE
8
0
62
1
370
-1
10
24.905850
20
19.976923
30
0.0
40
0.100000
0
CIRCLE
8
0
62
1
370
-1
10
24.905850
20
22.130769
30
0.0
40
0.100000
0
CIRCLE
8
0
62
1
370
-1
10
24.905850
20
24.284615
30
0.0
40
0.100000
0
CIRCLE
8
0
62
1
370
-1
10
24.905850
20
26.438462
30
0.0
40
0.100000
0
CIRCLE
8
0
62
1
370
-1
10
24.905850
20
28.592308
30
0.0
40
0.100000
0
CIRCLE
8
0
62
1
370
-1
10
24.905850
20
30.746154
30
0.0
40
0.100000
0
CIRCLE
8
0
62
1
370
-1
10
26.621807
20
7.053846
30
0.0
40
0.100000
0
CIRCLE
8
0
62
1
370
-1
10
26.621807
20
9.207692
30
0.0
40
0.100000
0
CIRCLE
8
0
62
1
370
-1
10
26.621807
20
11.361538
30
0.0
40
0.100000
0
CIRCLE
8
0
62
1
370
-1
10
26.621807
20
13.515385
30
0.0
40
0.100000
0
CIRCLE
8
0
62
1
370
-1
10
26.621807
20
15.669231
30
0.0
40
0.100000
0
CIRCLE
8
0
62
1
370
-1
10
26.621807
20
17.823077
30
0.0
40
0.100000
0
CIRCLE
8
0
62
1
370
-1
10
26.621807
20
19.976923
30
0.0
40
0.100000
0
CIRCLE
8
0
62
1
370
-1
10
26.621807
20
22.130769
30
0.0
40
0.100000
0
CIRCLE
8
0
62
1
370
-1
10
26.621807
20
24.284615
30
0.0
40
0.100000
0
CIRCLE
8
0
62
1
370
-1
10
26.621807
20
26.438462
30
0.0
40
0.100000
0
CIRCLE
8
0
62
1
370
-1
10
26.621807
20
28.592308
30
0.0
40
0.100000
0
CIRCLE
8
0
62
1
370
-1
10
26.621807
20
30.746154
30
0.0
40
0.100000
0
CIRCLE
8
0
62
1
370
-1
10
28.337764
20
7.053846
30
0.0
40
0.100000
0
CIRCLE
8
0
62
1
370
-1
10
28.337764
20
9.207692
30
0.0
40
0.100000
0
CIRCLE
8
0
62
1
370
-1
10
28.337764
20
11.361538
30
0.0
40
0.100000
0
CIRCLE
8
0
62
1
370
-1
10
28.337764
20
13.515385
30
0.0
40
0.100000
0
CIRCLE
8
0
62
1
370
-1
10
28.337764
20
15.669231
30
0.0
40
0.100000
0
CIRCLE
8
0
62
1
370
-1
10
28.337764
20
17.823077
30
0.0
40
0.100000
0
CIRCLE
8
0
62
1
370
-1
10
28.337764
20
19.976923
30
0.0
40
0.100000
0
CIRCLE
8
0
62
1
370
-1
10
28.337764
20
22.130769
30
0.0
40
0.100000
0
CIRCLE
8
0
62
1
370
-1
10
28.337764
20
24.284615
30
0.0
40
0.100000
0
CIRCLE
8
0
62
1
370
-1
10
28.337764
20
26.438462
30
0.0
40
0.100000
0
CIRCLE
8
0
62
1
370
-1
10
28.337764
20
28.592308
30
0.0
40
0.100000
0
CIRCLE
8
0
62
1
370
-1
10
28.337764
20
30.746154
30
0.0
40
0.100000
0
LINE
8
0
62
7
370
-1
10
0.000000
20
0.000000
30
0.0
11
37.800000
21
0.000000
31
0.0
0
LINE
8
0
62
7
370
-1
10
37.800000
20
0.000000
30
0.0
11
37.800000
21
37.800000
31
0.0
0
LINE
8
0
62
7
370
-1
10
37.800000
20
37.800000
30
0.0
11
0.000000
21
37.800000
31
0.0
0
LINE
8
0
62
7
370
-1
10
0.000000
20
37.800000
30
0.0
11
0.000000
21
0.000000
31
0.0
0
ENDSEC
0
SECTION
2
OBJECTS
0
ENDSEC
0
ENDSEC
0
EOF
