999
"DXF R12 Output" (www.mydxf.blogspot.com)
 0 
SECTION
 2 
HEADER
 9 
$ACADVER
 1 
AC1009
 9 
$EXTMIN
 10 
 0 
 20 
 0 
 9 
$EXTMAX
 10 
 8.5 
 20 
 11 
 0 
ENDSEC
 0 
SECTION
 2 
ENTITIES
0
POLYLINE
8
0
62
10
70
0
10
0.000000
20
0.000000
66
1
0
VERTEX
8
0
10
38.283319
20
236.719346
70
0
0
VERTEX
8
0
10
38.144017
20
237.054897
70
0
0
VERTEX
8
0
10
37.808319
20
237.193844
70
0
0
VERTEX
8
0
10
37.472621
20
237.054897
70
0
0
VERTEX
8
0
10
37.333320
20
236.719346
70
0
0
VERTEX
8
0
10
37.472621
20
236.383795
70
0
0
VERTEX
8
0
10
37.808319
20
236.244848
70
0
0
VERTEX
8
0
10
38.144017
20
236.383795
70
0
0
VERTEX
8
0
10
38.283319
20
236.719346
70
0
0
VERTEX
8
0
10
38.283319
20
236.719346
70
0
0
SEQEND
8
0
0
POLYLINE
8
0
62
10
70
0
10
0.000000
20
0.000000
66
1
0
VERTEX
8
0
10
38.283319
20
240.719341
70
0
0
VERTEX
8
0
10
38.144017
20
241.054892
70
0
0
VERTEX
8
0
10
37.808319
20
241.193839
70
0
0
VERTEX
8
0
10
37.472621
20
241.054892
70
0
0
VERTEX
8
0
10
37.333320
20
240.719341
70
0
0
VERTEX
8
0
10
37.472621
20
240.383790
70
0
0
VERTEX
8
0
10
37.808319
20
240.244843
70
0
0
VERTEX
8
0
10
38.144017
20
240.383790
70
0
0
VERTEX
8
0
10
38.283319
20
240.719341
70
0
0
VERTEX
8
0
10
38.283319
20
240.719341
70
0
0
SEQEND
8
0
0
POLYLINE
8
0
62
10
70
0
10
0.000000
20
0.000000
66
1
0
VERTEX
8
0
10
38.283319
20
244.719336
70
0
0
VERTEX
8
0
10
38.144017
20
245.054887
70
0
0
VERTEX
8
0
10
37.808319
20
245.193834
70
0
0
VERTEX
8
0
10
37.472621
20
245.054887
70
0
0
VERTEX
8
0
10
37.333320
20
244.719336
70
0
0
VERTEX
8
0
10
37.472621
20
244.383785
70
0
0
VERTEX
8
0
10
37.808319
20
244.244838
70
0
0
VERTEX
8
0
10
38.144017
20
244.383785
70
0
0
VERTEX
8
0
10
38.283319
20
244.719336
70
0
0
VERTEX
8
0
10
38.283319
20
244.719336
70
0
0
SEQEND
8
0
0
POLYLINE
8
0
62
10
70
0
10
0.000000
20
0.000000
66
1
0
VERTEX
8
0
10
38.283319
20
248.719331
70
0
0
VERTEX
8
0
10
38.144017
20
249.054882
70
0
0
VERTEX
8
0
10
37.808319
20
249.193829
70
0
0
VERTEX
8
0
10
37.472621
20
249.054882
70
0
0
VERTEX
8
0
10
37.333320
20
248.719331
70
0
0
VERTEX
8
0
10
37.472621
20
248.383779
70
0
0
VERTEX
8
0
10
37.808319
20
248.244833
70
0
0
VERTEX
8
0
10
38.144017
20
248.383779
70
0
0
VERTEX
8
0
10
38.283319
20
248.719331
70
0
0
VERTEX
8
0
10
38.283319
20
248.719331
70
0
0
SEQEND
8
0
0
POLYLINE
8
0
62
10
70
0
10
0.000000
20
0.000000
66
1
0
VERTEX
8
0
10
38.283319
20
252.719326
70
0
0
VERTEX
8
0
10
38.144017
20
253.054877
70
0
0
VERTEX
8
0
10
37.808319
20
253.193824
70
0
0
VERTEX
8
0
10
37.472621
20
253.054877
70
0
0
VERTEX
8
0
10
37.333320
20
252.719326
70
0
0
VERTEX
8
0
10
37.472621
20
252.383774
70
0
0
VERTEX
8
0
10
37.808319
20
252.244827
70
0
0
VERTEX
8
0
10
38.144017
20
252.383774
70
0
0
VERTEX
8
0
10
38.283319
20
252.719326
70
0
0
VERTEX
8
0
10
38.283319
20
252.719326
70
0
0
SEQEND
8
0
0
POLYLINE
8
0
62
10
70
0
10
0.000000
20
0.000000
66
1
0
VERTEX
8
0
10
38.283319
20
256.719321
70
0
0
VERTEX
8
0
10
38.144017
20
257.054872
70
0
0
VERTEX
8
0
10
37.808319
20
257.193819
70
0
0
VERTEX
8
0
10
37.472621
20
257.054872
70
0
0
VERTEX
8
0
10
37.333320
20
256.719321
70
0
0
VERTEX
8
0
10
37.472621
20
256.383769
70
0
0
VERTEX
8
0
10
37.808319
20
256.244822
70
0
0
VERTEX
8
0
10
38.144017
20
256.383769
70
0
0
VERTEX
8
0
10
38.283319
20
256.719321
70
0
0
VERTEX
8
0
10
38.283319
20
256.719321
70
0
0
SEQEND
8
0
0
POLYLINE
8
0
62
10
70
0
10
0.000000
20
0.000000
66
1
0
VERTEX
8
0
10
41.640006
20
236.719346
70
0
0
VERTEX
8
0
10
41.500705
20
237.054897
70
0
0
VERTEX
8
0
10
41.165007
20
237.193844
70
0
0
VERTEX
8
0
10
40.829309
20
237.054897
70
0
0
VERTEX
8
0
10
40.690008
20
236.719346
70
0
0
VERTEX
8
0
10
40.829309
20
236.383795
70
0
0
VERTEX
8
0
10
41.165007
20
236.244848
70
0
0
VERTEX
8
0
10
41.500705
20
236.383795
70
0
0
VERTEX
8
0
10
41.640006
20
236.719346
70
0
0
VERTEX
8
0
10
41.640006
20
236.719346
70
0
0
SEQEND
8
0
0
POLYLINE
8
0
62
10
70
0
10
0.000000
20
0.000000
66
1
0
VERTEX
8
0
10
41.640006
20
240.719341
70
0
0
VERTEX
8
0
10
41.500705
20
241.054892
70
0
0
VERTEX
8
0
10
41.165007
20
241.193839
70
0
0
VERTEX
8
0
10
40.829309
20
241.054892
70
0
0
VERTEX
8
0
10
40.690008
20
240.719341
70
0
0
VERTEX
8
0
10
40.829309
20
240.383790
70
0
0
VERTEX
8
0
10
41.165007
20
240.244843
70
0
0
VERTEX
8
0
10
41.500705
20
240.383790
70
0
0
VERTEX
8
0
10
41.640006
20
240.719341
70
0
0
VERTEX
8
0
10
41.640006
20
240.719341
70
0
0
SEQEND
8
0
0
POLYLINE
8
0
62
10
70
0
10
0.000000
20
0.000000
66
1
0
VERTEX
8
0
10
41.640006
20
244.719336
70
0
0
VERTEX
8
0
10
41.500705
20
245.054887
70
0
0
VERTEX
8
0
10
41.165007
20
245.193834
70
0
0
VERTEX
8
0
10
40.829309
20
245.054887
70
0
0
VERTEX
8
0
10
40.690008
20
244.719336
70
0
0
VERTEX
8
0
10
40.829309
20
244.383785
70
0
0
VERTEX
8
0
10
41.165007
20
244.244838
70
0
0
VERTEX
8
0
10
41.500705
20
244.383785
70
0
0
VERTEX
8
0
10
41.640006
20
244.719336
70
0
0
VERTEX
8
0
10
41.640006
20
244.719336
70
0
0
SEQEND
8
0
0
POLYLINE
8
0
62
10
70
0
10
0.000000
20
0.000000
66
1
0
VERTEX
8
0
10
41.640006
20
248.719331
70
0
0
VERTEX
8
0
10
41.500705
20
249.054882
70
0
0
VERTEX
8
0
10
41.165007
20
249.193829
70
0
0
VERTEX
8
0
10
40.829309
20
249.054882
70
0
0
VERTEX
8
0
10
40.690008
20
248.719331
70
0
0
VERTEX
8
0
10
40.829309
20
248.383779
70
0
0
VERTEX
8
0
10
41.165007
20
248.244833
70
0
0
VERTEX
8
0
10
41.500705
20
248.383779
70
0
0
VERTEX
8
0
10
41.640006
20
248.719331
70
0
0
VERTEX
8
0
10
41.640006
20
248.719331
70
0
0
SEQEND
8
0
0
POLYLINE
8
0
62
10
70
0
10
0.000000
20
0.000000
66
1
0
VERTEX
8
0
10
41.640006
20
252.719326
70
0
0
VERTEX
8
0
10
41.500705
20
253.054877
70
0
0
VERTEX
8
0
10
41.165007
20
253.193824
70
0
0
VERTEX
8
0
10
40.829309
20
253.054877
70
0
0
VERTEX
8
0
10
40.690008
20
252.719326
70
0
0
VERTEX
8
0
10
40.829309
20
252.383774
70
0
0
VERTEX
8
0
10
41.165007
20
252.244827
70
0
0
VERTEX
8
0
10
41.500705
20
252.383774
70
0
0
VERTEX
8
0
10
41.640006
20
252.719326
70
0
0
VERTEX
8
0
10
41.640006
20
252.719326
70
0
0
SEQEND
8
0
0
POLYLINE
8
0
62
10
70
0
10
0.000000
20
0.000000
66
1
0
VERTEX
8
0
10
41.640006
20
256.719321
70
0
0
VERTEX
8
0
10
41.500705
20
257.054872
70
0
0
VERTEX
8
0
10
41.165007
20
257.193819
70
0
0
VERTEX
8
0
10
40.829309
20
257.054872
70
0
0
VERTEX
8
0
10
40.690008
20
256.719321
70
0
0
VERTEX
8
0
10
40.829309
20
256.383769
70
0
0
VERTEX
8
0
10
41.165007
20
256.244822
70
0
0
VERTEX
8
0
10
41.500705
20
256.383769
70
0
0
VERTEX
8
0
10
41.640006
20
256.719321
70
0
0
VERTEX
8
0
10
41.640006
20
256.719321
70
0
0
SEQEND
8
0
0
POLYLINE
8
0
62
10
70
0
10
0.000000
20
0.000000
66
1
0
VERTEX
8
0
10
44.996697
20
236.719346
70
0
0
VERTEX
8
0
10
44.857396
20
237.054897
70
0
0
VERTEX
8
0
10
44.521698
20
237.193844
70
0
0
VERTEX
8
0
10
44.186000
20
237.054897
70
0
0
VERTEX
8
0
10
44.046698
20
236.719346
70
0
0
VERTEX
8
0
10
44.186000
20
236.383795
70
0
0
VERTEX
8
0
10
44.521698
20
236.244848
70
0
0
VERTEX
8
0
10
44.857396
20
236.383795
70
0
0
VERTEX
8
0
10
44.996697
20
236.719346
70
0
0
VERTEX
8
0
10
44.996697
20
236.719346
70
0
0
SEQEND
8
0
0
POLYLINE
8
0
62
10
70
0
10
0.000000
20
0.000000
66
1
0
VERTEX
8
0
10
44.996697
20
240.719341
70
0
0
VERTEX
8
0
10
44.857396
20
241.054892
70
0
0
VERTEX
8
0
10
44.521698
20
241.193839
70
0
0
VERTEX
8
0
10
44.186000
20
241.054892
70
0
0
VERTEX
8
0
10
44.046698
20
240.719341
70
0
0
VERTEX
8
0
10
44.186000
20
240.383790
70
0
0
VERTEX
8
0
10
44.521698
20
240.244843
70
0
0
VERTEX
8
0
10
44.857396
20
240.383790
70
0
0
VERTEX
8
0
10
44.996697
20
240.719341
70
0
0
VERTEX
8
0
10
44.996697
20
240.719341
70
0
0
SEQEND
8
0
0
POLYLINE
8
0
62
10
70
0
10
0.000000
20
0.000000
66
1
0
VERTEX
8
0
10
44.996697
20
244.719336
70
0
0
VERTEX
8
0
10
44.857396
20
245.054887
70
0
0
VERTEX
8
0
10
44.521698
20
245.193834
70
0
0
VERTEX
8
0
10
44.186000
20
245.054887
70
0
0
VERTEX
8
0
10
44.046698
20
244.719336
70
0
0
VERTEX
8
0
10
44.186000
20
244.383785
70
0
0
VERTEX
8
0
10
44.521698
20
244.244838
70
0
0
VERTEX
8
0
10
44.857396
20
244.383785
70
0
0
VERTEX
8
0
10
44.996697
20
244.719336
70
0
0
VERTEX
8
0
10
44.996697
20
244.719336
70
0
0
SEQEND
8
0
0
POLYLINE
8
0
62
10
70
0
10
0.000000
20
0.000000
66
1
0
VERTEX
8
0
10
44.996697
20
248.719331
70
0
0
VERTEX
8
0
10
44.857396
20
249.054882
70
0
0
VERTEX
8
0
10
44.521698
20
249.193829
70
0
0
VERTEX
8
0
10
44.186000
20
249.054882
70
0
0
VERTEX
8
0
10
44.046698
20
248.719331
70
0
0
VERTEX
8
0
10
44.186000
20
248.383779
70
0
0
VERTEX
8
0
10
44.521698
20
248.244833
70
0
0
VERTEX
8
0
10
44.857396
20
248.383779
70
0
0
VERTEX
8
0
10
44.996697
20
248.719331
70
0
0
VERTEX
8
0
10
44.996697
20
248.719331
70
0
0
SEQEND
8
0
0
POLYLINE
8
0
62
10
70
0
10
0.000000
20
0.000000
66
1
0
VERTEX
8
0
10
44.996697
20
252.719326
70
0
0
VERTEX
8
0
10
44.857396
20
253.054877
70
0
0
VERTEX
8
0
10
44.521698
20
253.193824
70
0
0
VERTEX
8
0
10
44.186000
20
253.054877
70
0
0
VERTEX
8
0
10
44.046698
20
252.719326
70
0
0
VERTEX
8
0
10
44.186000
20
252.383774
70
0
0
VERTEX
8
0
10
44.521698
20
252.244827
70
0
0
VERTEX
8
0
10
44.857396
20
252.383774
70
0
0
VERTEX
8
0
10
44.996697
20
252.719326
70
0
0
VERTEX
8
0
10
44.996697
20
252.719326
70
0
0
SEQEND
8
0
0
POLYLINE
8
0
62
10
70
0
10
0.000000
20
0.000000
66
1
0
VERTEX
8
0
10
44.996697
20
256.719321
70
0
0
VERTEX
8
0
10
44.857396
20
257.054872
70
0
0
VERTEX
8
0
10
44.521698
20
257.193819
70
0
0
VERTEX
8
0
10
44.186000
20
257.054872
70
0
0
VERTEX
8
0
10
44.046698
20
256.719321
70
0
0
VERTEX
8
0
10
44.186000
20
256.383769
70
0
0
VERTEX
8
0
10
44.521698
20
256.244822
70
0
0
VERTEX
8
0
10
44.857396
20
256.383769
70
0
0
VERTEX
8
0
10
44.996697
20
256.719321
70
0
0
VERTEX
8
0
10
44.996697
20
256.719321
70
0
0
SEQEND
8
0
0
POLYLINE
8
0
62
7
70
0
10
0.000000
20
0.000000
66
1
0
VERTEX
8
0
10
22.265031
20
227.819274
70
0
0
VERTEX
8
0
10
60.064947
20
227.819274
70
0
0
SEQEND
8
0
0
POLYLINE
8
0
62
7
70
0
10
0.000000
20
0.000000
66
1
0
VERTEX
8
0
10
60.064947
20
227.819274
70
0
0
VERTEX
8
0
10
60.064947
20
265.619189
70
0
0
SEQEND
8
0
0
POLYLINE
8
0
62
7
70
0
10
0.000000
20
0.000000
66
1
0
VERTEX
8
0
10
60.064947
20
265.619189
70
0
0
VERTEX
8
0
10
22.265031
20
265.619189
70
0
0
SEQEND
8
0
0
POLYLINE
8
0
62
7
70
0
10
0.000000
20
0.000000
66
1
0
VERTEX
8
0
10
22.265031
20
265.619189
70
0
0
VERTEX
8
0
10
22.265031
20
227.819274
70
0
0
SEQEND
8
0
 0 
ENDSEC
 0 
EOF