0
SECTION
2
HEADER
0
ENDSEC
0
SECTION
2
TABLES
0
ENDSEC
0
SECTION
2
BLOCKS
0
ENDSEC
0
SECTION
2
ENTITIES
0
CIRCLE
8
0
62
1
370
-1
10
9.747070
20
8.400000
30
0.0
40
0.408000
0
CIRCLE
8
0
62
1
370
-1
10
9.747070
20
11.900000
30
0.0
40
0.408000
0
CIRCLE
8
0
62
1
370
-1
10
9.747070
20
15.400000
30
0.0
40
0.408000
0
CIRCLE
8
0
62
1
370
-1
10
9.747070
20
18.900000
30
0.0
40
0.408000
0
CIRCLE
8
0
62
1
370
-1
10
9.747070
20
22.400000
30
0.0
40
0.408000
0
CIRCLE
8
0
62
1
370
-1
10
9.747070
20
25.900000
30
0.0
40
0.408000
0
CIRCLE
8
0
62
1
370
-1
10
9.747070
20
29.400000
30
0.0
40
0.408000
0
CIRCLE
8
0
62
1
370
-1
10
11.577656
20
8.400000
30
0.0
40
0.408000
0
CIRCLE
8
0
62
1
370
-1
10
11.577656
20
11.900000
30
0.0
40
0.408000
0
CIRCLE
8
0
62
1
370
-1
10
11.577656
20
15.400000
30
0.0
40
0.408000
0
CIRCLE
8
0
62
1
370
-1
10
11.577656
20
18.900000
30
0.0
40
0.408000
0
CIRCLE
8
0
62
1
370
-1
10
11.577656
20
22.400000
30
0.0
40
0.408000
0
CIRCLE
8
0
62
1
370
-1
10
11.577656
20
25.900000
30
0.0
40
0.408000
0
CIRCLE
8
0
62
1
370
-1
10
11.577656
20
29.400000
30
0.0
40
0.408000
0
CIRCLE
8
0
62
1
370
-1
10
13.408242
20
8.400000
30
0.0
40
0.408000
0
CIRCLE
8
0
62
1
370
-1
10
13.408242
20
11.900000
30
0.0
40
0.408000
0
CIRCLE
8
0
62
1
370
-1
10
13.408242
20
15.400000
30
0.0
40
0.408000
0
CIRCLE
8
0
62
1
370
-1
10
13.408242
20
18.900000
30
0.0
40
0.408000
0
CIRCLE
8
0
62
1
370
-1
10
13.408242
20
22.400000
30
0.0
40
0.408000
0
CIRCLE
8
0
62
1
370
-1
10
13.408242
20
25.900000
30
0.0
40
0.408000
0
CIRCLE
8
0
62
1
370
-1
10
13.408242
20
29.400000
30
0.0
40
0.408000
0
CIRCLE
8
0
62
1
370
-1
10
15.238828
20
8.400000
30
0.0
40
0.408000
0
CIRCLE
8
0
62
1
370
-1
10
15.238828
20
11.900000
30
0.0
40
0.408000
0
CIRCLE
8
0
62
1
370
-1
10
15.238828
20
15.400000
30
0.0
40
0.408000
0
CIRCLE
8
0
62
1
370
-1
10
15.238828
20
18.900000
30
0.0
40
0.408000
0
CIRCLE
8
0
62
1
370
-1
10
15.238828
20
22.400000
30
0.0
40
0.408000
0
CIRCLE
8
0
62
1
370
-1
10
15.238828
20
25.900000
30
0.0
40
0.408000
0
CIRCLE
8
0
62
1
370
-1
10
15.238828
20
29.400000
30
0.0
40
0.408000
0
CIRCLE
8
0
62
1
370
-1
10
17.069414
20
8.400000
30
0.0
40
0.408000
0
CIRCLE
8
0
62
1
370
-1
10
17.069414
20
11.900000
30
0.0
40
0.408000
0
CIRCLE
8
0
62
1
370
-1
10
17.069414
20
15.400000
30
0.0
40
0.408000
0
CIRCLE
8
0
62
1
370
-1
10
17.069414
20
18.900000
30
0.0
40
0.408000
0
CIRCLE
8
0
62
1
370
-1
10
17.069414
20
22.400000
30
0.0
40
0.408000
0
CIRCLE
8
0
62
1
370
-1
10
17.069414
20
25.900000
30
0.0
40
0.408000
0
CIRCLE
8
0
62
1
370
-1
10
17.069414
20
29.400000
30
0.0
40
0.408000
0
CIRCLE
8
0
62
1
370
-1
10
18.900000
20
8.400000
30
0.0
40
0.408000
0
CIRCLE
8
0
62
1
370
-1
10
18.900000
20
11.900000
30
0.0
40
0.408000
0
CIRCLE
8
0
62
1
370
-1
10
18.900000
20
15.400000
30
0.0
40
0.408000
0
CIRCLE
8
0
62
1
370
-1
10
18.900000
20
18.900000
30
0.0
40
0.408000
0
CIRCLE
8
0
62
1
370
-1
10
18.900000
20
22.400000
30
0.0
40
0.408000
0
CIRCLE
8
0
62
1
370
-1
10
18.900000
20
25.900000
30
0.0
40
0.408000
0
CIRCLE
8
0
62
1
370
-1
10
18.900000
20
29.400000
30
0.0
40
0.408000
0
CIRCLE
8
0
62
1
370
-1
10
20.730586
20
8.400000
30
0.0
40
0.408000
0
CIRCLE
8
0
62
1
370
-1
10
20.730586
20
11.900000
30
0.0
40
0.408000
0
CIRCLE
8
0
62
1
370
-1
10
20.730586
20
15.400000
30
0.0
40
0.408000
0
CIRCLE
8
0
62
1
370
-1
10
20.730586
20
18.900000
30
0.0
40
0.408000
0
CIRCLE
8
0
62
1
370
-1
10
20.730586
20
22.400000
30
0.0
40
0.408000
0
CIRCLE
8
0
62
1
370
-1
10
20.730586
20
25.900000
30
0.0
40
0.408000
0
CIRCLE
8
0
62
1
370
-1
10
20.730586
20
29.400000
30
0.0
40
0.408000
0
CIRCLE
8
0
62
1
370
-1
10
22.561172
20
8.400000
30
0.0
40
0.408000
0
CIRCLE
8
0
62
1
370
-1
10
22.561172
20
11.900000
30
0.0
40
0.408000
0
CIRCLE
8
0
62
1
370
-1
10
22.561172
20
15.400000
30
0.0
40
0.408000
0
CIRCLE
8
0
62
1
370
-1
10
22.561172
20
18.900000
30
0.0
40
0.408000
0
CIRCLE
8
0
62
1
370
-1
10
22.561172
20
22.400000
30
0.0
40
0.408000
0
CIRCLE
8
0
62
1
370
-1
10
22.561172
20
25.900000
30
0.0
40
0.408000
0
CIRCLE
8
0
62
1
370
-1
10
22.561172
20
29.400000
30
0.0
40
0.408000
0
CIRCLE
8
0
62
1
370
-1
10
24.391758
20
8.400000
30
0.0
40
0.408000
0
CIRCLE
8
0
62
1
370
-1
10
24.391758
20
11.900000
30
0.0
40
0.408000
0
CIRCLE
8
0
62
1
370
-1
10
24.391758
20
15.400000
30
0.0
40
0.408000
0
CIRCLE
8
0
62
1
370
-1
10
24.391758
20
18.900000
30
0.0
40
0.408000
0
CIRCLE
8
0
62
1
370
-1
10
24.391758
20
22.400000
30
0.0
40
0.408000
0
CIRCLE
8
0
62
1
370
-1
10
24.391758
20
25.900000
30
0.0
40
0.408000
0
CIRCLE
8
0
62
1
370
-1
10
24.391758
20
29.400000
30
0.0
40
0.408000
0
CIRCLE
8
0
62
1
370
-1
10
26.222344
20
8.400000
30
0.0
40
0.408000
0
CIRCLE
8
0
62
1
370
-1
10
26.222344
20
11.900000
30
0.0
40
0.408000
0
CIRCLE
8
0
62
1
370
-1
10
26.222344
20
15.400000
30
0.0
40
0.408000
0
CIRCLE
8
0
62
1
370
-1
10
26.222344
20
18.900000
30
0.0
40
0.408000
0
CIRCLE
8
0
62
1
370
-1
10
26.222344
20
22.400000
30
0.0
40
0.408000
0
CIRCLE
8
0
62
1
370
-1
10
26.222344
20
25.900000
30
0.0
40
0.408000
0
CIRCLE
8
0
62
1
370
-1
10
26.222344
20
29.400000
30
0.0
40
0.408000
0
CIRCLE
8
0
62
1
370
-1
10
28.052930
20
8.400000
30
0.0
40
0.408000
0
CIRCLE
8
0
62
1
370
-1
10
28.052930
20
11.900000
30
0.0
40
0.408000
0
CIRCLE
8
0
62
1
370
-1
10
28.052930
20
15.400000
30
0.0
40
0.408000
0
CIRCLE
8
0
62
1
370
-1
10
28.052930
20
18.900000
30
0.0
40
0.408000
0
CIRCLE
8
0
62
1
370
-1
10
28.052930
20
22.400000
30
0.0
40
0.408000
0
CIRCLE
8
0
62
1
370
-1
10
28.052930
20
25.900000
30
0.0
40
0.408000
0
CIRCLE
8
0
62
1
370
-1
10
28.052930
20
29.400000
30
0.0
40
0.408000
0
LINE
8
0
62
7
370
-1
10
0.000000
20
0.000000
30
0.0
11
37.800000
21
0.000000
31
0.0
0
LINE
8
0
62
7
370
-1
10
37.800000
20
0.000000
30
0.0
11
37.800000
21
37.800000
31
0.0
0
LINE
8
0
62
7
370
-1
10
37.800000
20
37.800000
30
0.0
11
0.000000
21
37.800000
31
0.0
0
LINE
8
0
62
7
370
-1
10
0.000000
20
37.800000
30
0.0
11
0.000000
21
0.000000
31
0.0
0
ENDSEC
0
SECTION
2
OBJECTS
0
ENDSEC
0
ENDSEC
0
EOF
