0
SECTION
2
HEADER
0
ENDSEC
0
SECTION
2
TABLES
0
ENDSEC
0
SECTION
2
BLOCKS
0
ENDSEC
0
SECTION
2
ENTITIES
0
CIRCLE
8
0
62
1
370
-1
10
6.090820
20
6.090820
30
0.0
40
0.100000
0
CIRCLE
8
0
62
1
370
-1
10
6.090820
20
8.652656
30
0.0
40
0.100000
0
CIRCLE
8
0
62
1
370
-1
10
6.090820
20
11.214492
30
0.0
40
0.100000
0
CIRCLE
8
0
62
1
370
-1
10
6.090820
20
13.776328
30
0.0
40
0.100000
0
CIRCLE
8
0
62
1
370
-1
10
6.090820
20
16.338164
30
0.0
40
0.100000
0
CIRCLE
8
0
62
1
370
-1
10
6.090820
20
18.900000
30
0.0
40
0.100000
0
CIRCLE
8
0
62
1
370
-1
10
6.090820
20
21.461836
30
0.0
40
0.100000
0
CIRCLE
8
0
62
1
370
-1
10
6.090820
20
24.023672
30
0.0
40
0.100000
0
CIRCLE
8
0
62
1
370
-1
10
6.090820
20
26.585508
30
0.0
40
0.100000
0
CIRCLE
8
0
62
1
370
-1
10
6.090820
20
29.147344
30
0.0
40
0.100000
0
CIRCLE
8
0
62
1
370
-1
10
6.090820
20
31.709180
30
0.0
40
0.100000
0
CIRCLE
8
0
62
1
370
-1
10
8.652656
20
6.090820
30
0.0
40
0.100000
0
CIRCLE
8
0
62
1
370
-1
10
8.652656
20
8.652656
30
0.0
40
0.100000
0
CIRCLE
8
0
62
1
370
-1
10
8.652656
20
11.214492
30
0.0
40
0.100000
0
CIRCLE
8
0
62
1
370
-1
10
8.652656
20
13.776328
30
0.0
40
0.100000
0
CIRCLE
8
0
62
1
370
-1
10
8.652656
20
16.338164
30
0.0
40
0.100000
0
CIRCLE
8
0
62
1
370
-1
10
8.652656
20
18.900000
30
0.0
40
0.100000
0
CIRCLE
8
0
62
1
370
-1
10
8.652656
20
21.461836
30
0.0
40
0.100000
0
CIRCLE
8
0
62
1
370
-1
10
8.652656
20
24.023672
30
0.0
40
0.100000
0
CIRCLE
8
0
62
1
370
-1
10
8.652656
20
26.585508
30
0.0
40
0.100000
0
CIRCLE
8
0
62
1
370
-1
10
8.652656
20
29.147344
30
0.0
40
0.100000
0
CIRCLE
8
0
62
1
370
-1
10
8.652656
20
31.709180
30
0.0
40
0.100000
0
CIRCLE
8
0
62
1
370
-1
10
11.214492
20
6.090820
30
0.0
40
0.100000
0
CIRCLE
8
0
62
1
370
-1
10
11.214492
20
8.652656
30
0.0
40
0.100000
0
CIRCLE
8
0
62
1
370
-1
10
11.214492
20
11.214492
30
0.0
40
0.100000
0
CIRCLE
8
0
62
1
370
-1
10
11.214492
20
13.776328
30
0.0
40
0.100000
0
CIRCLE
8
0
62
1
370
-1
10
11.214492
20
16.338164
30
0.0
40
0.100000
0
CIRCLE
8
0
62
1
370
-1
10
11.214492
20
18.900000
30
0.0
40
0.100000
0
CIRCLE
8
0
62
1
370
-1
10
11.214492
20
21.461836
30
0.0
40
0.100000
0
CIRCLE
8
0
62
1
370
-1
10
11.214492
20
24.023672
30
0.0
40
0.100000
0
CIRCLE
8
0
62
1
370
-1
10
11.214492
20
26.585508
30
0.0
40
0.100000
0
CIRCLE
8
0
62
1
370
-1
10
11.214492
20
29.147344
30
0.0
40
0.100000
0
CIRCLE
8
0
62
1
370
-1
10
11.214492
20
31.709180
30
0.0
40
0.100000
0
CIRCLE
8
0
62
1
370
-1
10
13.776328
20
6.090820
30
0.0
40
0.100000
0
CIRCLE
8
0
62
1
370
-1
10
13.776328
20
8.652656
30
0.0
40
0.100000
0
CIRCLE
8
0
62
1
370
-1
10
13.776328
20
11.214492
30
0.0
40
0.100000
0
CIRCLE
8
0
62
1
370
-1
10
13.776328
20
13.776328
30
0.0
40
0.100000
0
CIRCLE
8
0
62
1
370
-1
10
13.776328
20
16.338164
30
0.0
40
0.100000
0
CIRCLE
8
0
62
1
370
-1
10
13.776328
20
18.900000
30
0.0
40
0.100000
0
CIRCLE
8
0
62
1
370
-1
10
13.776328
20
21.461836
30
0.0
40
0.100000
0
CIRCLE
8
0
62
1
370
-1
10
13.776328
20
24.023672
30
0.0
40
0.100000
0
CIRCLE
8
0
62
1
370
-1
10
13.776328
20
26.585508
30
0.0
40
0.100000
0
CIRCLE
8
0
62
1
370
-1
10
13.776328
20
29.147344
30
0.0
40
0.100000
0
CIRCLE
8
0
62
1
370
-1
10
13.776328
20
31.709180
30
0.0
40
0.100000
0
CIRCLE
8
0
62
1
370
-1
10
16.338164
20
6.090820
30
0.0
40
0.100000
0
CIRCLE
8
0
62
1
370
-1
10
16.338164
20
8.652656
30
0.0
40
0.100000
0
CIRCLE
8
0
62
1
370
-1
10
16.338164
20
11.214492
30
0.0
40
0.100000
0
CIRCLE
8
0
62
1
370
-1
10
16.338164
20
13.776328
30
0.0
40
0.100000
0
CIRCLE
8
0
62
1
370
-1
10
16.338164
20
16.338164
30
0.0
40
0.100000
0
CIRCLE
8
0
62
1
370
-1
10
16.338164
20
18.900000
30
0.0
40
0.100000
0
CIRCLE
8
0
62
1
370
-1
10
16.338164
20
21.461836
30
0.0
40
0.100000
0
CIRCLE
8
0
62
1
370
-1
10
16.338164
20
24.023672
30
0.0
40
0.100000
0
CIRCLE
8
0
62
1
370
-1
10
16.338164
20
26.585508
30
0.0
40
0.100000
0
CIRCLE
8
0
62
1
370
-1
10
16.338164
20
29.147344
30
0.0
40
0.100000
0
CIRCLE
8
0
62
1
370
-1
10
16.338164
20
31.709180
30
0.0
40
0.100000
0
CIRCLE
8
0
62
1
370
-1
10
18.900000
20
6.090820
30
0.0
40
0.100000
0
CIRCLE
8
0
62
1
370
-1
10
18.900000
20
8.652656
30
0.0
40
0.100000
0
CIRCLE
8
0
62
1
370
-1
10
18.900000
20
11.214492
30
0.0
40
0.100000
0
CIRCLE
8
0
62
1
370
-1
10
18.900000
20
13.776328
30
0.0
40
0.100000
0
CIRCLE
8
0
62
1
370
-1
10
18.900000
20
16.338164
30
0.0
40
0.100000
0
CIRCLE
8
0
62
1
370
-1
10
18.900000
20
18.900000
30
0.0
40
0.100000
0
CIRCLE
8
0
62
1
370
-1
10
18.900000
20
21.461836
30
0.0
40
0.100000
0
CIRCLE
8
0
62
1
370
-1
10
18.900000
20
24.023672
30
0.0
40
0.100000
0
CIRCLE
8
0
62
1
370
-1
10
18.900000
20
26.585508
30
0.0
40
0.100000
0
CIRCLE
8
0
62
1
370
-1
10
18.900000
20
29.147344
30
0.0
40
0.100000
0
CIRCLE
8
0
62
1
370
-1
10
18.900000
20
31.709180
30
0.0
40
0.100000
0
CIRCLE
8
0
62
1
370
-1
10
21.461836
20
6.090820
30
0.0
40
0.100000
0
CIRCLE
8
0
62
1
370
-1
10
21.461836
20
8.652656
30
0.0
40
0.100000
0
CIRCLE
8
0
62
1
370
-1
10
21.461836
20
11.214492
30
0.0
40
0.100000
0
CIRCLE
8
0
62
1
370
-1
10
21.461836
20
13.776328
30
0.0
40
0.100000
0
CIRCLE
8
0
62
1
370
-1
10
21.461836
20
16.338164
30
0.0
40
0.100000
0
CIRCLE
8
0
62
1
370
-1
10
21.461836
20
18.900000
30
0.0
40
0.100000
0
CIRCLE
8
0
62
1
370
-1
10
21.461836
20
21.461836
30
0.0
40
0.100000
0
CIRCLE
8
0
62
1
370
-1
10
21.461836
20
24.023672
30
0.0
40
0.100000
0
CIRCLE
8
0
62
1
370
-1
10
21.461836
20
26.585508
30
0.0
40
0.100000
0
CIRCLE
8
0
62
1
370
-1
10
21.461836
20
29.147344
30
0.0
40
0.100000
0
CIRCLE
8
0
62
1
370
-1
10
21.461836
20
31.709180
30
0.0
40
0.100000
0
CIRCLE
8
0
62
1
370
-1
10
24.023672
20
6.090820
30
0.0
40
0.100000
0
CIRCLE
8
0
62
1
370
-1
10
24.023672
20
8.652656
30
0.0
40
0.100000
0
CIRCLE
8
0
62
1
370
-1
10
24.023672
20
11.214492
30
0.0
40
0.100000
0
CIRCLE
8
0
62
1
370
-1
10
24.023672
20
13.776328
30
0.0
40
0.100000
0
CIRCLE
8
0
62
1
370
-1
10
24.023672
20
16.338164
30
0.0
40
0.100000
0
CIRCLE
8
0
62
1
370
-1
10
24.023672
20
18.900000
30
0.0
40
0.100000
0
CIRCLE
8
0
62
1
370
-1
10
24.023672
20
21.461836
30
0.0
40
0.100000
0
CIRCLE
8
0
62
1
370
-1
10
24.023672
20
24.023672
30
0.0
40
0.100000
0
CIRCLE
8
0
62
1
370
-1
10
24.023672
20
26.585508
30
0.0
40
0.100000
0
CIRCLE
8
0
62
1
370
-1
10
24.023672
20
29.147344
30
0.0
40
0.100000
0
CIRCLE
8
0
62
1
370
-1
10
24.023672
20
31.709180
30
0.0
40
0.100000
0
CIRCLE
8
0
62
1
370
-1
10
26.585508
20
6.090820
30
0.0
40
0.100000
0
CIRCLE
8
0
62
1
370
-1
10
26.585508
20
8.652656
30
0.0
40
0.100000
0
CIRCLE
8
0
62
1
370
-1
10
26.585508
20
11.214492
30
0.0
40
0.100000
0
CIRCLE
8
0
62
1
370
-1
10
26.585508
20
13.776328
30
0.0
40
0.100000
0
CIRCLE
8
0
62
1
370
-1
10
26.585508
20
16.338164
30
0.0
40
0.100000
0
CIRCLE
8
0
62
1
370
-1
10
26.585508
20
18.900000
30
0.0
40
0.100000
0
CIRCLE
8
0
62
1
370
-1
10
26.585508
20
21.461836
30
0.0
40
0.100000
0
CIRCLE
8
0
62
1
370
-1
10
26.585508
20
24.023672
30
0.0
40
0.100000
0
CIRCLE
8
0
62
1
370
-1
10
26.585508
20
26.585508
30
0.0
40
0.100000
0
CIRCLE
8
0
62
1
370
-1
10
26.585508
20
29.147344
30
0.0
40
0.100000
0
CIRCLE
8
0
62
1
370
-1
10
26.585508
20
31.709180
30
0.0
40
0.100000
0
CIRCLE
8
0
62
1
370
-1
10
29.147344
20
6.090820
30
0.0
40
0.100000
0
CIRCLE
8
0
62
1
370
-1
10
29.147344
20
8.652656
30
0.0
40
0.100000
0
CIRCLE
8
0
62
1
370
-1
10
29.147344
20
11.214492
30
0.0
40
0.100000
0
CIRCLE
8
0
62
1
370
-1
10
29.147344
20
13.776328
30
0.0
40
0.100000
0
CIRCLE
8
0
62
1
370
-1
10
29.147344
20
16.338164
30
0.0
40
0.100000
0
CIRCLE
8
0
62
1
370
-1
10
29.147344
20
18.900000
30
0.0
40
0.100000
0
CIRCLE
8
0
62
1
370
-1
10
29.147344
20
21.461836
30
0.0
40
0.100000
0
CIRCLE
8
0
62
1
370
-1
10
29.147344
20
24.023672
30
0.0
40
0.100000
0
CIRCLE
8
0
62
1
370
-1
10
29.147344
20
26.585508
30
0.0
40
0.100000
0
CIRCLE
8
0
62
1
370
-1
10
29.147344
20
29.147344
30
0.0
40
0.100000
0
CIRCLE
8
0
62
1
370
-1
10
29.147344
20
31.709180
30
0.0
40
0.100000
0
CIRCLE
8
0
62
1
370
-1
10
31.709180
20
6.090820
30
0.0
40
0.100000
0
CIRCLE
8
0
62
1
370
-1
10
31.709180
20
8.652656
30
0.0
40
0.100000
0
CIRCLE
8
0
62
1
370
-1
10
31.709180
20
11.214492
30
0.0
40
0.100000
0
CIRCLE
8
0
62
1
370
-1
10
31.709180
20
13.776328
30
0.0
40
0.100000
0
CIRCLE
8
0
62
1
370
-1
10
31.709180
20
16.338164
30
0.0
40
0.100000
0
CIRCLE
8
0
62
1
370
-1
10
31.709180
20
18.900000
30
0.0
40
0.100000
0
CIRCLE
8
0
62
1
370
-1
10
31.709180
20
21.461836
30
0.0
40
0.100000
0
CIRCLE
8
0
62
1
370
-1
10
31.709180
20
24.023672
30
0.0
40
0.100000
0
CIRCLE
8
0
62
1
370
-1
10
31.709180
20
26.585508
30
0.0
40
0.100000
0
CIRCLE
8
0
62
1
370
-1
10
31.709180
20
29.147344
30
0.0
40
0.100000
0
CIRCLE
8
0
62
1
370
-1
10
31.709180
20
31.709180
30
0.0
40
0.100000
0
LINE
8
0
62
7
370
-1
10
0.000000
20
0.000000
30
0.0
11
37.800000
21
0.000000
31
0.0
0
LINE
8
0
62
7
370
-1
10
37.800000
20
0.000000
30
0.0
11
37.800000
21
37.800000
31
0.0
0
LINE
8
0
62
7
370
-1
10
37.800000
20
37.800000
30
0.0
11
0.000000
21
37.800000
31
0.0
0
LINE
8
0
62
7
370
-1
10
0.000000
20
37.800000
30
0.0
11
0.000000
21
0.000000
31
0.0
0
ENDSEC
0
SECTION
2
OBJECTS
0
ENDSEC
0
ENDSEC
0
EOF
