0
SECTION
2
HEADER
0
ENDSEC
0
SECTION
2
TABLES
0
ENDSEC
0
SECTION
2
BLOCKS
0
ENDSEC
0
SECTION
2
ENTITIES
0
CIRCLE
8
0
62
1
370
-1
10
15.434107
20
8.011111
30
0.0
40
0.450000
0
CIRCLE
8
0
62
1
370
-1
10
15.434107
20
11.122222
30
0.0
40
0.450000
0
CIRCLE
8
0
62
1
370
-1
10
15.434107
20
14.233333
30
0.0
40
0.450000
0
CIRCLE
8
0
62
1
370
-1
10
15.434107
20
17.344444
30
0.0
40
0.450000
0
CIRCLE
8
0
62
1
370
-1
10
15.434107
20
20.455556
30
0.0
40
0.450000
0
CIRCLE
8
0
62
1
370
-1
10
15.434107
20
23.566667
30
0.0
40
0.450000
0
CIRCLE
8
0
62
1
370
-1
10
15.434107
20
26.677778
30
0.0
40
0.450000
0
CIRCLE
8
0
62
1
370
-1
10
15.434107
20
29.788889
30
0.0
40
0.450000
0
CIRCLE
8
0
62
1
370
-1
10
17.744702
20
8.011111
30
0.0
40
0.450000
0
CIRCLE
8
0
62
1
370
-1
10
17.744702
20
11.122222
30
0.0
40
0.450000
0
CIRCLE
8
0
62
1
370
-1
10
17.744702
20
14.233333
30
0.0
40
0.450000
0
CIRCLE
8
0
62
1
370
-1
10
17.744702
20
17.344444
30
0.0
40
0.450000
0
CIRCLE
8
0
62
1
370
-1
10
17.744702
20
20.455556
30
0.0
40
0.450000
0
CIRCLE
8
0
62
1
370
-1
10
17.744702
20
23.566667
30
0.0
40
0.450000
0
CIRCLE
8
0
62
1
370
-1
10
17.744702
20
26.677778
30
0.0
40
0.450000
0
CIRCLE
8
0
62
1
370
-1
10
17.744702
20
29.788889
30
0.0
40
0.450000
0
CIRCLE
8
0
62
1
370
-1
10
20.055298
20
8.011111
30
0.0
40
0.450000
0
CIRCLE
8
0
62
1
370
-1
10
20.055298
20
11.122222
30
0.0
40
0.450000
0
CIRCLE
8
0
62
1
370
-1
10
20.055298
20
14.233333
30
0.0
40
0.450000
0
CIRCLE
8
0
62
1
370
-1
10
20.055298
20
17.344444
30
0.0
40
0.450000
0
CIRCLE
8
0
62
1
370
-1
10
20.055298
20
20.455556
30
0.0
40
0.450000
0
CIRCLE
8
0
62
1
370
-1
10
20.055298
20
23.566667
30
0.0
40
0.450000
0
CIRCLE
8
0
62
1
370
-1
10
20.055298
20
26.677778
30
0.0
40
0.450000
0
CIRCLE
8
0
62
1
370
-1
10
20.055298
20
29.788889
30
0.0
40
0.450000
0
CIRCLE
8
0
62
1
370
-1
10
22.365893
20
8.011111
30
0.0
40
0.450000
0
CIRCLE
8
0
62
1
370
-1
10
22.365893
20
11.122222
30
0.0
40
0.450000
0
CIRCLE
8
0
62
1
370
-1
10
22.365893
20
14.233333
30
0.0
40
0.450000
0
CIRCLE
8
0
62
1
370
-1
10
22.365893
20
17.344444
30
0.0
40
0.450000
0
CIRCLE
8
0
62
1
370
-1
10
22.365893
20
20.455556
30
0.0
40
0.450000
0
CIRCLE
8
0
62
1
370
-1
10
22.365893
20
23.566667
30
0.0
40
0.450000
0
CIRCLE
8
0
62
1
370
-1
10
22.365893
20
26.677778
30
0.0
40
0.450000
0
CIRCLE
8
0
62
1
370
-1
10
22.365893
20
29.788889
30
0.0
40
0.450000
0
LINE
8
0
62
7
370
-1
10
0.000000
20
0.000000
30
0.0
11
37.800000
21
0.000000
31
0.0
0
LINE
8
0
62
7
370
-1
10
37.800000
20
0.000000
30
0.0
11
37.800000
21
37.800000
31
0.0
0
LINE
8
0
62
7
370
-1
10
37.800000
20
37.800000
30
0.0
11
0.000000
21
37.800000
31
0.0
0
LINE
8
0
62
7
370
-1
10
0.000000
20
37.800000
30
0.0
11
0.000000
21
0.000000
31
0.0
0
ENDSEC
0
SECTION
2
OBJECTS
0
ENDSEC
0
ENDSEC
0
EOF
