999
"DXF R12 Output" (www.mydxf.blogspot.com)
 0 
SECTION
 2 
HEADER
 9 
$ACADVER
 1 
AC1009
 9 
$EXTMIN
 10 
 0 
 20 
 0 
 9 
$EXTMAX
 10 
 8.5 
 20 
 11 
 0 
ENDSEC
 0 
SECTION
 2 
ENTITIES
0
POLYLINE
8
0
62
10
70
0
10
0.000000
20
0.000000
66
1
0
VERTEX
8
0
10
73.625519
20
106.181362
70
0
0
VERTEX
8
0
10
73.493474
20
106.499113
70
0
0
VERTEX
8
0
10
73.175521
20
106.630671
70
0
0
VERTEX
8
0
10
72.857567
20
106.499113
70
0
0
VERTEX
8
0
10
72.725522
20
106.181362
70
0
0
VERTEX
8
0
10
72.857567
20
105.863611
70
0
0
VERTEX
8
0
10
73.175521
20
105.732053
70
0
0
VERTEX
8
0
10
73.493474
20
105.863611
70
0
0
VERTEX
8
0
10
73.625519
20
106.181362
70
0
0
VERTEX
8
0
10
73.625519
20
106.181362
70
0
0
SEQEND
8
0
0
POLYLINE
8
0
62
10
70
0
10
0.000000
20
0.000000
66
1
0
VERTEX
8
0
10
73.625519
20
110.848021
70
0
0
VERTEX
8
0
10
73.493474
20
111.165773
70
0
0
VERTEX
8
0
10
73.175521
20
111.297331
70
0
0
VERTEX
8
0
10
72.857567
20
111.165773
70
0
0
VERTEX
8
0
10
72.725522
20
110.848021
70
0
0
VERTEX
8
0
10
72.857567
20
110.530270
70
0
0
VERTEX
8
0
10
73.175521
20
110.398712
70
0
0
VERTEX
8
0
10
73.493474
20
110.530270
70
0
0
VERTEX
8
0
10
73.625519
20
110.848021
70
0
0
VERTEX
8
0
10
73.625519
20
110.848021
70
0
0
SEQEND
8
0
0
POLYLINE
8
0
62
10
70
0
10
0.000000
20
0.000000
66
1
0
VERTEX
8
0
10
73.625519
20
115.514683
70
0
0
VERTEX
8
0
10
73.493474
20
115.832435
70
0
0
VERTEX
8
0
10
73.175521
20
115.963993
70
0
0
VERTEX
8
0
10
72.857567
20
115.832435
70
0
0
VERTEX
8
0
10
72.725522
20
115.514683
70
0
0
VERTEX
8
0
10
72.857567
20
115.196932
70
0
0
VERTEX
8
0
10
73.175521
20
115.065374
70
0
0
VERTEX
8
0
10
73.493474
20
115.196932
70
0
0
VERTEX
8
0
10
73.625519
20
115.514683
70
0
0
VERTEX
8
0
10
73.625519
20
115.514683
70
0
0
SEQEND
8
0
0
POLYLINE
8
0
62
10
70
0
10
0.000000
20
0.000000
66
1
0
VERTEX
8
0
10
73.625519
20
120.181345
70
0
0
VERTEX
8
0
10
73.493474
20
120.499097
70
0
0
VERTEX
8
0
10
73.175521
20
120.630655
70
0
0
VERTEX
8
0
10
72.857567
20
120.499097
70
0
0
VERTEX
8
0
10
72.725522
20
120.181345
70
0
0
VERTEX
8
0
10
72.857567
20
119.863594
70
0
0
VERTEX
8
0
10
73.175521
20
119.732036
70
0
0
VERTEX
8
0
10
73.493474
20
119.863594
70
0
0
VERTEX
8
0
10
73.625519
20
120.181345
70
0
0
VERTEX
8
0
10
73.625519
20
120.181345
70
0
0
SEQEND
8
0
0
POLYLINE
8
0
62
10
70
0
10
0.000000
20
0.000000
66
1
0
VERTEX
8
0
10
73.625519
20
124.848005
70
0
0
VERTEX
8
0
10
73.493474
20
125.165756
70
0
0
VERTEX
8
0
10
73.175521
20
125.297314
70
0
0
VERTEX
8
0
10
72.857567
20
125.165756
70
0
0
VERTEX
8
0
10
72.725522
20
124.848005
70
0
0
VERTEX
8
0
10
72.857567
20
124.530253
70
0
0
VERTEX
8
0
10
73.175521
20
124.398696
70
0
0
VERTEX
8
0
10
73.493474
20
124.530253
70
0
0
VERTEX
8
0
10
73.625519
20
124.848005
70
0
0
VERTEX
8
0
10
73.625519
20
124.848005
70
0
0
SEQEND
8
0
0
POLYLINE
8
0
62
10
70
0
10
0.000000
20
0.000000
66
1
0
VERTEX
8
0
10
76.602914
20
106.181362
70
0
0
VERTEX
8
0
10
76.377914
20
106.571073
70
0
0
VERTEX
8
0
10
75.927914
20
106.571073
70
0
0
VERTEX
8
0
10
75.702915
20
106.181362
70
0
0
VERTEX
8
0
10
75.927915
20
105.791651
70
0
0
VERTEX
8
0
10
76.377914
20
105.791651
70
0
0
VERTEX
8
0
10
76.602914
20
106.181362
70
0
0
VERTEX
8
0
10
76.602914
20
106.181362
70
0
0
SEQEND
8
0
0
POLYLINE
8
0
62
10
70
0
10
0.000000
20
0.000000
66
1
0
VERTEX
8
0
10
76.602914
20
110.848021
70
0
0
VERTEX
8
0
10
76.377914
20
111.237732
70
0
0
VERTEX
8
0
10
75.927914
20
111.237732
70
0
0
VERTEX
8
0
10
75.702915
20
110.848021
70
0
0
VERTEX
8
0
10
75.927915
20
110.458310
70
0
0
VERTEX
8
0
10
76.377914
20
110.458310
70
0
0
VERTEX
8
0
10
76.602914
20
110.848021
70
0
0
VERTEX
8
0
10
76.602914
20
110.848021
70
0
0
SEQEND
8
0
0
POLYLINE
8
0
62
10
70
0
10
0.000000
20
0.000000
66
1
0
VERTEX
8
0
10
76.602914
20
115.514683
70
0
0
VERTEX
8
0
10
76.377914
20
115.904394
70
0
0
VERTEX
8
0
10
75.927914
20
115.904394
70
0
0
VERTEX
8
0
10
75.702915
20
115.514683
70
0
0
VERTEX
8
0
10
75.927915
20
115.124972
70
0
0
VERTEX
8
0
10
76.377914
20
115.124972
70
0
0
VERTEX
8
0
10
76.602914
20
115.514683
70
0
0
VERTEX
8
0
10
76.602914
20
115.514683
70
0
0
SEQEND
8
0
0
POLYLINE
8
0
62
10
70
0
10
0.000000
20
0.000000
66
1
0
VERTEX
8
0
10
76.602914
20
120.181345
70
0
0
VERTEX
8
0
10
76.377914
20
120.571056
70
0
0
VERTEX
8
0
10
75.927914
20
120.571056
70
0
0
VERTEX
8
0
10
75.702915
20
120.181345
70
0
0
VERTEX
8
0
10
75.927915
20
119.791634
70
0
0
VERTEX
8
0
10
76.377914
20
119.791634
70
0
0
VERTEX
8
0
10
76.602914
20
120.181345
70
0
0
VERTEX
8
0
10
76.602914
20
120.181345
70
0
0
SEQEND
8
0
0
POLYLINE
8
0
62
10
70
0
10
0.000000
20
0.000000
66
1
0
VERTEX
8
0
10
76.602914
20
124.848005
70
0
0
VERTEX
8
0
10
76.377914
20
125.237716
70
0
0
VERTEX
8
0
10
75.927914
20
125.237716
70
0
0
VERTEX
8
0
10
75.702915
20
124.848005
70
0
0
VERTEX
8
0
10
75.927915
20
124.458294
70
0
0
VERTEX
8
0
10
76.377914
20
124.458294
70
0
0
VERTEX
8
0
10
76.602914
20
124.848005
70
0
0
VERTEX
8
0
10
76.602914
20
124.848005
70
0
0
SEQEND
8
0
0
POLYLINE
8
0
62
10
70
0
10
0.000000
20
0.000000
66
1
0
VERTEX
8
0
10
79.580309
20
106.181362
70
0
0
VERTEX
8
0
10
79.355309
20
106.571073
70
0
0
VERTEX
8
0
10
78.905309
20
106.571073
70
0
0
VERTEX
8
0
10
78.680309
20
106.181362
70
0
0
VERTEX
8
0
10
78.905310
20
105.791651
70
0
0
VERTEX
8
0
10
79.355309
20
105.791651
70
0
0
VERTEX
8
0
10
79.580309
20
106.181362
70
0
0
VERTEX
8
0
10
79.580309
20
106.181362
70
0
0
SEQEND
8
0
0
POLYLINE
8
0
62
10
70
0
10
0.000000
20
0.000000
66
1
0
VERTEX
8
0
10
79.580309
20
110.848021
70
0
0
VERTEX
8
0
10
79.355309
20
111.237732
70
0
0
VERTEX
8
0
10
78.905309
20
111.237732
70
0
0
VERTEX
8
0
10
78.680309
20
110.848021
70
0
0
VERTEX
8
0
10
78.905310
20
110.458310
70
0
0
VERTEX
8
0
10
79.355309
20
110.458310
70
0
0
VERTEX
8
0
10
79.580309
20
110.848021
70
0
0
VERTEX
8
0
10
79.580309
20
110.848021
70
0
0
SEQEND
8
0
0
POLYLINE
8
0
62
10
70
0
10
0.000000
20
0.000000
66
1
0
VERTEX
8
0
10
79.580309
20
115.514683
70
0
0
VERTEX
8
0
10
79.355309
20
115.904394
70
0
0
VERTEX
8
0
10
78.905309
20
115.904394
70
0
0
VERTEX
8
0
10
78.680309
20
115.514683
70
0
0
VERTEX
8
0
10
78.905310
20
115.124972
70
0
0
VERTEX
8
0
10
79.355309
20
115.124972
70
0
0
VERTEX
8
0
10
79.580309
20
115.514683
70
0
0
VERTEX
8
0
10
79.580309
20
115.514683
70
0
0
SEQEND
8
0
0
POLYLINE
8
0
62
10
70
0
10
0.000000
20
0.000000
66
1
0
VERTEX
8
0
10
79.580309
20
120.181345
70
0
0
VERTEX
8
0
10
79.355309
20
120.571056
70
0
0
VERTEX
8
0
10
78.905309
20
120.571056
70
0
0
VERTEX
8
0
10
78.680309
20
120.181345
70
0
0
VERTEX
8
0
10
78.905310
20
119.791634
70
0
0
VERTEX
8
0
10
79.355309
20
119.791634
70
0
0
VERTEX
8
0
10
79.580309
20
120.181345
70
0
0
VERTEX
8
0
10
79.580309
20
120.181345
70
0
0
SEQEND
8
0
0
POLYLINE
8
0
62
10
70
0
10
0.000000
20
0.000000
66
1
0
VERTEX
8
0
10
79.580309
20
124.848005
70
0
0
VERTEX
8
0
10
79.355309
20
125.237716
70
0
0
VERTEX
8
0
10
78.905309
20
125.237716
70
0
0
VERTEX
8
0
10
78.680309
20
124.848005
70
0
0
VERTEX
8
0
10
78.905310
20
124.458294
70
0
0
VERTEX
8
0
10
79.355309
20
124.458294
70
0
0
VERTEX
8
0
10
79.580309
20
124.848005
70
0
0
VERTEX
8
0
10
79.580309
20
124.848005
70
0
0
SEQEND
8
0
0
POLYLINE
8
0
62
7
70
0
10
0.000000
20
0.000000
66
1
0
VERTEX
8
0
10
57.252938
20
96.614625
70
0
0
VERTEX
8
0
10
95.052853
20
96.614625
70
0
0
SEQEND
8
0
0
POLYLINE
8
0
62
7
70
0
10
0.000000
20
0.000000
66
1
0
VERTEX
8
0
10
95.052853
20
96.614625
70
0
0
VERTEX
8
0
10
95.052853
20
134.414540
70
0
0
SEQEND
8
0
0
POLYLINE
8
0
62
7
70
0
10
0.000000
20
0.000000
66
1
0
VERTEX
8
0
10
95.052853
20
134.414540
70
0
0
VERTEX
8
0
10
57.252938
20
134.414540
70
0
0
SEQEND
8
0
0
POLYLINE
8
0
62
7
70
0
10
0.000000
20
0.000000
66
1
0
VERTEX
8
0
10
57.252938
20
134.414540
70
0
0
VERTEX
8
0
10
57.252938
20
96.614625
70
0
0
SEQEND
8
0
 0 
ENDSEC
 0 
EOF